<svg width="153" height="88" viewBox="0 0 153 88" fill="none" xmlns="http://www.w3.org/2000/svg">
<path fill-rule="evenodd" clip-rule="evenodd" d="M96.2876 29.333H153V32.1043H98.2882M0 29.333H56.71L54.7113 32.1043H0V29.333Z" fill="#FF9D2D"/>
<path d="M153 76.8736V73.8391H0V76.8736H25C30.6 80.1103 32.6667 85.6398 33 88H122C123.2 81.931 127.167 78.0536 129 76.8736H153Z" fill="#EB0029"/>
<path d="M6.8 67C6.50667 67 6.26667 66.9067 6.08 66.72C5.89333 66.5333 5.8 66.2933 5.8 66V40C5.8 39.7067 5.89333 39.4667 6.08 39.28C6.26667 39.0933 6.50667 39 6.8 39H18C20.2133 39 22.1333 39.3467 23.76 40.04C25.4133 40.7067 26.6933 41.72 27.6 43.08C28.5333 44.44 29 46.16 29 48.24C29 50.2933 28.5333 51.9867 27.6 53.32C26.6933 54.6533 25.4133 55.64 23.76 56.28C22.1333 56.92 20.2133 57.24 18 57.24H13.24V66C13.24 66.2933 13.1333 66.5333 12.92 66.72C12.7333 66.9067 12.4933 67 12.2 67H6.8ZM13.12 51.72H17.8C18.9467 51.72 19.8533 51.4267 20.52 50.84C21.2133 50.2533 21.56 49.36 21.56 48.16C21.56 47.1467 21.2667 46.2933 20.68 45.6C20.0933 44.9067 19.1333 44.56 17.8 44.56H13.12V51.72ZM33.8313 67C33.5379 67 33.2979 66.9067 33.1113 66.72C32.9246 66.5333 32.8313 66.2933 32.8313 66V40C32.8313 39.7067 32.9246 39.4667 33.1113 39.28C33.2979 39.0933 33.5379 39 33.8313 39H39.1913C39.4846 39 39.7246 39.0933 39.9113 39.28C40.0979 39.4667 40.1913 39.7067 40.1913 40V66C40.1913 66.2933 40.0979 66.5333 39.9113 66.72C39.7246 66.9067 39.4846 67 39.1913 67H33.8313ZM45.52 67C45.2267 67 44.9867 66.9067 44.8 66.72C44.6133 66.5067 44.52 66.2667 44.52 66V62.08C44.52 61.7067 44.5867 61.4 44.72 61.16C44.88 60.92 45.0133 60.7467 45.12 60.64L58 44.96H45.88C45.6133 44.96 45.3733 44.8667 45.16 44.68C44.9733 44.4933 44.88 44.2533 44.88 43.96V40C44.88 39.7067 44.9733 39.4667 45.16 39.28C45.3733 39.0933 45.6133 39 45.88 39H66.04C66.3333 39 66.5733 39.0933 66.76 39.28C66.9733 39.4667 67.08 39.7067 67.08 40V43.88C67.08 44.1733 67.0267 44.4267 66.92 44.64C66.84 44.8533 66.72 45.0533 66.56 45.24L54.04 60.96H66.52C66.8133 60.96 67.0533 61.0667 67.24 61.28C67.4533 61.4667 67.56 61.7067 67.56 62V66C67.56 66.2933 67.4533 66.5333 67.24 66.72C67.0533 66.9067 66.8133 67 66.52 67H45.52ZM71.5356 67C71.2423 67 71.0023 66.9067 70.8156 66.72C70.629 66.5067 70.5356 66.2667 70.5356 66V62.08C70.5356 61.7067 70.6023 61.4 70.7356 61.16C70.8956 60.92 71.029 60.7467 71.1356 60.64L84.0156 44.96H71.8956C71.629 44.96 71.389 44.8667 71.1756 44.68C70.989 44.4933 70.8956 44.2533 70.8956 43.96V40C70.8956 39.7067 70.989 39.4667 71.1756 39.28C71.389 39.0933 71.629 39 71.8956 39H92.0556C92.349 39 92.589 39.0933 92.7756 39.28C92.989 39.4667 93.0956 39.7067 93.0956 40V43.88C93.0956 44.1733 93.0423 44.4267 92.9356 44.64C92.8556 44.8533 92.7356 45.0533 92.5756 45.24L80.0556 60.96H92.5356C92.829 60.96 93.069 61.0667 93.2556 61.28C93.469 61.4667 93.5756 61.7067 93.5756 62V66C93.5756 66.2933 93.469 66.5333 93.2556 66.72C93.069 66.9067 92.829 67 92.5356 67H71.5356ZM98.8313 67C98.5379 67 98.2979 66.9067 98.1113 66.72C97.9246 66.5333 97.8313 66.2933 97.8313 66V40C97.8313 39.7067 97.9246 39.4667 98.1113 39.28C98.2979 39.0933 98.5379 39 98.8313 39H117.511C117.805 39 118.045 39.0933 118.231 39.28C118.418 39.4667 118.511 39.7067 118.511 40V43.76C118.511 44.0533 118.418 44.2933 118.231 44.48C118.045 44.6667 117.805 44.76 117.511 44.76H104.751V50.16H116.631C116.925 50.16 117.165 50.2667 117.351 50.48C117.538 50.6667 117.631 50.9067 117.631 51.2V54.68C117.631 54.9467 117.538 55.1867 117.351 55.4C117.165 55.5867 116.925 55.68 116.631 55.68H104.751V61.24H117.831C118.125 61.24 118.365 61.3333 118.551 61.52C118.738 61.7067 118.831 61.9467 118.831 62.24V66C118.831 66.2933 118.738 66.5333 118.551 66.72C118.365 66.9067 118.125 67 117.831 67H98.8313ZM124.378 67C124.085 67 123.845 66.9067 123.658 66.72C123.471 66.5333 123.378 66.2933 123.378 66V40C123.378 39.7067 123.471 39.4667 123.658 39.28C123.845 39.0933 124.085 39 124.378 39H135.258C138.698 39 141.405 39.8 143.378 41.4C145.378 42.9733 146.378 45.2133 146.378 48.12C146.378 50.0133 145.911 51.6133 144.978 52.92C144.071 54.2267 142.871 55.2133 141.378 55.88L146.898 65.72C146.978 65.88 147.018 66.0267 147.018 66.16C147.018 66.3733 146.925 66.5733 146.738 66.76C146.578 66.92 146.378 67 146.138 67H140.858C140.351 67 139.978 66.88 139.738 66.64C139.498 66.3733 139.325 66.1333 139.218 65.92L134.658 57.12H130.538V66C130.538 66.2933 130.445 66.5333 130.258 66.72C130.071 66.9067 129.831 67 129.538 67H124.378ZM130.538 51.48H135.178C136.431 51.48 137.365 51.1733 137.978 50.56C138.618 49.9467 138.938 49.1067 138.938 48.04C138.938 47 138.631 46.16 138.018 45.52C137.431 44.88 136.485 44.56 135.178 44.56H130.538V51.48Z" fill="white"/>
<path fill-rule="evenodd" clip-rule="evenodd" d="M89.9018 14.3039C90.3909 14.8333 89.1113 15.496 84.7311 19.6128C82.1504 22.0392 82.5267 19.5611 78.5436 22.3572C75.8239 24.2665 73.185 27.0597 71.072 29.0991C69.8534 30.2771 65.1491 34.4566 64.1341 33.1175C63.117 31.7802 68.1749 28.2015 69.5995 27.2764C72.0671 25.6766 75.3894 23.7297 77.8617 21.5126C81.479 18.2674 78.9593 18.0901 81.9085 16.1203C86.914 12.7766 87.8605 11.7013 88.2747 12.2912L83.2005 16.1928C83.098 16.2734 83.0891 16.4323 83.1806 16.5446C83.3306 16.7292 83.4129 16.693 83.5306 16.6022C85.1911 15.3314 86.8501 14.0609 88.5102 12.79C88.8865 12.5005 89.1968 12.8917 88.8145 13.1935L83.9052 17.0665C83.8012 17.1471 83.8027 17.3152 83.8853 17.4169C83.9679 17.5185 84.1328 17.5565 84.2353 17.4746C85.8653 16.1675 87.4966 14.8621 89.1277 13.5547C89.4944 13.2603 89.7639 13.6155 89.4061 13.9156L84.6098 17.9371C84.4953 18.0342 84.4403 18.1038 84.59 18.2889C84.6804 18.4011 84.8375 18.4285 84.94 18.3466" fill="white"/>
<path fill-rule="evenodd" clip-rule="evenodd" d="M86.795 28.9702C88.6499 30.4392 90.5648 32.2842 89.8447 33.1286C89.0868 34.0136 86.6864 32.3863 84.8077 30.8559C83.3355 29.6547 79.7136 25.0622 78.0086 25.4285C76.9809 25.6479 77.2631 26.008 76.5791 25.4648C72.33 22.0876 68.4705 19.3746 65.1938 15.0564C64.127 13.6514 63.5768 12.0695 64.3903 12.14C65.3832 12.2293 79.3217 23.4301 79.4793 23.5522C81.8921 25.4317 85.4525 27.9064 86.795 28.9702Z" fill="white"/>
<path fill-rule="evenodd" clip-rule="evenodd" d="M74.0108 15.3305C73.322 14.5452 72.6854 13.5659 72.3747 11.9606C71.7704 8.84518 72.76 7.57724 73.6704 1.7342C73.6954 1.56718 73.9807 1.66562 74.4602 1.56718C73.43 7.97728 72.3762 9.21571 73.0584 12.7283C73.2695 13.8093 73.6067 14.6436 74.0108 15.3305ZM81.2123 0.678997C82.2769 7.24321 83.5103 8.66599 82.7799 12.1608C81.695 17.3476 77.33 16.7356 77.5755 21.7708V30.2235C77.5755 31.8951 79.6642 32.2325 80.9255 32.4566C82.3943 32.7155 82.7517 32.8412 82.7068 33.1878C82.6597 34.1829 77.9999 34.3908 77.0041 34.3908C76.0064 34.3908 71.3434 34.1825 71.2967 33.1878C71.2529 32.8412 71.6089 32.7155 73.0794 32.4566C74.3389 32.2325 76.3921 31.8955 76.3921 30.2235V21.7708C76.6358 16.7356 72.3081 17.3476 71.2246 12.1608C70.4924 8.66562 71.6914 7.23841 72.7923 0.678997C72.9415 -0.222457 81.0642 -0.2302 81.2123 0.678997Z" fill="#FF9D2D"/>
<path d="M43.6762 80.2391V80.8311H42.5082V83.8391H41.3402V78.4951C41.2228 78.5057 41.1162 78.5297 41.0202 78.5671C40.9242 78.6044 40.8415 78.6657 40.7722 78.7511C40.7082 78.8311 40.6575 78.9404 40.6202 79.0791C40.5882 79.2177 40.5722 79.3911 40.5722 79.5991C40.5722 79.7751 40.5828 79.9271 40.6042 80.0551C40.6308 80.1777 40.6602 80.2817 40.6922 80.3671C40.7295 80.4524 40.7668 80.5217 40.8042 80.5751C40.8415 80.6231 40.8735 80.6631 40.9002 80.6951C40.5375 80.6951 40.2682 80.6124 40.0922 80.4471C39.9162 80.2764 39.8282 80.0071 39.8282 79.6391C39.8282 79.3884 39.8708 79.1537 39.9562 78.9351C40.0415 78.7164 40.1748 78.5271 40.3562 78.3671C40.5375 78.2017 40.7668 78.0737 41.0442 77.9831C41.3268 77.8871 41.6628 77.8391 42.0522 77.8391C42.1855 77.8391 42.3108 77.8444 42.4282 77.8551C42.5508 77.8657 42.6682 77.8764 42.7802 77.8871C42.8922 77.8977 43.0068 77.9084 43.1242 77.9191C43.2415 77.9297 43.3668 77.9351 43.5002 77.9351C43.6335 77.9351 43.7588 77.9297 43.8762 77.9191C43.9935 77.9031 44.1055 77.8764 44.2122 77.8391C44.2122 78.0524 44.1935 78.2231 44.1562 78.3511C44.1188 78.4737 44.0682 78.5697 44.0042 78.6391C43.9402 78.7031 43.8655 78.7457 43.7802 78.7671C43.7002 78.7884 43.6148 78.7991 43.5242 78.7991C43.3748 78.7991 43.2122 78.7857 43.0362 78.7591C42.8655 78.7271 42.6895 78.6924 42.5082 78.6551V80.2391H43.6762ZM47.3947 79.8391V82.5591C47.3947 82.7831 47.424 82.9324 47.4827 83.0071C47.5467 83.0764 47.656 83.1111 47.8107 83.1111C47.9653 83.1111 48.0933 83.0444 48.1947 82.9111C48.3013 82.7777 48.3627 82.6097 48.3787 82.4071H48.7147C48.672 82.7324 48.5973 82.9937 48.4907 83.1911C48.384 83.3831 48.264 83.5324 48.1307 83.6391C47.9973 83.7404 47.8613 83.8071 47.7227 83.8391C47.584 83.8711 47.4613 83.8871 47.3547 83.8871C47.072 83.8871 46.856 83.8231 46.7067 83.6951C46.5627 83.5617 46.4613 83.3804 46.4027 83.1511C46.36 83.2417 46.3093 83.3324 46.2507 83.4231C46.192 83.5084 46.12 83.5857 46.0347 83.6551C45.9547 83.7244 45.8587 83.7804 45.7467 83.8231C45.64 83.8657 45.5147 83.8871 45.3707 83.8871C45.2 83.8871 45.032 83.8551 44.8667 83.7911C44.7013 83.7271 44.5493 83.6231 44.4107 83.4791C44.2773 83.3351 44.168 83.1457 44.0827 82.9111C44.0027 82.6711 43.9627 82.3777 43.9627 82.0311C43.9627 81.7857 43.9893 81.5324 44.0427 81.2711C44.1013 81.0097 44.1893 80.7697 44.3067 80.5511C44.4293 80.3324 44.5867 80.1537 44.7787 80.0151C44.976 79.8711 45.2133 79.7991 45.4907 79.7991C45.5547 79.7991 45.624 79.8044 45.6987 79.8151C45.7733 79.8204 45.8453 79.8391 45.9147 79.8711C45.984 79.8977 46.048 79.9404 46.1067 79.9991C46.1653 80.0524 46.2107 80.1271 46.2427 80.2231V79.8391H47.3947ZM46.2427 80.6071C46.2373 80.5857 46.2267 80.5591 46.2107 80.5271C46.1947 80.4897 46.1707 80.4551 46.1387 80.4231C46.1067 80.3857 46.0667 80.3564 46.0187 80.3351C45.9707 80.3084 45.9147 80.2951 45.8507 80.2951C45.7227 80.2951 45.6107 80.3511 45.5147 80.4631C45.424 80.5697 45.3493 80.7057 45.2907 80.8711C45.2373 81.0311 45.1973 81.2097 45.1707 81.4071C45.144 81.5991 45.1307 81.7831 45.1307 81.9591C45.1307 82.2417 45.152 82.4631 45.1947 82.6231C45.2373 82.7777 45.288 82.8924 45.3467 82.9671C45.4107 83.0364 45.4773 83.0791 45.5467 83.0951C45.616 83.1057 45.6747 83.1111 45.7227 83.1111C45.7813 83.1111 45.84 83.0977 45.8987 83.0711C45.9627 83.0391 46.0187 82.9937 46.0667 82.9351C46.12 82.8764 46.1627 82.8044 46.1947 82.7191C46.2267 82.6284 46.2427 82.5244 46.2427 82.4071V80.6071ZM51.7016 82.4071C51.5363 82.6577 51.3603 82.8631 51.1736 83.0231C50.9869 83.1831 50.8136 83.3191 50.6536 83.4311C50.5149 83.5964 50.3416 83.7137 50.1336 83.7831C49.9256 83.8524 49.7256 83.8871 49.5336 83.8871C49.2989 83.8871 49.0936 83.8497 48.9176 83.7751C48.7416 83.7004 48.5949 83.6071 48.4776 83.4951C48.3603 83.3777 48.2723 83.2497 48.2136 83.1111C48.1549 82.9671 48.1256 82.8311 48.1256 82.7031C48.1256 82.5591 48.1523 82.4364 48.2056 82.3351C48.2643 82.2337 48.3363 82.1617 48.4216 82.1191C48.5763 81.7191 48.7043 81.3244 48.8056 80.9351C48.9123 80.5404 48.9869 80.1457 49.0296 79.7511L50.1816 79.5911C50.3149 80.1084 50.4269 80.5297 50.5176 80.8551C50.6083 81.1751 50.6803 81.4444 50.7336 81.6631C50.7869 81.8764 50.8243 82.0631 50.8456 82.2231C50.8669 82.3831 50.8776 82.5617 50.8776 82.7591V82.8071C51.0696 82.6737 51.2323 82.5404 51.3656 82.4071H51.7016ZM49.0536 82.4791C49.0536 82.5591 49.0296 82.6337 48.9816 82.7031C48.9336 82.7671 48.8643 82.7991 48.7736 82.7991C48.7309 82.7991 48.6856 82.7937 48.6376 82.7831C48.5949 82.7671 48.5603 82.7377 48.5336 82.6951C48.5763 82.8817 48.6429 83.0231 48.7336 83.1191C48.8296 83.2097 48.9656 83.2551 49.1416 83.2551C49.2963 83.2551 49.4296 83.2151 49.5416 83.1351C49.6536 83.0497 49.7096 82.9031 49.7096 82.6951C49.7096 82.5511 49.7016 82.4231 49.6856 82.3111C49.6696 82.1937 49.6429 82.0631 49.6056 81.9191C49.5736 81.7751 49.5283 81.6044 49.4696 81.4071C49.4163 81.2097 49.3496 80.9617 49.2696 80.6631C49.2163 80.9191 49.1496 81.1671 49.0696 81.4071C48.9949 81.6417 48.9149 81.8871 48.8296 82.1431C48.8883 82.1697 48.9389 82.2124 48.9816 82.2711C49.0296 82.3244 49.0536 82.3937 49.0536 82.4791ZM52.5483 78.5751V79.8391H53.0283V80.1591H52.5483V82.5591C52.5483 82.7831 52.5776 82.9324 52.6363 83.0071C52.7003 83.0764 52.8096 83.1111 52.9643 83.1111C53.0229 83.1111 53.0683 83.1057 53.1003 83.0951C53.1376 83.0791 53.1669 83.0631 53.1883 83.0471C53.1936 83.0737 53.1963 83.1031 53.1963 83.1351C53.1963 83.1617 53.1963 83.1884 53.1963 83.2151C53.1963 83.4391 53.1296 83.6071 52.9963 83.7191C52.8683 83.8311 52.7056 83.8871 52.5083 83.8871C52.0976 83.8871 51.8096 83.7751 51.6443 83.5511C51.4789 83.3217 51.3963 83.0204 51.3963 82.6471V80.1591H51.1403V79.8391H51.3963V78.7351L52.5483 78.5751ZM58.9808 80.2391V80.8311H57.8128V83.8391H56.6448V78.4951C56.5275 78.5057 56.4208 78.5297 56.3248 78.5671C56.2288 78.6044 56.1462 78.6657 56.0768 78.7511C56.0128 78.8311 55.9622 78.9404 55.9248 79.0791C55.8928 79.2177 55.8768 79.3911 55.8768 79.5991C55.8768 79.7751 55.8875 79.9271 55.9088 80.0551C55.9355 80.1777 55.9648 80.2817 55.9968 80.3671C56.0342 80.4524 56.0715 80.5217 56.1088 80.5751C56.1462 80.6231 56.1782 80.6631 56.2048 80.6951C55.8422 80.6951 55.5728 80.6124 55.3968 80.4471C55.2208 80.2764 55.1328 80.0071 55.1328 79.6391C55.1328 79.3884 55.1755 79.1537 55.2608 78.9351C55.3462 78.7164 55.4795 78.5271 55.6608 78.3671C55.8422 78.2017 56.0715 78.0737 56.3488 77.9831C56.6315 77.8871 56.9675 77.8391 57.3568 77.8391C57.4902 77.8391 57.6155 77.8444 57.7328 77.8551C57.8555 77.8657 57.9728 77.8764 58.0848 77.8871C58.1968 77.8977 58.3115 77.9084 58.4288 77.9191C58.5462 77.9297 58.6715 77.9351 58.8048 77.9351C58.9382 77.9351 59.0635 77.9297 59.1808 77.9191C59.2982 77.9031 59.4102 77.8764 59.5168 77.8391C59.5168 78.0524 59.4982 78.2231 59.4608 78.3511C59.4235 78.4737 59.3728 78.5697 59.3088 78.6391C59.2448 78.7031 59.1702 78.7457 59.0848 78.7671C59.0048 78.7884 58.9195 78.7991 58.8288 78.7991C58.6795 78.7991 58.5168 78.7857 58.3408 78.7591C58.1702 78.7271 57.9942 78.6924 57.8128 78.6551V80.2391H58.9808ZM60.9715 79.7991C61.3395 79.7991 61.6329 79.9004 61.8515 80.1031C62.0702 80.3004 62.2115 80.6204 62.2755 81.0631H62.3315C62.4062 81.0631 62.4889 81.0497 62.5795 81.0231C62.6755 80.9964 62.7742 80.9617 62.8755 80.9191C62.9769 80.8764 63.0755 80.8257 63.1715 80.7671C63.2675 80.7084 63.3529 80.6471 63.4275 80.5831L63.5475 80.7991C63.4889 80.8844 63.4142 80.9617 63.3235 81.0311C63.2382 81.1004 63.1395 81.1644 63.0275 81.2231C62.9155 81.2764 62.7982 81.3244 62.6755 81.3671C62.5529 81.4044 62.4302 81.4337 62.3075 81.4551C62.3129 81.4924 62.3155 81.5297 62.3155 81.5671C62.3155 81.5991 62.3155 81.6337 62.3155 81.6711C62.3155 81.9804 62.2889 82.2711 62.2355 82.5431C62.1822 82.8097 62.0915 83.0444 61.9635 83.2471C61.8409 83.4444 61.6809 83.6017 61.4835 83.7191C61.2862 83.8311 61.0435 83.8871 60.7555 83.8871C60.5582 83.8871 60.3689 83.8577 60.1875 83.7991C60.0115 83.7351 59.8542 83.6337 59.7155 83.4951C59.5769 83.3511 59.4649 83.1644 59.3795 82.9351C59.2995 82.7004 59.2595 82.4151 59.2595 82.0791C59.2595 81.8497 59.2835 81.6044 59.3315 81.3431C59.3795 81.0764 59.4675 80.8284 59.5955 80.5991C59.7235 80.3697 59.8969 80.1804 60.1155 80.0311C60.3395 79.8764 60.6249 79.7991 60.9715 79.7991ZM60.9795 83.1351C61.0915 83.1351 61.1875 83.0977 61.2675 83.0231C61.3529 82.9431 61.4222 82.8364 61.4755 82.7031C61.5289 82.5644 61.5662 82.4017 61.5875 82.2151C61.6142 82.0284 61.6275 81.8257 61.6275 81.6071V81.4871C61.4942 81.4604 61.4089 81.4097 61.3715 81.3351C61.3342 81.2604 61.3155 81.1777 61.3155 81.0871C61.3155 80.9751 61.3342 80.8897 61.3715 80.8311C61.4089 80.7724 61.4569 80.7324 61.5155 80.7111C61.4569 80.5297 61.3849 80.4124 61.2995 80.3591C61.2195 80.3057 61.1502 80.2791 61.0915 80.2791C60.9742 80.2791 60.8729 80.3351 60.7875 80.4471C60.7075 80.5537 60.6409 80.6924 60.5875 80.8631C60.5342 81.0284 60.4942 81.2124 60.4675 81.4151C60.4462 81.6177 60.4355 81.8124 60.4355 81.9991C60.4355 82.2391 60.4515 82.4337 60.4835 82.5831C60.5209 82.7324 60.5662 82.8471 60.6195 82.9271C60.6729 83.0071 60.7315 83.0631 60.7955 83.0951C60.8595 83.1217 60.9209 83.1351 60.9795 83.1351ZM64.4872 79.7991C64.8552 79.7991 65.1485 79.9004 65.3672 80.1031C65.5858 80.3004 65.7272 80.6204 65.7912 81.0631H65.8472C65.9218 81.0631 66.0045 81.0497 66.0952 81.0231C66.1912 80.9964 66.2898 80.9617 66.3912 80.9191C66.4925 80.8764 66.5912 80.8257 66.6872 80.7671C66.7832 80.7084 66.8685 80.6471 66.9432 80.5831L67.0632 80.7991C67.0045 80.8844 66.9298 80.9617 66.8392 81.0311C66.7538 81.1004 66.6552 81.1644 66.5432 81.2231C66.4312 81.2764 66.3138 81.3244 66.1912 81.3671C66.0685 81.4044 65.9458 81.4337 65.8232 81.4551C65.8285 81.4924 65.8312 81.5297 65.8312 81.5671C65.8312 81.5991 65.8312 81.6337 65.8312 81.6711C65.8312 81.9804 65.8045 82.2711 65.7512 82.5431C65.6978 82.8097 65.6072 83.0444 65.4792 83.2471C65.3565 83.4444 65.1965 83.6017 64.9992 83.7191C64.8018 83.8311 64.5592 83.8871 64.2712 83.8871C64.0738 83.8871 63.8845 83.8577 63.7032 83.7991C63.5272 83.7351 63.3698 83.6337 63.2312 83.4951C63.0925 83.3511 62.9805 83.1644 62.8952 82.9351C62.8152 82.7004 62.7752 82.4151 62.7752 82.0791C62.7752 81.8497 62.7992 81.6044 62.8472 81.3431C62.8952 81.0764 62.9832 80.8284 63.1112 80.5991C63.2392 80.3697 63.4125 80.1804 63.6312 80.0311C63.8552 79.8764 64.1405 79.7991 64.4872 79.7991ZM64.4952 83.1351C64.6072 83.1351 64.7032 83.0977 64.7832 83.0231C64.8685 82.9431 64.9378 82.8364 64.9912 82.7031C65.0445 82.5644 65.0818 82.4017 65.1032 82.2151C65.1298 82.0284 65.1432 81.8257 65.1432 81.6071V81.4871C65.0098 81.4604 64.9245 81.4097 64.8872 81.3351C64.8498 81.2604 64.8312 81.1777 64.8312 81.0871C64.8312 80.9751 64.8498 80.8897 64.8872 80.8311C64.9245 80.7724 64.9725 80.7324 65.0312 80.7111C64.9725 80.5297 64.9005 80.4124 64.8152 80.3591C64.7352 80.3057 64.6658 80.2791 64.6072 80.2791C64.4898 80.2791 64.3885 80.3351 64.3032 80.4471C64.2232 80.5537 64.1565 80.6924 64.1032 80.8631C64.0498 81.0284 64.0098 81.2124 63.9832 81.4151C63.9618 81.6177 63.9512 81.8124 63.9512 81.9991C63.9512 82.2391 63.9672 82.4337 63.9992 82.5831C64.0365 82.7324 64.0818 82.8471 64.1352 82.9271C64.1885 83.0071 64.2472 83.0631 64.3112 83.0951C64.3752 83.1217 64.4365 83.1351 64.4952 83.1351ZM69.7228 78.2391V82.5591C69.7228 82.7831 69.7521 82.9324 69.8108 83.0071C69.8748 83.0764 69.9841 83.1111 70.1388 83.1111C70.2028 83.1111 70.2561 83.1004 70.2988 83.0791C70.2508 83.3777 70.1814 83.5884 70.0908 83.7111C70.0054 83.8284 69.8508 83.8871 69.6268 83.8871C69.3601 83.8871 69.1574 83.8204 69.0188 83.6871C68.8801 83.5537 68.7841 83.3751 68.7308 83.1511C68.6881 83.2417 68.6374 83.3324 68.5788 83.4231C68.5201 83.5084 68.4481 83.5857 68.3628 83.6551C68.2828 83.7244 68.1868 83.7804 68.0748 83.8231C67.9681 83.8657 67.8428 83.8871 67.6988 83.8871C67.5281 83.8871 67.3601 83.8551 67.1948 83.7911C67.0294 83.7271 66.8774 83.6231 66.7388 83.4791C66.6054 83.3351 66.4961 83.1457 66.4108 82.9111C66.3308 82.6711 66.2908 82.3777 66.2908 82.0311C66.2908 81.7857 66.3174 81.5324 66.3708 81.2711C66.4294 81.0097 66.5174 80.7697 66.6348 80.5511C66.7574 80.3324 66.9148 80.1537 67.1068 80.0151C67.3041 79.8711 67.5414 79.7991 67.8188 79.7991C67.8828 79.7991 67.9521 79.8044 68.0268 79.8151C68.1014 79.8204 68.1734 79.8391 68.2428 79.8711C68.3121 79.8977 68.3761 79.9404 68.4348 79.9991C68.4934 80.0524 68.5388 80.1271 68.5708 80.2231V78.3991L69.7228 78.2391ZM68.1788 80.2951C68.0508 80.2951 67.9388 80.3511 67.8428 80.4631C67.7521 80.5697 67.6774 80.7057 67.6188 80.8711C67.5654 81.0311 67.5254 81.2097 67.4988 81.4071C67.4721 81.5991 67.4588 81.7831 67.4588 81.9591C67.4588 82.2417 67.4801 82.4631 67.5228 82.6231C67.5654 82.7777 67.6161 82.8924 67.6748 82.9671C67.7388 83.0364 67.8054 83.0791 67.8748 83.0951C67.9441 83.1057 68.0028 83.1111 68.0508 83.1111C68.1094 83.1111 68.1681 83.0977 68.2268 83.0711C68.2908 83.0391 68.3468 82.9937 68.3948 82.9351C68.4481 82.8764 68.4908 82.8044 68.5228 82.7191C68.5548 82.6337 68.5708 82.5324 68.5708 82.4151V80.5991C68.5601 80.5777 68.5468 80.5511 68.5308 80.5191C68.5148 80.4817 68.4908 80.4471 68.4588 80.4151C68.4268 80.3831 68.3868 80.3564 68.3388 80.3351C68.2961 80.3084 68.2428 80.2951 68.1788 80.2951ZM77.339 80.5351C77.3496 80.5884 77.355 80.6311 77.355 80.6631C77.355 80.7697 77.3283 80.8764 77.275 80.9831C77.227 81.0897 77.1576 81.1884 77.067 81.2791C76.9763 81.3697 76.8696 81.4497 76.747 81.5191C76.6243 81.5831 76.4883 81.6257 76.339 81.6471C76.3336 81.9724 76.2776 82.2764 76.171 82.5591C76.0696 82.8417 75.9256 83.0897 75.739 83.3031C75.5523 83.5111 75.323 83.6764 75.051 83.7991C74.7843 83.9217 74.483 83.9831 74.147 83.9831C73.843 83.9831 73.5763 83.9351 73.347 83.8391C73.123 83.7377 72.9336 83.6044 72.779 83.4391C72.6296 83.2737 72.5176 83.0844 72.443 82.8711C72.3683 82.6577 72.331 82.4391 72.331 82.2151C72.331 82.0337 72.3523 81.8524 72.395 81.6711C72.443 81.4844 72.5123 81.3137 72.603 81.1591C72.6936 80.9991 72.8056 80.8631 72.939 80.7511C73.0776 80.6337 73.2376 80.5511 73.419 80.5031C73.163 80.3431 72.9763 80.1591 72.859 79.9511C72.747 79.7431 72.691 79.5217 72.691 79.2871C72.691 79.1057 72.723 78.9271 72.787 78.7511C72.851 78.5751 72.9443 78.4204 73.067 78.2871C73.195 78.1484 73.347 78.0364 73.523 77.9511C73.699 77.8657 73.899 77.8231 74.123 77.8231C74.3683 77.8231 74.5763 77.8551 74.747 77.9191C74.9176 77.9831 75.0563 78.0657 75.163 78.1671C75.2696 78.2684 75.347 78.3831 75.395 78.5111C75.443 78.6391 75.467 78.7671 75.467 78.8951C75.467 78.9857 75.4563 79.0764 75.435 79.1671C75.419 79.2524 75.3923 79.3297 75.355 79.3991C75.3176 79.4684 75.2723 79.5244 75.219 79.5671C75.1656 79.6044 75.1043 79.6231 75.035 79.6231C74.9763 79.6231 74.9176 79.6124 74.859 79.5911C74.8003 79.5644 74.7363 79.5137 74.667 79.4391C74.7416 79.3964 74.795 79.3244 74.827 79.2231C74.859 79.1164 74.875 79.0044 74.875 78.8871C74.875 78.7591 74.8563 78.6551 74.819 78.5751C74.7816 78.4897 74.7336 78.4257 74.675 78.3831C74.6216 78.3404 74.5603 78.3111 74.491 78.2951C74.427 78.2791 74.363 78.2711 74.299 78.2711C74.203 78.2711 74.1176 78.2977 74.043 78.3511C73.9683 78.3991 73.9043 78.4657 73.851 78.5511C73.7976 78.6364 73.7576 78.7351 73.731 78.8471C73.7043 78.9537 73.691 79.0657 73.691 79.1831C73.691 79.3217 73.7123 79.4604 73.755 79.5991C73.7976 79.7324 73.8616 79.8577 73.947 79.9751C74.0323 80.0924 74.1416 80.1964 74.275 80.2871C74.4083 80.3777 74.5683 80.4471 74.755 80.4951C74.5843 80.5377 74.4323 80.6151 74.299 80.7271C74.1656 80.8337 74.0536 80.9644 73.963 81.1191C73.8776 81.2684 73.811 81.4311 73.763 81.6071C73.7203 81.7831 73.699 81.9537 73.699 82.1191C73.699 82.2631 73.7176 82.4017 73.755 82.5351C73.7923 82.6684 73.8483 82.7857 73.923 82.8871C74.003 82.9884 74.1043 83.0684 74.227 83.1271C74.3496 83.1857 74.4963 83.2151 74.667 83.2151C75.115 83.2151 75.4456 83.0897 75.659 82.8391C75.8776 82.5831 76.011 82.1911 76.059 81.6631C75.947 81.6577 75.8376 81.6497 75.731 81.6391C75.6243 81.6231 75.5203 81.6151 75.419 81.6151C75.067 81.6151 74.843 81.7351 74.747 81.9751L74.691 81.9671C74.7016 81.6364 74.8163 81.3671 75.035 81.1591C75.259 80.9457 75.579 80.8391 75.995 80.8391C76.107 80.8391 76.211 80.8471 76.307 80.8631C76.4083 80.8737 76.5096 80.8791 76.611 80.8791C76.7603 80.8791 76.899 80.8524 77.027 80.7991C77.1603 80.7457 77.2483 80.6577 77.291 80.5351H77.339ZM81.9771 78.5911V80.4391H82.0411C82.1798 80.4391 82.3024 80.4071 82.4091 80.3431C82.5211 80.2737 82.6144 80.1831 82.6891 80.0711C82.7638 79.9591 82.8198 79.8337 82.8571 79.6951C82.8944 79.5511 82.9131 79.4044 82.9131 79.2551C82.9131 79.1537 82.8998 79.0417 82.8731 78.9191C82.8464 78.7964 82.7904 78.6844 82.7051 78.5831C82.6251 78.4764 82.5051 78.3884 82.3451 78.3191C82.1904 78.2444 81.9824 78.2071 81.7211 78.2071C81.4758 78.2071 81.2491 78.2417 81.0411 78.3111C80.8384 78.3804 80.6624 78.4844 80.5131 78.6231C80.3638 78.7564 80.2464 78.9244 80.1611 79.1271C80.0758 79.3244 80.0331 79.5537 80.0331 79.8151C80.0331 79.9644 80.0438 80.0924 80.0651 80.1991C80.0918 80.3004 80.1211 80.3857 80.1531 80.4551C80.1851 80.5191 80.2144 80.5697 80.2411 80.6071C80.2731 80.6444 80.2944 80.6737 80.3051 80.6951C79.9851 80.6951 79.7318 80.6204 79.5451 80.4711C79.3584 80.3217 79.2651 80.0871 79.2651 79.7671C79.2651 79.5057 79.3264 79.2604 79.4491 79.0311C79.5718 78.7964 79.7451 78.5911 79.9691 78.4151C80.1931 78.2391 80.4598 78.1004 80.7691 77.9991C81.0838 77.8924 81.4304 77.8391 81.8091 77.8391C82.0971 77.8391 82.3611 77.8711 82.6011 77.9351C82.8411 77.9991 83.0464 78.0924 83.2171 78.2151C83.3931 78.3377 83.5291 78.4897 83.6251 78.6711C83.7211 78.8524 83.7691 79.0577 83.7691 79.2871C83.7691 79.5217 83.7158 79.7457 83.6091 79.9591C83.5078 80.1724 83.3558 80.3484 83.1531 80.4871C83.4144 80.5511 83.6091 80.6844 83.7371 80.8871C83.8704 81.0897 83.9371 81.3857 83.9371 81.7751C83.9371 81.8497 83.9344 81.9431 83.9291 82.0551C83.9238 82.1617 83.9184 82.2711 83.9131 82.3831C83.9131 82.4951 83.9104 82.6017 83.9051 82.7031C83.8998 82.8044 83.8971 82.8871 83.8971 82.9511C83.8971 83.2124 83.9371 83.4124 84.0171 83.5511C84.1024 83.6897 84.2144 83.7857 84.3531 83.8391C84.1931 83.8871 84.0491 83.9217 83.9211 83.9431C83.7931 83.9644 83.6784 83.9751 83.5771 83.9751C83.3158 83.9751 83.1238 83.9057 83.0011 83.7671C82.8784 83.6231 82.8171 83.3964 82.8171 83.0871C82.8171 83.0124 82.8198 82.9191 82.8251 82.8071C82.8304 82.6951 82.8358 82.5777 82.8411 82.4551C82.8518 82.3324 82.8598 82.2124 82.8651 82.0951C82.8704 81.9724 82.8731 81.8631 82.8731 81.7671C82.8731 81.4737 82.8278 81.2391 82.7371 81.0631C82.6518 80.8817 82.4864 80.7911 82.2411 80.7911C82.1504 80.7911 82.0624 80.8017 81.9771 80.8231V83.8391H80.8251V78.7511L81.9771 78.5911ZM86.5164 83.2151C86.6764 83.2151 86.8177 83.1937 86.9404 83.1511C87.0631 83.1084 87.1724 83.0524 87.2684 82.9831C87.3644 82.9084 87.4524 82.8231 87.5324 82.7271C87.6124 82.6257 87.6897 82.5191 87.7644 82.4071H88.0364C87.9617 82.5937 87.8711 82.7751 87.7644 82.9511C87.6631 83.1271 87.5351 83.2844 87.3804 83.4231C87.2311 83.5617 87.0551 83.6737 86.8524 83.7591C86.6497 83.8444 86.4124 83.8871 86.1404 83.8871C85.9111 83.8871 85.7004 83.8524 85.5084 83.7831C85.3164 83.7137 85.1484 83.6071 85.0044 83.4631C84.8657 83.3137 84.7564 83.1244 84.6764 82.8951C84.6017 82.6604 84.5644 82.3804 84.5644 82.0551C84.5644 81.8257 84.5884 81.5804 84.6364 81.3191C84.6897 81.0524 84.7804 80.8071 84.9084 80.5831C85.0364 80.3591 85.2097 80.1724 85.4284 80.0231C85.6471 79.8737 85.9244 79.7991 86.2604 79.7991C86.5164 79.7991 86.7137 79.8391 86.8524 79.9191C86.9911 79.9991 87.0924 80.0924 87.1564 80.1991C87.2257 80.3057 87.2657 80.4097 87.2764 80.5111C87.2924 80.6124 87.3004 80.6844 87.3004 80.7271C87.3004 80.9671 87.2551 81.1777 87.1644 81.3591C87.0791 81.5404 86.9617 81.6951 86.8124 81.8231C86.6684 81.9457 86.5004 82.0417 86.3084 82.1111C86.1217 82.1751 85.9297 82.2124 85.7324 82.2231C85.7377 82.5804 85.7964 82.8364 85.9084 82.9911C86.0257 83.1404 86.2284 83.2151 86.5164 83.2151ZM86.6844 80.7351C86.6844 80.5484 86.6524 80.4177 86.5884 80.3431C86.5244 80.2631 86.4551 80.2231 86.3804 80.2231C86.2897 80.2231 86.2071 80.2684 86.1324 80.3591C86.0577 80.4444 85.9911 80.5617 85.9324 80.7111C85.8791 80.8551 85.8337 81.0257 85.7964 81.2231C85.7644 81.4204 85.7431 81.6257 85.7324 81.8391C85.8657 81.8284 85.9911 81.7937 86.1084 81.7351C86.2257 81.6711 86.3271 81.5911 86.4124 81.4951C86.4977 81.3937 86.5644 81.2791 86.6124 81.1511C86.6604 81.0231 86.6844 80.8844 86.6844 80.7351ZM91.1547 82.4071C90.9894 82.6577 90.8134 82.8631 90.6267 83.0231C90.4401 83.1831 90.2667 83.3191 90.1067 83.4311C89.9681 83.5964 89.7947 83.7137 89.5867 83.7831C89.3787 83.8524 89.1787 83.8871 88.9867 83.8871C88.7521 83.8871 88.5467 83.8497 88.3707 83.7751C88.1947 83.7004 88.0481 83.6071 87.9307 83.4951C87.8134 83.3777 87.7254 83.2497 87.6667 83.1111C87.6081 82.9671 87.5787 82.8311 87.5787 82.7031C87.5787 82.5591 87.6054 82.4364 87.6587 82.3351C87.7174 82.2337 87.7894 82.1617 87.8747 82.1191C88.0294 81.7191 88.1574 81.3244 88.2587 80.9351C88.3654 80.5404 88.4401 80.1457 88.4827 79.7511L89.6347 79.5911C89.7681 80.1084 89.8801 80.5297 89.9707 80.8551C90.0614 81.1751 90.1334 81.4444 90.1867 81.6631C90.2401 81.8764 90.2774 82.0631 90.2987 82.2231C90.3201 82.3831 90.3307 82.5617 90.3307 82.7591V82.8071C90.5227 82.6737 90.6854 82.5404 90.8187 82.4071H91.1547ZM88.5067 82.4791C88.5067 82.5591 88.4827 82.6337 88.4347 82.7031C88.3867 82.7671 88.3174 82.7991 88.2267 82.7991C88.1841 82.7991 88.1387 82.7937 88.0907 82.7831C88.0481 82.7671 88.0134 82.7377 87.9867 82.6951C88.0294 82.8817 88.0961 83.0231 88.1867 83.1191C88.2827 83.2097 88.4187 83.2551 88.5947 83.2551C88.7494 83.2551 88.8827 83.2151 88.9947 83.1351C89.1067 83.0497 89.1627 82.9031 89.1627 82.6951C89.1627 82.5511 89.1547 82.4231 89.1387 82.3111C89.1227 82.1937 89.0961 82.0631 89.0587 81.9191C89.0267 81.7751 88.9814 81.6044 88.9227 81.4071C88.8694 81.2097 88.8027 80.9617 88.7227 80.6631C88.6694 80.9191 88.6027 81.1671 88.5227 81.4071C88.4481 81.6417 88.3681 81.8871 88.2827 82.1431C88.3414 82.1697 88.3921 82.2124 88.4347 82.2711C88.4827 82.3244 88.5067 82.3937 88.5067 82.4791ZM91.9694 78.5751V79.8391H92.4574V80.1591H91.9694V82.5591C91.9694 82.7831 91.9987 82.9324 92.0574 83.0071C92.1214 83.0764 92.2307 83.1111 92.3854 83.1111C92.5401 83.1111 92.6681 83.0444 92.7694 82.9111C92.8761 82.7777 92.9374 82.6097 92.9534 82.4071H93.2894C93.2467 82.7324 93.1721 82.9937 93.0654 83.1911C92.9587 83.3831 92.8387 83.5324 92.7054 83.6391C92.5721 83.7404 92.4361 83.8071 92.2974 83.8391C92.1587 83.8711 92.0361 83.8871 91.9294 83.8871C91.5187 83.8871 91.2307 83.7751 91.0654 83.5511C90.9001 83.3217 90.8174 83.0204 90.8174 82.6471V80.1591H90.5614V79.8391H90.8174V78.7351L91.9694 78.5751ZM96.2462 79.8391V82.5591C96.2462 82.7831 96.2756 82.9324 96.3342 83.0071C96.3982 83.0764 96.5076 83.1111 96.6622 83.1111C96.8169 83.1111 96.9449 83.0444 97.0462 82.9111C97.1529 82.7777 97.2142 82.6097 97.2302 82.4071H97.5662C97.5236 82.7324 97.4489 82.9937 97.3422 83.1911C97.2356 83.3831 97.1156 83.5324 96.9822 83.6391C96.8489 83.7404 96.7129 83.8071 96.5742 83.8391C96.4356 83.8711 96.3129 83.8871 96.2062 83.8871C95.9236 83.8871 95.7076 83.8231 95.5582 83.6951C95.4142 83.5617 95.3129 83.3804 95.2542 83.1511C95.2116 83.2417 95.1609 83.3324 95.1022 83.4231C95.0436 83.5084 94.9716 83.5857 94.8862 83.6551C94.8062 83.7244 94.7102 83.7804 94.5982 83.8231C94.4916 83.8657 94.3662 83.8871 94.2222 83.8871C94.0516 83.8871 93.8836 83.8551 93.7182 83.7911C93.5529 83.7271 93.4009 83.6231 93.2622 83.4791C93.1289 83.3351 93.0196 83.1457 92.9342 82.9111C92.8542 82.6711 92.8142 82.3777 92.8142 82.0311C92.8142 81.7857 92.8409 81.5324 92.8942 81.2711C92.9529 81.0097 93.0409 80.7697 93.1582 80.5511C93.2809 80.3324 93.4382 80.1537 93.6302 80.0151C93.8276 79.8711 94.0649 79.7991 94.3422 79.7991C94.4062 79.7991 94.4756 79.8044 94.5502 79.8151C94.6249 79.8204 94.6969 79.8391 94.7662 79.8711C94.8356 79.8977 94.8996 79.9404 94.9582 79.9991C95.0169 80.0524 95.0622 80.1271 95.0942 80.2231V79.8391H96.2462ZM95.0942 80.6071C95.0889 80.5857 95.0782 80.5591 95.0622 80.5271C95.0462 80.4897 95.0222 80.4551 94.9902 80.4231C94.9582 80.3857 94.9182 80.3564 94.8702 80.3351C94.8222 80.3084 94.7662 80.2951 94.7022 80.2951C94.5742 80.2951 94.4622 80.3511 94.3662 80.4631C94.2756 80.5697 94.2009 80.7057 94.1422 80.8711C94.0889 81.0311 94.0489 81.2097 94.0222 81.4071C93.9956 81.5991 93.9822 81.7831 93.9822 81.9591C93.9822 82.2417 94.0036 82.4631 94.0462 82.6231C94.0889 82.7777 94.1396 82.8924 94.1982 82.9671C94.2622 83.0364 94.3289 83.0791 94.3982 83.0951C94.4676 83.1057 94.5262 83.1111 94.5742 83.1111C94.6329 83.1111 94.6916 83.0977 94.7502 83.0711C94.8142 83.0391 94.8702 82.9937 94.9182 82.9351C94.9716 82.8764 95.0142 82.8044 95.0462 82.7191C95.0782 82.6284 95.0942 82.5244 95.0942 82.4071V80.6071ZM100.297 79.8391V82.5591C100.297 82.7617 100.324 82.9057 100.377 82.9911C100.43 83.0711 100.526 83.1111 100.665 83.1111C100.868 83.1111 101.014 83.0417 101.105 82.9031C101.201 82.7644 101.26 82.5991 101.281 82.4071H101.617C101.574 82.7324 101.5 82.9937 101.393 83.1911C101.286 83.3831 101.166 83.5324 101.033 83.6391C100.9 83.7404 100.764 83.8071 100.625 83.8391C100.486 83.8711 100.361 83.8871 100.249 83.8871C99.9612 83.8871 99.7425 83.8204 99.5932 83.6871C99.4492 83.5537 99.3505 83.3671 99.2972 83.1271C99.2332 83.2977 99.1558 83.4337 99.0652 83.5351C98.9745 83.6311 98.8812 83.7057 98.7852 83.7591C98.6892 83.8124 98.5932 83.8471 98.4972 83.8631C98.4012 83.8791 98.3132 83.8871 98.2332 83.8871C97.8545 83.8871 97.5798 83.7751 97.4092 83.5511C97.2438 83.3271 97.1612 83.0257 97.1612 82.6471V79.8391H98.3132V82.5591C98.3132 82.7617 98.3398 82.9057 98.3932 82.9911C98.4518 83.0711 98.5345 83.1111 98.6412 83.1111C98.7852 83.1111 98.9052 83.0444 99.0012 82.9111C99.0972 82.7777 99.1452 82.6097 99.1452 82.4071V79.8391H100.297ZM102.352 79.8391V80.3351C102.47 80.1964 102.6 80.0737 102.744 79.9671C102.888 79.8551 103.046 79.7991 103.216 79.7991C103.318 79.7991 103.408 79.8204 103.488 79.8631C103.574 79.9057 103.646 79.9617 103.704 80.0311C103.768 80.1004 103.816 80.1777 103.848 80.2631C103.886 80.3431 103.904 80.4257 103.904 80.5111C103.904 80.6284 103.867 80.7377 103.792 80.8391C103.723 80.9351 103.606 80.9831 103.44 80.9831C103.318 80.9831 103.232 80.9564 103.184 80.9031C103.136 80.8497 103.099 80.7937 103.072 80.7351C103.046 80.6711 103.016 80.6124 102.984 80.5591C102.958 80.5057 102.907 80.4791 102.832 80.4791C102.752 80.4791 102.672 80.5111 102.592 80.5751C102.518 80.6337 102.438 80.7084 102.352 80.7991V83.8391H101.2V79.8391H102.352ZM107.504 79.8391V82.5591C107.504 82.7831 107.533 82.9324 107.592 83.0071C107.656 83.0764 107.765 83.1111 107.92 83.1111C108.075 83.1111 108.203 83.0444 108.304 82.9111C108.411 82.7777 108.472 82.6097 108.488 82.4071H108.824C108.781 82.7324 108.707 82.9937 108.6 83.1911C108.493 83.3831 108.373 83.5324 108.24 83.6391C108.107 83.7404 107.971 83.8071 107.832 83.8391C107.693 83.8711 107.571 83.8871 107.464 83.8871C107.181 83.8871 106.965 83.8231 106.816 83.6951C106.672 83.5617 106.571 83.3804 106.512 83.1511C106.469 83.2417 106.419 83.3324 106.36 83.4231C106.301 83.5084 106.229 83.5857 106.144 83.6551C106.064 83.7244 105.968 83.7804 105.856 83.8231C105.749 83.8657 105.624 83.8871 105.48 83.8871C105.309 83.8871 105.141 83.8551 104.976 83.7911C104.811 83.7271 104.659 83.6231 104.52 83.4791C104.387 83.3351 104.277 83.1457 104.192 82.9111C104.112 82.6711 104.072 82.3777 104.072 82.0311C104.072 81.7857 104.099 81.5324 104.152 81.2711C104.211 81.0097 104.299 80.7697 104.416 80.5511C104.539 80.3324 104.696 80.1537 104.888 80.0151C105.085 79.8711 105.323 79.7991 105.6 79.7991C105.664 79.7991 105.733 79.8044 105.808 79.8151C105.883 79.8204 105.955 79.8391 106.024 79.8711C106.093 79.8977 106.157 79.9404 106.216 79.9991C106.275 80.0524 106.32 80.1271 106.352 80.2231V79.8391H107.504ZM106.352 80.6071C106.347 80.5857 106.336 80.5591 106.32 80.5271C106.304 80.4897 106.28 80.4551 106.248 80.4231C106.216 80.3857 106.176 80.3564 106.128 80.3351C106.08 80.3084 106.024 80.2951 105.96 80.2951C105.832 80.2951 105.72 80.3511 105.624 80.4631C105.533 80.5697 105.459 80.7057 105.4 80.8711C105.347 81.0311 105.307 81.2097 105.28 81.4071C105.253 81.5991 105.24 81.7831 105.24 81.9591C105.24 82.2417 105.261 82.4631 105.304 82.6231C105.347 82.7777 105.397 82.8924 105.456 82.9671C105.52 83.0364 105.587 83.0791 105.656 83.0951C105.725 83.1057 105.784 83.1111 105.832 83.1111C105.891 83.1111 105.949 83.0977 106.008 83.0711C106.072 83.0391 106.128 82.9937 106.176 82.9351C106.229 82.8764 106.272 82.8044 106.304 82.7191C106.336 82.6284 106.352 82.5244 106.352 82.4071V80.6071ZM110.459 81.4231C110.459 81.1031 110.422 80.8764 110.347 80.7431C110.278 80.6044 110.176 80.5351 110.043 80.5351C109.963 80.5351 109.894 80.5564 109.835 80.5991C109.782 80.6417 109.736 80.6977 109.699 80.7671C109.662 80.8364 109.632 80.9164 109.611 81.0071C109.59 81.0924 109.576 81.1804 109.571 81.2711V83.8391H108.419V79.8391H109.571V80.2551C109.694 80.0684 109.832 79.9484 109.987 79.8951C110.142 79.8364 110.288 79.8071 110.427 79.8071C110.576 79.8071 110.718 79.8311 110.851 79.8791C110.99 79.9271 111.11 80.0097 111.211 80.1271C111.318 80.2391 111.4 80.3911 111.459 80.5831C111.518 80.7697 111.547 81.0017 111.547 81.2791C111.547 81.3484 111.544 81.4364 111.539 81.5431C111.539 81.6444 111.536 81.7484 111.531 81.8551C111.526 81.9617 111.52 82.0657 111.515 82.1671C111.515 82.2684 111.515 82.3537 111.515 82.4231C111.515 82.6524 111.539 82.8257 111.587 82.9431C111.635 83.0551 111.742 83.1111 111.907 83.1111C112.088 83.1111 112.214 83.0444 112.283 82.9111C112.358 82.7777 112.416 82.6097 112.459 82.4071H112.795C112.752 82.7271 112.688 82.9857 112.603 83.1831C112.518 83.3751 112.422 83.5244 112.315 83.6311C112.208 83.7324 112.094 83.8017 111.971 83.8391C111.848 83.8711 111.728 83.8871 111.611 83.8871C111.2 83.8871 110.902 83.7511 110.715 83.4791C110.534 83.2071 110.443 82.8444 110.443 82.3911C110.443 82.3431 110.443 82.2764 110.443 82.1911C110.448 82.1004 110.451 82.0071 110.451 81.9111C110.451 81.8151 110.451 81.7244 110.451 81.6391C110.456 81.5484 110.459 81.4764 110.459 81.4231ZM113.642 78.5751V79.8391H114.122V80.1591H113.642V82.5591C113.642 82.7831 113.671 82.9324 113.73 83.0071C113.794 83.0764 113.903 83.1111 114.058 83.1111C114.117 83.1111 114.162 83.1057 114.194 83.0951C114.231 83.0791 114.261 83.0631 114.282 83.0471C114.287 83.0737 114.29 83.1031 114.29 83.1351C114.29 83.1617 114.29 83.1884 114.29 83.2151C114.29 83.4391 114.223 83.6071 114.09 83.7191C113.962 83.8311 113.799 83.8871 113.602 83.8871C113.191 83.8871 112.903 83.7751 112.738 83.5511C112.573 83.3217 112.49 83.0204 112.49 82.6471V80.1591H112.234V79.8391H112.49V78.7351L113.642 78.5751Z" fill="white"/>
</svg>
