<svg width="40" height="40" viewBox="0 0 40 40" fill="none" xmlns="http://www.w3.org/2000/svg">
<path fill-rule="evenodd" clip-rule="evenodd" d="M18.1158 0.0810579C14.3075 0.419534 10.3731 2.03127 7.34789 4.49197C6.45867 5.21531 5.05076 6.63422 4.34156 7.52199C2.54834 9.76655 1.07886 12.8027 0.469409 15.522C0.0866841 17.2301 0 18.0604 0 20.0199C0 21.9793 0.0866841 22.8097 0.469409 24.5178C1.09216 27.2964 2.59998 30.3759 4.45281 32.6531C5.17625 33.5422 6.59535 34.9499 7.48323 35.659C9.7281 37.452 12.7646 38.9213 15.4843 39.5307C17.1926 39.9133 18.0231 40 19.9828 40C21.9425 40 22.773 39.9133 24.4813 39.5307C26.5261 39.0725 29.1998 37.9301 30.9568 36.7639C34.004 34.7411 36.3444 32.0796 37.9424 28.8201C39.2362 26.1807 39.8708 23.6697 39.9851 20.7372C40.1673 16.0639 38.6761 11.4895 35.7225 7.66044C35.0626 6.80498 33.1995 4.94215 32.3439 4.28233C28.2108 1.09492 23.236 -0.373973 18.1158 0.0810579ZM22.6428 1.51937C23.6853 1.67488 25.172 2.03995 26.1918 2.39094C27.8717 2.96902 30.1106 4.20512 31.5957 5.37426C32.3077 5.93481 34.0698 7.69666 34.6304 8.40858C35.7997 9.89343 37.0359 12.1321 37.6141 13.8117C38.3478 15.943 38.6361 17.695 38.6357 20.0199C38.6353 21.918 38.5181 22.9045 38.0915 24.5998C36.4303 31.2015 31.1659 36.4652 24.5634 38.1261C22.8678 38.5527 21.8812 38.6699 19.9828 38.6703C17.6576 38.6707 15.9054 38.3824 13.7738 37.6488C12.0939 37.0707 9.855 35.8346 8.36995 34.6655C7.65793 34.1049 5.89585 32.3431 5.33522 31.6312C4.16592 30.1463 2.92966 27.9077 2.3515 26.2281C1.99334 25.1878 1.63472 23.7196 1.46565 22.6013C1.27765 21.3583 1.27765 18.6815 1.46565 17.4385C1.77233 15.4103 2.31904 13.6444 3.19714 11.8454C4.17969 9.83265 5.16021 8.46607 6.79383 6.83267C7.93958 5.687 8.54269 5.18949 9.75001 4.39388C12.2328 2.75774 15.1634 1.72463 18.2225 1.40712C19.1822 1.30754 21.6406 1.36996 22.6428 1.51937ZM18.9658 6.72644C17.601 6.82665 15.4543 7.33941 15.1037 7.64894C14.8626 7.86195 14.8076 8.10679 14.9334 8.4078C15.1173 8.84781 15.3381 8.88035 16.2605 8.6032C17.4002 8.26081 18.0995 8.13088 19.1613 8.06431C20.2454 7.99634 21.4894 8.06744 22.3273 8.2454C22.6485 8.31361 23.0057 8.34874 23.121 8.32339C23.423 8.25706 23.6129 8.01089 23.6129 7.68555C23.6129 7.27441 23.3519 7.088 22.5555 6.93045C21.9647 6.81351 20.199 6.63078 19.9046 6.65612C19.84 6.6616 19.4176 6.69328 18.9658 6.72644ZM11.5274 10.2358L11.2987 10.4645V13.6905V16.9166L12.2946 17.9229L13.2905 18.9293L13.0012 24.7743C12.8276 28.2811 12.7373 30.7288 12.7755 30.8931C13.0114 31.908 13.9705 32.6922 14.9758 32.6922C15.9979 32.6922 16.9389 31.9233 17.1763 30.8942C17.2142 30.7297 17.1235 28.2714 16.9503 24.7743L16.661 18.9293L17.657 17.9229L18.6528 16.9166V13.6905V10.4645L18.4241 10.2358C18.18 9.99176 17.9648 9.95148 17.6893 10.0981C17.3268 10.2912 17.3279 10.2807 17.3253 13.4112L17.3228 16.385L16.415 17.2833C15.9157 17.7773 15.4615 18.2872 15.4057 18.4163C15.3205 18.6132 15.3519 19.5982 15.6006 24.5463C15.7996 28.5041 15.8733 30.5275 15.8249 30.7029C15.6139 31.4669 14.5315 31.5404 14.177 30.8148C14.0495 30.5536 14.0572 30.2668 14.3454 24.596C14.5994 19.6 14.6315 18.6135 14.546 18.4163C14.4902 18.2872 14.0359 17.7773 13.5366 17.2833L12.6287 16.385L12.6262 13.4112C12.6236 10.2807 12.6247 10.2912 12.2623 10.0981C11.9867 9.95148 11.7715 9.99176 11.5274 10.2358ZM13.6849 10.0975C13.3321 10.2904 13.3328 10.2836 13.3328 13.3502V16.2722L13.5249 16.4642C13.7884 16.7277 14.1812 16.7235 14.4341 16.4543L14.6237 16.2525V13.3186V10.3848L14.4042 10.1959C14.1682 9.99293 13.9346 9.96094 13.6849 10.0975ZM15.5474 10.1959L15.3278 10.3848V13.3186V16.2525L15.5175 16.4543C15.7703 16.7235 16.1631 16.7277 16.4266 16.4642L16.6187 16.2722V13.3807C16.6187 11.7904 16.5968 10.4323 16.5701 10.3627C16.5119 10.2111 16.1407 10.0072 15.9228 10.0072C15.8371 10.0072 15.6681 10.0921 15.5474 10.1959ZM24.2075 10.1139C23.3597 10.3622 22.6627 10.9151 22.3046 11.6234C22.0939 12.0401 21.7103 13.2403 21.4963 14.1531C21.3076 14.9571 21.3072 16.6558 21.4956 17.3603C21.7202 18.2 22.2084 18.8812 22.9881 19.4423L23.2161 19.6065L22.9671 25.191C22.7945 29.0618 22.7414 30.8557 22.7942 31.0365C22.9241 31.4814 23.2648 31.9844 23.6014 32.2282C24.8614 33.1408 26.6554 32.603 27.1381 31.1682C27.2626 30.7978 27.2567 30.5012 27.0177 25.1914L26.7662 19.6045L26.9929 19.4414C28.2074 18.5673 28.6196 17.6441 28.6205 15.7958C28.6211 14.6459 28.5419 14.1941 28.0791 12.7059C27.654 11.3393 27.1234 10.6701 26.1263 10.2427C25.6421 10.0353 24.6936 9.97158 24.2075 10.1139ZM29.2593 11.3633C28.9258 11.6967 28.9818 12.0019 29.5082 12.7187C30.418 13.9576 30.9262 14.9154 31.3521 16.1934C31.8424 17.6647 31.9131 18.1474 31.9131 20.0199C31.9131 21.8926 31.8424 22.375 31.3517 23.8475C30.8124 25.4662 30.0709 26.7054 28.6665 28.335C28.2121 28.8623 28.1619 29.1436 28.4678 29.4494C28.603 29.5848 28.746 29.6415 28.952 29.6415C29.2035 29.6415 29.2977 29.5843 29.6285 29.2308C31.2146 27.5362 32.3309 25.5413 32.8788 23.422C33.5588 20.7921 33.4686 18.2414 32.6064 15.7182C32.1264 14.3136 31.123 12.5051 30.2931 11.5492C29.944 11.1469 29.5471 11.0756 29.2593 11.3633ZM25.7454 11.5187C26.0258 11.6637 26.3789 12.0117 26.5176 12.28C26.7187 12.6688 27.1912 14.4314 27.2762 15.1095C27.3747 15.8969 27.2824 16.926 27.0738 17.3656C26.8537 17.8294 26.5091 18.1814 26.0202 18.442C25.6964 18.6145 25.5294 18.7573 25.478 18.9058C25.4282 19.0495 25.4897 21.0057 25.6641 24.8307C25.8519 28.9454 25.9023 30.6103 25.8445 30.7889C25.7369 31.1213 25.4233 31.3139 24.9898 31.3139C24.556 31.3139 24.2424 31.121 24.1361 30.7889C24.0794 30.6118 24.1313 28.9107 24.3178 24.8307C24.5171 20.4708 24.558 19.0688 24.4909 18.9025C24.4333 18.7597 24.2416 18.5959 23.9337 18.4264C23.389 18.1268 22.9433 17.5939 22.7867 17.0551C22.635 16.5337 22.6602 14.947 22.8302 14.3095C23.2529 12.7234 23.4347 12.2564 23.7647 11.9085C23.9437 11.7197 24.2309 11.5134 24.4031 11.4499C24.7703 11.3145 25.4142 11.3475 25.7454 11.5187ZM9.44614 11.9632C9.14478 12.0847 8.17585 13.6757 7.66004 14.8962C6.45632 17.7444 6.32606 21.1497 7.30548 24.1658C7.61271 25.112 8.42581 26.7673 8.96484 27.5437C9.57734 28.4261 10.4862 29.4536 10.7514 29.5634C11.053 29.6882 11.3425 29.6104 11.5064 29.3602C11.7348 29.0117 11.6746 28.7531 11.2531 28.2725C9.21355 25.9472 8.21136 23.6562 8.01945 20.8803C7.83443 18.2043 8.51406 15.603 9.97908 13.3795C10.4252 12.7026 10.4718 12.3804 10.1679 12.0766C9.97016 11.8788 9.74375 11.8433 9.44614 11.9632ZM18.0315 32.179C17.7139 32.5169 17.8118 33.0006 18.2387 33.2031C18.4839 33.3194 18.7557 33.3418 19.9412 33.3429C21.5948 33.3444 21.8975 33.2792 22.0619 32.8859C22.1864 32.5878 22.0922 32.1905 21.8687 32.0709C21.7962 32.0321 20.9413 32 19.9688 31.9996C18.224 31.9989 18.1984 32.0013 18.0315 32.179Z" fill="#EB0029"/>
</svg>
