<svg width="44" height="40" viewBox="0 0 44 40" fill="none" xmlns="http://www.w3.org/2000/svg">
<path fill-rule="evenodd" clip-rule="evenodd" d="M20.8875 0.122059C19.6512 0.394124 18.7555 1.03699 17.5232 2.53668C16.7767 3.44529 15.6216 3.8683 14.3958 3.68216C13.5434 3.55271 13.1481 3.55938 12.42 3.71542C10.5324 4.12001 8.9597 5.68614 8.49824 7.62052C8.42611 7.92304 8.39551 8.43074 8.4164 8.98084C8.49403 11.0277 8.48208 11.1501 8.13487 11.8673C7.90405 12.3442 7.6949 12.6287 7.37356 12.903C5.73499 14.302 5.15911 15.193 4.91738 16.7026C4.80176 17.4249 4.80202 17.596 4.91936 18.3065C5.16496 19.7936 5.76611 20.7254 7.34846 22.072L7.77794 22.4374L3.88804 26.4184C-0.221498 30.6243 -0.13261 30.5152 0.0802381 31.0868C0.125455 31.2081 0.251136 31.3666 0.359623 31.4392C0.46811 31.5117 1.96561 31.8678 3.68731 32.2305C5.40901 32.5933 6.84557 32.9211 6.87952 32.959C6.91357 32.9969 7.23473 34.4891 7.59329 36.2751C8.18954 39.2451 8.26424 39.5392 8.46772 39.7198C8.62246 39.8571 8.79997 39.9172 9.05108 39.9172H9.41196L13.2367 36.0118C15.3402 33.8638 17.1078 32.1063 17.1643 32.1063C17.221 32.1063 17.3952 32.2733 17.5516 32.4773C18.221 33.3511 19.035 34.0917 19.684 34.4178C21.9695 35.5659 24.4846 34.9538 26.0923 32.8584C26.3709 32.4952 26.6561 32.1757 26.7262 32.1483C26.8122 32.1145 28.0812 33.3486 30.6402 35.9548C32.723 38.0758 34.5115 39.8548 34.6147 39.9081C34.9251 40.0683 35.2258 40.0189 35.508 39.7614C35.7683 39.524 35.7921 39.4338 36.4398 36.2339L37.1044 32.9501L38.0438 32.7515C43.9934 31.4936 43.5182 31.613 43.7853 31.3087C43.9954 31.0693 44.0246 30.9765 43.9849 30.6744C43.9415 30.3447 43.6766 30.0532 40.0965 26.3976C37.1339 23.3724 36.2717 22.444 36.3294 22.3412C36.3705 22.2679 36.7165 21.951 37.0982 21.6371C38.3439 20.6126 39.0111 19.3125 39.0897 17.7571C39.1799 15.9715 38.4535 14.4103 37.0058 13.2782C36.0496 12.5305 35.5284 11.6195 35.4923 10.6328C35.4839 10.4 35.5061 9.77509 35.5417 9.24413C35.5929 8.47945 35.5773 8.1528 35.4663 7.67317C35.0433 5.84534 33.7945 4.44973 32.0689 3.87603C31.3135 3.62485 31.0889 3.60967 29.0542 3.67145C27.7594 3.71077 27.0239 3.33207 26.118 2.15956C24.7826 0.431073 22.8695 -0.314122 20.8875 0.122059ZM23.2474 2.00887C23.7786 2.21257 24.3724 2.74608 25.1621 3.7292C25.6366 4.31984 26.5271 4.91681 27.3811 5.21678C27.9988 5.43373 28.1621 5.45462 29.0542 5.43092C30.9827 5.37976 31.2226 5.39468 31.7436 5.5982C32.4359 5.86859 33.1826 6.59141 33.5443 7.34126C33.8483 7.97166 33.8444 7.92391 33.7914 10.2973C33.7495 12.1684 34.3106 13.2425 36.2113 14.93C36.6382 15.3091 36.8553 15.587 37.0666 16.0252C37.3298 16.5713 37.3498 16.6745 37.3498 17.4938C37.3498 18.3099 37.3291 18.4179 37.0718 18.9516C36.7987 19.5182 36.4623 19.8906 35.4384 20.7606C34.8652 21.2476 34.3483 22.0665 34.0658 22.9351C33.8538 23.5871 33.8365 23.7562 33.8232 25.3047C33.815 26.2484 33.7674 27.0992 33.7135 27.2648C33.4042 28.2145 32.5374 29.1078 31.6554 29.3859C31.1598 29.5421 30.8937 29.5627 29.6185 29.5434C27.9627 29.5184 27.5802 29.5943 26.5283 30.1565C25.9274 30.4778 25.3685 30.9903 24.4749 32.0394C23.152 33.5925 20.9471 33.6498 19.5981 32.1659C18.2642 30.6989 17.9689 30.4322 17.3405 30.1276C16.3953 29.6693 15.7079 29.5545 14.0737 29.5818L12.6779 29.6051L12.1037 29.3273C11.3355 28.9558 10.8066 28.4408 10.4643 27.7306L10.1849 27.1511L10.1808 25.3942C10.177 23.7302 10.1649 23.6037 9.9537 23.0029C9.5507 21.8567 9.04239 21.186 7.73075 20.0702C6.18914 18.7588 6.18914 16.2285 7.73075 14.9177C8.74478 14.0556 9.33072 13.3834 9.65541 12.7098C10.1744 11.6333 10.3268 10.5764 10.1361 9.37656C9.90514 7.92339 10.5984 6.4717 11.8481 5.79171C12.6179 5.37282 13.0863 5.30077 14.2134 5.42785C15.4069 5.56239 16.2618 5.42399 17.2572 4.93524C17.9193 4.61008 18.2147 4.34345 19.5981 2.82217C20.5362 1.79052 21.8908 1.48861 23.2474 2.00887ZM21.7716 6.54762C21.4781 6.59562 21.1454 7.05629 21.1454 7.41462C21.1454 7.85519 21.5314 8.23486 21.9794 8.23486C22.62 8.23486 22.9941 7.66764 22.7488 7.06831C22.6803 6.90112 22.5804 6.73666 22.5268 6.70278C22.3561 6.59501 21.9686 6.51541 21.7716 6.54762ZM17.1831 7.68634C13.5124 9.56745 11.2595 13.2975 11.2595 17.4938C11.2595 20.4893 12.31 23.0766 14.3972 25.2221C16.4712 27.3541 18.9983 28.4271 21.9621 28.4342C23.6968 28.4383 25.0308 28.1397 26.5457 27.4082C27.6574 26.8715 28.4517 26.3129 29.347 25.4383C32.2426 22.6096 33.3629 18.6197 32.3639 14.6942C31.5954 11.6746 29.5612 9.11819 26.8068 7.71047C26.3322 7.4679 25.8487 7.26946 25.7325 7.26946C25.2472 7.26946 24.8419 7.68529 24.8419 8.18325C24.8419 8.52667 25.1628 8.82936 25.9352 9.21464C28.3878 10.4379 30.1023 12.6571 30.7918 15.501C31.0666 16.6345 31.0474 18.4875 30.7489 19.6505C30.3167 21.3342 29.6364 22.6142 28.5479 23.7921C26.6062 25.8935 23.9428 26.9254 21.1525 26.6574C17.353 26.2924 14.2196 23.5621 13.2222 19.7471C12.9724 18.7917 12.9147 16.9709 13.0998 15.8837C13.5865 13.0262 15.3677 10.6043 17.9894 9.23509C18.7835 8.8205 18.9439 8.70096 19.0482 8.44601C19.205 8.06302 19.1304 7.76524 18.8084 7.48861C18.4365 7.16915 18.1164 7.20803 17.1831 7.68634ZM21.6895 10.6446C21.3337 10.8026 21.2314 11.0151 21.2314 11.596V12.0725L20.8264 12.2304C20.32 12.4279 19.6462 13.1043 19.4068 13.6555C19.302 13.8968 19.2097 14.3333 19.1867 14.696C19.0888 16.2394 19.7942 17.0017 22.1888 17.94C23.0982 18.2964 23.4299 18.5648 23.5571 19.0474C23.7509 19.7819 23.2117 20.6592 22.4355 20.8725C21.8801 21.0252 21.0639 20.9118 20.4866 20.6019C20.2054 20.4508 19.878 20.3461 19.687 20.3461C18.9942 20.3461 18.6564 21.1655 19.1183 21.7258C19.3634 22.0232 20.0934 22.4059 20.7333 22.5725L21.1884 22.6911L21.2314 23.2209C21.2807 23.8279 21.4561 24.0891 21.8674 24.1679C22.4836 24.286 22.8533 23.9054 22.9269 23.0775L22.9732 22.5553L23.3703 22.4011C23.8762 22.2047 24.7386 21.3309 25.0057 20.744C25.1149 20.5044 25.243 20.0685 25.2906 19.7755C25.4583 18.7424 24.9336 17.4978 24.0899 16.9272C23.8753 16.7821 23.2895 16.5021 22.788 16.3049C21.8597 15.94 21.2652 15.6289 21.0226 15.3812C20.8347 15.1894 20.8512 14.5719 21.0531 14.2337C21.3769 13.6915 22.5206 13.5959 23.199 14.0541C23.7927 14.4553 24.4102 14.3511 24.6305 13.8126C24.8258 13.3355 24.665 12.942 24.1281 12.5835C23.8824 12.4195 23.5218 12.238 23.3266 12.1802C22.978 12.0769 22.971 12.0668 22.917 11.5979C22.8504 11.0192 22.6821 10.7362 22.3305 10.611C22.0082 10.4963 22.0255 10.4955 21.6895 10.6446ZM8.42783 25.3363C8.19289 27.5085 8.96709 29.3095 10.6364 30.474C11.7266 31.2345 12.9376 31.5104 14.3866 31.3282C14.8062 31.2755 15.2018 31.2622 15.2658 31.2988C15.3479 31.3457 14.5248 32.24 12.4611 34.3462C10.8546 35.9858 9.54022 37.3013 9.54022 37.2695C9.54022 37.0938 8.48534 32.0222 8.40557 31.8144C8.35322 31.6778 8.22925 31.5138 8.13014 31.4497C8.03093 31.3856 6.77001 31.0863 5.32795 30.7845C3.88589 30.4827 2.6884 30.2207 2.66683 30.2022C2.64534 30.1838 3.94117 28.8274 5.54656 27.1879C7.15195 25.5484 8.47967 24.2507 8.49721 24.3042C8.51466 24.3578 8.48345 24.8222 8.42783 25.3363ZM41.3321 30.2201C41.3042 30.2486 40.0899 30.525 38.6336 30.8343C36.3906 31.3107 35.9547 31.4283 35.7832 31.6035C35.6117 31.7784 35.5018 32.2015 35.0691 34.3498C34.7879 35.7466 34.5355 36.9854 34.5083 37.1027C34.4638 37.2951 34.1723 37.0235 31.5417 34.3387C29.9371 32.7011 28.6244 31.3345 28.6244 31.3017C28.6244 31.2688 29.1949 31.2631 29.8923 31.289C30.89 31.326 31.2865 31.3056 31.7524 31.1931C33.3933 30.7968 34.7359 29.5305 35.3435 27.806C35.5285 27.2809 35.5431 27.1137 35.5271 25.7039L35.5095 24.1723L38.4462 27.1704C40.0613 28.8193 41.3599 30.1917 41.3321 30.2201Z" fill="#EB0029"/>
</svg>
