<svg width="24" height="40" viewBox="0 0 24 40" fill="none" xmlns="http://www.w3.org/2000/svg">
<path fill-rule="evenodd" clip-rule="evenodd" d="M10.588 1.01022C6.32284 5.367 2.51306 12.4182 0.91353 18.9159C-0.964488 26.5449 0.076089 32.8777 3.82292 36.6219C6.00827 38.8059 8.89867 40 11.9993 40C14.6886 40 17.1366 39.1374 19.2765 37.4357C23.2298 34.2918 24.8036 28.4976 23.6098 21.482C22.3581 14.1257 18.3429 6.0681 13.4086 1.01059C12.4424 0.0201999 12.4134 -0.000644523 11.9993 1.27348e-05C11.5859 0.000669993 11.5544 0.0232048 10.588 1.01022ZM12.8672 3.35785C17.9546 9.22614 21.5154 17.521 21.9464 24.5075C22.377 31.4866 19.6043 36.3168 14.3594 37.7245C13.5684 37.9368 13.2737 37.9667 11.9993 37.9648C10.737 37.9629 10.4216 37.9303 9.63314 37.7207C6.34182 36.8458 3.89705 34.4794 2.75068 31.0589C0.332686 23.8443 4.019 11.5881 11.0576 3.44076C11.532 2.89167 11.9546 2.44238 11.9969 2.44238C12.0391 2.44238 12.4307 2.85439 12.8672 3.35785ZM18.332 25.2023C18.0442 25.4899 18.0125 25.574 18.0125 26.051C18.0125 28.4678 17.3012 30.7797 16.1324 32.161C15.7261 32.6412 15.6636 32.7698 15.6636 33.1255C15.6636 33.6934 16.0447 34.0847 16.598 34.0847C16.9192 34.0847 17.0536 34.0199 17.4071 33.6943C18.918 32.3024 19.9843 29.2719 19.9853 26.3663C19.9856 25.5351 19.8678 25.2058 19.5022 25.0169C19.059 24.7878 18.6879 24.8466 18.332 25.2023Z" fill="#EB0029"/>
</svg>
