<svg width="27" height="24" viewBox="0 0 27 24" fill="none" xmlns="http://www.w3.org/2000/svg">
<path fill-rule="evenodd" clip-rule="evenodd" d="M14.0399 0.0351963C13.8728 0.107137 13.7636 0.299413 13.7636 0.521759C13.7636 0.68694 13.8046 0.765563 14.002 0.979139C14.4062 1.41658 14.3672 1.86049 13.8927 2.22238C13.4764 2.53995 13.1963 3.11015 13.1963 3.6403C13.1963 4.1502 13.4742 4.73679 13.8555 5.03171C14.264 5.34766 14.7436 5.15737 14.7436 4.67926C14.7436 4.50296 14.7061 4.43055 14.4986 4.20601C14.2632 3.95125 14.2536 3.9288 14.2536 3.63044V3.31997L14.6212 2.97112C15.0888 2.52742 15.2664 2.18834 15.2995 1.67625C15.3275 1.24597 15.2384 0.912524 14.9974 0.544208C14.7204 0.120815 14.3269 -0.0883238 14.0399 0.0351963ZM10.4295 1.60139C10.2624 1.67333 10.1532 1.8656 10.1532 2.08795C10.1532 2.25313 10.1943 2.33175 10.3916 2.54533C10.7958 2.98277 10.7568 3.42668 10.2823 3.78857C9.86596 4.10614 9.5859 4.67634 9.5859 5.20649C9.5859 5.71639 9.86385 6.30298 10.2452 6.5979C10.6536 6.91385 11.1332 6.72356 11.1332 6.24545C11.1332 6.06915 11.0957 5.99674 10.8882 5.7722C10.653 5.5177 10.6432 5.49473 10.6432 5.19798V4.88892L11.0116 4.53867C11.2322 4.32901 11.4391 4.07325 11.5272 3.90134C11.6586 3.64474 11.6743 3.56142 11.6745 3.11824C11.6748 2.65204 11.6641 2.60244 11.4977 2.29161C11.2106 1.75576 10.755 1.46132 10.4295 1.60139ZM3.41642 2.74705C2.69599 2.93494 2.00068 3.67074 1.87385 4.37934C1.84352 4.54885 1.81856 4.57412 1.65109 4.60482C1.08514 4.7086 0.447903 5.22649 0.172018 5.80687C0.0470465 6.06973 0.0227537 6.18724 0.0209485 6.53776C0.0190402 6.90002 0.0372468 6.98736 0.158401 7.19623C0.486947 7.76262 0.871917 7.92999 1.80077 7.91026C2.64142 7.89235 2.75561 7.93641 3.29753 8.48782C3.93409 9.13544 4.29818 9.76322 4.49788 10.5576C4.59351 10.938 4.8924 12.6213 4.8924 12.7795C4.8924 12.8446 4.77165 13.025 4.60919 13.2026C3.13641 14.8128 2.10858 17.1204 1.92718 19.2239C1.86988 19.888 1.95818 19.8243 1.09535 19.8243H0.343305L0.167943 20.0018C-0.125324 20.2986 -0.107994 20.3453 0.822816 21.7619C1.71154 23.1145 1.96452 23.4116 2.45146 23.6743C3.09107 24.0193 2.42691 23.9992 13.1764 24C19.5984 24.0005 23.0251 23.9826 23.2078 23.9475C23.3605 23.9182 23.6248 23.8278 23.7952 23.7465C24.4088 23.454 24.5743 23.2706 25.522 21.8331C26.0806 20.9856 26.4 20.453 26.4 20.3689C26.4 20.1757 26.2726 19.9581 26.1178 19.8867C26.0336 19.8478 25.7115 19.8243 25.2652 19.8243H24.5479L24.5222 19.6546C24.5081 19.5613 24.4831 19.3322 24.4666 19.1456C24.3107 17.3805 23.4002 15.1862 22.2029 13.69C21.8726 13.2771 21.0464 12.4316 20.6206 12.0707C19.4343 11.0649 17.8744 10.2507 16.2393 9.78368C15.5437 9.58504 14.1302 9.38347 13.4284 9.38284C13.1871 9.38263 13.1472 9.36227 12.8095 9.06616C11.8222 8.20068 11.1139 7.90614 9.12042 7.53197C7.66636 7.25904 7.56842 7.23455 7.09122 7.02411C6.58572 6.80119 6.25681 6.57493 5.78411 6.1248C5.20624 5.57455 5.12748 5.38243 5.14022 4.55391C5.15193 3.79243 5.07291 3.46625 4.80358 3.1645C4.70027 3.04875 4.52202 2.90566 4.40747 2.84651C4.17996 2.72899 3.67848 2.67866 3.41642 2.74705ZM16.6188 3.69209C16.4527 3.75991 16.3425 3.95297 16.3425 4.1762C16.3425 4.34138 16.3835 4.42001 16.5808 4.63358C16.9851 5.07102 16.946 5.51493 16.4715 5.87682C16.0552 6.19439 15.7751 6.76459 15.7751 7.29475C15.7751 7.80465 16.0531 8.39124 16.4344 8.68615C16.8429 9.0021 17.3224 8.81181 17.3224 8.3337C17.3224 8.1574 17.285 8.08499 17.0775 7.86045C16.842 7.60569 16.8325 7.58324 16.8325 7.28488V6.97441L17.2001 6.62557C17.4189 6.41789 17.6275 6.16051 17.7156 5.98959C17.8482 5.73226 17.8635 5.65098 17.8635 5.20649C17.8635 4.76514 17.8477 4.68015 17.7202 4.43468C17.6413 4.28296 17.4838 4.06469 17.3702 3.94968C17.0827 3.65863 16.875 3.58742 16.6188 3.69209ZM4.0227 3.85633C4.12472 3.9596 4.1305 4.00356 4.10038 4.44366C4.05783 5.06538 4.13138 5.51258 4.35135 5.96954C4.49479 6.26754 4.63219 6.44023 5.04553 6.84175C6.08589 7.85252 6.76773 8.16174 8.75386 8.52347C10.039 8.75757 10.3389 8.83222 10.8585 9.04773C11.479 9.30506 11.824 9.54735 12.3711 10.11C12.9213 10.6758 13.2159 11.148 13.4737 11.8773C13.628 12.3137 13.6346 12.3664 13.6336 13.1419C13.6326 13.8584 13.6187 13.9899 13.5113 14.2904C13.3168 14.835 13.1008 15.1772 12.6841 15.6009C12.041 16.2549 11.3316 16.533 10.3033 16.5345C9.13574 16.5362 8.07423 16.0591 7.21021 15.1446C6.78965 14.6994 6.58758 14.4017 6.33536 13.8557C6.09517 13.3357 5.98438 12.9034 5.7444 11.5496C5.39192 9.56102 5.07317 8.84465 4.07985 7.80846C3.31404 7.00965 2.74715 6.78474 1.68895 6.86008C1.27525 6.88952 1.23688 6.88362 1.12867 6.77409C1.03567 6.67996 1.0185 6.61915 1.04259 6.4689C1.08235 6.22081 1.32409 5.88789 1.57213 5.73957C1.75239 5.63182 1.81366 5.62331 2.19688 5.65286C2.62141 5.68559 2.62192 5.68549 2.78238 5.52307C2.94263 5.36087 2.94289 5.35956 2.9072 4.95147C2.8761 4.59558 2.88538 4.51471 2.97884 4.32932C3.13532 4.0188 3.50446 3.75636 3.79638 3.74801C3.86018 3.74623 3.96205 3.79494 4.0227 3.85633ZM15.3625 10.6637C18.4081 11.2979 20.9092 13.1433 22.3649 15.8305C22.9165 16.8486 23.3415 18.1991 23.4328 19.2239C23.4507 19.4249 23.4763 19.6422 23.4895 19.7068L23.5136 19.8243H13.1963H2.87893L2.90271 19.7068C2.91576 19.6422 2.94067 19.4366 2.9581 19.25C3.08297 17.9112 3.66435 16.297 4.45012 15.1074C4.78212 14.6048 5.20686 14.0368 5.25343 14.0332C5.26762 14.0321 5.33467 14.1608 5.40249 14.3193C5.60834 14.8006 6.09584 15.4959 6.5491 15.9547C7.26401 16.6783 8.10188 17.1712 9.0611 17.4324C9.56728 17.5703 10.6432 17.6191 11.1564 17.5274C12.6505 17.2606 13.9244 16.1959 14.425 14.7955C14.6423 14.1879 14.7094 13.7843 14.7044 13.1158C14.6982 12.3041 14.5199 11.5435 14.169 10.8332C14.0879 10.6689 14.0215 10.5197 14.0215 10.5016C14.0215 10.4467 14.7337 10.5328 15.3625 10.6637ZM17.1419 12.5647C16.8215 12.6975 16.7263 13.1364 16.9653 13.3784C17.0372 13.4511 17.1811 13.5245 17.2852 13.5417C17.4526 13.5691 17.4954 13.5515 17.6563 13.3886C17.9011 13.1408 17.9031 12.936 17.6629 12.6929C17.4868 12.5147 17.3462 12.4801 17.1419 12.5647ZM18.8898 13.6629C18.7357 13.7259 18.5603 13.9683 18.5603 14.1182C18.5603 14.3185 18.648 14.4415 19.1496 14.9446C20.033 15.8308 20.7088 16.9191 21.0818 18.0563C21.2758 18.6475 21.3687 18.754 21.6906 18.754C21.9846 18.754 22.1707 18.5652 22.1707 18.2667C22.1707 17.8004 21.6093 16.4751 21.0635 15.6532C20.479 14.7729 19.6213 13.8434 19.2453 13.6827C19.0573 13.6023 19.0402 13.6013 18.8898 13.6629ZM24.8578 20.9598C24.6368 21.3629 23.8532 22.4407 23.666 22.5991C23.2115 22.9834 23.9444 22.9596 13.0635 22.9443L3.3193 22.9305L3.08457 22.8206C2.71193 22.6461 2.48648 22.4073 2.00702 21.6795C1.76043 21.3052 1.54149 20.9696 1.52045 20.9337C1.48991 20.8815 3.83878 20.8684 13.1951 20.8684C24.3349 20.8684 24.9055 20.8729 24.8578 20.9598Z" fill="#EB0029"/>
</svg>
