<svg width="24" height="24" viewBox="0 0 24 24" fill="none" xmlns="http://www.w3.org/2000/svg">
<path fill-rule="evenodd" clip-rule="evenodd" d="M10.8853 0.0432798C7.81148 0.281319 5.0216 1.46555 3.06485 3.36289C1.82495 4.56516 1.06293 5.84821 0.674492 7.38768C0.533441 7.94676 0.527952 8.28666 0.654509 8.62806L0.750154 8.88623L0.649631 9.18625C0.569888 9.4241 0.553095 9.56521 0.568481 9.86722C0.599956 10.4845 0.889516 10.9901 1.41488 11.3451L1.59078 11.464V12.0975V12.7311L1.32285 12.8592C0.920991 13.0513 0.463501 13.5116 0.262409 13.9263C-0.175286 14.8288 -0.0570786 15.9189 0.554596 16.6203L0.741241 16.8344L0.650053 17.1303C0.477761 17.6891 0.558489 18.2893 0.866813 18.7417L1.02789 18.9781V19.9756C1.02789 21.189 1.08268 21.5165 1.39232 22.1529C1.56583 22.5097 1.68427 22.6772 1.9645 22.9623C2.54681 23.5548 3.16003 23.8576 3.96684 23.9509C4.53208 24.0163 19.4755 24.0164 20.0406 23.951C20.8451 23.858 21.46 23.5542 22.044 22.9615C22.3248 22.6765 22.4423 22.5104 22.6162 22.1529C22.9189 21.5306 22.9806 21.1796 22.9806 20.0797V19.1863L23.1043 19.0715C23.4397 18.76 23.6842 18.1826 23.6842 17.7019C23.6842 17.4152 23.5797 16.9967 23.4634 16.8176C23.3967 16.7148 23.4005 16.6958 23.5172 16.5413C24.0605 15.8222 24.1554 14.7594 23.7502 13.9314C23.5445 13.5111 23.0882 13.0515 22.6857 12.8592L22.4177 12.7311L22.4178 12.1504L22.418 11.5698L22.6732 11.4352C22.9996 11.263 23.3729 10.8644 23.5337 10.5163C23.6437 10.2782 23.6596 10.1841 23.6602 9.76953C23.6607 9.32703 23.6503 9.27366 23.5044 8.97444C23.3674 8.69331 23.3544 8.63545 23.3989 8.50651C23.5187 8.15956 23.3983 7.4249 23.0763 6.5379C22.2478 4.25586 20.0819 2.1602 17.4221 1.06708C15.3597 0.219524 13.1264 -0.130265 10.8853 0.0432798ZM13.0386 0.988143C17.7055 1.35015 21.5228 4.03004 22.4191 7.57377C22.5301 8.01287 22.5349 8.19063 22.4404 8.37506C22.2844 8.67958 23.0955 8.65761 12.0043 8.65761C0.913063 8.65761 1.72414 8.67958 1.56813 8.37506C1.47366 8.19063 1.47839 8.01287 1.58947 7.57377C2.19097 5.19551 4.17595 3.10331 6.92319 1.95195C8.81563 1.1588 10.9342 0.82492 13.0386 0.988143ZM11.4646 1.90587C11.1514 2.22204 11.3618 2.71768 11.8038 2.70503C12.0105 2.69911 12.2388 2.47902 12.2388 2.28568C12.2388 2.12866 12.1206 1.9018 12.0068 1.84034C11.8424 1.75146 11.587 1.78233 11.4646 1.90587ZM13.7164 2.12042C13.4233 2.24155 13.3384 2.63898 13.5582 2.86092C13.6569 2.9605 13.7966 3.0078 14.3113 3.116C16.2757 3.52877 17.8292 4.31827 19.0195 5.5087C19.5962 6.0855 19.8662 6.44684 20.1905 7.07605C20.445 7.56994 20.5375 7.6636 20.7695 7.66218C21.0219 7.66061 21.245 7.44128 21.245 7.19462C21.245 7.02993 20.744 6.0961 20.4276 5.67088C20.0185 5.12127 19.1633 4.30369 18.5651 3.8903C17.3771 3.06926 16.0211 2.50123 14.5141 2.1932C13.8907 2.06578 13.8563 2.06266 13.7164 2.12042ZM7.1589 4.23474C6.95574 4.34592 6.86648 4.70087 6.99838 4.873C7.29324 5.25788 7.83423 5.10322 7.84647 4.6306C7.85078 4.46558 7.82728 4.41236 7.69909 4.29672C7.52853 4.14288 7.36168 4.12375 7.1589 4.23474ZM10.7279 4.29639C10.6037 4.40829 10.5757 4.4689 10.5757 4.62516C10.5757 5.09484 11.1747 5.27227 11.409 4.87196C11.5492 4.63231 11.4776 4.34706 11.2469 4.22664C11.0507 4.12417 10.8956 4.14501 10.7279 4.29639ZM4.93665 5.98023C4.50628 6.16921 4.65985 6.85823 5.1323 6.85823C5.37036 6.85823 5.57793 6.64894 5.57793 6.40891C5.57793 6.17556 5.50691 6.05803 5.31768 5.9782C5.12691 5.89774 5.12442 5.89774 4.93665 5.98023ZM9.62741 5.98023C9.19703 6.16921 9.35061 6.85823 9.82306 6.85823C10.0611 6.85823 10.2687 6.64894 10.2687 6.40891C10.2687 6.17556 10.1977 6.05803 10.0084 5.9782C9.81766 5.89774 9.81518 5.89774 9.62741 5.98023ZM12.901 6.31989C12.7602 6.41942 12.6627 6.65675 12.6943 6.82324C12.7251 6.98613 12.9579 7.1897 13.1132 7.1897C13.3724 7.1897 13.5964 6.97496 13.5981 6.72489C13.5994 6.51877 13.5332 6.40167 13.3655 6.31416C13.1883 6.22168 13.0372 6.22353 12.901 6.31989ZM22.7428 9.76006C22.7446 9.85855 22.7134 10.0181 22.6735 10.1145C22.4454 10.6657 21.8732 10.8471 21.1278 10.6046C20.8866 10.5262 20.6852 10.4975 20.3688 10.4968C19.72 10.4952 19.4068 10.6059 18.6911 11.0896C18.295 11.3573 18.0199 11.4514 17.6332 11.4514C17.2464 11.4514 16.9713 11.3573 16.5753 11.0896C15.858 10.6049 15.5577 10.4993 14.8922 10.4979C14.2423 10.4965 13.8582 10.6236 13.2473 11.0418C12.8277 11.3291 12.5041 11.449 12.145 11.45C11.7119 11.4512 11.5292 11.3864 11.002 11.0446C10.7459 10.8786 10.4181 10.698 10.2736 10.6432C9.75373 10.4465 8.9579 10.4431 8.45636 10.6355C8.32657 10.6853 8.02054 10.8567 7.77625 11.0165C7.23207 11.3723 7.01907 11.4514 6.6045 11.4514C6.22178 11.4514 5.94352 11.3552 5.55199 11.0874C4.65901 10.4768 3.99766 10.3555 3.0232 10.6234C2.51843 10.7623 2.32118 10.7581 2.02036 10.6024C1.68535 10.429 1.49697 10.12 1.49697 9.74401C1.49697 9.52756 1.5063 9.50441 1.57906 9.5404C1.62418 9.5627 6.28778 9.58642 11.9425 9.59315C21.7622 9.60475 22.2341 9.60143 22.4498 9.51966C22.7096 9.42121 22.737 9.44366 22.7428 9.76006ZM10.0705 11.588C10.1796 11.6442 10.428 11.795 10.6226 11.9232C11.1187 12.2502 11.4227 12.3552 11.9574 12.3843C12.6524 12.4221 13.0822 12.295 13.7085 11.8665C14.1885 11.5381 14.4448 11.4438 14.8545 11.4447C15.3116 11.4457 15.5193 11.5204 16.0749 11.8837C16.6244 12.2431 16.9332 12.3556 17.4557 12.3869C18.1514 12.4286 18.608 12.2874 19.2902 11.8197C19.8568 11.4313 20.3644 11.3485 20.9875 11.5428C21.1604 11.5967 21.3418 11.6408 21.3907 11.6408C21.472 11.6408 21.4796 11.6811 21.4796 12.1143V12.5878H12.0043H2.52893V12.1422V11.6965L2.72829 11.6646C2.83796 11.6471 3.0618 11.5919 3.22575 11.5421C3.58778 11.432 4.12764 11.4235 4.40861 11.5236C4.52021 11.5634 4.80953 11.7254 5.05162 11.8837C5.60115 12.2431 5.90994 12.3556 6.43239 12.3869C7.12592 12.4284 7.58515 12.2871 8.26019 11.8244C8.41302 11.7196 8.61608 11.6007 8.71149 11.5601C9.1019 11.3942 9.71878 11.4069 10.0705 11.588ZM5.03689 14.8575C5.7604 15.5849 6.41396 16.2038 6.48929 16.2327C6.56458 16.2615 6.68157 16.2729 6.74925 16.2579C6.82473 16.2412 7.14328 15.9566 7.57314 15.522C7.95858 15.1322 8.29509 14.8134 8.32094 14.8134C8.37629 14.8134 10.0341 16.4757 10.0341 16.5312C10.0341 16.552 8.24523 16.5625 6.05873 16.5546C1.59247 16.5385 1.85788 16.5599 1.43186 16.1813C0.550374 15.3981 0.920756 13.8457 2.04734 13.6014C2.19613 13.5692 2.63368 13.541 3.01968 13.5388L3.72147 13.5349L5.03689 14.8575ZM7.38448 13.8196L7.66358 14.1043L7.16012 14.6125L6.65671 15.1207L5.87124 14.3278L5.08573 13.5349H6.09555H7.10538L7.38448 13.8196ZM14.1151 15.4526C13.0705 16.5074 12.2156 17.3704 12.2153 17.3704C12.2151 17.3704 11.3602 16.5074 10.3156 15.4526L8.41626 13.5349H12.2153H16.0144L14.1151 15.4526ZM21.8888 13.5875C22.6277 13.7174 23.1305 14.4014 23.0586 15.1788C22.991 15.9088 22.5366 16.4018 21.8222 16.5198C21.5421 16.5662 14.3965 16.586 14.3965 16.5405C14.3965 16.5268 15.0668 15.8457 15.8859 15.0271L17.3752 13.5386L19.4822 13.5367C20.8261 13.5355 21.6977 13.554 21.8888 13.5875ZM22.7004 17.3971C22.7749 17.5951 22.7528 17.8946 22.6476 18.114C22.4206 18.5876 21.8644 18.7613 21.2123 18.5622C20.3124 18.2875 19.5876 18.4134 18.7435 18.9912C18.2803 19.3083 18.0825 19.377 17.6332 19.377C17.1804 19.377 16.9863 19.3086 16.5078 18.9806C15.825 18.5126 15.193 18.3447 14.4983 18.4469C14.0499 18.5129 13.7537 18.6417 13.1905 19.0157C12.8265 19.2574 12.7058 19.3116 12.4252 19.3594C11.8956 19.4496 11.596 19.3713 11.0072 18.9889C10.4406 18.6209 10.0551 18.4681 9.59406 18.4287C8.94744 18.3735 8.37061 18.5451 7.73309 18.9821C7.25694 19.3086 7.06217 19.377 6.60989 19.377C6.16052 19.377 5.9628 19.3083 5.49959 18.9912C4.66201 18.4179 3.92345 18.2868 3.05172 18.5566C2.21737 18.8149 1.55349 18.4725 1.50963 17.7613C1.4866 17.3874 1.52563 17.3391 1.78545 17.4199C1.94831 17.4705 2.90298 17.4865 6.51608 17.4995L11.0427 17.5157L11.5117 17.9865C12.1933 18.6707 12.2522 18.6689 12.9649 17.942L13.3861 17.5124L17.468 17.511C21.4726 17.5096 22.0165 17.4923 22.3943 17.355C22.6522 17.2612 22.6489 17.2607 22.7004 17.3971ZM4.27202 19.4237C4.44539 19.4649 4.6766 19.5803 4.93858 19.7562C5.70828 20.2732 6.22295 20.4167 6.95344 20.3181C7.42036 20.255 7.71123 20.1311 8.28271 19.7515C9.0799 19.2222 9.69528 19.2315 10.5028 19.7851C11.599 20.5365 12.644 20.5365 13.7402 19.7851C14.2976 19.403 14.6804 19.3042 15.2121 19.4055C15.4494 19.4507 15.6122 19.5264 15.9532 19.7497C16.7599 20.2783 17.2503 20.4163 17.9737 20.3183C18.4497 20.2538 18.7058 20.1463 19.2631 19.7766C19.9232 19.3388 20.2957 19.2741 20.9671 19.4809C21.2236 19.5599 21.4817 19.6042 21.7024 19.607L22.0425 19.6114V20.2803C22.0425 20.72 22.0186 21.042 21.9726 21.22C21.759 22.048 21.1471 22.6896 20.3304 22.942C20.0619 23.0249 19.677 23.029 12.0043 23.029C4.3315 23.029 3.94662 23.0249 3.67817 22.942C2.86146 22.6896 2.24955 22.048 2.03589 21.22C1.98917 21.0389 1.96604 20.716 1.96604 20.2451V19.5411L2.11521 19.5741C2.40608 19.6386 2.87652 19.6008 3.256 19.4825C3.68802 19.3477 3.90042 19.3355 4.27202 19.4237Z" fill="#EB0029"/>
</svg>
