<svg width="24" height="24" viewBox="0 0 24 24" fill="none" xmlns="http://www.w3.org/2000/svg">
<path fill-rule="evenodd" clip-rule="evenodd" d="M6.89108 0.041217C6.56672 0.139899 6.27386 0.388785 6.11517 0.700631C6.06585 0.797532 6.023 1.01088 6.01049 1.22184L5.9893 1.57898L5.74885 1.63406C5.27025 1.74376 4.92456 2.11345 4.82944 2.61737C4.76587 2.95401 4.76859 3.93043 4.83356 4.11687C4.90027 4.30824 5.02057 4.37265 5.36776 4.40303L5.64904 4.42759L5.84542 6.09183C5.95339 7.00717 6.04307 7.81167 6.04466 7.8797L6.04752 8.00327L5.23884 8.02709C4.36378 8.05287 4.06675 8.11035 3.43785 8.37555C2.23843 8.88134 1.25517 10.0495 0.936569 11.3474C0.831745 11.7742 0.764097 12.6762 0.816087 12.9534C0.855092 13.1613 1.09062 13.4424 1.29867 13.5293C1.38207 13.5641 1.57751 13.5926 1.73306 13.5926H2.01584V14.2169V14.8411L1.76349 14.9457C1.44512 15.0777 1.1209 15.3948 0.951805 15.7398C0.84159 15.9646 0.820775 16.0666 0.820635 16.383C0.820447 16.7137 0.839012 16.7968 0.974729 17.0725C1.15137 17.4313 1.40509 17.6762 1.77108 17.841L2.01856 17.9525L2.00548 18.5736L1.9924 19.1948L1.63864 19.22C1.21738 19.2499 1.01964 19.3653 0.886267 19.659C0.812196 19.8221 0.798976 19.9713 0.798789 20.6481C0.798648 21.1699 0.822369 21.5583 0.867468 21.7732C0.953586 22.1832 1.20308 22.6967 1.45567 22.9836L1.64877 23.203H0.961415H0.274061L0.13703 23.3401C0.0544277 23.4227 0 23.5265 0 23.6015C0 23.6765 0.0544277 23.7804 0.13703 23.863L0.274061 24H12.0013H23.7285L23.8655 23.863C24.0434 23.6852 24.0434 23.5179 23.8655 23.3401L23.7285 23.203H22.7404C21.796 23.203 21.7523 23.1991 21.7523 23.1127C21.7523 23.063 22.0804 20.8848 22.4814 18.2723C22.9249 15.3821 23.1995 13.4632 23.1827 13.3713C23.1472 13.178 22.9483 12.9416 22.7522 12.8596C22.668 12.8245 22.4614 12.7957 22.2929 12.7957H21.9867V12.0525C21.9867 11.359 21.9797 11.299 21.8812 11.1544C21.6589 10.8277 21.5904 10.8051 20.7697 10.7868L20.0283 10.7702L20.0094 10.3005C19.9916 9.85653 19.9835 9.8248 19.8609 9.71936C19.7345 9.61065 19.7096 9.60783 18.8666 9.60783C18.0361 9.60783 18.0019 9.60418 18.0019 9.51501C18.0019 9.29454 17.8502 9.04274 17.6448 8.9224C17.4505 8.80848 17.441 8.79311 17.4647 8.63071C17.4853 8.49045 17.955 4.46153 17.955 4.42586C17.955 4.41995 18.095 4.40617 18.2661 4.39529C18.5344 4.37818 18.5923 4.35779 18.688 4.24654C18.795 4.12208 18.7989 4.09067 18.7984 3.33501C18.798 2.6139 18.7894 2.53397 18.6886 2.31799C18.5446 2.00947 18.2579 1.75595 17.9493 1.6643C17.8142 1.62417 17.6758 1.59135 17.6418 1.59135C17.5963 1.59135 17.58 1.50111 17.58 1.24894C17.58 0.839443 17.4361 0.500735 17.1682 0.27993C16.8099 -0.0154141 17.0503 -0.00294398 11.7937 0.00146274C9.16186 0.0036661 6.95568 0.0215743 6.89108 0.041217ZM16.5922 0.862977C16.7558 0.947595 16.783 1.01529 16.783 1.33736V1.59135H11.7903H6.7976V1.3299C6.7976 1.10342 6.81593 1.05012 6.93463 0.931422L7.07166 0.794391H11.7656C15.7936 0.794391 16.4784 0.804142 16.5922 0.862977ZM17.8888 2.5433C17.992 2.66326 18.0019 2.71577 18.0019 3.14116V3.60752L11.802 3.59566L5.60216 3.58375L5.58843 3.24472C5.57038 2.80039 5.63882 2.55038 5.80304 2.46084C5.91377 2.4005 6.69944 2.39281 11.853 2.40163L17.7756 2.41175L17.8888 2.5433ZM17.1368 4.55651C17.1227 4.64033 17.0163 5.54217 16.9002 6.56063C16.7842 7.5791 16.6765 8.50025 16.6611 8.6076L16.633 8.80281L16.1249 8.81856C15.6381 8.83366 15.611 8.83999 15.4752 8.97022C15.3485 9.09173 15.324 9.09914 15.2438 9.04054C14.5727 8.55008 14.2031 8.35267 13.6091 8.16749L13.1967 8.0389L10.0323 8.01471L6.86792 7.99047L6.67159 6.32623C6.56358 5.4109 6.4739 4.604 6.4723 4.53307L6.46944 4.40415H11.8159H17.1624L17.1368 4.55651ZM13.3608 8.93647C13.8177 9.08559 14.01 9.1742 14.3436 9.38914L14.6467 9.58439L14.1539 9.60783C13.6081 9.63381 13.4708 9.68964 13.3119 9.95025C13.235 10.0763 13.2205 10.1876 13.2204 10.6509L13.2202 11.2018H12.4916C11.854 11.2018 11.7401 11.2135 11.5781 11.2961C11.2834 11.4465 11.2043 11.6543 11.2043 12.2781V12.7957H6.39209H1.57986L1.60902 12.2917C1.64141 11.7315 1.72434 11.3724 1.92227 10.9359C2.30129 10.1 2.9991 9.42435 3.84416 9.075C4.47981 8.81219 4.40672 8.81575 8.9072 8.82677C12.9948 8.8368 13.0606 8.83844 13.3608 8.93647ZM17.1936 12.9246L17.1815 16.2414L16.6614 16.2374C16.3753 16.2353 16.1063 16.2201 16.0637 16.2038C15.9925 16.1764 15.9861 15.9025 15.9861 12.8909V9.60783H16.5959H17.2056L17.1936 12.9246ZM5.02952 10.0491C4.79264 10.1568 4.7452 10.4698 4.93478 10.6744C5.01879 10.765 5.08015 10.7798 5.37212 10.7798C5.78349 10.7798 5.84402 10.7592 5.93206 10.5889C6.02779 10.4039 6.01785 10.2894 5.89366 10.145C5.80309 10.0397 5.73999 10.0175 5.48346 10.0006C5.27944 9.98719 5.13092 10.0031 5.02952 10.0491ZM9.90434 10.0134C9.76051 10.0445 9.6104 10.2487 9.6104 10.4132C9.6104 10.4956 9.65602 10.5953 9.72549 10.6647C9.82816 10.7675 9.88029 10.7798 10.2095 10.7798C10.5346 10.7798 10.5907 10.7669 10.6805 10.6714C10.8244 10.5182 10.8171 10.2662 10.6645 10.1229C10.5731 10.037 10.4866 10.0098 10.2778 10.0015C10.1299 9.99567 9.96182 10.001 9.90434 10.0134ZM15.1891 13.1739V15.943L15.0836 15.9111C14.9154 15.8604 14.5302 15.6148 14.2632 15.3882L14.0171 15.1793V12.7921V10.4048H14.6031H15.1891V13.1739ZM19.2208 12.9535V15.5022L19.0427 15.6201C18.8145 15.7711 18.4107 15.9758 18.1811 16.0568L18.0019 16.12V13.2624V10.4048H18.6114H19.2208V12.9535ZM7.52424 10.8106C7.22684 10.8913 7.1139 11.2737 7.328 11.4749C7.42012 11.5614 7.49138 11.5768 7.79896 11.5768C8.12126 11.5768 8.17414 11.564 8.27643 11.4617C8.42251 11.3157 8.42617 11.1066 8.28553 10.9431C8.19749 10.8408 8.13185 10.8169 7.89877 10.8025C7.74434 10.793 7.57581 10.7967 7.52424 10.8106ZM21.1885 12.3152L21.1872 13.0535L20.9962 13.1707C20.7305 13.3336 20.4672 13.6627 20.2777 14.0687C20.1893 14.2581 20.0949 14.4447 20.0681 14.4834C20.0337 14.5328 20.019 14.1114 20.0185 13.0652L20.0178 11.5768H20.6038H21.1898L21.1885 12.3152ZM13.2202 12.8885V13.7783L12.8803 13.4354C12.6325 13.1855 12.4674 13.0628 12.2708 12.9824L12.0013 12.8722V12.4354V11.9987H12.6107H13.2202V12.8885ZM10.4074 13.6166C10.4074 13.6557 10.5479 14.5429 10.5762 14.6826L10.6023 14.8115H9.89848C9.51135 14.8115 9.13518 14.8339 9.06261 14.8613C8.99004 14.8887 8.4505 15.3894 7.86365 15.9739L6.79662 17.0366L5.73061 15.9732C5.14428 15.3883 4.60516 14.8876 4.53259 14.8606C4.45979 14.8336 4.04481 14.8115 3.60671 14.8115H2.8128V14.2021V13.5926H6.61008C8.69859 13.5926 10.4074 13.6034 10.4074 13.6166ZM11.9792 13.723C12.2573 13.8662 12.4367 14.0838 12.6758 14.5681C12.7943 14.808 12.9523 15.0932 13.027 15.2017C13.5701 15.9912 14.4273 16.5912 15.4644 16.9076C15.8373 17.0214 15.9367 17.0312 16.7362 17.0333C17.4824 17.0353 17.6614 17.0211 18.0186 16.9312C19.3739 16.5903 20.3732 15.7732 20.9422 14.5409C21.0342 14.3416 21.1591 14.1135 21.2197 14.0338C21.3826 13.82 21.7561 13.6345 22.0838 13.6048C22.3419 13.5814 22.3618 13.5865 22.3618 13.6768C22.3618 13.7721 20.9761 22.89 20.93 23.0978L20.9066 23.2036L16.7943 23.1916L12.6819 23.1796L11.9747 18.5619C11.5856 16.0222 11.2541 13.8623 11.2378 13.7622L11.2082 13.5801L11.5007 13.6036C11.6615 13.6165 11.8769 13.6702 11.9792 13.723ZM5.0396 16.4054L5.83553 17.2024H4.0577C2.3418 17.2024 2.2727 17.1989 2.07444 17.103C1.72842 16.9355 1.54095 16.542 1.63705 16.1851C1.68937 15.9907 1.91833 15.7368 2.1096 15.6609C2.17406 15.6353 2.6806 15.6131 3.23524 15.6114L4.24367 15.6085L5.0396 16.4054ZM10.8275 16.3468C10.8873 16.753 10.946 17.1116 10.9581 17.1438C10.9753 17.19 10.6383 17.2024 9.36982 17.2024H7.75967L8.5556 16.4054L9.35153 15.6085H10.0352H10.7189L10.8275 16.3468ZM11.2925 19.3753L11.4979 20.7277L11.3515 20.8741L11.2051 21.0205L10.3726 20.1953C9.9147 19.7414 9.47258 19.3359 9.39007 19.2941C9.25613 19.2264 8.89492 19.2182 6.02643 19.2182H2.8128V18.6086V17.9988L6.94996 18.0108L11.0871 18.0228L11.2925 19.3753ZM16.0956 18.0661C15.2509 18.2709 14.597 18.9732 14.4353 19.8491C14.1647 21.3161 15.6294 22.704 17.0644 22.3403C17.9148 22.1247 18.4896 21.578 18.7131 20.772C18.9238 20.0121 18.7117 19.2272 18.1413 18.6569C17.8229 18.3385 17.4943 18.1566 17.0775 18.0683C16.6968 17.9877 16.4214 17.987 16.0956 18.0661ZM17.1812 18.932C17.2922 18.9811 17.4717 19.1099 17.58 19.2182C18.3713 20.0096 17.9668 21.3311 16.8631 21.5602C16.0193 21.7354 15.2222 21.076 15.2222 20.2027C15.2222 19.3755 15.8908 18.7521 16.7054 18.8199C16.856 18.8324 17.0701 18.8829 17.1812 18.932ZM10.0558 20.9997C10.9241 21.8687 11.0569 21.9842 11.1886 21.9842C11.2812 21.9842 11.3932 21.9375 11.484 21.8611C11.5644 21.7935 11.6369 21.746 11.6451 21.7557C11.6596 21.7728 11.8625 23.0982 11.8613 23.1679C11.8603 23.2212 3.58862 23.2105 3.26055 23.1568C2.48239 23.0294 1.82837 22.4035 1.66433 21.6291C1.62331 21.4354 1.59523 21.0444 1.59472 20.6598L1.59392 20.0152H5.33302H9.07213L10.0558 20.9997Z" fill="#EB0029"/>
</svg>
