<svg width="24" height="24" viewBox="0 0 24 24" fill="none" xmlns="http://www.w3.org/2000/svg">
<path fill-rule="evenodd" clip-rule="evenodd" d="M7.60504 0.0478786C7.3139 0.116216 6.88773 0.367083 6.68014 0.592277C6.57477 0.70661 6.42167 0.941285 6.34 1.11368C6.20548 1.39759 6.1915 1.4693 6.19192 1.87308C6.19234 2.2617 6.20919 2.35487 6.32287 2.5986C6.39463 2.75241 6.50479 2.94569 6.56768 3.02815L6.68206 3.17806L5.24562 7.27773C4.45561 9.53258 3.71958 11.6414 3.61003 11.9641C3.50048 12.2868 2.64388 14.7368 1.70644 17.4085C0.0590289 22.104 0.00200287 22.2781 3.16074e-05 22.6183C-0.00330077 23.1958 0.256906 23.6239 0.761926 23.8719C0.984773 23.9814 1.08648 24.0024 1.38062 23.9998C1.71888 23.9968 1.90615 23.9359 6.16798 22.4434C10.818 20.8149 15.094 19.3197 18.3711 18.1763C19.4424 17.8024 20.4309 17.4555 20.5679 17.4053L20.817 17.314L20.9689 17.4298C21.0524 17.4935 21.2465 17.6043 21.4003 17.6761C21.6441 17.7897 21.7372 17.8066 22.1259 17.807C22.5296 17.8074 22.6014 17.7935 22.8853 17.6589C23.321 17.4525 23.5934 17.1861 23.8037 16.7606C23.9758 16.4123 23.9785 16.3984 23.9964 15.7482C24.0522 13.7164 23.5983 11.3709 22.7742 9.43186C20.34 3.70472 14.6488 -0.0434568 8.45353 0.000380433C8.08706 0.00300879 7.70524 0.0243642 7.60504 0.0478786ZM9.71157 0.982869C12.6895 1.23402 15.5361 2.38608 17.8014 4.257C18.3089 4.67608 19.2986 5.6674 19.7225 6.18115C21.2405 8.0209 22.2835 10.191 22.7557 12.4922C22.9644 13.5091 23.0318 14.1709 23.0366 15.2495C23.041 16.2338 23.0383 16.263 22.9297 16.4378C22.613 16.9471 21.8918 17.0337 21.4709 16.6128C21.2442 16.3861 21.1873 16.1633 21.1867 15.5022C21.1834 10.9053 18.7267 6.70297 14.7147 4.43132C12.8631 3.38289 10.6773 2.81375 8.49671 2.8122C8.18994 2.81197 7.85253 2.78587 7.74687 2.75424C7.3981 2.64976 7.10607 2.24514 7.10696 1.86764C7.10781 1.50605 7.40833 1.07918 7.72674 0.987375C7.93579 0.92711 9.02111 0.924623 9.71157 0.982869ZM9.00755 3.7716C13.8612 3.95103 18.1338 7.18884 19.6635 11.8468C20.0448 13.0077 20.1911 13.9097 20.2456 15.4373C20.2664 16.0181 20.2797 16.498 20.2751 16.5037C20.2556 16.528 17.4239 17.5091 17.4145 17.4948C17.4088 17.4861 17.379 17.3522 17.3484 17.1973C17.2022 16.4571 16.5866 15.6711 15.8835 15.3268C15.0411 14.9143 14.1059 14.9236 13.2874 15.3524C12.9066 15.5519 12.3372 16.1213 12.1377 16.502C11.9418 16.876 11.8002 17.4336 11.8002 17.831C11.8002 18.2003 11.9337 18.7597 12.1004 19.0886L12.219 19.3227L11.9509 19.421C10.7533 19.86 1.44009 23.0877 1.37091 23.0877C1.14294 23.0877 0.911273 22.8539 0.911273 22.6239C0.911273 22.5777 1.65294 20.4191 2.55939 17.827C3.46585 15.2348 4.25257 12.9841 4.30772 12.8254L4.40792 12.5367L4.7123 12.7213C5.82728 13.3973 7.21975 13.2249 8.14085 12.2969C8.54721 11.8874 8.75635 11.5253 8.89138 10.9974C9.06072 10.3352 8.97281 9.61519 8.64652 8.99245C8.44705 8.61172 7.87764 8.0423 7.4969 7.84283C7.18267 7.67818 6.57965 7.50527 6.31972 7.50527C6.18803 7.50527 6.16353 7.49072 6.18793 7.42708C6.24712 7.2729 7.48216 3.73809 7.48216 3.72298C7.48216 3.71443 7.68807 3.71683 7.93978 3.72823C8.19149 3.73968 8.67196 3.75916 9.00755 3.7716ZM11.1025 6.16129C10.0387 6.69687 9.92836 6.77741 9.92442 7.02198C9.92043 7.27205 10.1452 7.50527 10.3902 7.50527C10.4433 7.50527 10.968 7.26445 11.5563 6.97017C12.6516 6.42206 12.7389 6.35767 12.7389 6.09723C12.7389 5.85208 12.5057 5.62468 12.2601 5.63041C12.2008 5.63177 11.6798 5.87067 11.1025 6.16129ZM6.93908 8.62326C7.36257 8.82147 7.63658 9.09097 7.84661 9.51596C8.01224 9.85108 8.02191 9.89543 8.02191 10.3214C8.02191 10.7473 8.01224 10.7917 7.84661 11.1268C7.6355 11.554 7.36374 11.82 6.92739 12.0267C6.64386 12.1611 6.5712 12.1753 6.16798 12.1753C5.76519 12.1753 5.69263 12.1611 5.41703 12.0288C5.24923 11.9483 5.02953 11.8099 4.92876 11.7213L4.74557 11.5603L5.27791 10.0373C5.57069 9.19972 5.83263 8.49734 5.86004 8.4765C5.88745 8.45561 6.0735 8.44834 6.27354 8.46031C6.54811 8.47669 6.71126 8.51663 6.93908 8.62326ZM14.1759 8.49316C13.8789 8.56779 13.4562 8.81795 13.251 9.04056C13.1457 9.15489 12.9926 9.38957 12.9109 9.56196C12.7764 9.84587 12.7623 9.91782 12.7623 10.3238C12.7623 10.7469 12.7722 10.792 12.9376 11.1268C13.1488 11.554 13.4205 11.82 13.8569 12.0267C14.1404 12.1611 14.2131 12.1753 14.6163 12.1753C15.0195 12.1753 15.0921 12.1611 15.3757 12.0267C15.812 11.82 16.0838 11.554 16.2949 11.1268C16.4605 10.7917 16.4702 10.7473 16.4702 10.3214C16.4702 9.89543 16.4605 9.85108 16.2949 9.51596C15.9778 8.87422 15.4143 8.49767 14.7218 8.46472C14.5218 8.45519 14.2761 8.468 14.1759 8.49316ZM15.1318 9.54093C15.4117 9.72609 15.5315 9.96006 15.5315 10.3214C15.5315 10.6874 15.4114 10.9168 15.1185 11.1107C14.8566 11.284 14.3983 11.2907 14.132 11.1252C13.7767 10.9043 13.6098 10.4658 13.7222 10.0485C13.7867 9.80865 14.074 9.50137 14.2976 9.43294C14.5437 9.35761 14.9305 9.40769 15.1318 9.54093ZM10.1626 11.3256C10.0303 11.3989 9.92677 11.5695 9.92442 11.7181C9.92353 11.7764 10.1636 12.3053 10.4579 12.8935C11.006 13.9889 11.0704 14.0762 11.3308 14.0762C11.5698 14.0762 11.8002 13.8467 11.8002 13.6087C11.8002 13.5556 11.5594 13.0309 11.2651 12.4427C10.8431 11.5995 10.7037 11.3613 10.6058 11.3166C10.447 11.2443 10.304 11.2472 10.1626 11.3256ZM16.7335 13.203C16.5114 13.326 16.4374 13.5965 16.5605 13.8347C16.6636 14.034 16.8159 14.0762 17.4324 14.0762C18.0489 14.0762 18.2011 14.034 18.3042 13.8347C18.4298 13.5917 18.3427 13.2977 18.1142 13.1936C17.9405 13.1144 16.8803 13.1216 16.7335 13.203ZM6.40782 14.1417C6.18573 14.2647 6.11171 14.5352 6.23487 14.7734C6.33794 14.9727 6.49019 15.0149 7.10668 15.0149C7.72317 15.0149 7.87543 14.9727 7.9785 14.7734C8.10414 14.5304 8.01703 14.2364 7.78855 14.1322C7.6148 14.0531 6.55463 14.0603 6.40782 14.1417ZM10.1626 15.0804C9.75574 15.3059 9.92597 15.9536 10.3921 15.9536C10.6299 15.9536 10.8615 15.7243 10.8615 15.4888C10.8615 15.1364 10.4721 14.9088 10.1626 15.0804ZM15.3874 16.1328C15.5534 16.2105 15.786 16.3633 15.9044 16.4725C16.1895 16.7353 16.4446 17.2487 16.4593 17.5895L16.4702 17.8409L14.8816 18.3974C14.0079 18.7035 13.2544 18.9662 13.2072 18.9812C13.1377 19.0032 13.0876 18.9398 12.9419 18.645C12.7717 18.3006 12.7623 18.2584 12.7623 17.8334C12.7623 17.4274 12.7764 17.3555 12.9109 17.0715C13.0995 16.6734 13.368 16.382 13.7182 16.1954C14.0879 15.9983 14.2902 15.9537 14.7218 15.9743C15.0035 15.9877 15.1536 16.0234 15.3874 16.1328ZM5.20225 16.9888C4.87174 17.1159 4.60158 17.3627 4.44599 17.6796C4.33654 17.9025 4.31424 18.0082 4.31504 18.3003C4.31664 18.8799 4.57722 19.3071 5.07994 19.5539C5.29983 19.6619 5.40839 19.6849 5.69863 19.6849C6.51347 19.6849 7.07998 19.118 7.08223 18.3003C7.08303 18.0082 7.06073 17.9025 6.95128 17.6796C6.63494 17.0354 5.86826 16.7326 5.20225 16.9888ZM5.9265 17.8978C6.24327 18.0616 6.23379 18.5666 5.91116 18.7136C5.67033 18.8233 5.40787 18.7442 5.29617 18.5282C5.07586 18.1021 5.50048 17.6775 5.9265 17.8978Z" fill="#EB0029"/>
</svg>
