<svg width="24" height="28" viewBox="0 0 24 28" fill="none" xmlns="http://www.w3.org/2000/svg">
<path fill-rule="evenodd" clip-rule="evenodd" d="M10.267 0.102645C10.0801 0.216998 10.0067 0.394053 10.0451 0.638297C10.0803 0.862462 11.4459 2.98368 11.6004 3.05431C11.8322 3.16029 12.0485 3.12506 12.2196 2.95347C12.5073 2.66486 12.467 2.53918 11.6923 1.30641C11.3146 0.705432 10.9432 0.164418 10.8668 0.104177C10.6915 -0.0341949 10.4916 -0.0347421 10.267 0.102645ZM14.4788 0.202225C14.3559 0.227722 14.1918 0.360513 14.1223 0.490788C14.0241 0.675011 13.5176 3.07899 13.5499 3.20806C13.6446 3.58652 14.1298 3.73704 14.4274 3.48026C14.5569 3.36854 14.6052 3.21019 14.8666 2.04402C15.0281 1.32316 15.1484 0.681029 15.1339 0.617123C15.0725 0.347273 14.7535 0.145268 14.4788 0.202225ZM17.0914 2.43254C16.4944 2.8104 15.9508 3.18109 15.8832 3.25632C15.6373 3.53044 15.8165 4.04393 16.1826 4.11413C16.3971 4.15527 16.5363 4.08458 17.7004 3.3432C18.7268 2.68959 18.8693 2.56145 18.8693 2.29269C18.8693 2.00588 18.6021 1.74555 18.3077 1.74555C18.2342 1.74555 17.7009 2.04681 17.0914 2.43254ZM4.68579 2.97498C4.49048 3.08151 2.01379 8.63035 1.81603 9.40444C1.58701 10.3008 1.63981 11.4051 1.95538 12.3169C2.4643 13.7875 3.75527 15.1861 5.15468 15.7828L5.48715 15.9245L4.9472 17.9586C4.65023 19.0774 4.37856 20.0221 4.34349 20.058C4.30842 20.0939 3.56798 20.4289 2.69806 20.8025C1.82814 21.176 0.99143 21.5451 0.838771 21.6228C0.523144 21.7833 0.248696 22.0713 0.101382 22.3966C-0.0213888 22.6678 -0.0355693 23.2799 0.0748208 23.5449C0.187611 23.8157 0.528489 24.1688 0.820445 24.3172C0.961432 24.3889 2.2361 24.7589 3.65301 25.1395C5.98478 25.7657 6.26349 25.8293 6.59067 25.8093C7.18604 25.7729 7.6366 25.4697 7.86911 24.9492C8.02056 24.6102 8.02078 24.0753 7.8696 23.7369C7.80818 23.5994 7.2492 22.8015 6.62743 21.9638C6.00562 21.126 5.48546 20.4107 5.4715 20.3743C5.4529 20.3256 6.29725 17.037 6.51884 16.295C6.54099 16.221 6.59384 16.2156 6.88481 16.2583C7.38413 16.3314 8.28912 16.2642 8.94295 16.1055C9.55899 15.9559 10.4685 15.5534 10.9108 15.2347L11.1732 15.0456L11.31 15.3453C11.8318 16.4887 13.0111 17.5498 14.302 18.0375C15.1253 18.3485 15.7104 18.445 16.6463 18.424C17.1645 18.4124 17.4578 18.4261 17.4717 18.4624C17.4836 18.4935 17.7327 19.4211 18.0253 20.5239L18.5574 22.529L17.3989 24.0934C16.7618 24.9538 16.1893 25.7619 16.1267 25.8892C15.9636 26.2208 15.9666 26.798 16.1332 27.1422C16.4072 27.7083 17.0257 28.0565 17.6438 27.9925C17.9785 27.9578 22.7788 26.6747 23.099 26.5343C24.0932 26.0984 24.3108 24.813 23.5193 24.0515C23.3447 23.8835 22.946 23.6882 21.4865 23.0555C20.4878 22.6227 19.6529 22.2489 19.631 22.225C19.5845 22.174 18.5414 18.2704 18.5436 18.1554C18.5444 18.1126 18.71 18.0043 18.9117 17.9144C19.4921 17.6558 20.1664 17.1706 20.6736 16.6464C21.2149 16.087 21.526 15.6448 21.8175 15.0203C22.1676 14.2705 22.2599 13.8618 22.2883 12.9346C22.3249 11.7418 22.2785 11.5912 20.9516 8.60261C19.4684 5.26176 19.445 5.21262 19.3049 5.13745C19.2381 5.10155 19.1066 5.07327 19.0127 5.07453C18.9189 5.07584 17.7008 5.38596 16.3059 5.76365C14.9111 6.14134 13.7496 6.45048 13.7248 6.45064C13.7 6.45081 13.6968 6.23299 13.7175 5.96659C13.755 5.48674 13.7539 5.48061 13.5989 5.31067C13.4632 5.1618 13.3241 5.10653 12.546 4.89227C11.4724 4.59665 11.3366 4.58839 11.1204 4.80533C10.9144 5.01199 10.9048 5.28135 11.0953 5.50846C11.2072 5.64191 11.3435 5.69931 11.9134 5.85289C12.52 6.01643 12.5972 6.05052 12.5972 6.15497C12.5972 6.27534 12.4571 7.66234 12.4033 8.07478L12.3735 8.30338L12.1718 8.21808C11.2196 7.81576 9.92768 7.72297 8.85793 7.98012C8.28029 8.11893 7.96433 8.24746 7.39335 8.57591C6.29643 9.20687 4.81472 9.30268 3.61369 8.82037C3.35233 8.71537 3.26812 8.65645 3.28584 8.5909C3.30826 8.50839 5.2354 4.15084 5.27019 4.10406C5.27903 4.09224 5.64085 4.17557 6.07428 4.28932L6.86234 4.49609L7.04222 4.39065C7.14977 4.32768 7.2522 4.20594 7.29692 4.08803C7.36259 3.91491 7.36057 3.86715 7.2805 3.69786C7.16897 3.4621 7.0636 3.41669 5.93782 3.1192C5.01227 2.87463 4.89457 2.86106 4.68579 2.97498ZM8.85334 4.04311C8.6841 4.11161 8.56117 4.31411 8.56117 4.52437C8.56117 4.76473 8.63802 4.89944 8.83278 5.0005C9.06998 5.1235 9.248 5.10145 9.44533 4.92455C9.90412 4.51338 9.4312 3.80915 8.85334 4.04311ZM19.7348 8.54291C20.2787 9.76873 20.7237 10.7857 20.7237 10.8029C20.7237 10.8606 20.1133 11.1057 19.7486 11.1944C19.5154 11.2512 19.146 11.2822 18.7057 11.2821C17.8239 11.282 17.4306 11.1757 16.4603 10.6752C15.5453 10.2033 15.0057 10.0599 13.9955 10.0201L13.2941 9.99246L13.3261 9.74001C13.3437 9.6012 13.3983 9.08136 13.4472 8.58483C13.4963 8.08829 13.5521 7.66787 13.5713 7.65058C13.5905 7.63329 14.6983 7.32771 16.0332 6.97147C17.3681 6.61528 18.5094 6.30576 18.5694 6.28366C18.6294 6.26161 18.6936 6.25942 18.7122 6.27884C18.7308 6.29832 19.191 7.3171 19.7348 8.54291ZM11.2595 9.07687C11.482 9.13399 11.8022 9.24621 11.9709 9.32626C12.2742 9.47021 12.2772 9.47404 12.2468 9.67123C12.2298 9.78088 12.1766 10.2643 12.1283 10.7454C12.0207 11.8187 11.9055 12.2863 11.605 12.8682C11.3149 13.43 10.6254 14.1508 10.0579 14.4856C9.2294 14.9745 8.10118 15.2492 7.2078 15.1796C5.95424 15.0819 4.93499 14.5864 4.02803 13.6337C3.2331 12.7988 2.83419 11.8994 2.79132 10.8453C2.77763 10.5088 2.78358 10.1185 2.80458 9.97801C2.84848 9.68442 2.83343 9.68573 3.45126 9.92117C4.2307 10.2182 5.38958 10.3085 6.26987 10.1411C6.87565 10.0258 7.40617 9.82897 7.96122 9.51371C8.46752 9.22613 8.95364 9.05017 9.46109 8.97078C9.90909 8.90069 10.7709 8.95152 11.2595 9.07687ZM14.997 11.2359C15.1919 11.2866 15.511 11.4129 15.706 11.5166C17.0733 12.2443 17.5558 12.3835 18.7057 12.3823C19.5628 12.3814 20.1044 12.2834 20.784 12.0064C20.9709 11.9302 21.1368 11.8809 21.1527 11.8967C21.2325 11.9768 21.2223 13.2369 21.1386 13.6482C20.8299 15.1648 19.5233 16.5909 17.9555 17.1228C17.4872 17.2816 17.3377 17.306 16.6979 17.3276C15.6404 17.3631 14.8783 17.186 14.0486 16.7116C13.1195 16.1805 12.3962 15.3273 12.1075 14.422C12.0434 14.2208 12.0488 14.2019 12.2575 13.9022C12.693 13.2767 12.9797 12.5621 13.0895 11.8284C13.1866 11.1795 13.1905 11.1664 13.2926 11.1359C13.4862 11.0779 14.6523 11.1464 14.997 11.2359ZM5.77677 22.648C6.38015 23.4613 6.88721 24.1942 6.90363 24.2766C6.94835 24.5009 6.75261 24.7255 6.51235 24.7255C6.24969 24.7255 1.41728 23.4244 1.25835 23.3109C1.06539 23.173 1.02694 23.0172 1.134 22.8068C1.21788 22.6418 1.36291 22.5672 2.88895 21.903C3.80387 21.5048 4.58107 21.1768 4.61614 21.174C4.65116 21.1713 5.17344 21.8346 5.77677 22.648ZM21.3994 24.2109C22.116 24.5223 22.748 24.8185 22.8038 24.8692C22.9618 25.0126 22.9413 25.3559 22.7678 25.47C22.6138 25.5712 17.7234 26.9099 17.4982 26.9124C17.2753 26.915 17.1022 26.7429 17.1022 26.5187C17.1022 26.3563 17.2674 26.1049 18.2162 24.8232L19.3302 23.3183L19.7134 23.4815C19.9241 23.5712 20.6828 23.8994 21.3994 24.2109Z" fill="#EB0029"/>
</svg>
