<svg width="48" height="60" viewBox="0 0 48 60" fill="none" xmlns="http://www.w3.org/2000/svg">
<path fill-rule="evenodd" clip-rule="evenodd" d="M12.0668 0.135745C11.0683 0.327352 9.68444 1.06261 8.85891 1.84018C7.4526 3.16479 6.75619 4.75379 6.73861 6.67795C6.70892 9.92063 8.77892 12.5608 11.978 13.3604L12.4728 13.4841V14.4757V15.4673H12.0071H11.5414V18.3971V21.3269H12.0071H12.4728L12.4733 23.6414C12.4741 27.7171 13.0119 29.658 14.8283 32.1398C15.372 32.8825 16.9512 34.4523 17.1549 34.4523C17.2054 34.4523 17.2466 35.0191 17.2465 35.7121L17.2464 36.9719L13.6079 37.7781C11.6068 38.2215 9.52935 38.7114 8.99141 38.8667C4.80764 40.0748 1.62102 43.3073 0.4038 47.5777L0.0865119 48.691L0.0433143 54.3455L0 60H24H48L47.9567 54.3455L47.9135 48.691L47.5962 47.5777C46.379 43.3073 43.1924 40.0748 39.0086 38.8667C38.4707 38.7114 36.3932 38.2215 34.3921 37.7781L30.7536 36.9719L30.7535 35.7121C30.7534 35.0191 30.7946 34.4523 30.8451 34.4523C31.0488 34.4523 32.628 32.8825 33.1717 32.1398C34.9881 29.658 35.5259 27.7171 35.5267 23.6414L35.5272 21.3269H35.9929H36.4586V18.3971V15.4673H35.9929H35.5272V14.4757V13.4841L36.022 13.3604C38.5369 12.7318 40.3397 10.9929 41.0669 8.49442C41.3531 7.51141 41.3278 5.80827 41.0121 4.80289C40.1302 1.99416 37.4318 -0.00992429 34.5451 3.69688e-05C32.9413 0.00566215 31.302 0.673301 30.0754 1.82049L29.2978 2.54778L28.5643 1.8574C27.8009 1.1389 26.6864 0.505132 25.6883 0.22188C24.9392 0.00929508 23.0608 0.00929508 22.3117 0.22188C21.3136 0.505132 20.1991 1.1389 19.4357 1.8574L18.7022 2.54778L17.9246 1.82049C16.3379 0.336493 14.2097 -0.275597 12.0668 0.135745ZM14.9625 2.21987C16.0267 2.58844 16.8718 3.2637 17.4982 4.24623L17.8531 4.80289H18.7081H19.563L19.9847 4.16349C20.5356 3.32804 21.0804 2.85833 22.0151 2.41254C22.7172 2.0776 22.8741 2.04889 24 2.04889C25.1259 2.04889 25.2828 2.0776 25.9849 2.41254C26.9196 2.85833 27.4644 3.32804 28.0153 4.16349L28.437 4.80289H29.2946H30.1521L30.4216 4.36342C31.4208 2.73388 32.9144 1.93158 34.8055 2.0087C35.6441 2.04292 35.9497 2.11264 36.5823 2.41383C39.5692 3.83618 40.2817 7.7322 37.9899 10.1114C37.035 11.1027 35.8348 11.6 34.3966 11.6H33.6642V13.5336V15.4673H24H14.3358V13.5336V11.6H13.6034C12.1652 11.6 10.965 11.1027 10.0101 10.1114C7.52455 7.53099 8.54872 3.44031 12.0007 2.16022C12.649 1.91987 14.1854 1.9508 14.9625 2.21987ZM34.5957 18.3971V19.3346H24H13.4043V18.3971V17.4596H24H34.5957V18.3971ZM33.6632 23.1726C33.6616 26.3858 33.3748 27.9645 32.4909 29.6268C30.7529 32.8952 27.6267 34.7998 24 34.7998C20.3733 34.7998 17.2471 32.8952 15.5091 29.6268C14.6252 27.9645 14.3384 26.3858 14.3368 23.1726L14.3358 21.3269H24H33.6642L33.6632 23.1726ZM20.411 36.1595C21.5819 36.5686 22.5206 36.7135 24 36.7135C25.7238 36.7135 27.0189 36.4552 28.5701 35.8021C28.747 35.7277 28.7739 35.7875 28.7739 36.2562V36.7961H27.9816C26.4978 36.7961 25.3375 37.7102 25.044 39.1106L24.915 39.7259H24H23.085L22.956 39.1106C22.6625 37.7102 21.5022 36.7961 20.0184 36.7961H19.2261V36.2562C19.2261 35.7875 19.253 35.7277 19.4299 35.8021C19.542 35.8493 19.9834 36.0101 20.411 36.1595ZM20.7888 39.0138C21.072 39.2819 21.0891 39.3634 21.0891 40.4494V41.601H22.083H23.0769L23.0436 42.7382L23.0103 43.8755L18.2073 45.8078L13.4043 47.7401V52.8739V58.0077H12.4758H11.5472L11.5152 56.1034L11.4831 54.199H10.5517H9.62017L9.58815 56.1034L9.55613 58.0077H5.70699H1.85785L1.90873 53.5838C1.95612 49.4647 1.97731 49.0958 2.21729 48.2318C3.12234 44.9719 5.35489 42.3919 8.36382 41.1288C8.95881 40.8789 10.8327 40.3921 13.8119 39.7135C17.9446 38.7719 18.4488 38.6811 19.4207 38.7043C20.3719 38.727 20.5215 38.7608 20.7888 39.0138ZM33.9859 39.6791C36.4666 40.2335 38.892 40.8398 39.3758 41.0265C42.4673 42.2195 44.8899 44.9395 45.7848 48.2223C46.0218 49.0912 46.0441 49.4831 46.0913 53.5838L46.1421 58.0077H42.293H38.4439L38.4119 56.1034L38.3798 54.199H37.4483H36.5169L36.4848 56.1034L36.4528 58.0077H25.9183H15.3837V53.5179V49.028L20.1576 47.109L24.9315 45.1899V43.3954V41.601H25.9212H26.9109V40.4494C26.9109 39.4046 26.9351 39.2758 27.1729 39.0581C27.5366 38.7251 27.6681 38.691 28.6298 38.6804C29.2882 38.6732 30.4741 38.8943 33.9859 39.6791ZM17.8698 50.4482C17.1887 50.7365 17.1117 51.6411 17.731 52.0777C18.4957 52.6168 19.4298 51.8108 19.0632 50.9279C18.8573 50.4317 18.3709 50.2362 17.8698 50.4482ZM17.8698 54.3155C17.1887 54.6038 17.1117 55.5084 17.731 55.9451C18.4957 56.4841 19.4298 55.6781 19.0632 54.7952C18.8573 54.299 18.3709 54.1035 17.8698 54.3155Z" fill="url(#paint0_linear_138_44)"/>
<defs>
<linearGradient id="paint0_linear_138_44" x1="0" y1="0" x2="62" y2="76" gradientUnits="userSpaceOnUse">
<stop stop-color="#FF9D2D"/>
<stop offset="1" stop-color="#EB0029"/>
</linearGradient>
</defs>
</svg>
