<svg width="50" height="60" viewBox="0 0 50 60" fill="none" xmlns="http://www.w3.org/2000/svg">
<path fill-rule="evenodd" clip-rule="evenodd" d="M8.36219 0.193604C5.46855 1.18139 5.1063 5.15407 7.78254 6.55072L8.32264 6.83268V8.09257V9.35258H4.62384C0.569936 9.35258 0.387557 9.38012 0.112738 10.0327C0.00671761 10.2847 -0.0191324 11.6577 0.0127928 15.3411C0.0585365 20.6283 0.0536521 20.579 0.696564 22.2693C1.28396 23.8137 2.76789 25.5615 4.36689 26.5922C5.83248 27.5368 7.26863 27.9728 9.23299 28.0692L10.5601 28.1342L10.8152 28.5806C11.299 29.4273 12.7056 31.1077 13.6397 31.9548C14.6529 32.8735 16.2275 33.9801 17.2272 34.4761C17.8177 34.7691 17.8526 34.8114 17.8526 35.2346C17.8526 35.8503 18.1323 36.7103 18.5039 37.238C18.8588 37.7417 19.6856 38.3634 20.1548 38.4793C20.3652 38.5312 20.4733 38.6362 20.4733 38.7888C20.4733 39.1999 19.2763 42.1856 18.5411 43.6086C17.2895 46.0309 15.8459 47.6398 14.5276 48.0817C14.1482 48.2089 13.4963 48.2591 12.2266 48.2591C10.3043 48.2591 9.9089 48.3549 9.666 48.8791C9.59322 49.0364 9.25443 51.3603 8.91326 54.0432C8.23258 59.3957 8.23271 59.4534 8.9291 59.8077C9.43312 60.0641 40.5669 60.0641 41.0709 59.8077C41.7674 59.4534 41.7675 59.3967 41.0853 54.0316C40.7433 51.3422 40.3907 49.0034 40.3017 48.8342C40.0546 48.3641 39.6355 48.2719 37.5676 48.2329C35.76 48.1987 35.6297 48.1803 35.043 47.8778C33.7866 47.23 32.5045 45.6755 31.3442 43.3934C30.6925 42.1114 29.7133 39.6568 29.5864 38.9872C29.5121 38.5952 29.5308 38.5569 29.8325 38.4825C31.0339 38.1857 32.1447 36.6217 32.1467 35.2239C32.1474 34.8146 32.1873 34.7665 32.7669 34.4777C34.0769 33.8246 35.8514 32.5227 36.9287 31.4241C37.6929 30.6449 38.8102 29.2365 39.1861 28.5784L39.4399 28.1342L40.767 28.0692C42.7314 27.9728 44.1675 27.5368 45.6331 26.5922C47.2321 25.5615 48.716 23.8137 49.3034 22.2693C49.9464 20.579 49.9415 20.6283 49.9872 15.3411C50.0191 11.6577 49.9933 10.2847 49.8873 10.0327C49.6124 9.38012 49.4301 9.35258 45.3762 9.35258H41.6774L41.6813 8.09281L41.6853 6.83303L42.3026 6.48146C44.7159 5.1072 44.5739 1.57924 42.0564 0.363058L41.3795 0.0361028L25.1787 0.00973544C9.86923 -0.0151085 8.94399 -0.00503031 8.36219 0.193604ZM41.0645 2.48827C41.8572 2.89163 41.8572 4.09469 41.0645 4.49805C40.7948 4.63528 39.7902 4.66504 35.4349 4.66504C29.7401 4.66504 29.6514 4.67383 29.3391 5.26798C29.0202 5.87466 29.2413 6.60885 29.8212 6.86877C30.0461 6.96955 31.4182 7.00881 34.7214 7.00881H39.3092L39.2675 14.5382L39.2258 22.0675L38.8545 23.4334C37.8249 27.2199 35.5291 30.1773 32.0453 32.2047C31.3218 32.6257 31.1349 32.6902 30.9732 32.5744C30.8655 32.4972 30.4559 32.277 30.0628 32.0849L29.348 31.7358L25 31.7369L20.652 31.7379L19.9972 32.0377C19.637 32.2026 19.2502 32.4195 19.1377 32.5197C18.9512 32.6857 18.877 32.6733 18.3034 32.3801C17.0844 31.7568 15.9963 30.9629 14.9294 29.9184C12.7021 27.7379 11.2753 24.9248 10.8284 21.8331C10.7606 21.364 10.7088 18.0148 10.7075 14.0108L10.7051 7.00881H15.2858C20.2105 7.00881 20.3524 6.99288 20.6609 6.40588C20.8758 5.99713 20.8758 5.67673 20.6609 5.26798C20.3487 4.67395 20.2591 4.66504 14.5767 4.66504C10.7292 4.66504 9.20166 4.62684 8.97449 4.525C8.1592 4.15961 8.133 2.92011 8.93137 2.48487C9.37201 2.24464 40.592 2.24792 41.0645 2.48827ZM24.4175 4.82864C23.3848 5.39173 23.8169 7.00881 25 7.00881C25.6036 7.00881 26.1912 6.43635 26.1912 5.8483C26.1912 4.96845 25.2029 4.40032 24.4175 4.82864ZM23.9727 11.4071C23.3866 11.7016 23.0441 12.1314 22.3223 13.4778C21.9525 14.1676 21.5595 14.7573 21.4488 14.7881C21.3381 14.8191 20.6353 14.9568 19.887 15.0941C18.3924 15.3686 18.0653 15.497 17.5991 15.9926C17.1172 16.5047 16.9789 16.8536 16.9796 17.5553C16.9805 18.42 17.1986 18.7921 18.4526 20.0672L19.5041 21.1366L19.3359 22.3052C19.0206 24.4947 19.129 25.1622 19.9092 25.8363C20.4454 26.2993 21.0731 26.5053 21.7273 26.4328C22.0083 26.4016 22.8608 26.0816 23.6217 25.7217L25.0052 25.0672L26.3767 25.726C28.04 26.5251 28.7008 26.626 29.5198 26.206C29.8108 26.0569 30.2095 25.7362 30.4057 25.4935C30.8651 24.9255 30.9305 24.1657 30.6691 22.4354L30.4768 21.1626L31.5488 20.0595C32.1384 19.4528 32.6947 18.8126 32.7851 18.6369C33.3719 17.4964 32.8754 16.0502 31.6913 15.4514C31.5387 15.3742 30.7425 15.1947 29.922 15.0525L28.4302 14.7939L27.6382 13.4011C26.6271 11.6224 26.2609 11.3078 25.1422 11.2567C24.5854 11.2312 24.2325 11.2766 23.9727 11.4071ZM8.35445 16.9405C8.40901 22.5591 8.43986 22.8798 9.13316 25.0265L9.36974 25.759L9.11422 25.757C8.48501 25.7519 7.11627 25.3742 6.30647 24.9822C5.19147 24.4423 3.78223 23.1008 3.22199 22.0457C2.44852 20.5891 2.36644 19.9708 2.36644 15.6034V11.6963H5.33501H8.30346L8.35445 16.9405ZM47.6336 15.6034C47.6336 19.9708 47.5515 20.5891 46.778 22.0457C46.2178 23.1008 44.8085 24.4423 43.6935 24.9822C42.8837 25.3742 41.515 25.7519 40.8858 25.757L40.6303 25.759L40.8668 25.0265C41.5601 22.8798 41.591 22.5591 41.6455 16.9405L41.6965 11.6963H44.665H47.6336V15.6034ZM25.885 15.1086C26.339 15.9511 26.8214 16.7114 26.9571 16.7983C27.0928 16.8851 27.9472 17.0885 28.8558 17.2503C29.7644 17.412 30.5281 17.5642 30.5527 17.5886C30.5775 17.613 30.0351 18.2214 29.3475 18.9406C28.119 20.2256 28.0972 20.258 28.0994 20.8063C28.1006 21.1133 28.18 21.8654 28.2759 22.4777C28.5611 24.298 28.6968 24.2151 26.8508 23.3482C25.9688 22.9338 25.1179 22.5949 24.96 22.5949C24.8021 22.5949 23.9692 22.9364 23.1091 23.3537C21.3058 24.2287 21.4426 24.3208 21.7227 22.4191C22.0367 20.2865 22.0844 20.4417 20.6523 18.9348C19.6399 17.8696 19.4416 17.6051 19.61 17.5452C19.7245 17.5044 20.4882 17.3527 21.3072 17.2077C22.1261 17.0629 22.9146 16.8712 23.0592 16.7819C23.204 16.6924 23.6864 15.9345 24.1313 15.0976C24.5764 14.2607 24.9672 13.5762 25 13.5764C25.0328 13.5768 25.431 14.2663 25.885 15.1086ZM29.1759 34.2C29.4649 34.3521 29.765 34.9136 29.765 35.3022C29.765 35.4654 29.6085 35.7713 29.4174 35.9818L29.0698 36.3645H25H20.9302L20.5826 35.9818C20.3915 35.7713 20.235 35.4654 20.235 35.3022C20.235 34.9287 20.5273 34.3627 20.8009 34.2059C21.0858 34.0427 28.8665 34.0371 29.1759 34.2ZM27.5329 40.3984C28.5366 43.3314 29.6972 45.6544 31.0214 47.3802L31.6507 48.2005L28.3253 48.2317C26.4964 48.2488 23.5036 48.2488 21.6747 48.2317L18.3493 48.2005L18.9786 47.3802C20.3028 45.6544 21.4634 43.3314 22.4671 40.3984L23.0254 38.7669H25H26.9746L27.5329 40.3984ZM38.228 50.6322C38.2309 50.6483 38.4353 52.2303 38.6823 54.1478L39.1316 57.6342H25H10.8684L11.3177 54.1478C11.5647 52.2303 11.7691 50.6483 11.772 50.6322C11.7749 50.6161 17.7275 50.6029 25 50.6029C32.2725 50.6029 38.2251 50.6161 38.228 50.6322ZM21.7585 53.2863C21.4388 53.5673 21.3721 53.7107 21.3721 54.1185C21.3721 54.5264 21.4388 54.6698 21.7585 54.9508L22.1448 55.2904H25H27.8552L28.2415 54.9508C28.5612 54.6698 28.6279 54.5264 28.6279 54.1185C28.6279 53.7107 28.5612 53.5673 28.2415 53.2863L27.8552 52.9467H25H22.1448L21.7585 53.2863Z" fill="url(#paint0_linear_138_51)"/>
<defs>
<linearGradient id="paint0_linear_138_51" x1="0" y1="0" x2="61.4449" y2="78.4579" gradientUnits="userSpaceOnUse">
<stop stop-color="#FF9D2D"/>
<stop offset="1" stop-color="#EB0029"/>
</linearGradient>
</defs>
</svg>
