<svg width="60" height="60" viewBox="0 0 60 60" fill="none" xmlns="http://www.w3.org/2000/svg">
<path fill-rule="evenodd" clip-rule="evenodd" d="M26.954 0.996094V1.99219H27.9501H28.9463V3.49629V5.00039L27.5034 5.14031C17.3531 6.12445 8.65599 13.0266 5.40498 22.6778C4.65871 24.8931 4.25991 26.8582 4.07931 29.209L3.93751 31.0547H2.32988C1.44579 31.0547 0.636935 31.0875 0.532635 31.1275C0.265673 31.2299 -0.000351574 31.7927 0.00199225 32.25C0.0101956 33.7928 0.821746 35.6287 2.03679 36.8528C2.94174 37.7645 3.73383 38.2671 4.92204 38.6836C5.64968 38.9386 5.87398 38.9525 9.93279 38.996L14.1817 39.0414L12.8626 40.14C12.0286 40.8345 11.5026 41.1975 11.4321 41.1271C11.3647 41.0597 9.08256 41.0156 5.66034 41.0156H0V42.0117V43.0078H4.98063H9.96127V50.5078V58.0078H4.98063H0V59.0039V60H5.57432C9.58743 60 11.2203 59.9618 11.4046 59.8637C11.9028 59.5984 11.9459 59.4263 11.9498 57.6895L11.9535 56.0236L24.5223 55.9861L37.0911 55.9485L37.8581 55.6908C38.28 55.549 38.9517 55.2345 39.3509 54.9919C40.3359 54.3933 52.9632 43.9378 53.287 43.4528C53.9883 42.4027 54.1916 41.1185 53.8217 40.0781C53.6956 39.7236 53.5532 39.3435 53.5051 39.2334C53.437 39.0771 53.4909 39.0188 53.7509 38.9671C54.9384 38.7308 55.3509 38.6021 56.1347 38.2238C57.3434 37.6403 58.626 36.3648 59.2222 35.1537C59.6501 34.2841 59.996 32.9927 60 32.25C60.0023 31.7927 59.7363 31.2299 59.4693 31.1275C59.365 31.0875 58.5562 31.0547 57.6721 31.0547H56.0645L55.9227 29.209C55.7421 26.8582 55.3433 24.8931 54.597 22.6778C51.3453 13.0246 42.6511 6.12469 32.4986 5.14031L31.0557 5.00039V3.49629V1.99219H32.0518H33.048V0.996094V0H30.001H26.954V0.996094ZM32.6378 7.15359C36.8975 7.6398 41.0201 9.3034 44.5585 11.9637C45.7781 12.8807 48.1317 15.2329 49.0622 16.4648C51.8238 20.1211 53.4874 24.4117 53.9013 28.9453C53.9691 29.6865 54.0246 30.438 54.0249 30.6152L54.0252 30.9375H30.001H5.97676L5.97711 30.6152C5.97734 30.438 6.03289 29.6865 6.10063 28.9453C6.51455 24.4117 8.1782 20.1211 10.9398 16.4648C11.8703 15.2329 14.2239 12.8807 15.4435 11.9637C18.9166 9.3525 23.122 7.63781 27.2265 7.15957C28.4476 7.0173 31.4154 7.01402 32.6378 7.15359ZM27.085 9.2127C23.6596 9.6777 20.1862 11.027 17.4615 12.951C16.6607 13.5164 15.0005 14.8938 15.0005 14.9927C15.0005 15.0329 15.3037 15.3657 15.6743 15.7322L16.3482 16.3984L17.1099 15.7527C19.2343 13.9518 21.7981 12.5824 24.5516 11.7779C25.7519 11.4273 28.3242 11.0169 29.3271 11.0162L30.001 11.0156V10.0195V9.02344L29.1514 9.03551C28.684 9.04207 27.7542 9.12187 27.085 9.2127ZM12.9886 17.0889C12.6942 17.4546 12.2749 18.0089 12.0569 18.3206L11.6605 18.8873L11.9492 19.1213C12.1079 19.2499 12.4726 19.4929 12.7597 19.6611L13.2815 19.967L13.5844 19.5691C13.7509 19.3502 14.1384 18.8559 14.4455 18.4706L15.0037 17.7701L14.6799 17.4288C14.5017 17.2412 14.1688 16.9383 13.9399 16.7557L13.524 16.4237L12.9886 17.0889ZM57.7527 33.4863C57.5435 34.2471 57.1815 34.8314 56.5009 35.5071C55.7367 36.2658 54.8115 36.7403 53.7648 36.9101C52.7505 37.0747 7.25145 37.0747 6.23716 36.9101C4.37428 36.6077 2.71626 35.1843 2.24925 33.4863L2.12831 33.0469H30.001H57.8737L57.7527 33.4863ZM32.1565 39.2011C33.2175 39.7046 33.2088 41.3946 32.1428 41.8166C31.9373 41.8979 30.4351 41.9582 28.0673 41.98C23.9325 42.0182 23.9004 42.0233 23.0303 42.7873C21.7176 43.9398 21.7176 46.0602 23.0303 47.2127C23.951 48.0211 23.6207 47.9883 30.8259 47.9883H37.3347L43.1995 43.8009C46.4252 41.498 49.2662 39.5293 49.5129 39.4262C50.652 38.9503 52.0212 39.9163 52.0304 41.2023C52.0365 42.0539 51.7657 42.3124 45.1187 47.802C41.6059 50.7032 38.4828 53.2131 38.1786 53.3797C37.0076 54.0211 37.0485 54.0192 24.0535 54.0214L12.0707 54.0234V48.7184V43.4134L14.3182 41.5406C15.5542 40.5107 16.6707 39.5927 16.7993 39.5007C17.432 39.048 17.6722 39.0339 24.8269 39.0286C30.8068 39.0241 31.8346 39.0484 32.1565 39.2011ZM41.5149 42.5432L36.585 46.0629L30.5874 46.0295L24.5898 45.9961L24.307 45.6673C23.9457 45.2471 23.9456 44.753 24.3069 44.3327L24.5896 44.0039L28.5551 43.9453C32.4272 43.8881 32.533 43.8803 33.048 43.6125C34.6774 42.7655 35.3894 40.915 34.7387 39.2191C34.6691 39.038 35.0996 39.0234 40.5542 39.0234H46.4448L41.5149 42.5432ZM3.97396 50.1997C2.45106 50.7441 1.64291 52.5139 2.21949 54.0418C2.99037 56.0843 5.5946 56.6312 7.1202 55.0709C7.64392 54.5351 7.89003 53.957 7.94581 53.1314C8.08679 51.0457 5.97277 49.4852 3.97396 50.1997ZM5.68905 52.3189C6.30548 52.9352 5.86578 53.9531 4.98321 53.9531C4.0342 53.9531 3.67407 52.7719 4.44308 52.1815C4.76348 51.9355 5.37299 52.0028 5.68905 52.3189Z" fill="url(#paint0_linear_138_5)"/>
<defs>
<linearGradient id="paint0_linear_138_5" x1="0" y1="0" x2="57.9338" y2="88.7695" gradientUnits="userSpaceOnUse">
<stop stop-color="#FF9D2D"/>
<stop offset="1" stop-color="#EB0029"/>
</linearGradient>
</defs>
</svg>
