<svg width="60" height="60" viewBox="0 0 60 60" fill="none" xmlns="http://www.w3.org/2000/svg">
<path fill-rule="evenodd" clip-rule="evenodd" d="M29.1754 0.177611C28.4093 0.455225 28.0635 0.882253 27.1 2.74017L26.2124 4.45197L25.5468 4.58623C25.1807 4.66015 24.3276 4.81549 23.6509 4.93144C22.1565 5.18771 21.5329 5.5204 21.0827 6.30146C20.6847 6.99174 20.6303 7.98862 20.9561 8.61473C21.0692 8.83213 21.761 9.65246 22.4931 10.4377L23.8245 11.8655L23.5876 13.6579C23.3066 15.7853 23.3101 16.2021 23.6143 16.8238C24.0001 17.6117 24.6962 18.0756 25.5912 18.1415C26.3273 18.1956 26.4441 18.1578 28.1791 17.3047L29.9964 16.4111L31.7986 17.2891C33.223 17.9831 33.727 18.1672 34.203 18.1672C35.1784 18.1672 36.1543 17.5257 36.4708 16.6763C36.6652 16.1548 36.6481 15.4524 36.3942 13.5352L36.1735 11.8677L37.5058 10.4389C38.2387 9.65298 38.9281 8.83371 39.0378 8.61816C39.3631 7.97992 39.3114 6.98515 38.9174 6.30159C38.4477 5.48653 37.8612 5.19601 36.0259 4.86912C35.1706 4.71694 34.3169 4.56014 34.1287 4.52101C33.8439 4.46172 33.6377 4.16197 32.8976 2.73082C31.9525 0.903334 31.4824 0.349687 30.6838 0.124249C30.0534 -0.0537562 29.7879 -0.0444013 29.1754 0.177611ZM30.2834 2.32329C30.3901 2.45004 30.8121 3.20607 31.2214 4.0032C32.0333 5.58496 32.4437 6.117 33.0583 6.3846C33.2793 6.48078 34.1832 6.68342 35.067 6.83481C35.9508 6.9862 36.7705 7.13957 36.8887 7.17567C37.4194 7.33787 37.2529 7.65988 35.9164 9.05638C35.178 9.82796 34.4778 10.6491 34.3604 10.881C34.0985 11.3981 34.0935 12.1843 34.3413 13.8192C34.6111 15.5988 34.5991 16.0591 34.2831 16.0591C34.1441 16.0591 33.262 15.6737 32.3228 15.2026C30.0555 14.0656 29.9445 14.0656 27.6772 15.2026C26.738 15.6737 25.8559 16.0591 25.7169 16.0591C25.4009 16.0591 25.3889 15.5988 25.6587 13.8192C25.9007 12.2231 25.901 11.5554 25.6599 10.9689C25.5535 10.7101 24.8533 9.8584 24.1038 9.07602C22.7115 7.62273 22.5577 7.30545 23.1784 7.16737C23.3309 7.13338 24.1554 6.98041 25.0104 6.82717C25.8656 6.67407 26.7403 6.47248 26.9543 6.37919C27.5561 6.117 27.9711 5.57639 28.7786 4.0032C29.5077 2.58298 29.821 2.09271 30 2.09271C30.0492 2.09271 30.1768 2.19654 30.2834 2.32329ZM11.1446 9.91004C10.9308 10.0087 10.1435 10.5317 9.39512 11.072C8.64687 11.6124 7.97028 12.0938 7.89162 12.142C7.81296 12.1902 6.8895 11.9589 5.83944 11.6278C4.28838 11.1387 3.82471 11.0418 3.36765 11.1115C2.31019 11.2727 1.44752 12.1427 1.29408 13.2029C1.23136 13.6358 1.33957 14.1747 1.80117 15.7272L2.38795 17.7009L1.79676 18.56C0.0106266 21.1551 0 21.1755 0 22.0511C0 22.7172 0.0642764 22.9626 0.356501 23.4115C0.950151 24.3237 1.43041 24.4859 3.82121 24.5816L5.88946 24.6643L7.02687 26.1887C8.21235 27.7776 8.73667 28.2492 9.47456 28.3899C10.3516 28.5572 11.3272 28.1481 11.888 27.378C12.0249 27.1901 12.4151 26.2177 12.7551 25.217L13.3734 23.3977L15.1628 22.7691C16.147 22.4234 17.1034 22.0266 17.2882 21.8875C18.0456 21.3173 18.448 20.3254 18.2834 19.4336C18.145 18.6834 17.6812 18.1503 16.1185 16.945L14.6191 15.7886L14.5378 13.6857C14.4439 11.2632 14.2832 10.7659 13.4022 10.1732C12.7818 9.75576 11.7412 9.63441 11.1446 9.91004ZM47.1246 9.87566C46.5468 10.111 46.0626 10.5487 45.7989 11.0741C45.5786 11.5134 45.5219 11.9491 45.458 13.6945L45.3814 15.7882L43.8819 16.9447C42.3188 18.1503 41.855 18.6833 41.7166 19.4336C41.552 20.3254 41.9544 21.3173 42.7118 21.8875C42.8966 22.0266 43.853 22.4234 44.8372 22.7691L46.6266 23.3977L47.2449 25.217C47.5849 26.2177 47.9751 27.1901 48.112 27.378C48.6728 28.1481 49.6484 28.5572 50.5254 28.3899C51.2633 28.2492 51.7876 27.7776 52.9731 26.1887L54.1105 24.6643L56.1788 24.5816C58.5696 24.4859 59.0498 24.3237 59.6435 23.4115C59.9357 22.9626 60 22.7172 60 22.0511C60 21.1755 59.9894 21.1551 58.2032 18.56L57.6121 17.7009L58.1996 15.7272C58.6533 14.2032 58.769 13.6346 58.7075 13.2323C58.539 12.1314 57.6492 11.2523 56.5616 11.1123C56.1004 11.0529 55.6037 11.159 54.1177 11.6341C53.0918 11.962 52.1879 12.1908 52.109 12.1424C52.03 12.0939 51.3531 11.6122 50.6048 11.0718C49.8564 10.5314 49.0564 10.0094 48.827 9.91189C48.3511 9.70964 47.5731 9.69304 47.1246 9.87566ZM12.3986 12.5033C12.4468 12.8285 12.4905 13.7724 12.4958 14.601C12.5094 16.7277 12.6075 16.9028 14.6567 18.4563C15.854 19.3639 16.2635 19.7464 16.2359 19.9313C16.207 20.1254 15.8016 20.3181 14.4139 20.7976C11.8026 21.6996 11.7032 21.8007 10.8161 24.4556C10.3445 25.8666 10.1549 26.2787 9.96402 26.3081C9.7822 26.3362 9.406 25.9198 8.51326 24.7025C6.96026 22.5846 6.9206 22.5641 4.2324 22.477C2.99326 22.4368 2.18864 22.3556 2.09611 22.2616C1.91767 22.0801 1.94721 22.0261 3.36467 19.9397C4.33698 18.5087 4.39646 18.3809 4.39102 17.734C4.38752 17.3039 4.17927 16.3883 3.83404 15.2843C3.10004 12.9368 3.08151 12.9569 5.32873 13.6619C8.19447 14.561 8.06864 14.5774 10.2765 13.0111C11.1816 12.3689 12.0097 11.859 12.1166 11.8778C12.239 11.8995 12.3435 12.1314 12.3986 12.5033ZM49.736 13.0245C51.283 14.1266 51.9745 14.4221 52.6495 14.2697C52.8435 14.2259 53.7538 13.954 54.6726 13.6654C56.9337 12.9552 56.8993 12.9119 56.1131 15.4801C55.3306 18.0357 55.333 18.0516 56.7882 20.1675C57.4021 21.0602 57.9093 21.9091 57.9154 22.054C57.9293 22.3809 57.2937 22.4867 55.2137 22.5036C53.1954 22.5201 53.0046 22.6327 51.4867 24.7025C50.594 25.9198 50.2178 26.3362 50.036 26.3081C49.8451 26.2787 49.6555 25.8666 49.1839 24.4556C48.2968 21.8007 48.1974 21.6996 45.5861 20.7976C44.1949 20.3169 43.793 20.1256 43.764 19.9304C43.7362 19.7443 44.1308 19.3745 45.2952 18.4953C46.1601 17.8421 46.9901 17.1039 47.1455 16.8496C47.3927 16.4448 47.4373 16.1282 47.51 14.2606C47.5555 13.0903 47.6356 12.0623 47.688 11.9763C47.8389 11.7278 48.1113 11.8672 49.736 13.0245ZM28.4449 20.7473C25.245 21.1237 22.6372 21.9629 20.295 23.37C15.5053 26.2478 12.2887 30.7726 11.0571 36.3655C10.7968 37.5476 10.7559 38.0908 10.7559 40.3684C10.7559 42.646 10.7968 43.1892 11.0571 44.3713C12.8129 52.3444 18.7589 58.2142 26.6307 59.7454C28.4749 60.1042 31.6809 60.0807 33.5933 59.6944C41.3561 58.1266 47.198 52.2947 48.9429 44.3713C49.2032 43.1892 49.2441 42.646 49.2441 40.3684C49.2441 38.0908 49.2032 37.5476 48.9429 36.3655C47.6077 30.3029 43.8977 25.4567 38.4516 22.6614C37.285 22.0627 35.2037 21.3682 33.6798 21.0693C32.3664 20.8116 29.4327 20.6311 28.4449 20.7473ZM33.2044 23.1078C36.7079 23.7876 39.872 25.5508 42.4104 28.2377C44.7901 30.7565 46.2113 33.4792 46.9414 36.9174C47.2635 38.4346 47.2635 42.3022 46.9414 43.8194C45.4304 50.9351 40.1357 56.2456 33.1541 57.6483C31.4768 57.9852 28.2717 57.9589 26.629 57.5946C19.654 56.0475 14.5423 50.8715 13.0654 43.86C12.8867 43.012 12.8294 42.1641 12.8294 40.3684C12.8294 38.5727 12.8867 37.7248 13.0654 36.8768C13.5478 34.5865 14.4013 32.5129 15.6402 30.6219C16.4646 29.3632 18.4433 27.2309 19.6139 26.3397C21.9758 24.5412 25.0345 23.2894 27.9929 22.9106C29.2191 22.7534 31.9011 22.855 33.2044 23.1078ZM22.3958 33.0287C21.4974 33.3551 20.8795 33.7999 20.4153 34.4543C19.7405 35.4056 19.6505 36.7664 20.2563 36.854C20.6134 36.9055 20.9287 36.6689 20.9287 36.3493C20.9287 36.2218 21.1131 35.9342 21.3386 35.7101C22.6668 34.3899 25.5925 34.7435 26.2503 36.3038C26.4674 36.8186 26.5441 36.8891 26.848 36.8527C27.6609 36.7553 27.4628 35.2707 26.4929 34.1917C25.4051 32.9817 23.7886 32.5227 22.3958 33.0287ZM35.4995 32.9081C34.7568 33.1034 33.7257 33.7735 33.3038 34.3355C32.5195 35.3798 32.4319 36.7663 33.1449 36.852C33.4396 36.8875 33.5273 36.8066 33.7843 36.2627C34.2216 35.337 34.9913 34.9663 36.4768 34.9663C37.455 34.9663 37.652 35.0088 38.2037 35.3385C38.5572 35.5497 38.8854 35.8631 38.9627 36.0632C39.2215 36.7327 39.2953 36.8109 39.6686 36.8109C40.0286 36.8109 40.0448 36.7842 40.0821 36.127C40.1287 35.3067 39.8447 34.668 39.1147 33.9517C38.2208 33.0747 36.622 32.6131 35.4995 32.9081ZM21.2527 42.4603C20.4806 42.8306 20.1286 43.1949 19.7733 43.9917C19.3541 44.9318 19.412 45.8478 19.9647 47.0203C21.1074 49.4448 22.9988 51.3598 25.3679 52.4909C26.9072 53.2259 28.1379 53.492 30 53.4925C33.2495 53.4935 35.8108 52.3559 38.1167 49.8878C40.1299 47.733 40.9432 45.4648 40.2551 43.9247C39.9875 43.3258 39.2314 42.597 38.5989 42.3283C38.2524 42.1811 36.6485 42.1474 30.0365 42.1484L21.9006 42.1498L21.2527 42.4603ZM38.1235 44.5417C38.7109 45.1029 38.4184 46.1264 37.1992 47.7754C36.8676 48.2238 36.4289 48.734 36.2242 48.9092L35.8519 49.2277L35.0254 48.4079C32.3073 45.7114 27.6973 45.7042 24.9916 48.3921C24.2421 49.1366 24.1622 49.1826 23.913 49.0134C23.482 48.7205 22.4175 47.2882 21.9797 46.4125C21.4751 45.403 21.4586 44.8959 21.9181 44.5284C22.2549 44.2589 22.365 44.2553 30.0415 44.2553H37.8235L38.1235 44.5417ZM31.3374 48.6685C31.7466 48.7769 32.3112 48.9848 32.5923 49.1306C33.195 49.4432 34.0549 50.2795 33.9504 50.4513C33.9102 50.5175 33.3986 50.7329 32.8134 50.93C31.8693 51.2482 31.5524 51.2889 30 51.2915C28.4176 51.2943 28.1515 51.2595 27.2138 50.9283C26.6436 50.7268 26.1289 50.5139 26.0699 50.4553C25.9278 50.3136 26.828 49.4328 27.4407 49.1141C28.6327 48.4942 30.0618 48.3307 31.3374 48.6685Z" fill="url(#paint0_linear_138_48)"/>
<defs>
<linearGradient id="paint0_linear_138_48" x1="0" y1="0" x2="57.9338" y2="88.7695" gradientUnits="userSpaceOnUse">
<stop stop-color="#FF9D2D"/>
<stop offset="1" stop-color="#EB0029"/>
</linearGradient>
</defs>
</svg>
