<svg width="160" height="116" viewBox="0 0 160 116" fill="none" xmlns="http://www.w3.org/2000/svg">
<path d="M157.577 9.16019C160.115 12.5857 160.242 17.2799 158 23.1582C152.756 36.5641 134.189 37.4099 128.057 37.6636C119.387 38.0442 114.481 44.9375 114.481 45.0221C114.185 45.445 113.677 45.6986 113.128 45.6986C113.043 45.6986 112.916 45.6987 112.789 45.6564C112.155 45.5718 111.647 45.0644 111.521 44.43C111.436 43.9648 109.152 33.0117 114.904 25.6955C117.991 21.7626 122.77 19.6481 129.072 19.4789C139.476 19.1829 144.509 15.2077 144.932 11.4016C145.143 9.16024 143.621 7.29947 140.998 6.62283C140.195 6.45367 139.687 5.69244 139.772 4.88893C139.857 4.08542 140.491 3.49334 141.294 3.40876C141.76 3.45105 152.883 2.77441 157.577 9.16019ZM154.955 21.9318C156.774 17.2376 156.774 13.5584 154.913 11.1055C153.221 8.7796 150.007 7.5955 147.089 7.08802C147.977 8.4413 148.357 10.0483 148.146 11.7822C147.638 16.6033 142.352 22.3546 129.157 22.7775C123.87 22.9044 119.894 24.5537 117.441 27.7254C114.396 31.5738 114.1 36.8601 114.27 40.3279C116.892 37.8751 121.459 34.7033 127.888 34.4073C137.615 33.9844 150.979 32.2505 154.955 21.9318Z" fill="white"/>
<path d="M149.078 57.2854C149.078 58.4272 148.866 59.4422 148.443 60.3725C147.64 62.1064 146.202 63.3329 144.045 64.0518C143.411 64.2633 142.734 64.4747 141.846 64.6015C134.022 65.6588 125.267 67.3504 118.627 71.3257C117.697 73.8208 113.298 84.7315 101.456 92.682C106.404 90.779 111.776 87.565 115.667 82.1941C116.089 81.6021 116.893 81.3906 117.57 81.6444C118.289 81.8981 118.712 82.5748 118.627 83.336C116.935 99.0678 104.755 106.68 81.4518 106.722C81.1135 106.722 80.7751 106.722 80.4368 106.722C56.7106 106.722 40.6395 105.073 33.5343 85.5351C33.2805 84.9007 33.4497 84.1817 33.9995 83.7588L80.3099 43.9218C80.7328 43.5835 81.3249 43.4143 81.8325 43.5835C86.6538 45.0213 91.2637 46.9244 95.493 49.2503C96.1273 49.5887 96.4657 50.3922 96.2965 51.1111C96.0851 51.83 95.4507 52.3798 94.6471 52.3375C86.0194 52.0415 79.9293 55.1286 76.1229 59.1462C76.419 58.977 76.6728 58.8501 76.9688 58.7232C77.138 58.6387 77.3494 58.5118 77.5186 58.5118C77.8992 58.3004 78.0261 58.3004 78.2376 58.2158C96.0428 51.4071 110.718 57.6237 113.51 59.0193C120.953 57.074 128.27 51.9146 134.487 47.1359C135.544 46.3323 136.644 45.698 137.701 45.3597C140.069 44.5562 144.595 44.3447 147.767 51.8723C148.655 53.8176 149.078 55.6784 149.078 57.2854ZM145.483 59.0193C145.906 58.0889 146.117 56.2704 144.806 53.0564C142.311 47.1781 139.689 48.0662 138.801 48.3622C138.039 48.616 137.32 49.0389 136.559 49.6309C129.877 54.7903 121.968 60.3303 113.679 62.2756C113.171 62.4025 112.621 62.2333 112.241 61.9373C110.169 60.9646 96.1274 54.8326 79.5487 61.2184C79.5064 61.2184 79.168 61.303 79.1257 61.3453C78.9143 61.4298 78.8297 61.4721 78.7451 61.5144C78.6605 61.5567 78.6605 61.599 78.5759 61.599C75.8692 62.8254 73.5008 64.517 71.5554 66.716C71.0479 67.2658 70.202 67.435 69.5253 67.0544C68.8486 66.6737 68.5526 65.8703 68.7641 65.1091C70.921 58.5541 77.2649 51.1957 88.3878 49.4195C86.2732 48.4891 84.0317 47.6856 81.7902 47.009L37.0446 85.4927C43.7268 102.366 58.4446 103.508 81.4941 103.508C99.8068 103.466 110.338 98.8564 114.059 89.0028C103.233 98.8141 88.3878 98.7295 87.6265 98.7295C87.0344 98.6872 86.5269 98.3912 86.2309 97.8837C85.9348 97.3762 85.9771 96.7419 86.2732 96.2344C86.527 95.8115 87.0768 95.304 87.542 95.2617C89.1491 95.0503 90.6293 94.6274 92.025 94.1199C92.1096 94.0776 92.2365 94.0353 92.3633 94.0353C92.4056 94.0353 92.4479 93.9931 92.4902 93.9931C93.1246 93.7393 93.7167 93.4433 94.3088 93.1049C109.915 85.5351 115.117 71.664 115.709 70.057C115.793 69.5918 116.047 69.1689 116.428 68.9151C123.66 64.3901 133.133 62.5716 141.465 61.3875C142.099 61.3029 142.607 61.1338 143.114 60.9646C144.299 60.5417 145.06 59.9074 145.483 59.0193Z" fill="white"/>
<path d="M133.598 106.977C135.882 106.977 137.742 108.837 137.742 111.121C137.742 113.362 135.882 115.223 133.598 115.223H18.7733C16.4895 115.223 14.6709 113.362 14.6709 111.121C14.6709 108.837 16.4895 106.977 18.7733 106.977H133.598ZM134.444 111.121C134.444 110.613 134.063 110.233 133.555 110.233H18.731C18.2235 110.233 17.8852 110.613 17.8852 111.121C17.8852 111.586 18.2658 111.967 18.731 111.967H133.555C134.063 111.967 134.444 111.586 134.444 111.121Z" fill="white"/>
<path d="M126.451 8.10268C127.255 12.5008 123.49 18.1677 116.343 23.2848C111.775 26.5411 109.449 30.0934 109.449 33.8149C109.449 35.4642 109.915 37.1559 110.803 38.8898C111.183 39.6087 111.014 40.539 110.295 40.9619C109.999 41.1734 109.661 41.3003 109.365 41.3003C108.942 41.3003 108.477 41.0888 108.181 40.7928C106.573 39.1012 102.936 34.5339 103.528 28.8248C103.951 24.4266 106.7 20.4091 111.691 16.8567C119.896 10.9784 120.53 6.66484 120.53 5.48073C120.53 4.97325 120.741 4.46578 121.164 4.16975C121.545 3.87372 122.095 3.74682 122.56 3.87369C124.632 4.42346 126.113 5.98818 126.451 8.10268ZM114.44 20.6628C121.63 15.5034 123.702 10.9784 123.279 8.69473C123.279 8.65244 123.237 8.6102 123.237 8.6102C122.264 11.4013 119.726 15.1651 113.636 19.521C109.407 22.5236 107.123 25.7799 106.827 29.2054C106.785 29.586 106.785 29.9666 106.785 30.3049C107.673 27.1754 109.915 23.8768 114.44 20.6628Z" fill="white"/>
<path d="M98.2796 22.8593C89.4897 12.5531 76.9653 6.16067 63.4618 5.08818C49.9583 4.01568 36.5818 8.35101 26.275 17.1404C15.9682 25.9299 9.57532 38.4534 8.50275 51.956C7.43019 65.4586 11.7658 78.8343 20.5558 89.1404L59.4177 55.9999L98.2796 22.8593Z" fill="#FF9D2D"/>
<path d="M100.779 21.5928C101.075 21.9312 101.202 22.3541 101.159 22.777C101.117 23.2421 100.948 23.6228 100.61 23.9188L16.5741 96.1922C16.2781 96.446 15.8975 96.5729 15.5168 96.5729C15.0516 96.5729 14.5863 96.3614 14.2903 95.9808C-3.04967 75.8508 -4.06472 46.2056 11.6258 24.9338C9.38433 22.2272 8.24245 18.844 8.5385 15.3762C8.79225 11.993 10.3148 8.9905 12.81 6.83372C15.0515 4.88838 17.9275 3.83111 20.9303 3.83111C24.7366 3.83111 28.3738 5.48044 30.9113 8.35616C39.0738 4.04259 48.209 1.80121 57.5133 1.80121C74.1766 1.75892 89.9518 8.99046 100.779 21.5928ZM15.7282 92.5976L97.1838 22.481C87.0336 11.3587 72.6541 5.01522 57.4711 5.01522C48.2936 5.01522 39.2429 7.38346 31.2496 11.8239C30.4883 12.2045 29.6002 12.0354 29.135 11.3164C28.9235 11.0627 28.7544 10.8089 28.5006 10.5552C26.5552 8.31382 23.7639 7.00285 20.8457 7.00285C18.6042 7.00285 16.5318 7.76408 14.8824 9.20194C13.0215 10.809 11.8796 13.0503 11.7104 15.5454C11.499 18.2097 12.3448 20.8317 14.1634 22.9462C14.3749 23.1576 14.5863 23.4536 14.7978 23.6228C15.4322 24.2149 15.4322 25.1452 14.967 25.8218C-0.216052 45.4866 0.122257 73.3134 15.7282 92.5976Z" fill="white"/>
<path d="M28.8818 11.0628C29.0932 11.4434 29.2624 11.9931 29.1779 12.416C29.0933 12.8389 28.8818 13.3041 28.5434 13.5578C26.3865 14.9111 24.3565 16.4335 22.4956 18.0406C20.677 19.6476 18.8585 21.4238 17.1668 23.3268C16.8707 23.6651 16.4477 23.8343 15.9825 23.8766H15.9402C15.475 23.8766 15.0521 23.6651 14.7561 23.3691C14.5446 23.1576 14.4177 23.0308 14.2486 22.8616C10.7806 18.8018 11.1189 12.7543 15.0521 9.37113C18.8585 6.11481 25.16 6.7069 28.5012 10.5976C28.5857 10.7244 28.7972 11.0628 28.8818 11.0628ZM20.3387 15.5455C21.8613 14.2768 23.426 13.0503 25.1177 11.8662C23.9335 10.9358 22.5379 10.4284 21.1 10.4284C19.662 10.4284 18.3086 10.9358 17.209 11.8662C14.9675 13.8115 14.5446 17.1102 15.9825 19.6899C17.4205 18.2097 18.8585 16.8142 20.3387 15.5455Z" fill="white"/>
</svg>
