<svg width="40" height="40" viewBox="0 0 40 40" fill="none" xmlns="http://www.w3.org/2000/svg">
<path fill-rule="evenodd" clip-rule="evenodd" d="M16.7634 0.204583C16.6299 0.3335 16.5517 0.504333 16.5517 0.666667C16.5517 1.09217 16.8778 1.33333 17.453 1.33333H17.931V1.98767V2.64208L17.0905 2.6985C14.4134 2.87817 12.1067 3.626 9.91379 5.02517C5.92603 7.56958 3.45371 12.0135 3.44897 16.6458L3.44828 17.3333H1.93578C0.444742 17.3333 0.420172 17.3363 0.211638 17.5379C0.0121552 17.7307 0 17.796 0 18.6741C0 19.1864 0.0471551 19.76 0.104828 19.9487C0.244741 20.4064 0.958879 21.0968 1.43241 21.232C1.66474 21.2983 2.45457 21.3333 3.72043 21.3333H5.65362L5.65216 21.9375C5.65103 22.4045 5.69457 22.6218 5.84379 22.8948C6.11121 23.3838 11.0766 27.7687 16.5322 32.3333C20.8005 35.9048 20.8604 35.9592 20.5853 36.0142C20.0377 36.1236 20 36.2522 20 38.013C20 39.5772 20.0018 39.5927 20.2116 39.7954L20.4232 40H24.8276H29.232L29.4435 39.7954C29.6535 39.5926 29.6552 39.578 29.6552 38C29.6552 36.422 29.6535 36.4074 29.4435 36.2046C29.3272 36.0921 29.172 36 29.0987 36C28.9931 36 28.9655 35.8946 28.9655 35.4914C28.9655 35.0032 28.9816 34.9657 29.3666 34.5539C29.5872 34.318 29.8878 33.8813 30.0347 33.5833L30.3017 33.0417L30.3287 30.5833L30.3556 28.125L31.6977 25.2643L33.0397 22.4036L32.9953 21.8685L32.9509 21.3333H35.598C38.6916 21.3333 38.8247 21.3102 39.4223 20.6677C39.902 20.152 40 19.8136 40 18.6741C40 17.796 39.9878 17.7307 39.7884 17.5379C39.58 17.3364 39.5544 17.3333 38.0775 17.3333H36.5782L36.5241 16.1875C36.4943 15.5573 36.4284 14.7979 36.3778 14.5C35.501 9.34975 31.7961 5.08842 26.7467 3.42258C25.6084 3.047 24.6116 2.85025 23.2543 2.73317L22.069 2.631V1.98217V1.33333H22.547C23.1222 1.33333 23.4483 1.09217 23.4483 0.666667C23.4483 0.504333 23.3701 0.3335 23.2366 0.204583L23.0251 0H20H16.9749L16.7634 0.204583ZM20.6897 2V2.66667H20H19.3103V2V1.33333H20H20.6897V2ZM24.7414 4.26883C27.1629 4.7815 29.2483 5.83908 31.0033 7.44458C33.6019 9.822 34.988 12.7601 35.1475 16.2292L35.1983 17.3333H19.9997H4.80112L4.85698 16.1875C4.9206 14.8827 5.12379 13.7907 5.51388 12.6582C7.01026 8.31308 10.9502 5.01617 15.6034 4.21525C16.7478 4.01833 16.7467 4.01833 20.3448 4.03925C23.6237 4.05825 23.7868 4.06675 24.7414 4.26883ZM38.6207 19.1287C38.6207 19.5083 38.5828 19.6275 38.4091 19.7954L38.1975 20H20H1.8025L1.59095 19.7954C1.41716 19.6275 1.37931 19.5083 1.37931 19.1287V18.6667H20H38.6207V19.1287ZM8.48483 21.5208C8.61397 21.6317 9.03879 22.4216 9.52405 23.4535C9.97552 24.4133 10.3448 25.2124 10.3448 25.2292C10.3448 25.3149 7.18147 22.4463 7.08328 22.2716C6.94638 22.0278 7.00922 21.7244 7.24353 21.4979C7.49328 21.2565 8.19172 21.2693 8.48483 21.5208ZM11.9374 21.4464C12.0254 21.5087 12.6826 22.6803 13.3978 24.0502L14.6983 26.5408L18.3562 27.9517L22.0142 29.3627L23.5286 29.0032C24.3616 28.8055 25.107 28.6122 25.1851 28.5735C25.2632 28.5349 26.1873 26.9744 27.2386 25.1058C28.2899 23.2372 29.2465 21.624 29.3643 21.5208C29.5548 21.3541 29.6692 21.3333 30.3966 21.3333C31.1503 21.3333 31.2314 21.3494 31.4263 21.5379C31.5427 21.6504 31.6379 21.8395 31.6379 21.9581C31.6379 22.0768 31.0366 23.4527 30.3017 25.016L28.9655 27.8583L28.9636 30.2416C28.9614 33.0156 28.9607 33.0186 28.0994 33.8856L27.5862 34.4023V35.2011V36H25.3016H23.0171L17.994 31.7916L12.9709 27.5833L11.701 24.8768C11.0025 23.3883 10.431 22.0741 10.431 21.9564C10.431 21.8387 10.5263 21.6504 10.6427 21.5379C10.8146 21.3717 10.9407 21.3333 11.3158 21.3333C11.5697 21.3333 11.8494 21.3843 11.9374 21.4464ZM27.7586 21.3761C27.7586 21.4315 24.4753 27.2696 24.3924 27.3617C24.3578 27.4002 23.8308 27.5524 23.2215 27.7L22.1136 27.9684L18.8964 26.7234L15.6791 25.4784L14.6065 23.4058L13.5338 21.3333H20.6462C24.558 21.3333 27.7586 21.3526 27.7586 21.3761ZM28.2759 38V38.6667H24.8276H21.3793V38V37.3333H24.8276H28.2759V38Z" fill="white"/>
</svg>
