<svg width="50" height="50" viewBox="0 0 50 50" fill="none" xmlns="http://www.w3.org/2000/svg">
<path fill-rule="evenodd" clip-rule="evenodd" d="M28.7939 0.196063C28.3961 0.300879 27.7467 0.562676 27.3507 0.777624C26.3736 1.3082 25.7732 1.4706 24.7817 1.47256C22.526 1.47719 20.8618 2.38482 19.6416 4.27585C19.006 5.26083 18.5774 5.68128 17.7355 6.14592C16.8675 6.62473 16.1805 7.23907 15.6962 7.96924C15.0554 8.93513 14.8862 9.50911 14.7978 11.0176L14.7199 12.3463L14.1251 13.5006C12.9335 15.8126 12.9335 17.1472 14.1251 19.4591L14.7199 20.6135L14.7978 21.9422C14.8555 22.9269 14.9312 23.417 15.09 23.8354C15.5278 24.9885 16.4348 26.0699 17.4422 26.6397C18.6141 27.3025 18.9062 27.5662 19.5345 28.5286C20.8712 30.5757 22.1918 31.3344 24.6773 31.4835C26.1142 31.5697 26.1709 31.5849 27.4638 32.2342C28.5727 32.7911 29.5351 33.0045 30.5925 32.928C31.5741 32.857 32.0073 32.721 33.314 32.0736L34.3593 31.5557L35.7077 31.4832C36.768 31.4261 37.2093 31.357 37.7724 31.1598C39.0897 30.6987 39.9823 29.957 40.8509 28.6016C41.4475 27.6706 41.8149 27.3176 42.7138 26.8116C44.0164 26.0782 45.0184 24.8943 45.4126 23.6224C45.5372 23.2201 45.6418 22.5104 45.6891 21.7453C45.7699 20.4359 45.8295 20.2426 46.5194 19.0489C47.3832 17.5544 47.3832 15.4053 46.5194 13.9108C45.8295 12.7172 45.7699 12.5239 45.6891 11.2144C45.5706 9.29584 45.1874 8.327 44.1002 7.19606C43.8229 6.90759 43.222 6.44925 42.7649 6.17761C41.6933 5.54074 41.5056 5.35679 40.7447 4.19918C39.5114 2.32252 38.1951 1.61183 35.7024 1.4768L34.3594 1.40406L33.2462 0.844451C31.5439 -0.0112091 30.279 -0.195451 28.7939 0.196063ZM31.0813 1.9684C31.2964 2.0249 31.9124 2.28974 32.4501 2.55685C33.6715 3.16361 34.3535 3.34057 35.4771 3.34204C37.3794 3.34451 38.4793 3.96258 39.3895 5.54025C39.8711 6.37494 40.7432 7.20531 41.6737 7.71483C42.5132 8.17454 43.1742 8.85039 43.5131 9.59543C43.7152 10.0399 43.7727 10.366 43.8379 11.4376C43.9272 12.908 44.0105 13.1935 44.7449 14.5486L45.2581 15.4957V16.4799V17.4641L44.7449 18.4112C44.0105 19.7662 43.9272 20.0517 43.8379 21.5221C43.7727 22.5938 43.7152 22.9199 43.5131 23.3643C43.1742 24.1094 42.5132 24.7852 41.6737 25.2449C40.7432 25.7544 39.8711 26.5848 39.3895 27.4195C38.4793 28.9972 37.3794 29.6152 35.4771 29.6177C34.3449 29.6192 33.6636 29.797 32.4453 30.4093C30.6698 31.3014 29.745 31.3027 28.0103 30.4156C26.8283 29.8109 26.0938 29.6222 24.9151 29.6204C23.0907 29.6173 22.1349 29.0847 21.1082 27.4985C20.417 26.4308 19.8537 25.8884 18.7671 25.2446C17.1802 24.3045 16.771 23.6273 16.6528 21.7453C16.5635 20.3223 16.3604 19.5725 15.806 18.6174C15.2304 17.6261 15.1446 17.3488 15.1446 16.4799C15.1446 15.6109 15.2304 15.3337 15.806 14.3424C16.3604 13.3872 16.5635 12.6375 16.6528 11.2144C16.7707 9.33895 17.1814 8.65493 18.7476 7.72605C19.8057 7.09852 20.5369 6.39433 21.0792 5.4807C21.2964 5.11488 21.711 4.59758 22.0005 4.33116C22.7575 3.63474 23.3534 3.43554 24.9706 3.3383C26.4729 3.24805 26.9034 3.13586 27.9694 2.55695C29.1581 1.91161 30.1505 1.72393 31.0813 1.9684ZM35.3821 6.72797C35.1379 6.83309 34.1215 8.41243 29.4425 15.9567C23.2993 25.8617 23.4992 25.4892 24.0374 26.031C24.3585 26.3543 24.9587 26.364 25.2972 26.0512C25.429 25.9293 28.035 21.7995 31.0883 16.8736C37.1245 7.13553 36.9471 7.46671 36.4076 6.94499C36.0947 6.64225 35.7503 6.56942 35.3821 6.72797ZM24.1469 7.2369C23.0355 7.59505 22.1505 8.40878 21.5872 9.59051C20.4339 12.0096 21.3477 14.9987 23.58 16.1092C24.2774 16.4563 24.3814 16.4798 25.21 16.4776C26.003 16.4755 26.1617 16.4427 26.7364 16.1616C28.2926 15.4005 29.2725 13.7171 29.2725 11.8049C29.2725 9.25972 27.5982 7.237 25.396 7.12185C24.8685 7.09429 24.4778 7.13021 24.1469 7.2369ZM25.7871 9.05717C26.6745 9.30519 27.4149 10.5262 27.4149 11.7416C27.4149 13.0189 26.9101 13.9678 25.9894 14.4212C25.5461 14.6395 25.374 14.6743 24.9921 14.6225C23.0702 14.3622 22.2677 11.3912 23.673 9.73863C24.2607 9.04743 24.9535 8.82411 25.7871 9.05717ZM34.1522 16.6114C32.8665 17.0394 31.8521 18.1186 31.3616 19.5801C31.0964 20.3705 31.121 22.0727 31.4091 22.8692C31.7026 23.6805 32.1366 24.325 32.7756 24.8982C33.5431 25.5868 34.1825 25.8225 35.2855 25.8231C36.0752 25.8236 36.2312 25.7915 36.8068 25.5108C38.6626 24.6053 39.6966 22.2808 39.2349 20.0524C38.9406 18.6319 37.8057 17.1704 36.6543 16.7292C35.8542 16.4226 34.86 16.3757 34.1522 16.6114ZM35.9699 18.4876C36.4794 18.7256 36.9315 19.2134 37.2105 19.8261C37.5444 20.5596 37.5315 21.7891 37.1821 22.5327C36.8795 23.1767 36.5028 23.5779 35.9699 23.824C34.9572 24.2916 33.8322 23.7345 33.2627 22.4835C32.9444 21.7845 32.9444 20.5251 33.2627 19.8261C33.6731 18.9245 34.4772 18.305 35.2366 18.305C35.4248 18.305 35.7548 18.3871 35.9699 18.4876ZM0.71812 31.3665L0.398605 31.6539L0.166692 40.0565C-0.013207 46.5763 -0.0395074 48.5215 0.049562 48.738C0.262605 49.2558 0.375139 49.2722 4.57665 49.3978C8.36919 49.5112 8.48593 49.5091 8.73192 49.3253C9.08097 49.0645 9.22625 48.7411 9.2284 48.2202L9.23026 47.7773L10.5556 47.0896C12.4975 46.0822 11.9915 46.0239 19.2999 48.0987C22.5532 49.0223 25.5314 49.8261 25.9182 49.8849C27.9329 50.1911 30.4577 49.8743 32.3523 49.0777C32.6212 48.9646 35.613 47.0706 39.0008 44.8686C42.3885 42.6667 46.1283 40.2366 47.3113 39.4685C49.6139 37.9734 50 37.6498 50 37.2149C50 36.6067 48.9154 35.379 47.9354 34.8778C46.8852 34.3408 45.6951 34.1995 44.6187 34.4842C44.3251 34.5618 42.3577 35.4476 40.2468 36.4526C38.1358 37.4575 36.3911 38.2798 36.3696 38.2798C36.3481 38.2798 36.2193 38.0886 36.0832 37.8548C35.6873 37.1748 34.5583 36.1721 33.7498 35.7824C32.6266 35.2412 31.9202 35.1548 27.6593 35.0377C24.8366 34.9601 23.6685 34.8921 23.1619 34.776C22.7854 34.6898 21.7955 34.2939 20.962 33.8964C18.4936 32.7191 17.1385 32.4154 14.7242 32.4983C12.9461 32.5595 11.6523 32.8767 9.74278 33.7196C9.6498 33.7607 9.62056 33.5487 9.62056 32.8336C9.62056 31.9859 9.59778 31.8668 9.38826 31.6217C9.15899 31.3533 9.13689 31.349 7.65282 31.2825C6.82607 31.2455 4.99951 31.1845 3.59366 31.1472L1.03764 31.0791L0.71812 31.3665ZM6.47625 33.1258L7.78051 33.1832L7.72097 34.6242C7.68822 35.4169 7.59201 38.6563 7.50715 41.8229C7.42238 44.9896 7.34621 47.5855 7.338 47.5915C7.30564 47.6153 1.86791 47.4363 1.84845 47.4108C1.81482 47.3668 2.20101 33.222 2.23914 33.0981C2.27444 32.9838 3.41562 32.9912 6.47625 33.1258ZM17.0293 34.4923C18.1455 34.7055 18.8173 34.9467 20.2956 35.6651C22.5164 36.7445 23.1186 36.8403 28.3926 36.9551C30.0327 36.9908 31.5914 37.0602 31.8563 37.1093C33.0559 37.3319 34.2258 38.221 34.7446 39.3045C35.2185 40.2941 35.2155 40.3015 34.3566 40.2733C33.9533 40.26 31.652 40.1985 29.2425 40.1366C24.4132 40.0126 24.4744 40.0069 24.2274 40.6017C23.9993 41.1508 24.3372 41.7754 24.9129 41.869C25.079 41.896 27.7102 41.9874 30.7596 42.0719C35.6892 42.2086 36.3357 42.2093 36.5877 42.0781C36.9921 41.8677 37.1336 41.4527 37.0573 40.702L36.9939 40.0797L40.9794 38.1815C44.626 36.4446 45.0189 36.2794 45.6003 36.2384C46.3056 36.1886 47.1883 36.4492 47.5042 36.8006C47.6694 36.9844 47.6537 37.0042 47.0042 37.4268C46.6354 37.6669 43.0728 39.9863 39.0875 42.5813C31.2133 47.7084 31.3493 47.6325 29.4169 47.9718C28.4268 48.1456 27.054 48.1647 26.1439 48.0174C25.7943 47.9609 22.9125 47.1798 19.7399 46.2817C16.5672 45.3836 13.6577 44.6029 13.2744 44.5467C12.3239 44.4073 11.2848 44.6163 10.2065 45.1636C9.7638 45.3883 9.37682 45.5472 9.34661 45.5167C9.26878 45.4384 9.51986 36.0796 9.60189 35.999C9.76595 35.838 11.2046 35.1125 11.7306 34.9256C13.3194 34.3607 15.4347 34.1878 17.0293 34.4923Z" fill="#EB0029"/>
</svg>
