<svg width="96" height="116" viewBox="0 0 96 116" fill="none" xmlns="http://www.w3.org/2000/svg">
<path d="M83.9148 53.7695L85.6902 61.0136C85.0043 61.619 84.4192 61.9217 83.9955 61.8813C83.2692 61.841 82.5428 60.832 81.756 59.7625C81.0297 58.794 80.2025 57.7043 79.1332 56.9981C77.7008 56.0497 76.4902 55.8277 75.4613 56.2717C73.7463 57.0183 73.363 59.359 72.9999 61.5988C72.8183 62.7086 72.6367 64.0001 72.2736 64.4843C71.6683 65.352 71.2446 65.5538 71.1235 65.5336C70.256 65.4327 69.0455 62.0831 68.6016 60.832C68.2385 59.8029 67.9157 58.9756 67.613 58.4711C66.6446 57.0384 65.6963 56.4936 64.8691 56.3725L64.9701 55.4443C65.4543 55.4847 65.9788 55.525 66.5033 55.5452C67.6332 55.5856 68.7429 55.4443 69.5701 55.2829C75.6025 54.2134 79.8192 50.0163 80.7271 49.0679C82.3008 50.2584 83.4709 51.9534 83.9148 53.7695Z" fill="#FF9D2D"/>
<path d="M67.8549 44.1643C71.1435 43.5791 74.3312 44.4872 76.0865 45.1732C74.6742 46.4243 72.0111 48.3413 68.7023 48.9264C65.4137 49.4914 62.226 48.6036 60.4707 47.9175C61.9032 46.6866 64.5663 44.7495 67.8549 44.1643Z" fill="#FF9D2D"/>
<path d="M67.1494 24.8333C67.674 27.1336 68.4407 32.2388 66.3626 36.6983C64.2845 41.1981 59.8862 43.902 57.8082 44.9917C57.2836 42.6913 56.5169 37.5861 58.595 33.1065C60.6731 28.6268 65.0915 25.9229 67.1494 24.8333Z" fill="#FF9D2D"/>
<path d="M64.9499 55.444L64.8491 56.3722C64.4859 56.3318 64.1227 56.3722 63.8201 56.4327C60.6727 57.2399 58.9376 63.576 58.7964 65.4728C58.6955 66.9055 58.8166 68.1969 58.9174 69.4681C59.099 71.6071 59.2604 73.4635 58.3929 75.6024C56.5569 79.9812 54.4385 79.7189 53.006 79.1539C49.2938 77.7212 47.4982 70.5174 46.4289 66.2194L46.1867 65.3315C46.0657 64.7463 45.9446 63.919 45.8639 63.011C45.5815 60.4887 45.1578 56.917 42.9385 55.444C47.3771 55.444 51.5131 53.8095 54.5192 50.9038C55.9517 52.3567 59.0789 54.8386 64.9499 55.444Z" fill="#FF9D2D"/>
<path d="M39.0845 55.0204C36.381 55.8881 35.352 59.2175 34.6459 61.5381C34.3836 62.3654 34.1617 63.1524 33.8994 63.677C33.1933 65.1299 31.7205 66.5424 30.5705 66.3002C29.5213 66.0783 29.0775 65.029 28.5126 63.4349C28.4117 63.1322 28.3108 62.8497 28.2099 62.5672C27.9275 61.8206 27.7661 60.3476 27.645 58.9149C27.302 55.3433 26.8985 51.3075 23.9731 50.7829C23.7512 50.7425 23.5292 50.7425 23.3275 50.7425C21.895 50.7425 20.5433 51.5497 19.3126 52.2761C17.4362 53.3859 16.488 53.8097 15.5801 53.1438C16.6292 50.0766 19.7766 47.5745 22.7625 47.5745H28.8152C30.9134 51.3075 34.6863 54.0115 39.0845 55.0204Z" fill="#FF9D2D"/>
<path d="M9.38907 98.4994L12.5 88C39.3 100 70.3333 94.6667 82.5 90.5L85.4119 100.328C86.0203 102.381 84.9034 104.557 82.8577 105.191C50.1437 115.331 23.2386 108.724 11.2544 102.958C9.59771 102.16 8.86679 100.262 9.38907 98.4994Z" fill="#FF9D2D"/>
<path d="M95.7578 100.281C95.9192 100.967 96 101.613 96 102.258C96 103.368 95.7579 104.417 95.2736 105.366C93.1552 112.287 69.8727 116 48.0025 116C26.1121 116 2.84982 112.287 0.670865 105.204C-0.0352763 103.893 -0.196663 102.137 0.247198 100.301L10.8998 56.3721C10.9805 56.0492 11.2226 55.7667 11.5454 55.6255C11.8683 55.5044 12.2516 55.5246 12.5341 55.7062C13.4218 56.2712 14.2893 56.3923 14.8341 56.3923C16.3876 56.3923 17.7393 55.5851 19.0507 54.8183C19.7367 54.3946 20.463 53.9708 21.0481 53.7691C21.5727 53.5874 22.1577 53.8498 22.3797 54.3744C22.8437 55.4035 23.0656 57.4012 23.2472 59.3787C23.4086 61.1544 23.5498 62.6477 23.9937 63.7373C24.0542 63.9391 24.1551 64.161 24.2156 64.3628C24.8411 66.1587 25.7288 68.6407 28.3315 69.1654C28.6139 69.2259 28.8762 69.2461 29.1586 69.2461C31.5999 69.2461 33.7385 67.0668 34.7069 65.0489C35.0499 64.3023 35.3323 63.3942 35.5946 62.5266C36.3209 60.1657 37.0473 57.724 38.863 57.724C38.9034 57.724 39.1253 57.7442 39.1455 57.7442C40.578 57.8653 41.0622 59.8025 41.4858 63.5153C41.5867 64.5444 41.7078 65.4323 41.9095 66.1991L42.1315 67.0869C43.4025 72.1921 45.3192 79.9407 50.3631 81.8981C54.1157 83.3913 57.3236 81.555 59.2806 76.8332C60.4104 74.0889 60.1885 71.7078 60.0069 69.4075C59.906 68.2573 59.785 67.0668 59.8859 65.8359C59.9867 64.2014 61.0157 61.5378 61.8631 60.2666C62.085 59.9437 62.4683 59.7419 62.8718 59.7823C63.2552 59.8025 63.6183 60.0648 63.7596 60.4078C63.8806 60.7105 64.0824 61.2351 64.264 61.7194L64.3447 61.9414C65.6359 65.4928 66.9069 68.4389 69.4692 68.4389C70.6999 68.4389 71.8298 67.6923 72.8587 66.2193C73.5649 65.2103 73.807 63.7575 74.0289 62.2037C74.1298 61.6387 74.271 60.8316 74.392 60.206C74.4727 59.863 74.735 59.5603 75.0982 59.4392C75.4412 59.3182 75.8447 59.3787 76.1271 59.6007C76.7324 60.0648 77.3578 60.8921 77.8824 61.5782C78.9517 63.0109 80.2833 64.8068 82.4017 64.8068C83.3701 64.8068 84.3184 64.4435 85.307 63.6969C85.6096 63.4548 86.0131 63.4144 86.3359 63.5153C86.6789 63.6364 86.9412 63.9391 87.0421 64.3023L95.7578 100.281ZM93.2763 104.559C93.8614 103.368 93.9824 102.117 93.6394 100.785L85.2666 66.3C84.3184 66.7641 83.3903 67.0062 82.4017 67.0062C79.1938 67.0062 77.3578 64.5646 76.1675 62.9301C75.9052 64.5444 75.5824 66.1789 74.6543 67.5107C73.2017 69.5891 71.4464 70.6586 69.4894 70.6586C65.5955 70.6586 63.8201 66.7439 62.6499 63.6768C62.3271 64.5444 62.1052 65.4323 62.0648 66.0175C62.0043 67.0869 62.085 68.1362 62.1859 69.2461C62.3876 71.5868 62.6499 74.4521 61.2982 77.7009C58.9175 83.4115 55.3868 84.6222 52.8245 84.6222C51.7552 84.6222 50.6657 84.4002 49.556 83.9765C43.4832 81.5954 41.4051 73.2011 40.013 67.652L39.7911 66.7641C39.549 65.8762 39.4481 64.8875 39.3271 63.8584C39.085 61.8607 38.8832 60.8114 38.7218 60.2867C38.3788 60.993 37.8946 62.5266 37.6929 63.2126C37.4104 64.1408 37.1078 65.1498 36.6639 66.0578C35.3727 68.7618 32.5683 71.4859 29.1586 71.4859C28.7349 71.4859 28.3113 71.4455 27.8876 71.3648C24.0542 70.5778 22.8437 67.1475 22.1981 65.291C22.0972 64.948 22.0165 64.7664 21.956 64.5848C21.4113 63.2126 21.2498 61.558 21.0683 59.6208C21.0077 58.8742 20.8665 57.4617 20.6849 56.4124C20.5034 56.4932 20.3621 56.5941 20.2209 56.6748C18.7683 57.5425 16.9928 58.5917 14.8341 58.5917C14.2691 58.5917 13.5226 58.5312 12.7156 58.2285L2.3656 100.826C2.04279 102.157 2.14369 103.408 2.66825 104.397C4.10071 109.058 22.6218 113.841 47.9823 113.841C73.3833 113.821 91.9044 109.038 93.2763 104.559Z" fill="white"/>
<path d="M87.99 96.6486V96.8705C87.99 98.6866 86.5373 100.139 84.7215 100.139C82.9057 100.139 81.4531 98.6866 81.4531 96.8705V96.6486C81.4531 94.8325 82.9057 93.3796 84.7215 93.3796C86.5373 93.3796 87.99 94.8325 87.99 96.6486ZM85.811 96.8503V96.6284C85.811 96.0432 85.2865 95.5387 84.7215 95.5387C84.1365 95.5387 83.6321 96.0432 83.6321 96.6284V96.8503C83.6321 97.4355 84.1365 97.94 84.7215 97.94C85.3066 97.9602 85.811 97.4557 85.811 96.8503Z" fill="white"/>
<path d="M41.324 53.9911C43.5433 55.4843 43.9669 59.0357 44.2494 61.5581C44.3301 62.4459 44.4511 63.2732 44.5722 63.8786L44.8143 64.7665C45.8836 69.0645 47.6792 76.2683 51.3915 77.701C52.824 78.266 54.9424 78.5283 56.7783 74.1495C57.6459 72.0106 57.4845 70.1542 57.3029 68.0152C57.202 66.744 57.0608 65.4525 57.1818 64.0199C57.3029 62.1231 59.0582 55.787 62.2056 54.9798C62.5082 54.9193 62.8512 54.8789 63.2345 54.9193C64.0617 55.0202 65.0301 55.565 65.9784 57.0179C66.281 57.5223 66.5836 58.3497 66.967 59.3788C67.431 60.6299 68.6214 63.9593 69.4889 64.0804C69.61 64.1006 70.0337 63.8988 70.6389 63.0311C70.9819 62.5468 71.1836 61.2554 71.3652 60.1456C71.7284 57.9057 72.1117 55.565 73.8266 54.8184C74.8556 54.3543 76.0459 54.5965 77.4986 55.5448C78.5679 56.2713 79.395 57.3609 80.1214 58.3093C80.9082 59.3788 81.6547 60.3877 82.3609 60.4281C82.8047 60.4684 83.3898 60.1657 84.0556 59.5604L82.2801 52.3163C81.8363 50.5002 80.6661 48.8052 79.0723 47.6146C78.1845 48.5832 73.9477 52.7602 67.9152 53.8297C67.088 53.9911 65.9784 54.1323 64.8284 54.092C64.3038 54.0718 63.7792 54.0314 63.295 53.9911C57.424 53.3857 54.2766 50.8836 52.8845 49.4509C49.8985 52.3566 45.7424 53.9911 41.324 53.9911ZM86.3152 59.6814C86.3959 60.0245 86.2951 60.4281 86.0328 60.7106C84.6609 62.0827 83.4301 62.7486 82.1994 62.6275C80.5047 62.5266 79.4152 61.0536 78.3661 59.6411C77.7205 58.7734 77.0547 57.8654 76.288 57.4013C75.2187 56.695 74.795 56.7959 74.6941 56.8363C74.0687 57.1188 73.7257 59.177 73.524 60.5289C73.2819 62.0222 73.0599 63.4347 72.4345 64.3225C71.4056 65.7552 70.3161 66.4211 69.2065 66.2597C67.0275 65.9772 65.8372 62.7486 64.9091 60.1456C64.6266 59.3384 64.324 58.5313 64.1424 58.2286C63.8398 57.7645 63.2749 56.9977 62.7503 57.1389C61.3178 57.5022 59.5021 61.9818 59.3608 64.1813C59.2801 65.4526 59.381 66.6633 59.4617 67.8538C59.6634 70.0734 59.8854 72.394 58.7757 75.0172C57.1012 79.0529 54.8818 80.2637 52.8643 80.2637C52.0573 80.2637 51.2704 80.0619 50.5643 79.7794C45.8029 77.9229 43.8459 70.0533 42.6959 65.3517L42.4739 64.4436C42.2722 63.7172 42.1713 62.8091 42.0502 61.8406C41.6871 58.5515 41.2231 55.7668 39.2257 55.5852C36.8652 55.343 36.038 57.603 35.0897 60.7509C34.8073 61.6589 34.545 62.5266 34.2222 63.1925C33.3546 65.0288 31.095 67.5309 28.4924 67.0063C26.152 66.522 25.3853 64.3225 24.8204 62.7284C24.7195 62.4459 24.6187 62.1836 24.538 61.9213C24.1143 60.8922 23.9932 59.4191 23.8116 57.6838C23.5897 55.3027 23.2467 51.7311 21.9555 51.5091C21.0678 51.3275 19.9379 52.0136 18.7678 52.6997C16.8713 53.8095 14.2686 55.3632 11.8879 52.7804C11.6256 52.518 11.545 52.1548 11.6257 51.7714C12.6748 47.4532 16.9318 43.9421 21.0879 43.9421H27.7862C28.2099 43.9421 28.5731 44.1641 28.7748 44.5273C30.9941 48.9666 35.9169 51.8118 41.3038 51.8118C45.5608 51.8118 49.495 50.0966 52.1178 47.09C52.3599 46.8277 52.6827 46.6662 53.0257 46.7268C53.3687 46.7469 53.6713 46.9487 53.8529 47.2312C53.9538 47.4128 56.7178 51.5696 64.8889 51.9329C65.7968 51.953 66.7248 51.8522 67.5117 51.6907C73.4231 50.6414 77.5188 46.0407 77.5793 46.0003L78.0433 45.4757C78.3863 45.1125 78.9916 44.9914 79.4153 45.2739C81.8767 46.7268 83.7328 49.1886 84.3784 51.7916L86.3152 59.6814ZM33.0116 60.085C33.7178 57.7443 34.7266 54.435 37.4502 53.5673C33.0722 52.5584 29.2994 49.8544 27.1809 46.1214H21.1283C18.1423 46.1214 14.995 48.6034 13.9458 51.6907C14.8537 52.3364 15.802 51.9329 17.6783 50.823C18.909 50.0966 20.2607 49.2895 21.6932 49.2895C21.9151 49.2895 22.1371 49.2895 22.3388 49.3298C25.2643 49.8545 25.6476 53.8902 26.0108 57.4618C26.1318 58.8743 26.2932 60.3675 26.5757 61.1141C26.6765 61.3966 26.7774 61.6791 26.8783 61.9818C27.4432 63.5759 27.8871 64.6252 28.9362 64.8472C30.0862 65.0893 31.5792 63.697 32.2652 62.224C32.5274 61.6993 32.7494 60.9124 33.0116 60.085Z" fill="white"/>
<path d="M78.2049 80.223V80.4652C78.2049 82.2611 76.7522 83.7341 74.9364 83.7341C73.1207 83.7341 71.668 82.2409 71.668 80.4652V80.223C71.668 78.4271 73.1207 76.9541 74.9364 76.9541C76.7321 76.9541 78.2049 78.4473 78.2049 80.223ZM76.0259 80.4652V80.223C76.0259 79.6378 75.5215 79.1334 74.9364 79.1334C74.3514 79.1334 73.847 79.6378 73.847 80.223V80.4652C73.847 81.0503 74.3514 81.5548 74.9364 81.5548C75.5215 81.5548 76.0259 81.0503 76.0259 80.4652Z" fill="white"/>
<path d="M77.4593 43.1955C77.5198 43.5184 77.4189 43.8412 77.197 44.0834C77.0356 44.2852 73.1417 48.6034 67.4522 49.6123C66.5847 49.7939 65.6969 49.8545 64.8697 49.8545C60.2899 49.8545 56.5776 47.877 56.3961 47.7761C56.0934 47.5945 55.8917 47.312 55.8311 46.9891C55.7706 46.6662 55.8715 46.3434 56.0934 46.0811C56.1136 46.0811 56.1338 46.0407 56.1943 45.9802C56.0127 46.0609 55.8917 46.1012 55.8715 46.1012C55.589 46.2223 55.2663 46.2021 55.004 46.0811C54.7215 45.9802 54.5197 45.738 54.4189 45.4555C54.3987 45.3345 53.975 44.043 53.6925 42.126C51.7961 46.5855 46.9741 49.7738 41.325 49.7738C34.0618 49.7738 28.1504 44.5071 28.1504 38.0298C28.1504 32.4403 30.9952 28.8687 36.6241 27.3755C37.6531 27.093 38.7022 27.1939 39.5697 27.3755C39.6706 24.954 40.175 21.6044 41.7487 17.7099C41.7688 17.6494 41.789 17.5888 41.8294 17.5081C43.2417 14.1787 45.5013 10.7483 48.8706 6.75292C48.8706 6.71256 48.8706 6.69239 48.8706 6.67222C48.7496 6.49061 48.5478 6.22827 48.4873 5.86505C48.4066 5.48166 48.5074 5.09828 48.5478 4.87632C48.5276 4.57364 48.4873 4.43239 48.4671 4.31132C48.4066 4.06918 48.4267 3.84719 48.4267 3.72612C48.2653 3.34273 48.1443 3.04006 48.1039 2.69702C48.0636 2.37417 48.104 2.0513 48.1847 1.64773C48.2654 1.32487 48.4066 0.921284 48.9513 0.658962C49.5162 0.356283 50.1417 0.235211 50.6461 0.154496L50.8882 0.114161C51.332 0.0334467 51.7153 -0.047285 52.139 0.0334295C52.9259 0.215037 53.3294 0.759862 53.2689 1.48629C53.3496 1.52665 53.511 1.82934 53.5311 2.25309C53.5513 2.45488 53.5715 2.55575 53.6119 2.67682C53.9347 3.40326 53.8338 4.02881 53.7329 4.55345L53.6724 4.83595C53.6926 4.83595 53.7127 4.95701 53.7329 5.13862C53.8338 6.10719 54.0154 7.72149 53.0268 8.71025C52.7039 9.01293 52.1996 9.35597 51.3724 9.41651C48.8101 12.4837 46.732 15.6921 45.1382 18.9408C43.7461 22.4317 43.282 25.3778 43.2013 27.3351C43.7662 27.1535 44.432 26.9921 45.6022 27.1333C49.718 27.7589 52.6636 30.2812 53.8943 33.9739C54.1566 32.9044 54.4996 31.8349 54.9838 30.7655C58.1312 24.0258 65.5154 20.9587 65.8382 20.8376C66.1206 20.7367 66.4434 20.7569 66.7057 20.8578C66.9882 20.9789 67.19 21.221 67.2908 21.5035C67.3917 21.8263 69.8531 29.4741 66.7259 36.2137C65.7575 38.2921 64.3654 40.0275 62.9329 41.4198C63.8206 41.0566 64.8093 40.7741 65.8584 40.5925C71.5479 39.5634 76.7128 42.3077 76.9145 42.4287C77.197 42.5902 77.3988 42.8727 77.4593 43.1955ZM74.4531 43.7202C72.6978 43.0341 69.5303 42.1261 66.2215 42.7112C62.9329 43.2964 60.2698 45.2134 58.8373 46.4645C60.5926 47.1505 63.7601 48.0384 67.0689 47.4734C70.3575 46.8882 73.0206 44.9713 74.4531 43.7202ZM64.7286 35.2451C66.8066 30.7655 66.0399 25.6603 65.5154 23.3801C63.4373 24.4698 59.0391 27.1737 56.961 31.6533C54.8829 36.1532 55.6496 41.2584 56.1741 43.5385C58.2522 42.4489 62.6707 39.745 64.7286 35.2451ZM52.3408 38.0702C52.3408 38.05 52.3408 38.0096 52.3408 37.9894C52.3408 37.9692 52.3408 37.9289 52.3408 37.9087C52.3004 33.1062 49.718 29.9583 45.2794 29.2924C44.5329 29.1915 44.2504 29.2723 43.7461 29.4539C43.3627 29.5749 42.8987 29.7364 42.1925 29.8171C41.8899 29.8373 41.5873 29.7566 41.3653 29.5548C41.3452 29.5346 41.3452 29.5346 41.325 29.5346C41.1232 29.7162 40.8811 29.7969 40.6188 29.7969C40.5583 29.7969 40.4978 29.7767 40.4171 29.7767L39.832 29.6557C39.2469 29.5548 38.5811 29.3933 37.9759 29.3933C37.6934 29.3933 37.4109 29.4337 37.1487 29.4942C32.4881 30.7251 30.3092 33.4291 30.3092 38.0298C30.3092 43.3166 35.232 47.5945 41.3048 47.5945C47.3776 47.5541 52.3004 43.2964 52.3408 38.0702ZM51.5741 4.12969C51.6548 3.76647 51.6548 3.62524 51.6145 3.54452C51.4127 3.08041 51.3724 2.71718 51.3522 2.39433C51.3118 2.37415 51.2917 2.31361 51.2513 2.23289L51.0092 2.27326C50.7873 2.31362 50.5048 2.35398 50.2627 2.43469C50.4443 2.75755 50.5855 3.12076 50.5855 3.56469C50.5855 3.60505 50.5855 3.82701 50.5855 3.84719C50.6461 4.00862 50.7066 4.19024 50.7469 4.43239C50.8075 4.81578 50.7268 5.17899 50.6662 5.40095C50.7066 5.44131 50.9084 5.68346 50.9689 6.00632C51.0092 6.16775 51.0294 6.30898 51.0294 6.49058C51.1303 6.69237 51.1505 6.97487 51.0899 7.21702C51.332 7.23719 51.4329 7.19686 51.4733 7.17668C51.7355 6.91436 51.5741 5.76416 51.5338 5.36059C51.4934 4.99737 51.4732 4.73506 51.5136 4.49292L51.5741 4.12969Z" fill="white"/>
<path d="M63.5372 101.108C65.353 101.108 66.8057 102.561 66.8057 104.377C66.8057 106.173 65.353 107.646 63.5372 107.646H63.3153C61.4995 107.646 60.0469 106.153 60.0469 104.377C60.0469 102.561 61.4995 101.108 63.3153 101.108H63.5372ZM64.6267 104.397C64.6267 103.812 64.1223 103.308 63.5372 103.308H63.3153C62.7302 103.308 62.2258 103.812 62.2258 104.397C62.2258 104.982 62.7302 105.487 63.3153 105.487H63.5372C64.1223 105.487 64.6267 104.982 64.6267 104.397Z" fill="white"/>
<path d="M64.2443 88.6582C64.2443 89.5057 63.9618 90.2927 63.4574 90.8778C62.8724 91.5639 62.025 91.9271 61.0364 91.9271C58.9381 91.9271 57.8486 90.2927 57.8486 88.6582C57.8486 87.8309 58.1311 87.0439 58.6355 86.4587C59.2206 85.7726 60.0679 85.4094 61.0364 85.4094C63.1346 85.4094 64.2443 87.0439 64.2443 88.6582ZM62.0451 88.6582C62.0451 88.4766 62.0048 87.5887 61.0162 87.5887C60.0477 87.5887 60.0074 88.4766 60.0074 88.6582C60.0074 88.86 60.0477 89.7478 61.0162 89.7478C62.0048 89.7478 62.0451 88.86 62.0451 88.6582Z" fill="white"/>
<path d="M43.9474 95.6396C45.7632 95.6396 47.2158 97.1329 47.2158 98.9086C47.2158 100.725 45.7632 102.178 43.9474 102.178H43.7254C41.9097 102.178 40.457 100.725 40.457 98.9086C40.457 97.1127 41.9097 95.6396 43.7254 95.6396H43.9474ZM45.0369 98.9086C45.0369 98.3234 44.5325 97.8189 43.9474 97.8189H43.7254C43.1404 97.8189 42.636 98.3234 42.636 98.9086C42.636 99.4938 43.1404 99.9982 43.7254 99.9982H43.9474C44.5325 99.9982 45.0369 99.4938 45.0369 98.9086Z" fill="white"/>
<path d="M32.7909 83.573C34.8891 83.573 35.9786 85.2276 35.9786 86.8419C35.9786 88.4562 34.8891 90.1109 32.7909 90.1109C30.6927 90.1109 29.583 88.4562 29.583 86.8419C29.583 85.2276 30.6927 83.573 32.7909 83.573ZM33.7997 86.8419C33.7997 86.6603 33.7593 85.7523 32.7909 85.7523C31.8225 85.7523 31.762 86.6603 31.762 86.8419C31.762 87.0235 31.8225 87.9316 32.7909 87.9316C33.7593 87.9316 33.7997 87.0235 33.7997 86.8419Z" fill="white"/>
<path d="M22.158 76.5914V76.8336C22.158 78.6295 20.7053 80.1025 18.8895 80.1025C17.0737 80.1025 15.6211 78.6093 15.6211 76.8336V76.5914C15.6211 74.7955 17.0737 73.3225 18.8895 73.3225C20.7053 73.3225 22.158 74.7955 22.158 76.5914ZM19.979 76.8336V76.5914C19.979 76.0063 19.4746 75.5018 18.8895 75.5018C18.3044 75.5018 17.8 76.0063 17.8 76.5914V76.8336C17.8 77.4188 18.3044 77.9232 18.8895 77.9232C19.4746 77.9232 19.979 77.4188 19.979 76.8336Z" fill="white"/>
<path d="M20.1198 95.4987V95.7206C20.1198 97.5367 18.6672 98.9896 16.8514 98.9896C15.0356 98.9896 13.583 97.5367 13.583 95.7206V95.4987C13.583 93.6826 15.0356 92.2297 16.8514 92.2297C18.6672 92.2297 20.1198 93.7028 20.1198 95.4987ZM17.9409 95.7206V95.4987C17.9409 94.9135 17.4365 94.409 16.8514 94.409C16.2663 94.409 15.7619 94.9135 15.7619 95.4987V95.7206C15.7619 96.3058 16.2663 96.8103 16.8514 96.8103C17.4365 96.8103 17.9409 96.3058 17.9409 95.7206Z" fill="white"/>
</svg>
