<svg width="40" height="40" viewBox="0 0 40 40" fill="none" xmlns="http://www.w3.org/2000/svg">
<path fill-rule="evenodd" clip-rule="evenodd" d="M20.7095 0.107747C20.1693 0.261592 19.8659 0.458824 19.4548 0.923208C18.3868 2.12955 18.5608 4.01501 19.8301 4.99018C20.0308 5.14443 20.3269 5.31317 20.4882 5.36527L20.7813 5.4601V6.49436V7.52871L20.2145 7.67172C18.399 8.12984 16.2017 9.24998 14.5661 10.5512C13.9683 11.0269 12.6675 12.33 12.1578 12.9638L11.7651 13.4522L8.77423 13.4929L5.78332 13.5336L5.58287 13.7297C5.18845 14.1156 5.27656 14.8087 5.74837 15.0325C5.869 15.0898 6.75908 15.1208 8.2763 15.1208C9.56423 15.1208 10.618 15.1344 10.618 15.1508C10.618 15.1673 10.4294 15.5611 10.199 16.0258C9.96857 16.4906 9.66352 17.1915 9.52107 17.5832L9.26207 18.2954H4.86276H0.46345L0.260965 18.4786C-0.00617363 18.7203 -0.0825549 19.1925 0.0989776 19.4809C0.374482 19.9188 0.423813 19.9234 4.80029 19.9234H8.8381L8.79088 20.1066C8.73576 20.3204 8.52734 21.8702 8.46245 22.5486L8.41773 23.0166H6.62132C4.66879 23.0166 4.47976 23.0529 4.30073 23.462C4.1826 23.7319 4.1826 23.9293 4.30073 24.1992C4.48023 24.6094 4.66621 24.6446 6.65486 24.6446H8.48465L8.53695 25.297C8.58675 25.9192 8.86593 27.5363 8.947 27.673C8.96819 27.7086 7.83889 27.7378 6.43752 27.7378C3.67357 27.7378 3.4886 27.7633 3.22615 28.1803C3.04462 28.4687 3.121 28.941 3.38814 29.1826C3.59031 29.3655 3.59414 29.3658 6.52204 29.3658H9.45345L9.54007 29.6244C9.69799 30.0962 10.4405 31.6123 10.8514 32.3021C12.3716 34.8541 14.6578 36.9881 17.3023 38.3234C21.1406 40.2614 25.2599 40.5222 29.4201 39.0906C30.0998 38.8567 32.0061 37.91 32.6114 37.5058C33.2458 37.0822 33.3581 36.4959 32.8846 36.081C32.5687 35.8042 32.237 35.8189 31.7647 36.1307C31.0277 36.6174 29.6906 37.2682 28.7774 37.5848C24.5597 39.0467 19.9507 38.4018 16.286 35.8369C10.4369 31.7431 8.36113 23.8344 11.3934 17.1965C13.3271 12.9637 16.9412 10.041 21.4833 9.03712C22.3773 8.83948 22.6147 8.82076 24.2212 8.82076C25.829 8.82076 26.0647 8.8394 26.9621 9.03777C28.3969 9.35482 29.2756 9.6744 30.5928 10.3584C31.9085 11.0415 32.8281 11.6964 33.8513 12.6789C38.7601 17.3924 39.8611 25.1464 36.4675 31.1027C36.0322 31.8667 35.9779 32.0594 36.1067 32.383C36.267 32.786 36.829 32.9907 37.2031 32.7823C37.4028 32.671 37.81 31.9978 38.3232 30.9304C40.9987 25.3657 40.4406 18.7321 36.8766 13.7371C36.2744 12.8931 34.9437 11.4518 34.15 10.7841C32.4737 9.37371 30.38 8.26138 28.345 7.70013L27.6611 7.51145L27.6624 6.49322L27.6638 5.47499L28.0975 5.27947C28.6579 5.02681 29.1818 4.49185 29.4429 3.90561C29.7367 3.24595 29.7382 2.33492 29.4465 1.68014C29.1607 1.03871 28.7467 0.596063 28.1432 0.286582L27.6258 0.0212194L24.3794 0.00412553C21.7153 -0.0098752 21.0571 0.00868389 20.7095 0.107747ZM27.2694 1.66126C27.6042 1.73094 28.0314 2.18466 28.0951 2.5381C28.1622 2.91074 28.0242 3.31855 27.7324 3.60972L27.4947 3.847L24.2881 3.86996C21.1728 3.89234 21.0743 3.88819 20.8225 3.72628C20.3231 3.40492 20.1667 2.67346 20.4897 2.17001C20.8468 1.6134 20.8765 1.60876 24.1137 1.60867C25.7101 1.60859 27.1301 1.63228 27.2694 1.66126ZM26.0975 6.35004V7.18438H24.2212H22.3449V6.35004V5.51569H24.2212H26.0975V6.35004ZM22.7358 11.0242C21.121 11.2939 19.9284 11.6863 18.6705 12.3616C15.3966 14.1194 13.1205 17.2496 12.3225 21.0917C12.0708 22.303 12.0733 24.7979 12.3272 26.0284C13.037 29.4665 14.9212 32.332 17.6932 34.1884C21.6553 36.8418 26.7871 36.8418 30.7492 34.1884C33.5212 32.332 35.4055 29.4665 36.1152 26.0284C36.3691 24.7979 36.3716 22.303 36.12 21.0917C35.0433 15.9081 31.1812 12.0023 26.2673 11.1277C25.438 10.98 23.3641 10.9193 22.7358 11.0242ZM25.9021 12.7183C30.4657 13.4981 33.958 17.1948 34.6697 21.9991C34.8157 22.9853 34.775 24.791 34.586 25.7028C34.1258 27.9239 33.1773 29.7407 31.6533 31.321C30.1081 32.923 28.4224 33.8765 26.3113 34.3424C25.2512 34.5763 23.3379 34.5975 22.3238 34.3865C20.858 34.0816 19.4122 33.4528 18.2014 32.5934C17.8789 32.3645 17.2434 31.792 16.7892 31.321C15.2651 29.7407 14.3167 27.9239 13.8564 25.7028C13.6675 24.791 13.6267 22.9853 13.7728 21.9991C14.4793 17.2295 17.9738 13.5112 22.4951 12.7181C23.32 12.5734 25.0545 12.5735 25.9021 12.7183ZM23.8389 14.1763C23.5507 14.3426 23.4452 14.6228 23.4422 15.2304C23.4391 15.849 23.5751 16.1874 23.886 16.3349C24.1371 16.454 24.3429 16.446 24.6008 16.3072C24.9036 16.1442 25.003 15.8585 25.003 15.1515C25.003 14.5826 24.9866 14.5214 24.7745 14.3006C24.5206 14.0363 24.1636 13.9888 23.8389 14.1763ZM29.4201 17.11C29.2911 17.1711 28.3098 18.1369 27.2392 19.2564L25.2928 21.2916L24.9817 21.1773C24.599 21.0367 23.8072 21.0389 23.4394 21.1815L23.1658 21.2878L22.1818 20.28C21.2775 19.3538 21.1743 19.2722 20.9063 19.2722C20.5331 19.2722 20.3434 19.3805 20.1958 19.6776C19.9511 20.1704 20.0081 20.2839 21.0528 21.3832L22.0277 22.4091L21.9127 22.8072C21.6647 23.6651 21.8551 24.5639 22.4285 25.2422C23.3709 26.357 25.0715 26.357 26.0139 25.2422C26.5876 24.5635 26.7777 23.6651 26.5293 22.8058L26.4138 22.4064L28.4447 20.2863C30.4343 18.2094 30.4756 18.1595 30.4756 17.835C30.4756 17.5855 30.4246 17.4506 30.2695 17.289C30.1561 17.171 30.0182 17.0744 29.9631 17.0744C29.908 17.0744 29.816 17.0574 29.7588 17.0367C29.7015 17.016 29.5491 17.049 29.4201 17.11ZM24.8154 22.9678C25.1278 23.293 25.1654 23.6451 24.9306 24.0461C24.4887 24.8005 23.3625 24.4209 23.3616 23.5172C23.3611 23.0999 23.7865 22.691 24.2212 22.691C24.4904 22.691 24.5975 22.7409 24.8154 22.9678ZM15.3475 22.9689C14.987 23.3442 15.0125 23.8774 15.4056 24.183C15.6315 24.3586 16.2474 24.449 16.6638 24.3677C17.3194 24.2396 17.569 23.4852 17.1129 23.0103C16.8957 22.7841 16.8511 22.7724 16.2103 22.7724C15.6019 22.7724 15.5178 22.7915 15.3475 22.9689ZM31.3295 23.0103C31.1606 23.1862 31.101 23.3256 31.101 23.5448C31.101 24.1918 31.4533 24.4326 32.3324 24.3863C32.8744 24.3578 32.9313 24.3372 33.1418 24.0919C33.3851 23.8084 33.4233 23.5572 33.2748 23.2178C33.133 22.8939 32.8276 22.7724 32.1543 22.7724C31.5995 22.7724 31.5422 22.7889 31.3295 23.0103ZM0.480102 27.8572C-0.295125 28.2062 -0.0790368 29.3658 0.761235 29.3658C1.51019 29.3658 1.83761 28.3595 1.22054 27.9541C0.929633 27.7629 0.743644 27.7386 0.480102 27.8572ZM24.0089 30.7263C23.9136 30.7449 23.7465 30.8704 23.6375 31.0053C23.4621 31.2224 23.4394 31.324 23.4394 31.8941C23.4394 32.488 23.4568 32.558 23.664 32.7995C23.9264 33.1053 24.3039 33.1511 24.6446 32.9187C24.9143 32.7347 25.003 32.4799 25.003 31.8892C25.003 31.6264 24.9694 31.3193 24.9283 31.2068C24.8087 30.8792 24.3779 30.654 24.0089 30.7263ZM34.3003 34.0807C34.0008 34.3925 33.9911 34.7885 34.2742 35.1389C34.4409 35.3451 34.5344 35.3893 34.804 35.3893C35.1924 35.3893 35.4216 35.2419 35.5553 34.9058C35.8712 34.1117 34.89 33.4667 34.3003 34.0807Z" fill="white"/>
</svg>
