<svg width="50" height="50" viewBox="0 0 50 50" fill="none" xmlns="http://www.w3.org/2000/svg">
<path fill-rule="evenodd" clip-rule="evenodd" d="M20.9542 0.255729C20.7874 0.416875 20.6897 0.630417 20.6897 0.833333C20.6897 1.36521 21.0972 1.66667 21.8163 1.66667H22.4138V2.48458V3.3026L21.3631 3.37312C18.0168 3.59771 15.1334 4.5325 12.3922 6.28146C7.40754 9.46198 4.31713 15.0169 4.31121 20.8073L4.31034 21.6667H2.41972C0.555927 21.6667 0.525216 21.6703 0.264547 21.9224C0.015194 22.1633 0 22.245 0 23.3426C0 23.983 0.0589439 24.7 0.131034 24.9358C0.305927 25.508 1.1986 26.3709 1.79052 26.54C2.08093 26.6229 3.06821 26.6667 4.65054 26.6667H7.06703L7.06519 27.4219C7.06379 28.0056 7.11821 28.2773 7.30474 28.6184C7.63901 29.2298 13.8458 34.7108 20.6652 40.4167C26.0006 44.8809 26.0755 44.949 25.7316 45.0177C25.0471 45.1545 25 45.3152 25 47.5163C25 49.4715 25.0023 49.4908 25.2645 49.7443L25.529 50H31.0345H36.54L36.8044 49.7443C37.0668 49.4907 37.069 49.4725 37.069 47.5C37.069 45.5275 37.0668 45.5093 36.8044 45.2557C36.6589 45.1151 36.465 45 36.3734 45C36.2414 45 36.2069 44.8682 36.2069 44.3643C36.2069 43.754 36.2269 43.7071 36.7083 43.1924C36.9841 42.8975 37.3598 42.3516 37.5434 41.9792L37.8772 41.3021L37.9109 38.2292L37.9445 35.1562L39.6221 31.5804L41.2997 28.0045L41.2442 27.3356L41.1886 26.6667H44.4975C48.3645 26.6667 48.5309 26.6377 49.2779 25.8346C49.8775 25.19 50 24.767 50 23.3426C50 22.245 49.9848 22.1633 49.7355 21.9224C49.475 21.6705 49.443 21.6667 47.5969 21.6667H45.7227L45.6551 20.2344C45.6179 19.4467 45.5356 18.4974 45.4722 18.125C44.3763 11.6872 39.7452 6.36052 33.4334 4.27823C32.0105 3.80875 30.7644 3.56281 29.0679 3.41646L27.5862 3.28875V2.47771V1.66667H28.1837C28.9028 1.66667 29.3103 1.36521 29.3103 0.833333C29.3103 0.630417 29.2126 0.416875 29.0458 0.255729L28.7814 0H25H21.2186L20.9542 0.255729ZM25.8621 2.5V3.33333H25H24.1379V2.5V1.66667H25H25.8621V2.5ZM30.9267 5.33604C33.9537 5.97687 36.5603 7.29885 38.7541 9.30573C42.0024 12.2775 43.735 15.9501 43.9344 20.2865L43.9978 21.6667H24.9996H6.0014L6.07123 20.2344C6.15075 18.6033 6.40474 17.2384 6.89235 15.8227C8.76282 10.3914 13.6877 6.27021 19.5043 5.26906C20.9347 5.02292 20.9334 5.02292 25.431 5.04906C29.5296 5.07281 29.7335 5.08344 30.9267 5.33604ZM48.2759 23.9109C48.2759 24.3854 48.2286 24.5344 48.0113 24.7443L47.7469 25H25H2.25312L1.98869 24.7443C1.77144 24.5344 1.72414 24.3854 1.72414 23.9109V23.3333H25H48.2759V23.9109ZM10.606 26.901C10.7675 27.0396 11.2985 28.027 11.9051 29.3169C12.4694 30.5167 12.931 31.5155 12.931 31.5365C12.931 31.6436 8.97683 28.0579 8.85409 27.8395C8.68297 27.5347 8.76153 27.1555 9.05442 26.8724C9.3666 26.5706 10.2397 26.5867 10.606 26.901ZM14.9218 26.808C15.0318 26.8858 15.8532 28.3504 16.7473 30.0627L18.3728 33.176L22.9453 34.9397L27.5178 36.7033L29.4108 36.254C30.452 36.0069 31.3837 35.7652 31.4814 35.7169C31.579 35.6686 32.7342 33.718 34.0483 31.3823C35.3624 29.0465 36.5581 27.03 36.7054 26.901C36.9435 26.6926 37.0865 26.6667 37.9958 26.6667C38.9378 26.6667 39.0392 26.6868 39.2829 26.9224C39.4283 27.063 39.5474 27.2994 39.5474 27.4476C39.5474 27.5959 38.7958 29.3159 37.8772 31.27L36.2069 34.8228L36.2045 37.802C36.2017 41.2695 36.2009 41.2732 35.1242 42.357L34.4828 43.0028V44.0014V45H31.627H28.7713L22.4925 39.7395L16.2137 34.4791L14.6263 31.0959C13.7531 29.2353 13.0388 27.5926 13.0388 27.4455C13.0388 27.2983 13.1579 27.063 13.3033 26.9224C13.5182 26.7146 13.6759 26.6667 14.1447 26.6667C14.4621 26.6667 14.8117 26.7303 14.9218 26.808ZM34.6983 26.7201C34.6983 26.7894 30.5942 34.087 30.4905 34.2021C30.4472 34.2502 29.7885 34.4405 29.0268 34.625L27.642 34.9605L23.6205 33.4043L19.5989 31.848L18.2581 29.2573L16.9172 26.6667H25.8078C30.6975 26.6667 34.6983 26.6907 34.6983 26.7201ZM35.3448 47.5V48.3333H31.0345H26.7241V47.5V46.6667H31.0345H35.3448V47.5Z" fill="#EB0029"/>
</svg>
