<svg width="96" height="116" viewBox="0 0 96 116" fill="none" xmlns="http://www.w3.org/2000/svg">
<path d="M83.9145 53.7695L85.69 61.0136C85.004 61.619 84.419 61.9217 83.9953 61.8813C83.2689 61.841 82.5426 60.832 81.7558 59.7625C81.0294 58.794 80.2023 57.7043 79.133 56.9981C77.7005 56.0497 76.49 55.8277 75.461 56.2717C73.7461 57.0183 73.3628 59.359 72.9996 61.5988C72.818 62.7086 72.6365 64.0001 72.2733 64.4843C71.6681 65.352 71.2444 65.5538 71.1233 65.5336C70.2558 65.4327 69.0452 62.0831 68.6014 60.832C68.2382 59.8029 67.9154 58.9756 67.6128 58.4711C66.6444 57.0384 65.6961 56.4936 64.8689 56.3725L64.9698 55.4443C65.454 55.4847 65.9785 55.525 66.5031 55.5452C67.6329 55.5856 68.7426 55.4443 69.5698 55.2829C75.6023 54.2134 79.819 50.0163 80.7268 49.0679C82.3005 50.2584 83.4707 51.9534 83.9145 53.7695Z" fill="#FF9D2D"/>
<path d="M67.8552 44.1643C71.1438 43.5791 74.3315 44.4872 76.0867 45.1732C74.6745 46.4243 72.0114 48.3413 68.7026 48.9264C65.414 49.4914 62.2262 48.6036 60.4709 47.9175C61.9034 46.6866 64.5666 44.7495 67.8552 44.1643Z" fill="#FF9D2D"/>
<path d="M67.1491 24.8333C67.6737 27.1336 68.4404 32.2388 66.3623 36.6983C64.2843 41.1981 59.886 43.902 57.8079 44.9917C57.2834 42.6913 56.5167 37.5861 58.5948 33.1065C60.6728 28.6268 65.0912 25.9229 67.1491 24.8333Z" fill="#FF9D2D"/>
<path d="M64.9497 55.444L64.8488 56.3722C64.4857 56.3318 64.1225 56.3722 63.8199 56.4327C60.6725 57.2399 58.9374 63.576 58.7962 65.4728C58.6953 66.9055 58.8163 68.1969 58.9172 69.4681C59.0988 71.6071 59.2602 73.4635 58.3927 75.6024C56.5567 79.9812 54.4383 79.7189 53.0058 79.1539C49.2935 77.7212 47.4979 70.5174 46.4286 66.2194L46.1865 65.3315C46.0654 64.7463 45.9444 63.919 45.8637 63.011C45.5812 60.4887 45.1575 56.917 42.9382 55.444C47.3768 55.444 51.5128 53.8095 54.519 50.9038C55.9514 52.3567 59.0786 54.8386 64.9497 55.444Z" fill="#FF9D2D"/>
<path d="M39.0848 55.0204C36.3813 55.8881 35.3523 59.2175 34.6461 61.5381C34.3839 62.3654 34.1619 63.1524 33.8997 63.677C33.1935 65.1299 31.7207 66.5424 30.5707 66.3002C29.5216 66.0783 29.0777 65.029 28.5128 63.4349C28.4119 63.1322 28.3111 62.8497 28.2102 62.5672C27.9277 61.8206 27.7663 60.3476 27.6452 58.9149C27.3023 55.3433 26.8988 51.3075 23.9733 50.7829C23.7514 50.7425 23.5295 50.7425 23.3277 50.7425C21.8952 50.7425 20.5435 51.5497 19.3128 52.2761C17.4365 53.3859 16.4882 53.8097 15.5803 53.1438C16.6294 50.0766 19.7768 47.5745 22.7628 47.5745H28.8154C30.9137 51.3075 34.6865 54.0115 39.0848 55.0204Z" fill="#FF9D2D"/>
<path d="M9.38907 98.4994L12.5 88C39.3 100 70.3333 94.6667 82.5 90.5L85.4119 100.328C86.0203 102.381 84.9034 104.557 82.8577 105.191C50.1437 115.331 23.2386 108.724 11.2544 102.958C9.59771 102.16 8.86679 100.262 9.38907 98.4994Z" fill="#FF9D2D"/>
<path d="M95.7578 100.281C95.9192 100.967 96 101.613 96 102.258C96 103.368 95.7579 104.417 95.2737 105.366C93.1552 112.287 69.8727 116 48.0025 116C26.1121 116 2.84982 112.287 0.670865 105.204C-0.0352763 103.893 -0.196663 102.137 0.247198 100.301L10.8998 56.3721C10.9805 56.0492 11.2226 55.7667 11.5454 55.6255C11.8683 55.5044 12.2516 55.5246 12.5341 55.7062C13.4218 56.2712 14.2893 56.3923 14.8341 56.3923C16.3876 56.3923 17.7393 55.5851 19.0507 54.8183C19.7367 54.3946 20.463 53.9708 21.0481 53.7691C21.5727 53.5874 22.1577 53.8498 22.3797 54.3744C22.8437 55.4035 23.0656 57.4012 23.2472 59.3787C23.4086 61.1544 23.5498 62.6477 23.9937 63.7373C24.0542 63.9391 24.1551 64.161 24.2156 64.3628C24.8411 66.1587 25.7288 68.6407 28.3315 69.1654C28.6139 69.2259 28.8762 69.2461 29.1586 69.2461C31.5999 69.2461 33.7385 67.0668 34.7069 65.0489C35.0499 64.3023 35.3323 63.3942 35.5946 62.5266C36.3209 60.1657 37.0473 57.724 38.863 57.724C38.9034 57.724 39.1253 57.7442 39.1455 57.7442C40.578 57.8653 41.0622 59.8025 41.4858 63.5153C41.5867 64.5444 41.7078 65.4323 41.9095 66.1991L42.1315 67.0869C43.4025 72.1921 45.3192 79.9407 50.3631 81.8981C54.1157 83.3913 57.3236 81.555 59.2806 76.8332C60.4104 74.0889 60.1885 71.7078 60.0069 69.4075C59.906 68.2573 59.785 67.0668 59.8859 65.8359C59.9867 64.2014 61.0157 61.5378 61.8631 60.2666C62.085 59.9437 62.4683 59.7419 62.8718 59.7823C63.2552 59.8025 63.6183 60.0648 63.7596 60.4078C63.8806 60.7105 64.0824 61.2351 64.264 61.7194L64.3447 61.9414C65.6359 65.4928 66.9069 68.4389 69.4692 68.4389C70.6999 68.4389 71.8298 67.6923 72.8587 66.2193C73.5649 65.2103 73.807 63.7575 74.0289 62.2037C74.1298 61.6387 74.271 60.8316 74.392 60.206C74.4727 59.863 74.735 59.5603 75.0982 59.4392C75.4412 59.3182 75.8447 59.3787 76.1271 59.6007C76.7324 60.0648 77.3578 60.8921 77.8824 61.5782C78.9517 63.0109 80.2833 64.8068 82.4017 64.8068C83.3701 64.8068 84.3184 64.4435 85.307 63.6969C85.6096 63.4548 86.0131 63.4144 86.3359 63.5153C86.6789 63.6364 86.9412 63.9391 87.0421 64.3023L95.7578 100.281ZM93.2763 104.559C93.8614 103.368 93.9824 102.117 93.6394 100.785L85.2666 66.3C84.3184 66.7641 83.3903 67.0062 82.4017 67.0062C79.1938 67.0062 77.3578 64.5646 76.1675 62.9301C75.9052 64.5444 75.5824 66.1789 74.6543 67.5107C73.2017 69.5891 71.4464 70.6586 69.4894 70.6586C65.5955 70.6586 63.8201 66.7439 62.6499 63.6768C62.3271 64.5444 62.1052 65.4323 62.0648 66.0175C62.0043 67.0869 62.085 68.1362 62.1859 69.2461C62.3876 71.5868 62.6499 74.4521 61.2982 77.7009C58.9175 83.4115 55.3868 84.6222 52.8245 84.6222C51.7552 84.6222 50.6657 84.4002 49.556 83.9765C43.4832 81.5954 41.4051 73.2011 40.013 67.652L39.7911 66.7641C39.549 65.8762 39.4481 64.8875 39.3271 63.8584C39.085 61.8607 38.8832 60.8114 38.7218 60.2867C38.3788 60.993 37.8946 62.5266 37.6929 63.2126C37.4104 64.1408 37.1078 65.1498 36.6639 66.0578C35.3727 68.7618 32.5683 71.4859 29.1586 71.4859C28.7349 71.4859 28.3113 71.4455 27.8876 71.3648C24.0542 70.5778 22.8437 67.1475 22.1981 65.291C22.0972 64.948 22.0165 64.7664 21.956 64.5848C21.4113 63.2126 21.2498 61.558 21.0683 59.6208C21.0077 58.8742 20.8665 57.4617 20.6849 56.4124C20.5034 56.4932 20.3621 56.5941 20.2209 56.6748C18.7683 57.5425 16.9928 58.5917 14.8341 58.5917C14.2691 58.5917 13.5226 58.5312 12.7156 58.2285L2.3656 100.826C2.04279 102.157 2.14369 103.408 2.66825 104.397C4.10071 109.058 22.6218 113.841 47.9823 113.841C73.3833 113.821 91.9044 109.038 93.2763 104.559Z" fill="#010F1C"/>
<path d="M87.9905 96.6486V96.8705C87.9905 98.6866 86.5378 100.139 84.722 100.139C82.9062 100.139 81.4536 98.6866 81.4536 96.8705V96.6486C81.4536 94.8325 82.9062 93.3796 84.722 93.3796C86.5378 93.3796 87.9905 94.8325 87.9905 96.6486ZM85.8115 96.8503V96.6284C85.8115 96.0432 85.2869 95.5387 84.722 95.5387C84.1369 95.5387 83.6326 96.0432 83.6326 96.6284V96.8503C83.6326 97.4355 84.1369 97.94 84.722 97.94C85.3071 97.9602 85.8115 97.4557 85.8115 96.8503Z" fill="#010F1C"/>
<path d="M41.3244 53.9911C43.5437 55.4843 43.9674 59.0357 44.2499 61.5581C44.3306 62.4459 44.4516 63.2732 44.5727 63.8786L44.8148 64.7665C45.8841 69.0645 47.6797 76.2683 51.392 77.701C52.8244 78.266 54.9429 78.5283 56.7788 74.1495C57.6464 72.0106 57.485 70.1542 57.3034 68.0152C57.2025 66.744 57.0613 65.4525 57.1823 64.0199C57.3034 62.1231 59.0587 55.787 62.2061 54.9798C62.5087 54.9193 62.8516 54.8789 63.235 54.9193C64.0622 55.0202 65.0306 55.565 65.9789 57.0179C66.2815 57.5223 66.5841 58.3497 66.9675 59.3788C67.4315 60.6299 68.6218 63.9593 69.4894 64.0804C69.6104 64.1006 70.0341 63.8988 70.6394 63.0311C70.9824 62.5468 71.1841 61.2554 71.3657 60.1456C71.7288 57.9057 72.1122 55.565 73.8271 54.8184C74.856 54.3543 76.0464 54.5965 77.4991 55.5448C78.5684 56.2713 79.3955 57.3609 80.1218 58.3093C80.9087 59.3788 81.6552 60.3877 82.3614 60.4281C82.8052 60.4684 83.3903 60.1657 84.0561 59.5604L82.2806 52.3163C81.8368 50.5002 80.6666 48.8052 79.0727 47.6146C78.185 48.5832 73.9482 52.7602 67.9157 53.8297C67.0885 53.9911 65.9789 54.1323 64.8289 54.092C64.3043 54.0718 63.7797 54.0314 63.2955 53.9911C57.4244 53.3857 54.2771 50.8836 52.885 49.4509C49.899 52.3566 45.7429 53.9911 41.3244 53.9911ZM86.3157 59.6814C86.3964 60.0245 86.2956 60.4281 86.0333 60.7106C84.6614 62.0827 83.4306 62.7486 82.1999 62.6275C80.5052 62.5266 79.4157 61.0536 78.3666 59.6411C77.721 58.7734 77.0552 57.8654 76.2885 57.4013C75.2192 56.695 74.7955 56.7959 74.6946 56.8363C74.0692 57.1188 73.7262 59.177 73.5245 60.5289C73.2824 62.0222 73.0604 63.4347 72.435 64.3225C71.406 65.7552 70.3166 66.4211 69.207 66.2597C67.028 65.9772 65.8376 62.7486 64.9096 60.1456C64.6271 59.3384 64.3245 58.5313 64.1429 58.2286C63.8403 57.7645 63.2753 56.9977 62.7508 57.1389C61.3183 57.5022 59.5026 61.9818 59.3613 64.1813C59.2806 65.4526 59.3815 66.6633 59.4622 67.8538C59.6639 70.0734 59.8859 72.394 58.7762 75.0172C57.1017 79.0529 54.8823 80.2637 52.8648 80.2637C52.0578 80.2637 51.2709 80.0619 50.5648 79.7794C45.8034 77.9229 43.8464 70.0533 42.6964 65.3517L42.4744 64.4436C42.2727 63.7172 42.1718 62.8091 42.0507 61.8406C41.6876 58.5515 41.2236 55.7668 39.2262 55.5852C36.8657 55.343 36.0384 57.603 35.0902 60.7509C34.8077 61.6589 34.5455 62.5266 34.2227 63.1925C33.3551 65.0288 31.0955 67.5309 28.4928 67.0063C26.1525 66.522 25.3858 64.3225 24.8209 62.7284C24.72 62.4459 24.6191 62.1836 24.5384 61.9213C24.1148 60.8922 23.9937 59.4191 23.8121 57.6838C23.5902 55.3027 23.2472 51.7311 21.956 51.5091C21.0683 51.3275 19.9384 52.0136 18.7683 52.6997C16.8718 53.8095 14.2691 55.3632 11.8884 52.7804C11.6261 52.518 11.5454 52.1548 11.6261 51.7714C12.6753 47.4532 16.9323 43.9421 21.0884 43.9421H27.7867C28.2104 43.9421 28.5735 44.1641 28.7753 44.5273C30.9946 48.9666 35.9174 51.8118 41.3043 51.8118C45.5613 51.8118 49.4955 50.0966 52.1183 47.09C52.3604 46.8277 52.6832 46.6662 53.0262 46.7268C53.3692 46.7469 53.6718 46.9487 53.8534 47.2312C53.9543 47.4128 56.7183 51.5696 64.8894 51.9329C65.7973 51.953 66.7253 51.8522 67.5122 51.6907C73.4236 50.6414 77.5192 46.0407 77.5798 46.0003L78.0438 45.4757C78.3868 45.1125 78.9921 44.9914 79.4157 45.2739C81.8772 46.7268 83.7333 49.1886 84.3789 51.7916L86.3157 59.6814ZM33.0121 60.085C33.7183 57.7443 34.727 54.435 37.4507 53.5673C33.0727 52.5584 29.2998 49.8544 27.1814 46.1214H21.1288C18.1428 46.1214 14.9954 48.6034 13.9463 51.6907C14.8542 52.3364 15.8025 51.9329 17.6788 50.823C18.9095 50.0966 20.2612 49.2895 21.6937 49.2895C21.9156 49.2895 22.1376 49.2895 22.3393 49.3298C25.2648 49.8545 25.6481 53.8902 26.0112 57.4618C26.1323 58.8743 26.2937 60.3675 26.5761 61.1141C26.677 61.3966 26.7779 61.6791 26.8788 61.9818C27.4437 63.5759 27.8876 64.6252 28.9367 64.8472C30.0867 65.0893 31.5797 63.697 32.2656 62.224C32.5279 61.6993 32.7498 60.9124 33.0121 60.085Z" fill="#010F1C"/>
<path d="M78.2051 80.223V80.4652C78.2051 82.2611 76.7525 83.7341 74.9367 83.7341C73.1209 83.7341 71.6682 82.2409 71.6682 80.4652V80.223C71.6682 78.4271 73.1209 76.9541 74.9367 76.9541C76.7323 76.9541 78.2051 78.4473 78.2051 80.223ZM76.0261 80.4652V80.223C76.0261 79.6378 75.5218 79.1334 74.9367 79.1334C74.3516 79.1334 73.8472 79.6378 73.8472 80.223V80.4652C73.8472 81.0503 74.3516 81.5548 74.9367 81.5548C75.5218 81.5548 76.0261 81.0503 76.0261 80.4652Z" fill="#010F1C"/>
<path d="M77.459 43.1955C77.5196 43.5184 77.4187 43.8412 77.1968 44.0834C77.0353 44.2852 73.1414 48.6034 67.452 49.6123C66.5844 49.7939 65.6967 49.8545 64.8695 49.8545C60.2897 49.8545 56.5774 47.877 56.3958 47.7761C56.0932 47.5945 55.8914 47.312 55.8309 46.9891C55.7704 46.6662 55.8713 46.3434 56.0932 46.0811C56.1134 46.0811 56.1335 46.0407 56.1941 45.9802C56.0125 46.0609 55.8914 46.1012 55.8713 46.1012C55.5888 46.2223 55.266 46.2021 55.0037 46.0811C54.7213 45.9802 54.5195 45.738 54.4186 45.4555C54.3984 45.3345 53.9748 44.043 53.6923 42.126C51.7958 46.5855 46.9739 49.7738 41.3248 49.7738C34.0616 49.7738 28.1501 44.5071 28.1501 38.0298C28.1501 32.4403 30.9949 28.8687 36.6239 27.3755C37.6528 27.093 38.7019 27.1939 39.5695 27.3755C39.6703 24.954 40.1747 21.6044 41.7484 17.7099C41.7686 17.6494 41.7888 17.5888 41.8291 17.5081C43.2414 14.1787 45.5011 10.7483 48.8704 6.75292C48.8704 6.71256 48.8704 6.69239 48.8704 6.67222C48.7493 6.49061 48.5476 6.22827 48.487 5.86505C48.4063 5.48166 48.5072 5.09828 48.5476 4.87632C48.5274 4.57364 48.487 4.43239 48.4669 4.31132C48.4063 4.06918 48.4265 3.84719 48.4265 3.72612C48.2651 3.34273 48.144 3.04006 48.1037 2.69702C48.0633 2.37417 48.1037 2.0513 48.1844 1.64773C48.2651 1.32487 48.4063 0.921284 48.9511 0.658962C49.516 0.356283 50.1414 0.235211 50.6458 0.154496L50.8879 0.114161C51.3318 0.0334467 51.7151 -0.047285 52.1388 0.0334295C52.9256 0.215037 53.3292 0.759862 53.2686 1.48629C53.3493 1.52665 53.5107 1.82934 53.5309 2.25309C53.5511 2.45488 53.5713 2.55575 53.6116 2.67682C53.9344 3.40326 53.8335 4.02881 53.7327 4.55345L53.6721 4.83595C53.6923 4.83595 53.7125 4.95701 53.7327 5.13862C53.8335 6.10719 54.0151 7.72149 53.0265 8.71025C52.7037 9.01293 52.1993 9.35597 51.3721 9.41651C48.8099 12.4837 46.7318 15.6921 45.1379 18.9408C43.7458 22.4317 43.2818 25.3778 43.2011 27.3351C43.766 27.1535 44.4318 26.9921 45.6019 27.1333C49.7177 27.7589 52.6634 30.2812 53.8941 33.9739C54.1564 32.9044 54.4993 31.8349 54.9835 30.7655C58.1309 24.0258 65.5151 20.9587 65.8379 20.8376C66.1204 20.7367 66.4432 20.7569 66.7055 20.8578C66.9879 20.9789 67.1897 21.221 67.2906 21.5035C67.3915 21.8263 69.8529 29.4741 66.7257 36.2137C65.7573 38.2921 64.3651 40.0275 62.9327 41.4198C63.8204 41.0566 64.809 40.7741 65.8581 40.5925C71.5476 39.5634 76.7125 42.3077 76.9143 42.4287C77.1967 42.5902 77.3985 42.8727 77.459 43.1955ZM74.4529 43.7202C72.6976 43.0341 69.5301 42.1261 66.2213 42.7112C62.9327 43.2964 60.2695 45.2134 58.8371 46.4645C60.5923 47.1505 63.7598 48.0384 67.0686 47.4734C70.3572 46.8882 73.0204 44.9713 74.4529 43.7202ZM64.7283 35.2451C66.8064 30.7655 66.0397 25.6603 65.5151 23.3801C63.4371 24.4698 59.0388 27.1737 56.9608 31.6533C54.8827 36.1532 55.6493 41.2584 56.1739 43.5385C58.252 42.4489 62.6704 39.745 64.7283 35.2451ZM52.3406 38.0702C52.3406 38.05 52.3406 38.0096 52.3406 37.9894C52.3406 37.9692 52.3406 37.9289 52.3406 37.9087C52.3002 33.1062 49.7177 29.9583 45.2791 29.2924C44.5326 29.1915 44.2502 29.2723 43.7458 29.4539C43.3625 29.5749 42.8984 29.7364 42.1923 29.8171C41.8897 29.8373 41.587 29.7566 41.3651 29.5548C41.3449 29.5346 41.3449 29.5346 41.3248 29.5346C41.123 29.7162 40.8809 29.7969 40.6186 29.7969C40.5581 29.7969 40.4975 29.7767 40.4168 29.7767L39.8318 29.6557C39.2467 29.5548 38.5809 29.3933 37.9756 29.3933C37.6932 29.3933 37.4107 29.4337 37.1484 29.4942C32.4879 30.7251 30.3089 33.4291 30.3089 38.0298C30.3089 43.3166 35.2317 47.5945 41.3046 47.5945C47.3774 47.5541 52.3002 43.2964 52.3406 38.0702ZM51.5739 4.12969C51.6546 3.76647 51.6546 3.62524 51.6142 3.54452C51.4125 3.08041 51.3721 2.71718 51.3519 2.39433C51.3116 2.37415 51.2914 2.31361 51.2511 2.23289L51.009 2.27326C50.787 2.31362 50.5046 2.35398 50.2625 2.43469C50.4441 2.75755 50.5853 3.12076 50.5853 3.56469C50.5853 3.60505 50.5853 3.82701 50.5853 3.84719C50.6458 4.00862 50.7064 4.19024 50.7467 4.43239C50.8072 4.81578 50.7265 5.17899 50.666 5.40095C50.7063 5.44131 50.9081 5.68346 50.9686 6.00632C51.009 6.16775 51.0292 6.30898 51.0292 6.49058C51.13 6.69237 51.1502 6.97487 51.0897 7.21702C51.3318 7.23719 51.4327 7.19686 51.473 7.17668C51.7353 6.91436 51.5739 5.76416 51.5335 5.36059C51.4932 4.99737 51.473 4.73506 51.5133 4.49292L51.5739 4.12969Z" fill="#010F1C"/>
<path d="M63.5377 101.108C65.3535 101.108 66.8062 102.561 66.8062 104.377C66.8062 106.173 65.3535 107.646 63.5377 107.646H63.3158C61.5 107.646 60.0474 106.153 60.0474 104.377C60.0474 102.561 61.5 101.108 63.3158 101.108H63.5377ZM64.6272 104.397C64.6272 103.812 64.1228 103.308 63.5377 103.308H63.3158C62.7307 103.308 62.2263 103.812 62.2263 104.397C62.2263 104.982 62.7307 105.487 63.3158 105.487H63.5377C64.1228 105.487 64.6272 104.982 64.6272 104.397Z" fill="#010F1C"/>
<path d="M64.244 88.6582C64.244 89.5057 63.9616 90.2927 63.4572 90.8778C62.8721 91.5639 62.0247 91.9271 61.0361 91.9271C58.9379 91.9271 57.8484 90.2927 57.8484 88.6582C57.8484 87.8309 58.1308 87.0439 58.6352 86.4587C59.2203 85.7726 60.0677 85.4094 61.0361 85.4094C63.1344 85.4094 64.244 87.0439 64.244 88.6582ZM62.0449 88.6582C62.0449 88.4766 62.0045 87.5887 61.0159 87.5887C60.0475 87.5887 60.0071 88.4766 60.0071 88.6582C60.0071 88.86 60.0475 89.7478 61.0159 89.7478C62.0045 89.7478 62.0449 88.86 62.0449 88.6582Z" fill="#010F1C"/>
<path d="M43.9474 95.6396C45.7632 95.6396 47.2158 97.1329 47.2158 98.9086C47.2158 100.725 45.7632 102.178 43.9474 102.178H43.7254C41.9097 102.178 40.457 100.725 40.457 98.9086C40.457 97.1127 41.9097 95.6396 43.7254 95.6396H43.9474ZM45.0369 98.9086C45.0369 98.3234 44.5325 97.8189 43.9474 97.8189H43.7254C43.1404 97.8189 42.636 98.3234 42.636 98.9086C42.636 99.4938 43.1404 99.9982 43.7254 99.9982H43.9474C44.5325 99.9982 45.0369 99.4938 45.0369 98.9086Z" fill="#010F1C"/>
<path d="M32.7904 83.573C34.8887 83.573 35.9781 85.2276 35.9781 86.8419C35.9781 88.4562 34.8887 90.1109 32.7904 90.1109C30.6922 90.1109 29.5825 88.4562 29.5825 86.8419C29.5825 85.2276 30.6922 83.573 32.7904 83.573ZM33.7992 86.8419C33.7992 86.6603 33.7588 85.7523 32.7904 85.7523C31.822 85.7523 31.7615 86.6603 31.7615 86.8419C31.7615 87.0235 31.822 87.9316 32.7904 87.9316C33.7588 87.9316 33.7992 87.0235 33.7992 86.8419Z" fill="#010F1C"/>
<path d="M22.1577 76.5914V76.8336C22.1577 78.6295 20.7051 80.1025 18.8893 80.1025C17.0735 80.1025 15.6208 78.6093 15.6208 76.8336V76.5914C15.6208 74.7955 17.0735 73.3225 18.8893 73.3225C20.7051 73.3225 22.1577 74.7955 22.1577 76.5914ZM19.9788 76.8336V76.5914C19.9788 76.0063 19.4744 75.5018 18.8893 75.5018C18.3042 75.5018 17.7998 76.0063 17.7998 76.5914V76.8336C17.7998 77.4188 18.3042 77.9232 18.8893 77.9232C19.4744 77.9232 19.9788 77.4188 19.9788 76.8336Z" fill="#010F1C"/>
<path d="M20.1196 95.4987V95.7206C20.1196 97.5367 18.667 98.9896 16.8512 98.9896C15.0354 98.9896 13.5828 97.5367 13.5828 95.7206V95.4987C13.5828 93.6826 15.0354 92.2297 16.8512 92.2297C18.667 92.2297 20.1196 93.7028 20.1196 95.4987ZM17.9406 95.7206V95.4987C17.9406 94.9135 17.4363 94.409 16.8512 94.409C16.2661 94.409 15.7617 94.9135 15.7617 95.4987V95.7206C15.7617 96.3058 16.2661 96.8103 16.8512 96.8103C17.4363 96.8103 17.9406 96.3058 17.9406 95.7206Z" fill="#010F1C"/>
</svg>
