<svg width="50" height="50" viewBox="0 0 50 50" fill="none" xmlns="http://www.w3.org/2000/svg">
<path fill-rule="evenodd" clip-rule="evenodd" d="M22.4603 0.0567433C14.0126 0.845361 6.96672 4.71265 2.94377 10.7691C0.850734 13.9201 -0.559202 18.8202 0.215093 20.2524C0.613347 20.9891 1.29537 21.488 2.08278 21.6188L2.49864 21.6878V22.7582C2.49864 23.488 2.54532 23.9403 2.64522 24.1795C2.7919 24.5301 2.79181 24.5303 2.42144 24.8895C1.48334 25.7995 1.37101 27.14 2.14755 28.1568L2.47594 28.5868L2.19266 29.0084C1.44303 30.1242 1.44626 31.4626 2.20167 32.6529C2.49678 33.1179 2.49864 33.1295 2.49864 34.5226V35.9243L2.01232 36.1264C1.36044 36.3971 0.604443 37.1234 0.273706 37.7965C0.0245773 38.3037 0.00393072 38.4347 0.00950823 39.4715C0.0128352 40.0901 0.0706651 40.8603 0.138085 41.1831C1.071 45.6517 4.40292 48.9662 8.85896 49.8584C9.82945 50.0527 40.2185 50.0444 41.1987 49.8496C45.095 49.0752 48.3038 46.2531 49.4961 42.5524C49.8864 41.3411 49.9927 40.69 49.9993 39.4715C50.0048 38.4316 49.9847 38.3046 49.7319 37.7902C49.4029 37.1204 48.5743 36.3301 47.9521 36.0925L47.5101 35.9238V34.5224C47.5101 33.1288 47.5118 33.1181 47.8076 32.6529C48.5783 31.4405 48.5389 29.8958 47.7104 28.843L47.5124 28.5913L47.806 28.2208C48.6182 27.1957 48.5557 25.8404 47.6548 24.9398L47.2251 24.5104L47.3677 24.1696C47.463 23.9415 47.5101 23.4742 47.5101 22.7582V21.6878L47.926 21.6186C48.7237 21.4859 49.4152 20.97 49.8231 20.2035C50.3406 19.2313 49.635 15.7394 48.3944 13.1329C46.329 8.79325 42.664 5.22486 37.8718 2.88767C34.933 1.4544 32.2749 0.657376 28.9184 0.202965C27.5756 0.0211416 23.7656 -0.0651242 22.4603 0.0567433ZM27.1571 1.7179C30.6968 2.02002 33.8075 2.85304 36.7954 4.29883C38.4659 5.10701 39.4645 5.70578 40.8319 6.71867C41.9389 7.53878 43.7476 9.26899 44.6017 10.325C46.637 12.8412 47.9927 15.9273 48.3435 18.8424C48.4028 19.335 48.3851 19.4167 48.1639 19.6738L47.9185 19.959H25.0044H2.09031L1.8449 19.6738C1.62366 19.4168 1.60595 19.3348 1.66495 18.8424C2.01242 15.946 3.37744 12.838 5.4058 10.325C6.23019 9.30371 8.04533 7.57125 9.15252 6.74909C10.5617 5.70275 11.5848 5.0849 13.2066 4.30117C17.4596 2.24586 22.471 1.31787 27.1571 1.7179ZM24.6331 3.38541C24.2015 3.55853 24.0121 4.39311 24.2279 5.16999C24.3051 5.44796 24.4156 5.58147 24.6677 5.70167C24.9798 5.85044 25.0289 5.85044 25.3411 5.70167C25.5932 5.58147 25.7036 5.44796 25.7808 5.16999C26.0042 4.36612 25.807 3.55559 25.3452 3.38013C25.0419 3.26481 24.9317 3.26559 24.6331 3.38541ZM19.8565 4.77446C19.0919 5.5221 18.9923 5.83899 19.378 6.29712C19.5827 6.54027 19.7167 6.60834 19.9906 6.60834C20.2934 6.60834 20.4324 6.51729 21.0093 5.94052C21.5581 5.39211 21.6775 5.21655 21.6775 4.95805C21.6775 4.51625 21.3052 4.16317 20.8395 4.16317C20.5327 4.16317 20.3929 4.25012 19.8565 4.77446ZM28.5759 4.47439C28.1903 4.93252 28.2899 5.24941 29.0545 5.99705C29.7668 6.69344 30.0845 6.77422 30.5471 6.37654C30.7518 6.20049 30.8167 6.05671 30.8167 5.77982C30.8167 5.45872 30.7393 5.33979 30.1719 4.78904C29.6271 4.26029 29.4735 4.16317 29.1824 4.16317C28.9154 4.16317 28.7791 4.2332 28.5759 4.47439ZM15.4639 5.05898C15.1552 5.22839 14.4346 5.94639 14.2819 6.23668C14.0735 6.63279 14.1121 6.88602 14.4289 7.20272C14.8963 7.66975 15.1433 7.59932 15.9836 6.75936C16.6644 6.07882 16.7091 6.00849 16.6513 5.70793C16.5375 5.11591 15.9476 4.79354 15.4639 5.05898ZM33.7969 5.0939C33.4858 5.26281 33.2938 5.74314 33.4148 6.04957C33.4617 6.1686 33.7674 6.52785 34.0941 6.84797C34.5888 7.3328 34.7446 7.42992 35.0274 7.42992C35.6198 7.42992 36.0246 6.80611 35.7631 6.29624C35.5978 5.97407 34.8857 5.24824 34.5742 5.08451C34.2488 4.91345 34.1265 4.91491 33.7969 5.0939ZM9.78121 8.34344C9.66956 8.36241 9.29743 8.66112 8.95437 9.00706C8.41668 9.5493 8.33057 9.68555 8.33057 9.99325C8.33057 10.2652 8.39759 10.4079 8.61189 10.5922C9.05486 10.9731 9.46427 10.8549 10.1497 10.1482C10.4559 9.83245 10.7351 9.4602 10.77 9.32102C10.9019 8.79599 10.3466 8.2471 9.78121 8.34344ZM22.2016 8.36594C21.8162 8.52526 21.6773 8.85145 21.6806 9.58882C21.6838 10.3002 21.7673 10.5041 22.1358 10.7003C22.4804 10.8837 22.7496 10.8333 23.0549 10.5282C23.3167 10.2664 23.3409 10.1842 23.3409 9.55556C23.3409 8.98153 23.3048 8.82837 23.1208 8.62248C22.8691 8.34099 22.5067 8.23976 22.2016 8.36594ZM27.192 8.36594C26.8111 8.5234 26.6679 8.85292 26.6679 9.5718C26.6679 10.1824 26.6934 10.2678 26.9539 10.5282C27.2592 10.8333 27.5284 10.8837 27.873 10.7003C28.2434 10.5031 28.325 10.3008 28.3282 9.57248C28.3308 8.9783 28.2971 8.83052 28.1112 8.62248C27.8595 8.34099 27.4971 8.23976 27.192 8.36594ZM39.6896 8.42853C39.3508 8.57084 39.1508 8.97087 39.2402 9.32708C39.313 9.61698 40.1191 10.4886 40.4934 10.6821C41.0658 10.978 41.6787 10.5737 41.6599 9.91275C41.6532 9.67723 41.5152 9.47174 41.0453 8.99787C40.3862 8.33317 40.1512 8.23448 39.6896 8.42853ZM16.5073 9.77983C15.9127 10.3569 15.8597 10.4417 15.8597 10.8172C15.8597 11.323 16.1463 11.5965 16.6763 11.5965C16.988 11.5965 17.1178 11.5132 17.6635 10.9628C18.2055 10.4162 18.2918 10.2801 18.2918 9.97212C18.2918 9.70364 18.2249 9.55742 18.0221 9.38313C17.557 8.98329 17.2433 9.06545 16.5073 9.77983ZM31.9866 9.38313C31.7819 9.55918 31.717 9.70296 31.717 9.97985C31.717 10.3009 31.7944 10.4199 32.3618 10.9706C32.8985 11.4915 33.0618 11.596 33.3354 11.5934C33.7044 11.5898 33.9178 11.4586 34.095 11.1261C34.2974 10.7467 34.1328 10.3832 33.4714 9.74834C32.7626 9.06809 32.4442 8.98975 31.9866 9.38313ZM6.44527 13.9764C5.9068 14.5147 5.82558 14.6435 5.82558 14.959C5.82558 15.4265 6.17657 15.8022 6.61348 15.8022C6.85987 15.8022 7.05508 15.6728 7.59639 15.1504C8.16999 14.5968 8.27186 14.4487 8.27186 14.1678C8.27186 13.7069 7.90795 13.357 7.42828 13.357C7.11261 13.357 6.98374 13.4382 6.44527 13.9764ZM12.4112 13.8705C11.5827 14.6498 11.4426 15.1971 11.9663 15.6088C12.4282 15.972 12.7354 15.8735 13.4882 15.1211C14.1427 14.4668 14.1673 14.4253 14.1103 14.0696C14.0376 13.6155 13.7416 13.357 13.2945 13.357C13.0219 13.357 12.852 13.4558 12.4112 13.8705ZM18.9702 13.9764C18.4317 14.5147 18.3505 14.6435 18.3505 14.959C18.3505 15.4265 18.7015 15.8022 19.1384 15.8022C19.3848 15.8022 19.58 15.6728 20.1213 15.1504C20.6949 14.5968 20.7968 14.4487 20.7968 14.1678C20.7968 13.7069 20.4329 13.357 19.9532 13.357C19.6375 13.357 19.5087 13.4382 18.9702 13.9764ZM24.4098 13.6095C24.2023 13.8303 24.1727 13.9536 24.1727 14.5959C24.1727 15.2791 24.1917 15.3465 24.4472 15.5662C24.6004 15.6978 24.8466 15.8022 25.0044 15.8022C25.1621 15.8022 25.4084 15.6978 25.5615 15.5662C25.817 15.3465 25.8361 15.2791 25.8361 14.5959C25.8361 13.9536 25.8065 13.8303 25.5989 13.6095C25.4279 13.4274 25.2619 13.357 25.0044 13.357C24.7468 13.357 24.5809 13.4274 24.4098 13.6095ZM29.4247 13.5833C29.2895 13.7273 29.212 13.9352 29.212 14.1542C29.212 14.452 29.3034 14.5868 29.8874 15.1504C30.577 15.8158 30.7937 15.9047 31.1999 15.6884C31.5216 15.5172 31.6517 15.3004 31.6551 14.9301C31.6578 14.6483 31.5612 14.4989 31.0386 13.9764C30.4844 13.4227 30.3775 13.357 30.0282 13.357C29.7463 13.357 29.5782 13.4201 29.4247 13.5833ZM36.1061 13.5971C35.674 14.029 35.7688 14.3696 36.534 15.1344C37.0826 15.6829 37.2583 15.8022 37.5169 15.8022C37.9614 15.8022 38.3121 15.4303 38.3121 14.959C38.3121 14.6435 38.2309 14.5147 37.6924 13.9764C37.154 13.4382 37.0251 13.357 36.7094 13.357C36.4542 13.357 36.2748 13.4284 36.1061 13.5971ZM41.9771 13.5971C41.8168 13.7573 41.7369 13.9472 41.7369 14.1678C41.7369 14.4487 41.8388 14.5968 42.4124 15.1504C43.1019 15.8158 43.3187 15.9047 43.7249 15.6884C44.0465 15.5172 44.1766 15.3004 44.1801 14.9301C44.1827 14.6483 44.0861 14.4989 43.5635 13.9764C43.025 13.4382 42.8962 13.357 42.5805 13.357C42.3253 13.357 42.1458 13.4284 41.9771 13.5971ZM45.8467 22.6669C45.8467 23.5551 45.8236 23.6876 45.6339 23.8895L45.4211 24.1158H25.0181H4.61506L4.38854 23.9032C4.18021 23.7074 4.16211 23.6097 4.16211 22.6806V21.6706H25.0044H45.8467V22.6669ZM46.329 25.9704C46.6302 26.1316 46.772 26.6082 46.6245 26.9642C46.4508 27.3834 46.0254 27.5385 45.0425 27.5412C44.4612 27.5428 44.1173 27.5955 43.8258 27.7277C43.6024 27.8291 42.3475 28.8543 41.0371 30.0059C38.4031 32.3207 38.3163 32.3873 37.814 32.479C37.096 32.61 36.7828 32.4257 34.8762 30.7504C32.6266 28.7738 32.2429 28.4703 31.5577 28.1245C30.339 27.5096 31.0719 27.539 16.9878 27.539C3.0606 27.539 3.61649 27.5605 3.36707 27.0134C3.22793 26.708 3.31922 26.3311 3.59467 26.0747C3.80721 25.8767 3.84654 25.8763 24.9803 25.8763C38.3476 25.8763 46.2179 25.911 46.329 25.9704ZM30.6797 29.5544C31.3499 29.8747 33.7617 31.8805 33.6648 32.0372C33.5829 32.1696 32.7377 32.4193 32.1392 32.4878C31.2642 32.5879 30.3095 32.3743 29.193 31.8286C27.569 31.0348 27.0117 30.9132 25.0044 30.9146C22.987 30.9162 22.5928 31.0006 20.8886 31.7958C18.8954 32.7257 17.8279 32.7369 15.9042 31.848C14.227 31.073 13.7122 30.9441 12.0738 30.889C9.99756 30.8192 9.27375 30.9683 7.3684 31.8587C5.71892 32.6295 4.66829 32.7088 3.91846 32.1192C3.59575 31.8655 3.28654 31.2263 3.2836 30.8065C3.28028 30.3375 3.68215 29.6729 4.12052 29.4226L4.50459 29.2033L17.2742 29.227L30.0437 29.2507L30.6797 29.5544ZM45.8407 29.3943C46.5584 29.7603 46.8812 30.6289 46.5864 31.4006C46.1093 32.6494 44.7269 32.844 42.8081 31.9325C42.3266 31.7039 41.9358 31.4909 41.9399 31.4595C41.9438 31.4281 42.5218 30.9073 43.2243 30.3021C44.4772 29.2227 44.5107 29.2018 44.9823 29.2018C45.2674 29.2018 45.6167 29.2801 45.8407 29.3943ZM14.0451 32.8687C14.4487 33.0179 15.0652 33.2846 15.415 33.4613C16.4242 33.9713 17.0947 34.1304 18.2527 34.1347C19.5306 34.1394 20.0608 34.0107 21.4817 33.3508C22.9108 32.687 23.5845 32.5301 25.0044 32.5301C26.4243 32.5301 27.098 32.687 28.527 33.3508C29.9689 34.0204 30.479 34.142 31.805 34.132C32.6996 34.1253 33.0091 34.0802 33.6372 33.865C34.053 33.7226 34.5522 33.5209 34.7467 33.4166L35.1003 33.2273L35.6853 33.6052C37.0446 34.4833 38.6723 34.3235 39.9288 33.1887L40.4201 32.7449L41.0052 32.966C41.3269 33.0876 41.8543 33.3211 42.1772 33.4847C43.1061 33.9558 43.8264 34.1282 44.8926 34.1349L45.8466 34.141L45.8467 34.9968V35.8526H25.0044H4.16211V34.9968L4.16221 34.141L5.11616 34.1363C6.21336 34.131 7.16643 33.8851 8.12508 33.36C8.67275 33.06 9.66476 32.6965 10.2289 32.589C10.3634 32.5633 11.112 32.5548 11.8923 32.5699C13.1622 32.5946 13.3883 32.626 14.0451 32.8687ZM47.2836 37.6194C47.6585 37.7609 48.0931 38.183 48.256 38.5636C48.6341 39.4469 48.1269 41.9832 47.2548 43.57C45.8898 46.0536 43.5214 47.7296 40.6722 48.2283C39.422 48.4472 10.5634 48.4428 9.30555 48.2235C5.39093 47.5412 2.44903 44.6007 1.76642 40.6878C1.50683 39.2 1.57933 38.6104 2.08904 38.0658C2.63211 37.4854 1.04624 37.5234 24.9736 37.5192C40.3129 37.5165 47.0918 37.5469 47.2836 37.6194Z" fill="#EB0029"/>
</svg>
