<svg width="150" height="116" viewBox="0 0 150 116" fill="none" xmlns="http://www.w3.org/2000/svg">
<path d="M12.8061 104.157C14.3645 107.444 18.3686 108.621 21.9251 109.345C44.6462 113.959 67.9717 114.412 91.1481 114.845C97.1228 114.959 103.101 115.069 109.076 114.99C117.712 114.876 126.651 114.29 134.317 110.298C134.596 110.152 134.918 109.9 134.828 109.601C134.737 109.298 134.156 109.672 134.455 109.774C138.404 108.109 140.975 103.645 140.437 99.3813C139.899 95.1179 136.304 91.4332 132.068 90.8033C131.522 90.7206 130.945 90.6891 130.439 90.9056C129.846 91.1536 129.438 91.693 128.982 92.1496C126.698 94.4565 123.13 94.8069 119.891 94.7164C114.026 94.551 108.24 93.3936 102.41 92.7598C93.0559 91.7441 83.6189 92.0748 74.2094 92.0906C59.1078 92.1142 44.0024 91.319 28.9832 89.7089C24.3472 89.2128 20.8966 88.7089 17.5481 92.0866C14.4666 95.2006 10.545 99.3932 12.8061 104.157Z" fill="#ECECEC"/>
<path d="M11.4126 103.968C13.8543 108.456 18.4276 109.416 23.044 110.333C28.5476 111.428 34.0905 112.29 39.6608 112.967C51.1234 114.357 62.6606 114.967 74.1938 115.317C80.0193 115.494 85.8487 115.609 91.6742 115.715C97.3388 115.817 103.011 115.624 108.676 115.825C115.781 116.081 123.436 116.412 130.247 113.955C134.05 112.585 137.87 109.826 139.947 106.385C142.074 102.862 142.149 98.8303 139.801 95.3896C137.815 92.4765 133.744 89.5909 130.046 89.8665C129.069 89.9413 128.472 90.4255 127.801 91.0868C126.949 91.9332 126.058 92.5907 124.935 93.0355C122.682 93.9291 120.127 93.9134 117.744 93.7913C112.181 93.5118 106.701 92.4371 101.17 91.8506C89.9431 90.6656 78.614 91.3112 67.3477 91.1774C55.5867 91.0356 43.8258 90.3861 32.1198 89.2484C28.1393 88.8626 23.4169 87.658 19.5149 89.0555C17.615 89.7366 16.2332 91.1223 14.8789 92.5592C13.3872 94.1378 11.9112 95.8778 11.13 97.9367C10.3606 99.9799 10.5097 102.007 11.4126 103.968C11.7424 104.688 14.4274 105.668 13.9642 104.665C11.9308 100.24 15.2243 96.3148 18.1724 93.2953C19.5385 91.8939 21.0498 90.7916 23.0008 90.4136C24.8341 90.0554 26.7301 90.2877 28.5672 90.4845C39.0013 91.5907 49.459 92.3741 59.948 92.7284C70.5038 93.0867 81.0596 92.7363 91.6154 92.9568C96.8206 93.067 101.991 93.4607 107.153 94.1653C112.02 94.8306 116.923 95.6613 121.85 95.6062C123.699 95.5865 125.591 95.3739 127.322 94.6889C128.166 94.3543 128.951 93.8898 129.638 93.2953C130.533 92.5159 131.075 91.575 132.39 91.6577C136.63 91.9214 139.417 96.9958 138.883 100.862C138.2 105.779 133.98 109.369 129.783 111.495C125.234 113.802 119.679 114.101 114.686 114.207C109.744 114.313 104.797 113.975 99.8551 113.983C94.4574 113.991 89.0677 113.955 83.6701 113.845C62.4015 113.408 40.9602 112.66 20.0724 108.278C17.4422 107.727 15.3382 107.2 13.9642 104.672C13.6541 104.102 12.8965 103.641 12.2723 103.511C11.9426 103.436 11.0789 103.361 11.4126 103.968Z" fill="#010F1C"/>
<path d="M17.8702 87.2485C18.0783 89.6814 19.0832 92.1575 21.0538 93.5905C23.0676 95.055 25.7095 95.2203 28.1944 95.3305C42.1026 95.9447 56.0147 96.5627 69.9229 97.1769C70.5785 97.2044 71.5324 96.8029 71.2144 96.2281C78.1823 99.0625 85.8685 99.4365 93.3819 99.7514C103.871 100.192 114.588 100.57 124.657 97.5902C126.227 97.1257 127.864 96.5194 128.877 95.2242C129.744 94.1141 130.015 92.6654 130.239 91.2718C130.596 89.0397 130.89 86.7997 131.122 84.5518C131.224 83.5519 131.248 82.3748 130.467 81.745C130.023 81.3867 129.43 81.304 128.865 81.2371C111.408 79.1428 93.8295 78.3082 76.2666 77.4776C61.0669 76.7572 45.8672 76.0368 30.6675 75.3203C27.3308 75.1628 21.3129 74.8085 18.9929 77.8909C17.4502 79.9419 17.6622 84.8628 17.8702 87.2485Z" fill="#6B3A00"/>
<path d="M47.5748 92.0202C51.6966 92.3587 55.8223 92.6933 59.9559 92.8862C64.223 93.0831 68.494 93.1225 72.761 93.1618C75.7798 93.1894 78.8024 93.2169 81.8212 93.2445C83.6191 93.2602 85.4209 93.276 87.207 93.0673C87.9725 92.9768 88.7419 92.843 89.5113 92.8941C90.3396 92.9492 91.1404 93.213 91.9491 93.398C94.1513 93.9098 96.4399 93.8547 98.701 93.7996C101.614 93.7287 104.527 93.6578 107.439 93.587C108.271 93.5673 109.115 93.5437 109.916 93.3114C110.894 93.028 111.816 92.4257 112.833 92.469C114.376 92.5319 115.75 94.0712 117.233 93.6303C118.223 93.335 118.792 92.2524 119.75 91.8627C121.155 91.2919 122.706 92.4139 124.217 92.28C125.269 92.1855 126.172 91.4966 127.193 91.2249C128.213 90.9533 129.623 91.4218 129.634 92.4808C129.638 92.9965 129.301 93.4453 128.943 93.8153C126.152 96.6812 121.705 96.8977 117.708 96.9332C109.504 97.0001 101.296 97.067 93.0914 97.1339C71.5127 97.3111 49.9065 97.4883 28.3749 95.9963C26.3925 95.8585 24.363 95.6971 22.5494 94.8861C20.7594 94.0869 18.2549 91.9965 20.5278 90.2723C22.1922 89.0086 27.0481 90.3431 29.0148 90.5045C35.2015 91.0084 41.3881 91.5163 47.5748 92.0202Z" fill="#621A00"/>
<path d="M63.7674 81.9459C63.7517 83.3356 65.1257 84.2922 66.3897 84.867C71.9679 87.3943 78.1467 88.4139 84.2627 88.5242C89.362 88.6147 94.7282 87.8195 99.5291 86.0952C100.722 85.6661 102.108 84.4654 101.421 83.3947C96.9304 83.7726 93.2208 79.7611 88.7692 79.0407C84.2666 78.3124 79.8936 81.0484 75.336 81.1192C73.1691 81.1507 71.2809 80.0406 69.1179 79.8989C66.955 79.7571 64.3484 80.6823 62.8528 82.2569L63.7674 81.9459Z" fill="#9C1700"/>
<path d="M15.0123 62.7542C12.8532 66.5019 8.84917 68.0687 4.56248 68.5765C3.87159 68.6592 3.16893 69.7654 2.56832 70.1197C1.97164 70.4779 1.57123 71.2889 1.9206 71.8912C2.18754 72.3518 2.76458 72.5132 3.28668 72.6234C6.53703 73.3202 9.85411 73.6982 13.1751 73.7572C12.2094 75.2099 13.8699 78.001 15.5815 78.3159C17.293 78.6269 18.8083 77.1034 20.4295 76.4696C22.0508 75.8358 23.4286 77.3908 24.9557 78.2293C25.5602 78.5639 26.0313 76.7609 26.6751 77.005C27.8331 77.442 29.6428 77.1664 30.8597 76.9696C33.9059 76.4696 35.8098 80.6346 38.8913 80.426C41.4155 80.2567 44.7836 76.3909 47.2567 75.8712C49.5845 75.3831 52.0851 75.7846 54.146 76.9735C56.5955 78.3868 58.6486 80.9299 61.4789 80.9771C63.8814 81.0165 65.9579 79.1781 68.3525 78.9694C70.3349 78.7962 71.8698 80.8984 73.7973 81.3905C75.7247 81.8826 78.5079 80.5638 79.5286 78.8474C80.7416 78.6584 81.2087 80.5717 82.2921 80.1701C88.2511 77.9616 91.3052 79.7843 95.741 82.4337C98.0728 83.8273 101.304 82.2605 104.22 81.6976C106.579 81.2448 107.926 82.9376 110.112 82.7723C111.027 82.7014 112.303 80.9653 113.017 80.3906C113.284 80.178 113.897 80.5087 114.222 80.3984C114.544 80.2882 115.451 80.1504 115.435 80.4929C115.42 80.8354 116.813 81.0165 116.955 80.7055C127.652 79.3237 135.652 76.8082 145.713 72.9108C146.534 72.592 147.417 72.2101 147.833 71.4346C148.355 70.4583 147.209 69.5371 147.099 68.4348C146.977 67.2302 145.76 66.4074 144.461 66.2302C140.508 65.6948 136.523 63.9352 132.896 65.6004C130.847 66.5413 128.861 68.9505 126.926 70.1C123.648 72.0408 119.636 72.1353 115.828 72.1747C112.095 72.214 108.358 72.2534 104.625 72.2888C78.292 72.5605 51.72 72.8085 25.9371 67.4506C21.8074 66.5885 18.3647 65.3327 15.0123 62.7542Z" fill="#ECECEC"/>
<path d="M17.9252 62.7781C15.7975 66.5258 11.8759 69.1595 7.65987 69.6712C6.98075 69.7539 6.26631 69.7933 5.67747 70.1515C5.08864 70.5098 4.69609 71.3207 5.04154 71.923C5.30455 72.3836 5.87375 72.545 6.38407 72.6552C9.58338 73.3481 12.8455 73.73 16.1155 73.7851C15.1655 75.2377 16.618 77.2887 18.3059 77.5997C19.9939 77.9107 21.6623 77.1273 23.26 76.4935C24.8577 75.8597 26.7223 75.3716 28.2258 76.214C28.8185 76.5447 29.3092 77.0683 29.9452 77.3124C31.0836 77.7493 32.328 77.1943 33.5292 76.9935C36.5283 76.4935 39.5039 78.2611 42.5383 78.0525C45.0193 77.8793 47.2372 76.4109 49.6749 75.8912C51.9675 75.4031 54.4288 75.8007 56.4583 76.9896C58.8686 78.4028 60.8902 80.9459 63.6734 80.9932C66.0366 81.0325 68.0818 79.1941 70.4371 78.9815C72.3881 78.8044 74.241 79.7649 76.1409 80.2531C78.0409 80.7452 80.4355 80.568 81.4404 78.8516C86.9323 77.9895 92.3024 80.6153 97.7707 81.6112C102.524 82.4773 107.404 82.1033 112.217 81.7293C113.116 81.6585 114.077 81.5679 114.78 80.9932C115.043 80.7806 115.271 80.5011 115.589 80.3909C115.907 80.2807 116.354 80.4696 116.339 80.8121C116.323 81.1546 115.64 81.0837 115.781 80.7727C126.309 79.387 136.685 76.7927 146.589 72.8915C147.397 72.5726 148.265 72.1907 148.677 71.4113C149.191 70.435 148.756 69.1634 147.955 68.4115C147.158 67.6596 146.082 67.3013 145.046 66.9667C141.305 65.7581 137.14 64.585 133.568 66.2503C131.554 67.1911 130.003 68.9311 128.095 70.0807C124.865 72.0254 120.92 72.1199 117.171 72.1592C113.492 72.1986 109.818 72.238 106.14 72.2773C80.2196 72.5568 54.0637 72.8167 28.6851 67.4706C24.6104 66.6124 21.2187 65.3566 17.9252 62.7781Z" fill="#87A517"/>
<path d="M24.3827 68.1478C51.4493 71.8444 78.8338 73.4584 106.171 72.9664C113.178 72.8404 120.445 72.5176 126.67 69.5296C136.924 64.6087 142.184 52.9797 141.042 42.2561C139.9 31.5326 133.281 21.8246 124.877 14.4079C120.433 10.4869 115.4 7.062 109.744 4.89681C99.0779 0.818388 87.1403 1.49157 75.6267 1.42858C65.9345 1.37346 55.9636 0.786908 46.825 3.7788C37.702 6.76676 30.2906 13.0615 23.7742 19.7224C18.9301 24.6748 14.3725 29.9972 11.4833 36.1346C8.59019 42.2758 7.47926 49.354 9.64224 55.763C11.8052 62.1758 19.1578 67.3447 26.2708 68.3958L24.3827 68.1478Z" fill="#ECECEC"/>
<path d="M24.3315 68.742C50.2165 72.2614 76.3528 73.903 102.477 73.6314C113.112 73.5211 124.994 73.6747 133.493 66.2382C140.673 59.9513 143.833 49.8064 142.267 40.4804C140.571 30.3985 134.357 21.6472 126.937 14.8918C122.494 10.8449 117.477 7.3373 111.922 5.00677C106.238 2.62113 100.106 1.5582 93.9824 1.12517C87.572 0.672445 81.1459 0.865355 74.7276 0.818115C68.9021 0.774811 63.0687 0.585839 57.2511 1.07793C51.6886 1.55033 46.2281 2.7471 41.1485 5.12093C36.1748 7.44752 31.7115 10.7386 27.6211 14.3801C19.3147 21.7811 10.5725 30.9142 7.84029 42.0472C6.5959 47.1216 6.57626 53.0148 9.03758 57.7546C11.177 61.8764 15.0947 65.01 19.2479 66.9232C21.3442 67.8877 23.5503 68.5727 25.8271 68.9349C26.2158 68.9978 27.4837 69.1868 27.6918 68.6829C27.9077 68.1633 27.1029 67.9192 26.7182 67.8562C22.0782 67.1161 17.6895 64.758 14.4902 61.3016C11.0278 57.5657 9.78344 52.5779 10.0268 47.5625C10.5803 36.2878 18.1645 27.1113 25.7408 19.4544C33.1797 11.9353 41.7609 5.23116 52.3442 3.10928C57.8046 2.01488 63.3985 1.92432 68.9492 1.96763C74.81 2.01093 80.6709 1.98732 86.5278 2.0503C92.7812 2.11723 99.1288 2.4361 105.186 4.11313C110.972 5.71537 116.224 8.66396 120.919 12.3802C128.594 18.4585 135.31 26.4578 138.266 35.9414C141.014 44.7556 139.731 54.5974 134.066 62.0102C131.102 65.8918 127.09 68.7617 122.462 70.297C117.284 72.0173 111.773 72.2417 106.364 72.348C81.9859 72.8322 57.573 71.5843 33.3641 68.6947C30.3847 68.3404 27.4091 67.9546 24.4335 67.5531C24.1156 67.5098 22.9065 67.4901 22.8947 68.0176C22.8869 68.5688 23.99 68.6947 24.3315 68.742Z" fill="#010F1C"/>
<path d="M30.4083 68.0967C55.8616 71.8248 81.6249 73.5215 107.357 73.1672C113.956 73.0766 120.794 72.7932 126.674 69.9076C136.355 65.156 141.38 53.8419 140.371 43.3821C139.362 32.9223 133.195 23.423 125.332 16.1559C121.175 12.3137 116.46 8.9517 111.149 6.81407C101.135 2.78683 89.896 3.39309 79.0615 3.27892C69.9385 3.1805 60.5565 2.56244 51.9399 5.44017C43.3351 8.31396 36.3202 14.4159 30.1453 20.8799C25.5564 25.6866 21.2343 30.8555 18.4747 36.8275C15.715 42.7995 14.6237 49.7005 16.6179 55.9599C18.6121 62.2192 25.5014 67.2976 32.1905 68.3526L30.4083 68.0967Z" fill="#FF9D2D"/>
<path d="M24.9871 69.2542C50.9506 72.7854 77.1654 74.4349 103.364 74.1476C113.963 74.0334 125.893 74.1357 134.125 66.3529C141.085 59.7668 143.923 49.6927 142.137 40.3549C140.198 30.2218 133.685 21.443 126.097 14.7466C121.701 10.8651 116.802 7.54248 111.396 5.25132C105.633 2.81056 99.3957 1.73584 93.1816 1.31462C86.7123 0.877642 80.2312 1.07841 73.7541 1.01936C67.8658 0.968186 61.9578 0.767408 56.0891 1.35791C50.5737 1.91299 45.2311 3.2239 40.2496 5.70402C35.3191 8.16053 30.9068 11.5382 26.8596 15.2584C18.5924 22.8523 9.83056 32.1508 7.67151 43.5869C6.73723 48.5236 7.01593 54.0546 9.56753 58.4873C11.8915 62.5225 15.8759 65.5655 20.0605 67.4591C22.2431 68.4472 24.5199 69.1282 26.8831 69.5062C27.417 69.5928 27.8213 69.4747 27.6682 68.9275C27.5151 68.3842 26.2747 68.085 25.8311 68.0142C21.1558 67.2701 16.6728 64.6955 13.6894 61.0029C10.4822 57.0268 9.59895 51.7241 10.1485 46.7363C11.3772 35.5954 19.1419 26.6355 26.8007 19.0849C34.2867 11.7036 42.8601 5.49538 53.3687 3.51916C58.8723 2.48381 64.5094 2.44051 70.0955 2.49169C75.8699 2.54286 81.6483 2.5035 87.4228 2.57437C93.6369 2.64916 99.9217 2.9877 105.947 4.62537C111.734 6.20005 116.978 9.19195 121.634 12.9476C129.34 19.1597 136.08 27.3716 138.737 37.0756C141.152 45.8978 139.534 55.645 133.662 62.7823C126.749 71.1832 116.15 72.3524 105.955 72.5571C81.5502 73.0413 57.1098 71.8013 32.8735 68.9078C29.894 68.5535 26.9184 68.1677 23.9429 67.7662C23.409 67.6953 23.0007 67.7898 23.1578 68.3448C23.2991 68.8763 24.5435 69.1952 24.9871 69.2542Z" fill="#010F1C"/>
<path d="M61.5419 81.5324C63.1357 84.7054 66.5313 86.3667 69.7424 87.465C73.8995 88.8861 78.2765 89.3743 82.6496 89.4176C86.6458 89.457 90.7244 89.2956 94.6892 88.768C98.1908 88.3035 101.677 87.3312 104.338 84.8865C105.041 84.2448 102.54 82.7095 101.948 83.2527C97.3782 87.4453 90.426 87.3902 84.5966 87.6106C80.9302 87.7484 77.2323 87.6973 73.613 87.0635C70.2762 86.4808 65.7658 85.5242 64.0975 82.2095C63.7402 81.5048 61.0512 80.5561 61.5419 81.5324Z" fill="#010F1C"/>
<path d="M16.72 83.6151C15.613 86.8629 16.508 90.5398 18.9575 92.9412C21.9763 95.9016 26.5967 96.1575 30.5654 96.3464C40.7011 96.8228 50.8447 97.2479 60.9844 97.6298C71.1241 98.0117 81.2676 98.3227 91.4152 98.4959C96.487 98.5825 101.563 98.6337 106.634 98.6415C111.027 98.6494 115.514 98.8305 119.883 98.2479C123.93 97.7085 128.088 96.3661 130.82 93.1577C133.238 90.3233 134.372 86.3787 132.728 82.8868C132.359 82.0995 129.477 82.1231 129.834 82.8829C131.314 86.0205 130.364 89.5556 128.28 92.1814C125.987 95.067 122.56 96.437 119.008 96.9881C115.035 97.6022 110.933 97.4172 106.925 97.4172C102.379 97.4172 97.8334 97.3778 93.2916 97.3109C75.2145 97.0472 57.1531 96.3228 39.0916 95.5315C36.5557 95.4213 34.0238 95.3071 31.4879 95.1969C28.9323 95.0828 26.1413 95.1576 23.7545 94.1025C19.9193 92.4019 18.3687 87.8195 19.6798 83.9655C19.9114 83.2845 17.0301 82.7097 16.72 83.6151Z" fill="#010F1C"/>
<path d="M13.3754 61.2585C26.2787 65.77 40.0141 67.5651 53.6397 66.5297C54.3188 66.4786 53.8006 65.7936 53.569 65.5535C53.1333 65.1086 52.3207 64.6992 51.6808 64.7464C38.4204 65.7542 25.1128 64.0103 12.5589 59.6208C12.0446 59.4398 11.6285 59.5224 11.6953 60.0775C11.7659 60.6483 12.9475 61.1089 13.3754 61.2585Z" fill="#010F1C"/>
<path d="M10.341 55.1486C15.2126 56.8926 20.2255 58.1366 25.3444 58.8767C25.6623 58.9239 26.8636 59.0263 26.9028 58.4909C26.9421 57.9476 25.8469 57.7429 25.5093 57.6917C20.8889 57.0264 16.3706 55.9084 11.974 54.3337C11.5068 54.1684 10.3449 53.8495 9.92486 54.2629C9.50875 54.6684 9.82672 54.9636 10.341 55.1486Z" fill="#010F1C"/>
<path d="M135.13 93.0946C135.212 99.0154 128.107 100.594 123.589 101.492C118.128 102.578 112.539 102.889 106.988 102.492C106.454 102.452 106.046 102.543 106.226 103.102C106.395 103.621 107.655 103.913 108.099 103.944C114.234 104.385 120.39 104.015 126.415 102.755C131.275 101.74 138.051 99.8618 137.964 93.689C137.949 92.9017 135.114 92.1261 135.13 93.0946Z" fill="#010F1C"/>
<path d="M101.111 108.381C106.128 108.908 111.153 109.199 116.197 109.219C118.121 109.227 115.942 107.826 115.019 107.822C110.218 107.802 105.425 107.558 100.652 107.058C98.642 106.845 99.8119 108.243 101.111 108.381Z" fill="#010F1C"/>
<path d="M42.8877 21.2029C43.1232 22.8445 39.7826 22.3485 38.232 22.9193C36.4851 23.561 34.6008 24.3247 33.694 25.9505C33.3604 26.5489 33.1916 27.2969 33.4742 27.9228C33.9649 29.0015 35.437 29.1275 36.6029 28.9425C38.2634 28.6787 39.9121 28.0764 41.1604 26.9465C42.4088 25.8167 43.1271 22.872 42.8877 21.2029Z" fill="#ECECEC"/>
<path d="M41.7609 20.2971C39.0523 21.297 35.433 22.0174 33.2818 24.0803C31.268 26.0132 32.057 28.3831 34.4359 29.4814C36.7088 30.5286 39.7432 29.7334 41.6981 28.328C43.6491 26.9226 44.4185 24.1787 44.1869 21.8482C44.0966 20.9585 41.5176 19.8129 41.5921 20.5648C42.0004 24.6393 39.229 27.9343 35.0797 28.0563C34.8285 28.076 34.5733 28.0681 34.322 28.0248C34.4241 27.9422 34.5301 27.8556 34.6322 27.7729C34.7107 27.2375 34.8913 26.8005 35.1974 26.3675C35.7981 25.525 36.6892 24.9778 37.6077 24.5409C39.6569 23.5685 41.8866 22.8993 44.0142 22.1158C44.7247 21.8521 42.6089 19.9822 41.7609 20.2971Z" fill="#010F1C"/>
<path d="M100.514 32.8397C99.8274 32.883 99.1248 32.9303 98.4927 33.2059C97.8607 33.4814 97.3072 34.0404 97.2326 34.7254C97.1502 35.4655 97.6527 36.1781 98.2965 36.5481C98.9402 36.9221 99.7018 37.0166 100.444 37.0717C101.402 37.1426 102.406 37.1465 103.266 36.7135C104.22 36.2371 104.895 35.1466 104.703 34.0955C104.511 33.0444 103.313 32.2374 102.316 32.6193L100.514 32.8397Z" fill="#ECECEC"/>
<path d="M99.5998 31.8829C97.6959 32.0128 94.9244 33.0206 96.3141 35.4377C97.4721 37.4454 100.043 38.0792 102.187 38.0635C104.087 38.0517 106.532 36.8628 105.947 34.5441C105.472 32.6663 103.046 31.2373 101.201 31.6979C100.613 31.8435 101.523 32.7568 101.672 32.8828C102.12 33.2607 102.827 33.6859 103.435 33.5363C103.345 33.2135 103.333 33.2253 103.4 33.5717C103.474 33.863 103.455 34.1543 103.333 34.4457C103.207 34.8039 102.944 35.1818 102.67 35.4377C101.99 36.0637 101.025 36.166 100.149 36.1463C99.2386 36.1266 97.9235 36.044 98.7754 34.7882C99.3524 33.9339 100.503 33.8591 101.429 33.7961C102.52 33.7253 100.404 31.8317 99.5998 31.8829Z" fill="#010F1C"/>
<path d="M61.53 13.2544C60.7056 14.5614 59.8655 15.896 59.469 17.388C59.0726 18.8839 59.1786 20.5924 60.1128 21.8207C61.051 23.0489 62.9432 23.5765 64.215 22.6986C65.1611 22.0451 65.5576 20.8011 65.4987 19.6516C65.4359 18.5021 64.9923 17.4116 64.5487 16.3448C64.0109 15.0496 63.477 13.7544 62.9392 12.4592L61.53 13.2544Z" fill="#ECECEC"/>
<path d="M60.1638 12.6637C58.7742 14.8682 57.2511 17.4783 58.1069 20.1828C58.7467 22.1984 60.7095 23.525 62.7351 23.8675C64.9412 24.2415 66.7117 22.966 66.8687 20.6788C67.0532 18.0609 65.2945 15.2265 64.3249 12.8841C64.0816 12.2936 63.3946 11.9433 62.8057 11.7701C62.6409 11.7228 61.3297 11.4787 61.5574 12.0299C62.5349 14.3958 65.7263 19.4545 63.2061 21.7457C61.3572 23.4266 60.5643 20.7182 60.6388 19.1947C60.737 17.2224 61.8793 15.4588 62.896 13.8408C63.2964 13.2148 60.6585 11.8763 60.1638 12.6637Z" fill="#010F1C"/>
<path d="M87.2815 26.8319C83.7131 26.639 79.7169 26.5957 77.1065 29.0404C76.7532 29.3711 76.4155 29.8986 76.6707 30.3119C76.8631 30.619 77.2792 30.678 77.6403 30.7016C81.2361 30.9497 85.1931 31.0914 88.0391 28.875C88.5847 28.4499 89.0676 27.572 88.518 27.1508L87.2815 26.8319Z" fill="#ECECEC"/>
<path d="M86.5435 25.9618C83.7682 25.8201 80.824 25.7059 78.2017 26.7767C77.2361 27.1704 75.3832 28.0679 75.2615 29.2844C75.1595 30.3 76.3764 30.9929 77.1772 31.296C78.4255 31.7645 79.9172 31.6818 81.2323 31.7015C82.6612 31.7212 84.0979 31.6621 85.4954 31.3472C87.0656 30.9929 91.3994 29.5127 89.6447 27.2688C89.1697 26.6625 86.4336 25.8083 87.3875 27.0286C87.835 27.6034 85.9665 28.6545 85.672 28.812C84.7064 29.3198 83.6582 29.6151 82.5866 29.7765C80.7926 30.0481 78.2488 30.3119 76.502 29.7332C76.9456 29.9694 77.3892 30.2016 77.8327 30.4378C77.7464 30.3591 77.6639 30.2843 77.5776 30.2055C77.7228 30.4181 77.872 30.6307 78.0172 30.8433C77.5579 29.182 81.2912 28.1033 82.3746 27.8986C84.2353 27.5443 86.1353 27.6034 88.0156 27.7018C89.5623 27.7766 87.3208 26.0012 86.5435 25.9618Z" fill="#010F1C"/>
<path d="M55.155 32.7884C53.9774 33.3199 54.0559 35.2449 55.1079 35.9968C56.16 36.7487 57.6595 36.5086 58.7548 35.8236C59.2337 35.5205 59.6773 35.1308 59.9324 34.6229C60.5487 33.3986 59.7793 31.7531 58.4996 31.261C57.2238 30.7689 55.685 31.32 54.8292 32.3908L55.155 32.7884Z" fill="#ECECEC"/>
<path d="M53.9222 32.0325C52.246 32.9733 52.9526 35.1818 54.2087 36.1424C56.0773 37.5714 58.8958 37.7486 60.6584 36.0479C62.3424 34.422 61.204 32.1584 59.4925 31.1034C57.5023 29.8752 55.0684 29.95 53.4786 31.753C53.0507 32.2411 55.5316 33.7528 56.1794 33.0206C56.6229 32.5167 57.9615 31.5955 58.4091 31.9931C59.2609 32.7529 58.6014 34.2055 57.9341 34.7645C57.5808 35.0598 57.1647 35.2921 56.7289 35.4417C56.5091 35.5165 56.0419 35.6897 55.8182 35.6267C55.9674 35.67 55.9242 35.7605 55.8025 35.5243C55.4374 34.8315 55.7436 33.9063 56.3913 33.5402C57.0665 33.1623 54.7034 31.5916 53.9222 32.0325Z" fill="#010F1C"/>
<path d="M21.1676 83.8355C27.4014 85.5952 33.9531 85.7605 40.4263 85.914C44.7483 86.0164 49.1724 86.107 53.2785 84.7527C54.9704 84.1977 56.7684 83.178 57.1609 81.438C57.5338 79.7885 57.0863 77.895 55.5946 77.0998C54.1068 76.3085 51.6691 76.4345 49.985 76.525C47.8181 76.6431 45.663 76.9856 43.5668 77.5485C42.9779 77.706 42.3459 77.9147 42.0083 78.4225C41.7845 78.7571 41.7218 79.1823 41.4823 79.5012C41.1682 79.9224 40.6108 80.0838 40.0887 80.135C37.7962 80.3515 35.7117 78.95 33.6744 77.8753C31.637 76.8006 28.9991 76.0605 27.1541 77.4423C26.7419 77.7533 26.3886 78.1587 25.9175 78.3674C24.6692 78.9185 23.3541 77.891 22.0901 77.3832C20.304 76.6628 18.3216 78.5445 16.3941 79.2689C13.9799 80.1822 19.3619 83.3276 21.1676 83.8355Z" fill="#9C1700"/>
<path d="M131.558 81.3711C123.777 86.0321 115.797 88.8232 105.339 85.1621C104.322 84.8039 103.023 84.2212 103.196 83.1544C103.251 82.804 103.474 82.493 103.753 82.2765C104.872 81.4143 106.466 82.0639 107.757 82.6308C109.049 83.2016 110.839 83.5402 111.64 82.3749C111.875 82.0324 111.977 81.5994 112.26 81.2923C112.719 80.7963 113.485 80.7766 114.16 80.8081C117.332 80.9577 120.57 81.3986 123.636 80.5719C126.278 79.8593 129.615 77.0682 132.398 77.328C136.135 77.6824 133.403 80.2648 131.558 81.3711Z" fill="#9C1700"/>
<path d="M88.7576 3.28671C99.4036 6.51481 108.056 15.2503 110.894 25.6314C111.679 28.5091 112.044 31.4774 112.213 34.4496C112.931 47.0235 109.406 61.109 103.431 72.301C109.206 72.7695 115.73 71.3916 121.493 70.8641C123.126 70.7145 124.81 70.5098 126.235 69.7304C129.65 67.8683 130.443 63.5537 130.816 59.7941C131.915 48.7399 132.441 37.0912 127.514 27.0368C125.87 23.6828 123.663 20.6121 121.234 17.7344C117.312 13.0891 112.723 8.86108 107.227 6.05814C101.731 3.25521 95.2543 1.9679 89.1933 3.29457L88.7576 3.28671Z" fill="#F9C067"/>
<path d="M107.804 15.9354C109.422 15.589 109.159 18.9588 109.834 20.4745C110.595 22.1751 111.482 24.0096 113.167 24.8048C113.787 25.0962 114.54 25.2143 115.141 24.8836C116.177 24.3167 116.205 22.8365 115.938 21.683C115.557 20.0414 114.843 18.4353 113.634 17.2621C112.429 16.089 109.449 15.5811 107.804 15.9354Z" fill="#ECECEC"/>
<path d="M106.36 15.9747C107.592 18.7264 108.613 22.5844 111.082 24.5173C112.68 25.7692 116.433 26.5762 117.375 24.1236C118.282 21.7656 116.417 18.1162 114.525 16.7384C112.546 15.2976 109.445 14.9551 107.094 15.3566C105.198 15.6833 107.6 16.6675 108.507 16.5101C112.044 15.9038 114.827 19.5531 114.588 22.9269C114.387 25.7495 112.279 22.5135 111.777 21.5018C110.862 19.6712 110.081 17.7619 109.245 15.8959C108.904 15.1125 106.003 15.1795 106.36 15.9747Z" fill="#010F1C"/>
<path d="M93.5625 9.01478C92.8755 9.05809 92.1728 9.10533 91.5408 9.38089C90.9088 9.65646 90.3553 10.2155 90.2807 10.9005C90.1983 11.6406 90.7007 12.3531 91.3445 12.7232C91.9883 13.0971 92.7499 13.1956 93.4918 13.2467C94.4496 13.3176 95.4546 13.3215 96.3143 12.8885C97.2682 12.4121 97.9434 11.3217 97.751 10.2706C97.5587 9.21949 96.3614 8.41247 95.3643 8.79433L93.5625 9.01478Z" fill="#ECECEC"/>
<path d="M93.2171 8.40834C91.5998 8.51857 88.161 9.03428 88.8911 11.4868C89.5663 13.7583 92.9659 13.9394 94.8815 13.8883C96.7815 13.8371 99.655 12.8529 99.2428 10.3964C98.8816 8.23121 96.0749 7.86115 94.3555 8.29025C93.7431 8.44378 93.8687 8.85714 94.2888 9.13271C94.8423 9.49882 95.7766 9.45551 96.3889 9.30198C95.6941 9.12877 95.5214 9.18782 95.8747 9.4752C96.0317 9.60905 96.1416 9.77439 96.2123 9.97123C96.3693 10.3767 96.2986 10.8373 96.1573 11.227C95.8001 12.2033 94.9836 12.6403 93.9786 12.6757C93.17 12.7033 92.0787 12.4828 91.8275 11.5774C91.4467 10.2114 92.8559 9.69172 93.9158 9.62085C95.9296 9.48307 94.5125 8.3178 93.2171 8.40834Z" fill="#010F1C"/>
<path d="M25.0851 68.6202C51.029 72.1474 77.2242 73.7969 103.408 73.5095C114.03 73.3914 125.807 73.4662 134.042 65.6716C141.073 59.0185 143.821 48.7201 141.886 39.335C139.813 29.2846 133.359 20.5963 125.799 13.9197C121.39 10.0302 116.487 6.62498 111.066 4.31807C105.319 1.87732 99.1444 0.782897 92.942 0.365607C86.4924 -0.0674303 80.027 0.133345 73.5695 0.0742948C67.6812 0.0231177 61.7733 -0.17766 55.9046 0.412845C50.3146 0.975794 44.8659 2.35365 39.8452 4.92826C35.0521 7.38869 30.7576 10.7152 26.8006 14.3527C18.4902 21.986 9.85011 31.2333 7.67929 42.7167C6.73323 47.7241 7.07083 53.3969 9.76768 57.8375C12.178 61.8018 16.0289 64.8016 20.1821 66.766C22.3373 67.7856 24.6259 68.4942 26.9773 68.8682C27.6053 68.9666 27.6524 68.5965 27.4051 68.1399C27.1068 67.5927 26.1804 67.1557 25.5915 67.0651C20.9201 66.3211 16.4254 63.9315 13.4263 60.2153C10.2348 56.2589 9.44971 50.9641 9.99537 46.0156C11.2241 34.9062 19.0869 25.9187 26.7182 18.3996C34.2945 10.9317 43.0327 4.69205 53.6906 2.81031C59.1117 1.85369 64.6428 1.79857 70.1307 1.84975C75.9052 1.90093 81.6836 1.86157 87.4581 1.93243C93.6958 2.00723 100.032 2.3379 106.081 3.98344C111.804 5.54237 116.962 8.38468 121.602 12.0616C129.43 18.2619 136.311 26.6706 138.863 36.5045C141.152 45.3227 139.393 54.944 133.497 61.9947C126.549 70.3051 115.906 71.4113 105.759 71.616C81.3382 72.1002 56.8781 70.8601 32.6222 67.9627C29.6427 67.6084 26.6671 67.2226 23.6916 66.8211C23.0674 66.7345 23.0085 67.0848 23.2637 67.5494C23.562 68.0808 24.5002 68.5414 25.0851 68.6202Z" fill="#010F1C"/>
<path d="M133.858 76.0801C132.986 81.3907 126.933 84.3905 122.238 85.6108C118.929 86.473 115.451 86.5438 112.059 86.2328C109.37 85.9848 105.83 85.6305 104.475 82.8276C104.134 82.119 101.37 81.3513 101.869 82.3827C103.035 84.7999 106.379 86.5478 108.864 87.1658C112.856 88.1579 117.406 88.2563 121.465 87.7209C127.181 86.969 135.534 83.733 136.602 77.2335C136.763 76.3005 133.972 75.3912 133.858 76.0801Z" fill="#010F1C"/>
<path d="M14.9181 77.6824C13.5834 81.56 18.1449 83.8906 21.1518 84.7133C25.8232 85.9888 30.7498 86.6541 35.5704 86.9809C40.4734 87.3155 45.4117 87.221 50.2951 86.6935C53.938 86.2998 58.8135 85.3786 59.575 80.9853C59.7399 80.0326 57.0077 79.0248 56.8939 79.6783C56.2658 83.3158 52.6033 84.485 49.4432 84.8826C45.5412 85.3747 41.5921 85.5597 37.6627 85.4653C33.847 85.3708 30.0354 85.0165 26.2708 84.3866C23.5033 83.922 16.0683 83.4497 17.6032 78.9894C17.8936 78.1312 15.1732 76.9423 14.9181 77.6824Z" fill="#010F1C"/>
<path d="M12.8847 61.5223C11.2634 63.9827 8.95522 65.9117 6.21519 66.9983C4.8177 67.5533 3.4359 67.6636 1.98738 67.9588C1.07273 68.1438 0.103127 68.5926 0.00891443 69.6398C-0.195214 71.9073 3.1572 73.3521 4.84518 73.8521C7.97384 74.7851 11.232 74.9819 14.4549 74.4622C13.6619 73.9741 12.869 73.4859 12.0721 72.9978C10.7335 76.5841 14.0741 79.7611 17.5247 79.9303C19.4482 80.0248 21.1048 78.9776 22.2196 77.4502C21.8938 76.9463 21.8899 76.8951 22.2118 77.2888C22.2864 77.3793 22.361 77.4738 22.4395 77.5644C22.7378 77.9187 23.0126 78.273 23.358 78.584C23.9155 79.0918 24.5671 79.4855 25.2933 79.702C27.3935 80.324 27.629 78.7808 28.9676 77.6864C31.0011 76.033 33.164 78.3911 34.746 79.4933C36.2848 80.5681 38.2398 81.5877 40.179 81.3082C41.8787 81.0641 43.4686 79.8831 43.2291 78.021C43.1192 78.1391 43.0093 78.2572 42.8955 78.3714C43.5078 78.1942 44.1359 78.0446 44.7797 78.084C45.2665 78.1155 45.871 78.4265 46.3774 78.3989C47.0879 78.3596 47.61 77.6588 48.2617 77.3636C50.0713 76.5408 52.2108 76.8046 54.1029 77.1589C55.1863 77.3596 55.6888 77.5171 56.1442 78.5603C56.4661 79.3044 56.7997 79.9736 57.3885 80.5445C58.4995 81.6152 60.1011 82.2136 61.6242 82.3199C63.3907 82.438 65.0041 81.9026 66.6293 81.2924C67.6774 80.8987 68.7569 80.4697 69.8796 80.3673C71.1947 80.2492 72.0347 81.1192 73.1103 81.694C75.976 83.2293 79.9094 82.7529 81.193 79.3871C80.3137 79.08 79.4344 78.7729 78.5551 78.4659C79.7642 81.5089 83.7054 81.194 86.1078 80.1744C87.0814 79.761 88.0313 79.3831 89.0991 79.6862C89.9666 79.9303 90.7674 80.45 91.5918 80.8082C93.0089 81.4223 94.5556 81.8987 96.0748 81.4105C95.2739 80.9775 94.4731 80.5444 93.6723 80.1114C93.5506 82.0798 95.5134 83.2844 97.1582 83.8277C99.227 84.5087 101.103 84.1977 103.07 83.3828C104.342 82.8553 106.211 81.7963 107.608 82.4183C108.79 82.9458 109.641 83.9261 110.98 84.1898C111.828 84.3552 112.68 84.2253 113.182 83.4537C114.022 82.1545 113.547 80.6704 115.671 81.2255C116.766 81.5089 117.759 81.8593 118.91 81.816C120.527 81.757 122.148 81.1349 123.699 80.7058C127.185 79.7453 130.671 78.7887 134.156 77.8202C137.615 76.8597 141.061 75.8637 144.481 74.7772C146.596 74.104 150.02 73.4663 150 70.624C149.984 67.6714 146.777 65.9747 144.347 65.2779C140.74 64.2426 136.802 63.9316 133.073 63.7308C132.441 63.6954 132.421 64.0575 132.712 64.4945C133.053 65.0102 134.027 65.3685 134.616 65.4C137.458 65.5535 140.288 65.8527 143.091 66.3684C144.43 66.6164 146.094 66.8014 146.844 68.0966C147.562 69.3406 147.311 70.809 146.145 71.6672C145.175 72.3837 143.837 72.671 142.714 73.0293C141.305 73.4781 139.896 73.915 138.478 74.3363C135.876 75.1157 133.258 75.848 130.635 76.5723C128.037 77.2888 125.438 78.0053 122.843 78.7218C120.346 79.4107 117.826 80.5208 115.259 79.7886C114.026 79.4382 112.173 78.8832 111.247 80.1429C110.756 80.8082 110.847 82.6388 109.791 82.3829C109.418 82.2923 108.97 81.8042 108.633 81.6034C108.146 81.3121 107.639 81.0641 107.102 80.883C104.998 80.1862 103.027 80.8554 101.064 81.6703C99.7334 82.2215 96.2514 83.6978 96.4124 81.0602C96.4556 80.3358 94.5909 79.576 94.0099 79.761C91.8548 80.4539 89.5544 78.2415 87.3797 77.9462C86.2923 77.8006 85.3109 77.9935 84.2942 78.3871C83.6112 78.6509 81.4992 79.9303 81.1459 79.0367C80.9497 78.5446 78.8102 77.3282 78.508 78.1155C77.9152 79.6666 76.0152 81.4184 74.1742 80.8869C73.3969 80.6626 72.6825 79.9146 71.9563 79.5367C71.2928 79.1902 70.5862 78.9265 69.8521 78.7926C68.2387 78.4895 66.6685 78.8871 65.1533 79.4185C63.6537 79.9461 61.2513 81.2885 59.6771 80.4657C58.9234 80.072 58.8567 79.2886 58.4877 78.5643C58.1658 77.9383 57.7497 77.4266 57.1766 77.0132C55.944 76.1235 54.4365 75.8204 52.9684 75.5527C50.0792 75.0331 46.7543 74.7417 44.3872 76.8203C44.7601 76.8439 45.133 76.8676 45.506 76.8912C43.9279 76.4227 42.4401 76.2771 40.8345 76.7376C40.654 76.7888 40.4734 76.8597 40.5009 77.088C40.8149 79.517 37.8354 80.0642 36.2574 79.0012C34.856 78.0564 33.6312 76.9148 32.0688 76.2219C30.8951 75.7023 29.5368 75.3441 28.2453 75.5015C26.8164 75.6787 26.2826 76.5054 25.4032 77.5014C25.2737 77.651 25.1481 77.7966 25.0185 77.9462C24.4336 78.1194 24.4179 78.2533 24.9793 78.3517C25.6859 79.0603 25.0696 78.1509 24.9322 77.9895C24.5632 77.5486 24.2217 77.0998 23.7781 76.7258C22.9262 76.0094 21.6544 75.3874 20.5199 75.6275C19.0242 75.9424 18.4904 77.7376 16.9673 78.147C14.6237 78.7729 14.1526 75.9543 14.7768 74.2851C15.0987 73.4269 12.9514 72.7301 12.394 72.8206C9.76781 73.2458 6.91002 73.2616 4.35842 72.3994C3.35348 72.0609 1.88925 70.8051 3.34562 69.8642C4.09148 69.38 5.38691 69.4744 6.24661 69.2855C10.0976 68.4351 13.4186 66.0967 15.5894 62.8096C15.9937 62.1718 13.395 60.7507 12.8847 61.5223Z" fill="#010F1C"/>
</svg>
