<svg width="160" height="116" viewBox="0 0 160 116" fill="none" xmlns="http://www.w3.org/2000/svg">
<path d="M157.577 9.16019C160.115 12.5857 160.242 17.2799 158 23.1582C152.756 36.5641 134.19 37.4099 128.057 37.6636C119.387 38.0442 114.481 44.9375 114.481 45.0221C114.185 45.445 113.678 45.6986 113.128 45.6986C113.043 45.6986 112.916 45.6987 112.79 45.6564C112.155 45.5718 111.648 45.0644 111.521 44.43C111.436 43.9648 109.152 33.0117 114.904 25.6955C117.992 21.7626 122.771 19.6481 129.072 19.4789C139.476 19.1829 144.509 15.2077 144.932 11.4016C145.143 9.16024 143.621 7.29947 140.999 6.62283C140.195 6.45367 139.688 5.69244 139.772 4.88893C139.857 4.08542 140.491 3.49334 141.295 3.40876C141.76 3.45105 152.883 2.77441 157.577 9.16019ZM154.955 21.9318C156.774 17.2376 156.774 13.5584 154.913 11.1055C153.221 8.7796 150.007 7.5955 147.089 7.08802C147.977 8.4413 148.358 10.0483 148.146 11.7822C147.639 16.6033 142.352 22.3546 129.157 22.7775C123.87 22.9044 119.895 24.5537 117.442 27.7254C114.397 31.5738 114.101 36.8601 114.27 40.3279C116.892 37.8751 121.46 34.7033 127.888 34.4073C137.615 33.9844 150.98 32.2505 154.955 21.9318Z" fill="#010F1C"/>
<path d="M149.077 57.2854C149.077 58.4272 148.866 59.4422 148.443 60.3725C147.639 62.1064 146.201 63.3329 144.044 64.0518C143.41 64.2633 142.733 64.4747 141.845 64.6015C134.021 65.6588 125.266 67.3504 118.627 71.3257C117.696 73.8208 113.298 84.7315 101.456 92.682C106.404 90.779 111.775 87.565 115.666 82.1941C116.089 81.6021 116.893 81.3906 117.569 81.6444C118.288 81.8981 118.711 82.5748 118.627 83.336C116.935 99.0678 104.755 106.68 81.4514 106.722C81.113 106.722 80.7746 106.722 80.4363 106.722C56.7102 106.722 40.639 105.073 33.5338 85.5351C33.2801 84.9007 33.4492 84.1817 33.999 83.7588L80.3094 43.9218C80.7324 43.5835 81.3245 43.4143 81.832 43.5835C86.6533 45.0213 91.2632 46.9244 95.4925 49.2503C96.1269 49.5887 96.4652 50.3922 96.296 51.1111C96.0846 51.83 95.4502 52.3798 94.6466 52.3375C86.0189 52.0415 79.9288 55.1286 76.1224 59.1462C76.4185 58.977 76.6723 58.8501 76.9683 58.7232C77.1375 58.6387 77.3489 58.5118 77.5181 58.5118C77.8987 58.3004 78.0256 58.3004 78.2371 58.2158C96.0423 51.4071 110.718 57.6237 113.509 59.0193C120.953 57.074 128.269 51.9146 134.486 47.1359C135.544 46.3323 136.643 45.698 137.701 45.3597C140.069 44.5562 144.594 44.3447 147.766 51.8723C148.654 53.8176 149.077 55.6784 149.077 57.2854ZM145.482 59.0193C145.905 58.0889 146.117 56.2704 144.806 53.0564C142.31 47.1781 139.688 48.0662 138.8 48.3622C138.039 48.616 137.32 49.0389 136.559 49.6309C129.876 54.7903 121.968 60.3303 113.678 62.2756C113.171 62.4025 112.621 62.2333 112.24 61.9373C110.168 60.9646 96.1269 54.8326 79.5482 61.2184C79.5059 61.2184 79.1675 61.303 79.1252 61.3453C78.9138 61.4298 78.8292 61.4721 78.7446 61.5144C78.66 61.5567 78.66 61.599 78.5754 61.599C75.8687 62.8254 73.5004 64.517 71.5549 66.716C71.0474 67.2658 70.2015 67.435 69.5248 67.0544C68.8481 66.6737 68.5521 65.8703 68.7636 65.1091C70.9205 58.5541 77.2644 51.1957 88.3873 49.4195C86.2727 48.4891 84.0312 47.6856 81.7897 47.009L37.0441 85.4927C43.7263 102.366 58.4441 103.508 81.4936 103.508C99.8063 103.466 110.337 98.8564 114.059 89.0028C103.232 98.8141 88.3873 98.7295 87.626 98.7295C87.0339 98.6872 86.5264 98.3912 86.2304 97.8837C85.9343 97.3762 85.9767 96.7419 86.2727 96.2344C86.5265 95.8115 87.0763 95.304 87.5415 95.2617C89.1486 95.0503 90.6289 94.6274 92.0245 94.1199C92.1091 94.0776 92.236 94.0353 92.3629 94.0353C92.4051 94.0353 92.4474 93.9931 92.4897 93.9931C93.1241 93.7393 93.7162 93.4433 94.3083 93.1049C109.914 85.5351 115.116 71.664 115.708 70.057C115.793 69.5918 116.047 69.1689 116.427 68.9151C123.659 64.3901 133.133 62.5716 141.465 61.3875C142.099 61.3029 142.606 61.1338 143.114 60.9646C144.298 60.5417 145.059 59.9074 145.482 59.0193Z" fill="#010F1C"/>
<path d="M133.598 106.977C135.882 106.977 137.742 108.837 137.742 111.121C137.742 113.362 135.882 115.223 133.598 115.223H18.7733C16.4895 115.223 14.6709 113.362 14.6709 111.121C14.6709 108.837 16.4895 106.977 18.7733 106.977H133.598ZM134.444 111.121C134.444 110.613 134.063 110.233 133.555 110.233H18.731C18.2235 110.233 17.8852 110.613 17.8852 111.121C17.8852 111.586 18.2658 111.967 18.731 111.967H133.555C134.063 111.967 134.444 111.586 134.444 111.121Z" fill="#010F1C"/>
<path d="M126.451 8.10268C127.254 12.5008 123.49 18.1677 116.343 23.2848C111.775 26.5411 109.449 30.0934 109.449 33.8149C109.449 35.4642 109.914 37.1559 110.802 38.8898C111.183 39.6087 111.014 40.539 110.295 40.9619C109.999 41.1734 109.661 41.3003 109.364 41.3003C108.942 41.3003 108.476 41.0888 108.18 40.7928C106.573 39.1012 102.936 34.5339 103.528 28.8248C103.951 24.4266 106.7 20.4091 111.691 16.8567C119.895 10.9784 120.53 6.66484 120.53 5.48073C120.53 4.97325 120.741 4.46578 121.164 4.16975C121.545 3.87372 122.095 3.74682 122.56 3.87369C124.632 4.42346 126.112 5.98818 126.451 8.10268ZM114.44 20.6628C121.629 15.5034 123.702 10.9784 123.279 8.69473C123.279 8.65244 123.236 8.6102 123.236 8.6102C122.264 11.4013 119.726 15.1651 113.636 19.521C109.407 22.5236 107.123 25.7799 106.827 29.2054C106.785 29.586 106.785 29.9666 106.785 30.3049C107.673 27.1754 109.914 23.8768 114.44 20.6628Z" fill="#010F1C"/>
<path d="M98.2796 22.8593C89.4897 12.5531 76.9653 6.16067 63.4618 5.08818C49.9583 4.01568 36.5818 8.35101 26.275 17.1404C15.9682 25.9299 9.57532 38.4534 8.50275 51.956C7.43019 65.4586 11.7658 78.8343 20.5558 89.1404L59.4177 55.9999L98.2796 22.8593Z" fill="#FF9D2D"/>
<path d="M100.779 21.5928C101.075 21.9312 101.202 22.3541 101.159 22.777C101.117 23.2421 100.948 23.6228 100.61 23.9188L16.5741 96.1922C16.2781 96.446 15.8975 96.5729 15.5168 96.5729C15.0516 96.5729 14.5863 96.3614 14.2903 95.9808C-3.04967 75.8508 -4.06472 46.2056 11.6258 24.9338C9.38433 22.2272 8.24245 18.844 8.5385 15.3762C8.79225 11.993 10.3148 8.9905 12.81 6.83372C15.0515 4.88838 17.9275 3.83111 20.9303 3.83111C24.7366 3.83111 28.3738 5.48044 30.9113 8.35616C39.0738 4.04259 48.209 1.80121 57.5133 1.80121C74.1766 1.75892 89.9518 8.99046 100.779 21.5928ZM15.7282 92.5976L97.1838 22.481C87.0336 11.3587 72.6541 5.01522 57.4711 5.01522C48.2936 5.01522 39.2429 7.38346 31.2496 11.8239C30.4883 12.2045 29.6002 12.0354 29.135 11.3164C28.9235 11.0627 28.7544 10.8089 28.5006 10.5552C26.5552 8.31382 23.7639 7.00285 20.8457 7.00285C18.6042 7.00285 16.5318 7.76408 14.8824 9.20194C13.0215 10.809 11.8796 13.0503 11.7104 15.5454C11.499 18.2097 12.3448 20.8317 14.1634 22.9462C14.3749 23.1576 14.5863 23.4536 14.7978 23.6228C15.4322 24.2149 15.4322 25.1452 14.967 25.8218C-0.216052 45.4866 0.122257 73.3134 15.7282 92.5976Z" fill="#010F1C"/>
<path d="M28.8815 11.0628C29.093 11.4434 29.2622 11.9931 29.1776 12.416C29.093 12.8389 28.8815 13.3041 28.5432 13.5578C26.3863 14.9111 24.3562 16.4335 22.4954 18.0406C20.6768 19.6476 18.8582 21.4238 17.1665 23.3268C16.8705 23.6651 16.4475 23.8343 15.9823 23.8766H15.94C15.4748 23.8766 15.0519 23.6651 14.7558 23.3691C14.5444 23.1576 14.4175 23.0308 14.2483 22.8616C10.7803 18.8018 11.1187 12.7543 15.0519 9.37113C18.8582 6.11481 25.1598 6.7069 28.5009 10.5976C28.5855 10.7244 28.7969 11.0628 28.8815 11.0628ZM20.3385 15.5455C21.861 14.2768 23.4258 13.0503 25.1175 11.8662C23.9333 10.9358 22.5377 10.4284 21.0997 10.4284C19.6618 10.4284 18.3084 10.9358 17.2088 11.8662C14.9673 13.8115 14.5443 17.1102 15.9823 19.6899C17.4202 18.2097 18.8582 16.8142 20.3385 15.5455Z" fill="#010F1C"/>
</svg>
