<svg width="40" height="40" viewBox="0 0 40 40" fill="none" xmlns="http://www.w3.org/2000/svg">
<path fill-rule="evenodd" clip-rule="evenodd" d="M11.4851 0.068695C10.9445 0.233166 10.4564 0.647976 10.1919 1.16772C10.1098 1.32922 10.0383 1.68481 10.0175 2.03641L9.98216 2.63163L9.58142 2.72343C8.78375 2.90626 8.2076 3.52242 8.04906 4.36228C7.94312 4.92336 7.94765 6.55072 8.05594 6.86145C8.16712 7.18039 8.36761 7.28775 8.94627 7.33838L9.41507 7.37932L9.74237 10.1531C9.92231 11.6786 10.0718 13.0195 10.0744 13.1328L10.0792 13.3388L8.7314 13.3785C7.27297 13.4215 6.77791 13.5172 5.72975 13.9592C3.73071 14.8022 2.09194 16.7492 1.56095 18.9124C1.38624 19.6237 1.2735 21.127 1.36015 21.589C1.42515 21.9355 1.81769 22.404 2.16445 22.5488C2.30345 22.6069 2.62919 22.6544 2.88843 22.6544H3.35973V23.6948V24.7352L2.93914 24.9096C2.40854 25.1295 1.86817 25.6581 1.58634 26.233C1.40265 26.6076 1.36796 26.7776 1.36772 27.305C1.36741 27.8562 1.39835 27.9947 1.62455 28.4542C1.91896 29.0522 2.34181 29.4603 2.9518 29.7351L3.36427 29.9208L3.34247 30.9561L3.32067 31.9913L2.73107 32.0333C2.02897 32.0832 1.6994 32.2755 1.47711 32.7649C1.35366 33.0369 1.33163 33.2855 1.33131 34.4135C1.33108 35.2831 1.37062 35.9306 1.44578 36.2887C1.58931 36.972 2.00514 37.8278 2.42612 38.3061L2.74795 38.6717H1.60236H0.456768L0.228384 38.9001C0.0907129 39.0378 0 39.2109 0 39.3359C0 39.4609 0.0907129 39.6339 0.228384 39.7716L0.456768 40H20.0021H39.5475L39.7759 39.7716C40.0723 39.4753 40.0723 39.1965 39.7759 38.9001L39.5475 38.6717H37.9007C36.3266 38.6717 36.2539 38.6651 36.2539 38.5212C36.2539 38.4383 36.8007 34.808 37.4689 30.4539C38.2082 25.6369 38.6659 22.4387 38.6378 22.2855C38.5787 21.9634 38.2471 21.5693 37.9204 21.4327C37.7801 21.3741 37.4356 21.3261 37.1549 21.3261H36.6446V20.0876C36.6446 18.9317 36.6328 18.8317 36.4688 18.5907C36.0982 18.0462 35.9839 18.0084 34.6161 17.978L33.3805 17.9504L33.349 17.1676C33.3193 16.4276 33.3058 16.3747 33.1015 16.1989C32.8909 16.0177 32.8493 16.0131 31.4443 16.0131C30.0602 16.0131 30.0032 16.007 30.0032 15.8584C30.0032 15.4909 29.7504 15.0712 29.4081 14.8707C29.0841 14.6808 29.0683 14.6552 29.1079 14.3845C29.1421 14.1508 29.9251 7.43589 29.9251 7.37643C29.9251 7.36659 30.1584 7.34361 30.4435 7.32549C30.8907 7.29697 30.9872 7.26298 31.1467 7.07757C31.3251 6.87013 31.3315 6.81778 31.3307 5.55835C31.33 4.3565 31.3156 4.22328 31.1476 3.86332C30.9077 3.34912 30.4298 2.92658 29.9155 2.77383C29.6903 2.70695 29.4597 2.65225 29.403 2.65225C29.3272 2.65225 29.3 2.50185 29.3 2.08157C29.3 1.39907 29.0601 0.834558 28.6137 0.46655C28.0164 -0.0256901 28.4172 -0.00490663 19.6562 0.0024379C15.2698 0.00611017 11.5928 0.0359571 11.4851 0.068695ZM27.6536 1.43829C27.9264 1.57933 27.9717 1.69215 27.9717 2.22893V2.65225H19.6505H11.3293V2.2165C11.3293 1.83904 11.3599 1.7502 11.5577 1.55237L11.7861 1.32399H19.6094C26.3226 1.32399 27.464 1.34024 27.6536 1.43829ZM29.8147 4.23883C29.9866 4.43877 30.0032 4.52628 30.0032 5.23526V6.01253L19.6701 5.99277L9.33694 5.97292L9.31404 5.40786C9.28396 4.66731 9.39804 4.25063 9.67174 4.10139C9.85629 4.00083 11.1657 3.98802 19.755 4.00271L29.6261 4.01959L29.8147 4.23883ZM28.5613 7.59419C28.5379 7.73389 28.3605 9.23694 28.167 10.9344C27.9736 12.6318 27.7942 14.1671 27.7684 14.346L27.7216 14.6714L26.8749 14.6976C26.0635 14.7228 26.0184 14.7333 25.7921 14.9504C25.5809 15.1529 25.5401 15.1652 25.4064 15.0676C24.2879 14.2501 23.6718 13.9211 22.6819 13.6125L21.9945 13.3982L16.7205 13.3579L11.4465 13.3175L11.1193 10.5437C10.9393 9.01817 10.7898 7.67334 10.7872 7.55512L10.7824 7.34025H19.6931H28.6039L28.5613 7.59419ZM22.268 14.8941C23.0294 15.1427 23.35 15.2903 23.9061 15.6486L24.4112 15.974L23.5899 16.0131C22.6802 16.0563 22.4513 16.1494 22.1864 16.5837C22.0584 16.7938 22.0342 16.9794 22.0339 17.7515L22.0336 18.6696H20.8194C19.7567 18.6696 19.5668 18.6892 19.2969 18.8269C18.8057 19.0775 18.6739 19.4238 18.6739 20.4635V21.3261H10.6535H2.63309L2.68169 20.4862C2.73568 19.5525 2.8739 18.9541 3.20378 18.2266C3.83549 16.8334 4.9985 15.7072 6.40694 15.125C7.46635 14.687 7.34454 14.6929 14.8453 14.7113C21.658 14.728 21.7676 14.7307 22.268 14.8941ZM28.656 21.541L28.6359 27.0689L27.769 27.0624C27.2921 27.0588 26.8439 27.0335 26.7728 27.0063C26.6542 26.9607 26.6435 26.5041 26.6435 21.4848V16.0131H27.6598H28.676L28.656 21.541ZM8.38254 16.7485C7.98773 16.9279 7.90866 17.4496 8.22463 17.7906C8.36465 17.9417 8.46692 17.9664 8.95354 17.9664C9.63916 17.9664 9.74003 17.932 9.88676 17.6482C10.0463 17.3398 10.0297 17.149 9.82277 16.9083C9.67182 16.7329 9.56665 16.6959 9.1391 16.6677C8.79907 16.6453 8.55154 16.6718 8.38254 16.7485ZM16.5072 16.6891C16.2675 16.7409 16.0173 17.0812 16.0173 17.3554C16.0173 17.4927 16.0934 17.6589 16.2092 17.7746C16.3803 17.9458 16.4672 17.9664 17.0159 17.9664C17.5577 17.9664 17.6511 17.9449 17.8008 17.7856C18.0407 17.5303 18.0285 17.1103 17.7742 16.8715C17.6218 16.7283 17.4777 16.6831 17.1296 16.6692C16.8831 16.6595 16.603 16.6684 16.5072 16.6891ZM25.3152 21.9564V26.5716L25.1394 26.5186C24.8591 26.4339 24.217 26.0247 23.7721 25.647L23.3619 25.2988V21.3201V17.3413H24.3385H25.3152V21.9564ZM32.0347 21.5892V25.8371L31.7378 26.0336C31.3576 26.2852 30.6845 26.6263 30.3018 26.7613L30.0032 26.8666V22.104V17.3413H31.0189H32.0347V21.5892ZM12.5404 18.0177C12.0447 18.1521 11.8565 18.7894 12.2133 19.1248C12.3669 19.269 12.4856 19.2947 12.9983 19.2947C13.5354 19.2947 13.6236 19.2734 13.7941 19.1028C14.0375 18.8595 14.0436 18.5111 13.8092 18.2385C13.6625 18.068 13.5531 18.0282 13.1646 18.0042C12.9072 17.9883 12.6264 17.9944 12.5404 18.0177ZM35.3142 20.5253L35.3121 21.7559L34.9936 21.9512C34.5509 22.2227 34.112 22.7712 33.7961 23.4478C33.6488 23.7635 33.4916 24.0745 33.4468 24.1389C33.3895 24.2213 33.365 23.519 33.3641 21.7754L33.3629 19.2947H34.3396H35.3163L35.3142 20.5253ZM22.0336 21.4808V22.9638L21.4671 22.3924C21.0541 21.9759 20.7789 21.7713 20.4514 21.6373L20.0021 21.4536V20.7257V19.9979H21.0179H22.0336V21.4808ZM17.3456 22.6943C17.3456 22.7596 17.5798 24.2382 17.627 24.471L17.6706 24.6859H16.4975C15.8522 24.6859 15.2253 24.7232 15.1044 24.7689C14.9834 24.8145 14.0842 25.6489 13.1061 26.6231L11.3277 28.3943L9.55102 26.6219C8.57381 25.6471 7.67527 24.8127 7.55432 24.7677C7.43298 24.7226 6.74135 24.6859 6.01119 24.6859H4.688V23.6701V22.6544H11.0168C14.4976 22.6544 17.3456 22.6724 17.3456 22.6943ZM19.9653 22.8716C20.4288 23.1103 20.7278 23.4731 21.1263 24.2801C21.3238 24.6801 21.5872 25.1554 21.7116 25.3362C22.6169 26.652 24.0455 27.652 25.774 28.1794C26.3955 28.3691 26.5611 28.3854 27.8936 28.3889C29.1374 28.3922 29.4357 28.3684 30.031 28.2187C32.2898 27.6505 33.9554 26.2887 34.9037 24.2348C35.057 23.9027 35.2651 23.5225 35.3662 23.3897C35.6377 23.0333 36.2601 22.7242 36.8064 22.6747C37.2365 22.6357 37.2696 22.6442 37.2696 22.7947C37.2696 22.9535 34.9602 38.15 34.8833 38.4963L34.8443 38.6726L27.9904 38.6526L21.1365 38.6327L19.9578 30.9365C19.3094 26.7037 18.7568 23.1038 18.7297 22.9369L18.6803 22.6335L19.1678 22.6727C19.4358 22.6942 19.7948 22.7837 19.9653 22.8716ZM8.39934 27.3424L9.72589 28.6707H6.76283C3.903 28.6707 3.78783 28.6649 3.4574 28.5049C2.8807 28.2258 2.56824 27.5699 2.72842 26.9751C2.81561 26.6512 3.19722 26.228 3.516 26.1015C3.62343 26.0589 4.46767 26.0218 5.39206 26.0191L7.07279 26.0141L8.39934 27.3424ZM18.0458 27.2447C18.1455 27.9216 18.2434 28.5193 18.2634 28.573C18.2922 28.65 17.7306 28.6707 15.6164 28.6707H12.9328L14.2593 27.3424L15.5859 26.0141H16.7253H17.8648L18.0458 27.2447ZM18.8208 32.2921L19.1631 34.5462L18.9192 34.7902L18.6752 35.0342L17.2877 33.6588C16.5245 32.9024 15.7876 32.2265 15.6501 32.1569C15.4269 32.044 14.8249 32.0304 10.044 32.0304H4.688V31.0143V29.9981L11.5833 30.0181L18.4785 30.038L18.8208 32.2921ZM26.8259 30.1101C25.4181 30.4515 24.3283 31.622 24.0589 33.0819C23.6078 35.5269 26.049 37.8399 28.4407 37.2338C29.858 36.8745 30.816 35.9633 31.1885 34.6201C31.5397 33.3534 31.1862 32.0454 30.2356 31.0948C29.7049 30.5641 29.1571 30.2611 28.4624 30.1139C27.8281 29.9795 27.3689 29.9784 26.8259 30.1101ZM28.6353 31.5533C28.8204 31.6351 29.1194 31.8498 29.3 32.0304C30.6189 33.3493 29.9446 35.5518 28.1051 35.9337C26.6988 36.2257 25.3704 35.1266 25.3704 33.6712C25.3704 32.2925 26.4846 31.2535 27.8423 31.3665C28.0934 31.3874 28.4502 31.4714 28.6353 31.5533ZM16.7596 34.9995C18.2068 36.4479 18.4281 36.6403 18.6476 36.6403C18.802 36.6403 18.9887 36.5625 19.14 36.4352C19.274 36.3224 19.3948 36.2434 19.4085 36.2594C19.4326 36.288 19.7708 38.4969 19.7688 38.6131C19.7672 38.702 5.98103 38.6842 5.43425 38.5947C4.13732 38.3823 3.04728 37.3391 2.77389 36.0485C2.70552 35.7256 2.65872 35.074 2.65786 34.433L2.65653 33.3587H8.88837H15.1202L16.7596 34.9995Z" fill="#EB0029"/>
</svg>
