<svg width="41" height="40" viewBox="0 0 41 40" fill="none" xmlns="http://www.w3.org/2000/svg">
<path fill-rule="evenodd" clip-rule="evenodd" d="M12.6751 0.0797976C12.1898 0.193693 11.4796 0.611805 11.1336 0.987128C10.9579 1.17768 10.7028 1.56881 10.5667 1.85613C10.3425 2.32931 10.3192 2.44884 10.3199 3.12181C10.3206 3.76951 10.3487 3.92478 10.5381 4.33101C10.6577 4.58735 10.8413 4.90948 10.9461 5.04692L11.1368 5.29677L8.7427 12.1296C7.42602 15.8876 6.19929 19.4024 6.01672 19.9402C5.83414 20.4779 4.40646 24.5613 2.84407 29.0142C0.0983815 36.8399 0.00333812 37.1301 5.26791e-05 37.6972C-0.00550129 38.6596 0.428177 39.3732 1.26988 39.7866C1.64129 39.9689 1.8108 40.004 2.30104 39.9997C2.8648 39.9947 3.17692 39.8931 10.28 37.4057C18.03 34.6916 25.1566 32.1995 30.6184 30.2938C32.4039 29.6707 34.0516 29.0925 34.2799 29.0088L34.695 28.8566L34.9481 29.0497C35.0873 29.1558 35.4109 29.3405 35.6672 29.4601C36.0734 29.6496 36.2287 29.6777 36.8764 29.6784C37.5494 29.6791 37.6689 29.6558 38.1421 29.4316C38.8683 29.0875 39.3224 28.6434 39.6729 27.9343C39.9597 27.3538 39.9641 27.3307 39.9939 26.247C40.0869 22.8606 39.3305 18.9515 37.9569 15.7198C33.9 6.17453 24.4147 -0.072428 14.0892 0.000634055C13.4784 0.00501465 12.8421 0.040607 12.6751 0.0797976ZM16.1859 1.63812C21.1492 2.0567 25.8935 3.9768 29.669 7.095C30.5148 7.79347 32.1643 9.44566 32.8708 10.3019C35.4008 13.3682 37.1391 16.985 37.9262 20.8204C38.274 22.5152 38.3864 23.6182 38.3944 25.4159C38.4017 27.0563 38.3972 27.1051 38.2162 27.3963C37.6884 28.2452 36.4863 28.3895 35.7849 27.688C35.407 27.3102 35.3121 26.9389 35.3112 25.8371C35.3057 18.1756 31.2112 11.1716 24.5246 7.38553C21.4384 5.63814 17.7955 4.68959 14.1612 4.68701C13.6499 4.68662 13.0875 4.64312 12.9115 4.5904C12.3302 4.41627 11.8435 3.74189 11.8449 3.11273C11.8463 2.51009 12.3472 1.79863 12.8779 1.64562C13.2263 1.54518 15.0352 1.54104 16.1859 1.63812ZM15.0126 6.286C23.102 6.58505 30.2229 11.9814 32.7725 19.7446C33.408 21.6795 33.6518 23.1829 33.7427 25.7288C33.7774 26.6968 33.7994 27.4966 33.7919 27.5061C33.7594 27.5467 29.0399 29.1819 29.0241 29.1579C29.0146 29.1435 28.9651 28.9204 28.9141 28.6622C28.6703 27.4285 27.6442 26.1184 26.4725 25.5446C25.0685 24.8572 23.5098 24.8726 22.1456 25.5874C21.511 25.9198 20.562 26.8688 20.2295 27.5034C19.903 28.1266 19.667 29.056 19.667 29.7183C19.667 30.3339 19.8895 31.2661 20.1674 31.8144L20.365 32.2046L19.9182 32.3684C17.9222 33.1001 2.40015 38.4794 2.28484 38.4794C1.90491 38.4794 1.51879 38.0899 1.51879 37.7064C1.51879 37.6295 2.7549 34.0319 4.26565 29.7116C5.77641 25.3914 7.08762 21.6402 7.17953 21.3757L7.34654 20.8946L7.85383 21.2022C9.71214 22.3288 12.0329 22.0416 13.5681 20.4948C14.2453 19.8124 14.5939 19.2089 14.819 18.329C15.1012 17.2254 14.9547 16.0253 14.4109 14.9874C14.0784 14.3529 13.1294 13.4038 12.4948 13.0714C11.9711 12.797 10.9661 12.5088 10.5329 12.5088C10.3134 12.5088 10.2725 12.4845 10.3132 12.3785C10.4119 12.1215 12.4703 6.23015 12.4703 6.20496C12.4703 6.19072 12.8134 6.19471 13.233 6.21372C13.6525 6.23281 14.4533 6.26527 15.0126 6.286ZM18.5042 10.2688C16.7311 11.1614 16.5473 11.2957 16.5407 11.7033C16.5341 12.1201 16.9087 12.5088 17.317 12.5088C17.4056 12.5088 18.28 12.1074 19.2604 11.6169C21.086 10.7034 21.2315 10.5961 21.2315 10.162C21.2315 9.75348 20.8428 9.37448 20.4336 9.38402C20.3346 9.38629 19.4664 9.78445 18.5042 10.2688ZM11.5651 14.3721C12.271 14.7024 12.7276 15.1516 13.0777 15.8599C13.3537 16.4185 13.3699 16.4924 13.3699 17.2023C13.3699 17.9122 13.3537 17.9861 13.0777 18.5446C12.7258 19.2566 12.2729 19.7001 11.5457 20.0446C11.0731 20.2685 10.952 20.2922 10.28 20.2922C9.60865 20.2922 9.48771 20.2685 9.02837 20.048C8.74872 19.9138 8.38255 19.6832 8.2146 19.5355L7.90929 19.2671L8.79652 16.7289C9.28448 15.3329 9.72106 14.1622 9.76674 14.1275C9.81242 14.0927 10.1225 14.0806 10.4559 14.1005C10.9135 14.1278 11.1854 14.1944 11.5651 14.3721ZM23.6265 14.1553C23.1315 14.2796 22.427 14.6966 22.085 15.0676C21.9094 15.2582 21.6543 15.6493 21.5181 15.9366C21.294 16.4098 21.2706 16.5297 21.2706 17.2063C21.2706 17.9115 21.287 17.9867 21.5627 18.5446C21.9146 19.2566 22.3675 19.7001 23.0948 20.0446C23.5673 20.2685 23.6884 20.2922 24.3604 20.2922C25.0325 20.2922 25.1536 20.2685 25.6261 20.0446C26.3534 19.7001 26.8063 19.2566 27.1582 18.5446C27.4342 17.9861 27.4503 17.9122 27.4503 17.2023C27.4503 16.4924 27.4342 16.4185 27.1582 15.8599C26.6296 14.7904 25.6905 14.1628 24.5364 14.1079C24.203 14.092 23.7936 14.1133 23.6265 14.1553ZM25.2197 15.9016C25.6861 16.2102 25.8858 16.6001 25.8858 17.2023C25.8858 17.8123 25.6857 18.1946 25.1975 18.5178C24.761 18.8066 23.9971 18.8179 23.5534 18.542C22.9612 18.1739 22.683 17.443 22.8703 16.7476C22.9779 16.3478 23.4566 15.8356 23.8294 15.7216C24.2395 15.596 24.8842 15.6795 25.2197 15.9016ZM16.9377 18.876C16.7172 18.9982 16.5446 19.2825 16.5407 19.5301C16.5392 19.6273 16.9393 20.5088 17.4298 21.4892C18.3433 23.3148 18.4506 23.4603 18.8847 23.4603C19.283 23.4603 19.667 23.0779 19.667 22.6812C19.667 22.5927 19.2656 21.7182 18.7751 20.7378C18.0719 19.3324 17.8395 18.9354 17.6763 18.861C17.4117 18.7405 17.1734 18.7453 16.9377 18.876ZM27.8892 22.005C27.519 22.2101 27.3956 22.6608 27.6009 23.0578C27.7727 23.3899 28.0265 23.4603 29.0539 23.4603C30.0814 23.4603 30.3352 23.3899 30.507 23.0578C30.7164 22.6528 30.5712 22.1628 30.1904 21.9893C29.9008 21.8573 28.1339 21.8693 27.8892 22.005ZM10.6797 23.5695C10.3095 23.7746 10.1862 24.2253 10.3914 24.6223C10.5632 24.9544 10.817 25.0248 11.8445 25.0248C12.872 25.0248 13.1257 24.9544 13.2975 24.6223C13.5069 24.2173 13.3617 23.7273 12.9809 23.5537C12.6913 23.4218 10.9244 23.4338 10.6797 23.5695ZM16.9377 25.134C16.2596 25.5098 16.5433 26.5893 17.3202 26.5893C17.7166 26.5893 18.1025 26.2071 18.1025 25.8146C18.1025 25.2273 17.4534 24.8481 16.9377 25.134ZM25.6456 26.8881C25.9223 27.0175 26.31 27.2722 26.5073 27.4541C26.9825 27.8922 27.4076 28.7478 27.4322 29.3159L27.4503 29.7348L24.8027 30.6624C23.3464 31.1725 22.0907 31.6104 22.0121 31.6353C21.8961 31.6721 21.8127 31.5663 21.5699 31.0751C21.2861 30.501 21.2706 30.4307 21.2706 29.7223C21.2706 29.0457 21.294 28.9258 21.5181 28.4526C21.8325 27.7891 22.28 27.3034 22.8637 26.9923C23.4799 26.6639 23.817 26.5896 24.5364 26.6238C25.0059 26.6462 25.256 26.7057 25.6456 26.8881ZM8.67042 28.3147C8.11956 28.5266 7.6693 28.9379 7.40998 29.4661C7.22756 29.8376 7.1904 30.0137 7.19173 30.5005C7.19439 31.4666 7.6287 32.1784 8.46656 32.5899C8.83305 32.7698 9.01398 32.8081 9.49772 32.8081C10.8558 32.8081 11.8 31.8633 11.8037 30.5005C11.805 30.0137 11.7679 29.8376 11.5855 29.4661C11.0582 28.3923 9.78043 27.8876 8.67042 28.3147ZM9.87751 29.8297C10.4054 30.1027 10.3896 30.9443 9.85193 31.1893C9.45055 31.3722 9.01312 31.2403 8.82695 30.8803C8.45976 30.1702 9.16746 29.4625 9.87751 29.8297Z" fill="#EB0029"/>
</svg>
