<svg width="40" height="40" viewBox="0 0 40 40" fill="none" xmlns="http://www.w3.org/2000/svg">
<path fill-rule="evenodd" clip-rule="evenodd" d="M18.1422 0.072133C13.0191 0.468864 8.36934 2.44258 5.10809 5.60482C3.04158 7.6086 1.77156 9.74702 1.12415 12.3128C0.889068 13.2446 0.879921 13.8111 1.09085 14.3801L1.25026 14.8104L1.08272 15.3104C0.949813 15.7068 0.921825 15.942 0.947468 16.4454C0.999926 17.4742 1.48253 18.3169 2.35813 18.9085L2.65131 19.1066V20.1626V21.2185L2.20475 21.4319C1.53498 21.7521 0.772502 22.5193 0.437348 23.2105C-0.292143 24.7147 -0.095131 26.5314 0.924327 27.7006L1.2354 28.0573L1.08342 28.5505C0.796269 29.4818 0.930815 30.4821 1.44469 31.2362L1.71316 31.6301V33.2927C1.71316 35.315 1.80447 35.8608 2.32053 36.9216C2.60971 37.5162 2.80712 37.7954 3.27416 38.2706C4.24468 39.2581 5.26672 39.7627 6.6114 39.9182C7.55346 40.0272 32.4592 40.0273 33.401 39.9184C34.7419 39.7633 35.7667 39.2571 36.74 38.2691C37.208 37.7941 37.4039 37.5173 37.6937 36.9216C38.1982 35.8844 38.3011 35.2994 38.3011 33.4661V31.9771L38.5071 31.7858C39.0662 31.2667 39.4737 30.3043 39.4737 29.5031C39.4737 29.0254 39.2996 28.3278 39.1058 28.0293C38.9946 27.858 39.0008 27.8263 39.1953 27.5689C40.1009 26.3704 40.2591 24.599 39.5837 23.2191C39.2408 22.5186 38.4803 21.7526 37.8095 21.4319L37.3629 21.2185L37.3631 20.2507L37.3633 19.2829L37.7886 19.0586C38.3327 18.7716 38.9549 18.1073 39.2229 17.5272C39.4061 17.1304 39.4327 16.9735 39.4336 16.2826C39.4346 15.545 39.4171 15.4561 39.1741 14.9574C38.9457 14.4889 38.924 14.3924 38.9982 14.1775C39.1978 13.5993 38.9972 12.3748 38.4605 10.8965C37.0797 7.0931 33.4698 3.60033 29.0368 1.77846C25.5996 0.365874 21.8774 -0.217109 18.1422 0.072133ZM21.731 1.6469C29.5092 2.25025 35.8713 6.71673 37.3651 12.6229C37.5502 13.3548 37.5581 13.651 37.4007 13.9584C37.1406 14.466 38.4924 14.4294 20.0071 14.4294C1.52177 14.4294 2.87357 14.466 2.61355 13.9584C2.45609 13.651 2.46399 13.3548 2.64912 12.6229C3.65161 8.65919 6.95992 5.17219 11.5386 3.25324C14.6927 1.93133 18.2236 1.37487 21.731 1.6469ZM19.1076 3.17645C18.5856 3.7034 18.9363 4.52946 19.673 4.50839C20.0176 4.49852 20.398 4.1317 20.398 3.80947C20.398 3.54777 20.2011 3.16967 20.0114 3.06723C19.7374 2.9191 19.3116 2.97055 19.1076 3.17645ZM22.8606 3.53404C22.3721 3.73592 22.2306 4.39829 22.597 4.76819C22.7615 4.93416 22.9943 5.013 23.8522 5.19334C27.1261 5.88128 29.7153 7.19712 31.6991 9.18117C32.6603 10.1425 33.1103 10.7447 33.6508 11.7934C34.0751 12.6166 34.2292 12.7727 34.6158 12.7703C35.0365 12.7677 35.4084 12.4021 35.4084 11.991C35.4084 11.7166 34.5734 10.1602 34.046 9.45147C33.3641 8.53544 31.9388 7.17281 30.9419 6.48384C28.9618 5.11544 26.7019 4.16872 24.1902 3.65534C23.1512 3.44297 23.0938 3.43776 22.8606 3.53404ZM11.9315 7.0579C11.5929 7.24321 11.4441 7.83479 11.664 8.12166C12.1554 8.76313 13.057 8.50537 13.0774 7.71767C13.0846 7.44264 13.0455 7.35393 12.8318 7.16121C12.5476 6.9048 12.2695 6.87291 11.9315 7.0579ZM17.8798 7.16066C17.6729 7.34714 17.6262 7.44816 17.6262 7.7086C17.6262 8.49141 18.6246 8.78712 19.0149 8.11993C19.2487 7.72051 19.1293 7.2451 18.7449 7.04441C18.4178 6.87362 18.1594 6.90835 17.8798 7.16066ZM8.22776 9.96705C7.51046 10.282 7.76642 11.4304 8.55384 11.4304C8.9506 11.4304 9.29654 11.0816 9.29654 10.6815C9.29654 10.2926 9.17818 10.0967 8.86281 9.96366C8.54485 9.82957 8.54071 9.82957 8.22776 9.96705ZM16.0457 9.96705C15.3284 10.282 15.5843 11.4304 16.3718 11.4304C16.7685 11.4304 17.1145 11.0816 17.1145 10.6815C17.1145 10.2926 16.9961 10.0967 16.6807 9.96366C16.3628 9.82957 16.3586 9.82957 16.0457 9.96705ZM21.5017 10.5331C21.267 10.699 21.1045 11.0946 21.1571 11.3721C21.2085 11.6436 21.5965 11.9828 21.8554 11.9828C22.2874 11.9828 22.6607 11.6249 22.6635 11.2082C22.6657 10.8646 22.5553 10.6694 22.2759 10.5236C21.9806 10.3695 21.7287 10.3725 21.5017 10.5331ZM37.9047 16.2668C37.9077 16.4309 37.8557 16.6968 37.7891 16.8576C37.4089 17.7761 36.4553 18.0785 35.213 17.6744C34.811 17.5436 34.4753 17.4959 33.948 17.4946C32.8667 17.492 32.3447 17.6764 31.1518 18.4827C30.4917 18.9288 30.0332 19.0856 29.3886 19.0856C28.744 19.0856 28.2855 18.9288 27.6254 18.4827C26.43 17.6748 25.9295 17.4988 24.8204 17.4965C23.7372 17.4942 23.097 17.706 22.0789 18.4031C21.3795 18.8819 20.8401 19.0816 20.2416 19.0833C19.5198 19.0853 19.2153 18.9774 18.3366 18.4076C17.9099 18.1309 17.3635 17.8299 17.1226 17.7387C16.2562 17.4109 14.9298 17.4052 14.0939 17.7258C13.8776 17.8088 13.3676 18.0945 12.9604 18.3608C12.0535 18.9538 11.6984 19.0856 11.0075 19.0856C10.3696 19.0856 9.90587 18.9253 9.25331 18.479C7.76501 17.4613 6.66276 17.2591 5.03867 17.7057C4.19738 17.9371 3.86864 17.9302 3.36727 17.6707C2.80892 17.3816 2.49495 16.8666 2.49495 16.24C2.49495 15.8793 2.51051 15.8407 2.63176 15.9007C2.70697 15.9378 10.4796 15.9774 19.9042 15.9886C36.2703 16.0079 37.0568 16.0024 37.4164 15.8661C37.8493 15.702 37.895 15.7394 37.9047 16.2668ZM16.7842 19.3133C16.9659 19.4069 17.38 19.6584 17.7043 19.8721C18.5312 20.417 19.0378 20.592 19.9289 20.6404C21.0873 20.7034 21.8036 20.4916 22.8475 19.7775C23.6475 19.2302 24.0746 19.073 24.7574 19.0745C25.5194 19.0761 25.8655 19.2006 26.7915 19.8062C27.7074 20.4051 28.222 20.5926 29.0928 20.6448C30.2523 20.7143 31.0133 20.479 32.1504 19.6996C33.0946 19.0522 33.9407 18.9141 34.9792 19.238C35.2674 19.3278 35.5697 19.4013 35.6512 19.4013C35.7867 19.4013 35.7993 19.4686 35.7993 20.1905V20.9797H20.0071H4.21489V20.2369V19.4941L4.54715 19.441C4.72994 19.4118 5.10301 19.3199 5.37625 19.2368C5.97963 19.0533 6.8794 19.0392 7.34769 19.2061C7.53368 19.2723 8.01589 19.5423 8.41937 19.8062C9.33524 20.4051 9.8499 20.5926 10.7207 20.6448C11.8765 20.7141 12.6419 20.4785 13.767 19.7073C14.0217 19.5326 14.3601 19.3345 14.5192 19.2669C15.1698 18.9904 16.198 19.0115 16.7842 19.3133ZM8.39482 24.7625C9.60066 25.9749 10.6899 27.0063 10.8155 27.0544C10.941 27.1026 11.1359 27.1215 11.2488 27.0965C11.3745 27.0686 11.9055 26.5944 12.6219 25.87C13.2643 25.2204 13.8252 24.689 13.8682 24.689C13.9605 24.689 16.7236 27.4594 16.7236 27.5519C16.7236 27.5866 13.7421 27.6041 10.0979 27.591C2.65412 27.5642 3.09646 27.5998 2.38644 26.9689C0.91729 25.6635 1.53459 23.0762 3.41223 22.6691C3.66021 22.6153 4.38947 22.5684 5.0328 22.5647L6.20244 22.5581L8.39482 24.7625ZM12.3075 23.0327L12.7726 23.5072L11.9335 24.3542L11.0945 25.2012L9.7854 23.8796L8.47621 22.5581H10.1593H11.8423L12.3075 23.0327ZM23.5252 25.7544C21.7841 27.5123 20.3593 28.9506 20.3589 28.9506C20.3585 28.9506 18.9337 27.5123 17.1926 25.7544L14.0271 22.5581H20.3589H26.6907L23.5252 25.7544ZM36.4813 22.6459C37.7128 22.8624 38.5508 24.0024 38.431 25.2981C38.3184 26.5147 37.5609 27.3363 36.3703 27.5331C35.9035 27.6103 23.9942 27.6433 23.9942 27.5675C23.9942 27.5446 25.1113 26.4096 26.4764 25.0451L28.9586 22.5643L32.4703 22.5612C34.7102 22.5592 36.1628 22.5899 36.4813 22.6459ZM37.8339 28.9952C37.9582 29.3251 37.9214 29.8243 37.7461 30.19C37.3676 30.9794 36.4406 31.2688 35.3538 30.937C33.854 30.4791 32.646 30.689 31.2391 31.6521C30.4671 32.1805 30.1376 32.295 29.3886 32.295C28.634 32.295 28.3104 32.181 27.5129 31.6343C26.375 30.8543 25.3217 30.5745 24.1638 30.7448C23.4165 30.8547 22.9229 31.0695 21.9841 31.6929C21.3775 32.0957 21.1764 32.186 20.7087 32.2656C19.826 32.4159 19.3267 32.2855 18.3454 31.6481C17.4011 31.0348 16.7585 30.7801 15.9901 30.7145C14.9124 30.6226 13.951 30.9085 12.8885 31.6368C12.0949 32.1809 11.7703 32.295 11.0165 32.295C10.2675 32.295 9.938 32.1805 9.16599 31.6521C7.77002 30.6965 6.53908 30.478 5.0862 30.9277C3.69562 31.3581 2.58915 30.7874 2.51606 29.6021C2.47767 28.979 2.54272 28.8986 2.97575 29.0331C3.24719 29.1175 4.83829 29.1442 10.8601 29.1658L18.4044 29.1928L19.1862 29.9776C20.3222 31.1178 20.4203 31.1148 21.6081 29.9034L22.3101 29.1874L29.1133 29.185C35.7877 29.1826 36.6942 29.1539 37.3238 28.9249C37.7536 28.7687 37.7482 28.7679 37.8339 28.9952ZM7.12003 32.3729C7.40898 32.4415 7.79433 32.6338 8.23096 32.927C9.5138 33.7887 10.3716 34.0279 11.5891 33.8634C12.3673 33.7583 12.8521 33.5518 13.8045 32.9192C15.1332 32.037 16.1588 32.0524 17.5047 32.9752C19.3317 34.2276 21.0734 34.2276 22.9004 32.9752C23.8294 32.3383 24.4674 32.1737 25.3535 32.3426C25.749 32.4178 26.0204 32.544 26.5886 32.9162C27.9332 33.7972 28.7504 34.0272 29.9561 33.8639C30.7495 33.7564 31.1764 33.5771 32.1052 32.961C33.2053 32.2313 33.8261 32.1235 34.9451 32.4682C35.3727 32.5999 35.8028 32.6736 36.1707 32.6784L36.7375 32.6856V33.8005C36.7375 34.5333 36.6976 35.07 36.6211 35.3666C36.2649 36.7466 35.2451 37.8161 33.8839 38.2366C33.4365 38.3749 32.795 38.3816 20.0071 38.3816C7.21916 38.3816 6.5777 38.3749 6.13028 38.2366C4.7691 37.8161 3.74926 36.7466 3.39315 35.3666C3.31528 35.0649 3.27674 34.5266 3.27674 33.7419V32.5684L3.52535 32.6235C4.01014 32.731 4.7942 32.668 5.42667 32.4708C6.1467 32.2462 6.5007 32.2257 7.12003 32.3729Z" fill="#EB0029"/>
</svg>
