<svg width="40" height="40" viewBox="0 0 40 40" fill="none" xmlns="http://www.w3.org/2000/svg">
<path fill-rule="evenodd" clip-rule="evenodd" d="M5.41118 0.22941C4.66836 0.607041 4.14166 1.36954 3.757 2.62414C3.6648 2.92488 2.78181 6.54142 1.79466 10.6608L0 18.1506V21.3016C0 23.8113 0.0242997 24.5759 0.119389 25.0585C0.282611 25.887 0.813454 26.9553 1.36821 27.5716L1.81091 28.0634L1.44556 28.4722C1.24468 28.6971 0.992616 29.0551 0.885494 29.2678C0.627964 29.7793 0.449584 30.6611 0.510841 31.1198C0.570379 31.565 0.845411 32.4475 0.943704 32.5086C1.09841 32.6049 1.00324 32.7014 0.753682 32.7014C0.454194 32.7014 0.111341 32.9734 0.0374263 33.2696C0.011642 33.3732 0.00140641 34.411 0.0147674 35.576L0.0390671 37.694L0.258468 38.1436C0.751729 39.1543 1.73669 39.7961 3.01465 39.9393C3.4604 39.9892 9.76309 40.0096 20.5102 39.9958L37.309 39.9741L37.8036 39.7943C38.7375 39.4547 39.3684 38.9178 39.7485 38.1391L39.9656 37.694L39.9898 35.5398C40.0072 33.993 39.9876 33.3215 39.9202 33.1578C39.8157 32.9038 39.4911 32.7014 39.1882 32.7014C38.9913 32.7014 38.9213 32.5955 39.061 32.5086C39.1593 32.4475 39.4349 31.5633 39.4911 31.1289C39.6005 30.2826 39.2142 29.1935 38.5429 28.4557L38.1495 28.0232L38.5497 27.58C39.0774 26.9956 39.4918 26.2801 39.7501 25.5073L39.9604 24.8783L39.9887 21.4975C40.014 18.48 40.0033 18.0907 39.889 17.8753C39.7812 17.6725 38.8559 17.1384 34.0813 14.5233C12.1906 2.53372 8.56936 0.560259 8.01078 0.315424C7.47095 0.0788447 7.28038 0.0364664 6.6414 0.0109922C5.9353 -0.0171552 5.8753 -0.00646233 5.41118 0.22941ZM7.35836 1.75361C7.6023 1.85457 14.1582 5.41836 21.927 9.67309L36.0522 17.4091L18.9508 17.4289C9.5451 17.4398 1.83795 17.4371 1.82381 17.4228C1.7899 17.3887 5.02989 3.88943 5.24225 3.18009C5.45736 2.46154 5.72708 1.93571 5.98523 1.73136C6.26519 1.50972 6.78962 1.51821 7.35836 1.75361ZM7.7177 5.45893C7.04035 5.8412 7.32593 6.91276 8.10524 6.91276C8.79759 6.91276 9.1424 6.05694 8.64101 5.58292C8.40606 5.3608 7.99047 5.30506 7.7177 5.45893ZM11.9067 6.82958C11.816 6.8681 11.6632 6.99988 11.5672 7.12245C11.3345 7.41949 11.3871 7.89698 11.6806 8.15093C12.1635 8.5689 12.9703 8.21698 12.9703 7.58838C12.9703 7.06757 12.3643 6.6353 11.9067 6.82958ZM5.54151 10.5234C5.2303 10.8366 5.2296 11.2192 5.53955 11.5682C5.72692 11.7792 5.82256 11.8232 6.09446 11.8232C6.36887 11.8232 6.46177 11.7795 6.6582 11.5583C6.86221 11.3285 6.88768 11.2506 6.85033 10.9705C6.76181 10.3063 6.01187 10.0501 5.54151 10.5234ZM15.152 10.6807C14.6267 11.2092 15.0968 12.1261 15.8229 11.989C16.1349 11.9302 16.4863 11.5474 16.4863 11.2665C16.4863 11.01 16.2881 10.6331 16.0999 10.5318C15.8022 10.3715 15.3959 10.4353 15.152 10.6807ZM19.9439 13.9524C19.8497 14.0189 19.7325 14.2077 19.6836 14.3721C19.5052 14.971 20.0421 15.5112 20.6373 15.3318C21.0076 15.2202 21.1744 14.9884 21.1744 14.585C21.1744 14.1403 20.8713 13.8317 20.4348 13.8317C20.2591 13.8317 20.0381 13.886 19.9439 13.9524ZM25.4914 14.1097C25.3972 14.1761 25.28 14.365 25.2311 14.5294C25.0528 15.1283 25.5896 15.6685 26.1848 15.4891C26.5594 15.3762 26.7219 15.1451 26.7219 14.7253C26.7219 14.4541 26.6794 14.3601 26.4815 14.1925C26.2031 13.9567 25.7609 13.9197 25.4914 14.1097ZM7.71575 14.467C7.6405 14.5111 7.52315 14.6558 7.45486 14.7886C7.12919 15.4225 7.78404 16.1486 8.43622 15.8768C9.20123 15.5579 8.97613 14.3779 8.1515 14.3844C7.98703 14.3857 7.79091 14.4228 7.71575 14.467ZM12.9307 14.5591C12.7956 14.676 12.7118 14.8441 12.6837 15.0543C12.6484 15.3195 12.6757 15.4135 12.847 15.6184C13.3566 16.2279 14.2204 15.894 14.2204 15.0875C14.2204 14.4924 13.3973 14.1552 12.9307 14.5591ZM38.4238 21.0847L38.4029 23.1486L36.4622 23.1879L34.5215 23.2272L34.3331 23.4479C34.0673 23.759 34.082 24.1369 34.3725 24.4643L34.6003 24.7211L36.4505 24.7448L38.3007 24.7686L38.2512 24.9807C38.1456 25.4337 37.7289 26.1557 37.3329 26.572C36.578 27.3653 35.5451 27.9485 34.3151 28.2756C33.6894 28.4421 33.3695 28.4785 32.4647 28.4859C31.5188 28.4938 31.2919 28.4701 30.7866 28.3104C30.4651 28.2089 30.0146 27.9966 29.7853 27.8387C28.9118 27.2371 28.863 27.2371 28.0788 27.8355C26.9415 28.7035 25.916 29.0444 24.456 29.04C23.6188 29.0374 22.8152 28.9242 22.8152 28.8088C22.8152 28.79 23.3969 27.8803 24.1078 26.7872L25.4004 24.7997L26.81 24.7604L28.2196 24.7211L28.4474 24.4643C28.738 24.1368 28.7526 23.7589 28.4867 23.4479L28.2981 23.2272L14.95 23.1879L1.60175 23.1486L1.58089 21.0847L1.5601 19.0209H20.0023H38.4446L38.4238 21.0847ZM30.857 23.4177C30.5458 23.7309 30.5451 24.1135 30.855 24.4625C31.0424 24.6735 31.138 24.7176 31.4099 24.7176C31.6818 24.7176 31.7775 24.6735 31.9648 24.4625C32.2748 24.1135 32.2741 23.7309 31.9629 23.4177C31.7837 23.2375 31.6645 23.1879 31.4099 23.1879C31.1554 23.1879 31.0361 23.2375 30.857 23.4177ZM7.68113 26.5416C8.52701 27.8425 8.81478 28.3444 8.75157 28.408C8.69531 28.4646 8.25026 28.4927 7.47744 28.4882C6.21252 28.4809 5.63605 28.374 4.60827 27.9563C3.16748 27.3706 2.05391 26.2472 1.73286 25.0552L1.6534 24.7604L4.08884 24.7613L6.5242 24.7623L7.68113 26.5416ZM23.4692 24.8587C23.0611 25.5464 17.43 34.1379 17.2787 34.3038C16.8444 34.7802 15.966 34.9825 15.3062 34.7581C15.1514 34.7056 14.8974 34.5308 14.7417 34.3699C14.5192 34.1398 8.80501 25.4599 8.50615 24.898C8.43669 24.7674 8.81658 24.7604 15.9803 24.7604C21.9972 24.7604 23.5158 24.7803 23.4692 24.8587ZM3.75919 29.3119C5.54909 30.1265 7.69316 30.3194 9.6105 29.8384C9.79224 29.7928 9.86842 29.8863 10.7044 31.1809C11.1986 31.9462 11.6146 32.6014 11.6289 32.6369C11.6433 32.6724 9.88287 32.7014 7.71692 32.7014C3.39305 32.7014 3.27257 32.6902 2.72485 32.2342C1.97359 31.6089 1.89444 30.323 2.56303 29.6054C2.72305 29.4337 3.18108 29.0874 3.25132 29.085C3.25608 29.0849 3.48463 29.1869 3.75919 29.3119ZM37.082 29.2913C37.4459 29.5399 37.5449 29.6565 37.7414 30.0675C38.0782 30.7725 37.841 31.8061 37.2356 32.2707C36.659 32.7132 36.9053 32.7014 28.2721 32.7014C23.8956 32.7014 20.3149 32.681 20.3149 32.6561C20.3149 32.6179 21.7629 30.3619 21.8437 30.2741C21.8586 30.2579 22.1974 30.3287 22.5969 30.4313C23.2079 30.5883 23.5088 30.6173 24.4951 30.6138C26.1078 30.6082 27.0946 30.3383 28.4011 29.5454L28.9245 29.2277L29.4054 29.4657C30.3655 29.9409 30.9941 30.0656 32.4257 30.0647C33.5612 30.064 33.8127 30.0391 34.5353 29.8552C34.9865 29.7404 35.637 29.5235 35.9808 29.3733C36.3246 29.2231 36.6449 29.0968 36.6926 29.0924C36.7403 29.0882 36.9156 29.1777 37.082 29.2913ZM13.0506 34.7883C13.8665 36.0486 15.1326 36.6457 16.4763 36.404C17.532 36.2142 18.2533 35.7397 18.8724 34.8279L19.2486 34.2739H28.8453H38.442V35.7233C38.442 36.5592 38.4067 37.2664 38.3586 37.3941C38.2343 37.7243 37.9796 37.9684 37.5435 38.1755L37.1528 38.3608H20.0023H2.8519L2.46123 38.1755C2.02508 37.9684 1.77036 37.7243 1.64605 37.3941C1.598 37.2664 1.56268 36.5592 1.56268 35.7233V34.2739H7.14013H12.7175L13.0506 34.7883Z" fill="#EB0029"/>
</svg>
