<svg width="40" height="40" viewBox="0 0 40 40" fill="none" xmlns="http://www.w3.org/2000/svg">
<path fill-rule="evenodd" clip-rule="evenodd" d="M26.7079 1.85222C20.5718 7.87278 18.0722 10.4109 17.9678 10.727C17.8808 10.9904 17.8922 11.1367 18.0208 11.4077C18.111 11.5976 20.5018 14.0667 23.3338 16.8947L28.4828 22.0365H29.0017H29.5207L34.7142 16.8407C39.2942 12.2588 39.9162 11.5984 39.9788 11.2515C40.0203 11.0216 39.9993 10.7365 39.9284 10.5653C39.8616 10.4044 37.4911 7.96124 34.6605 5.13628L29.514 0H29.0548C28.6004 0 28.5757 0.01953 26.7079 1.85222ZM33.1724 15.2477L28.9485 19.4771L24.768 15.3002C22.4687 13.003 20.5998 11.0865 20.6149 11.0412C20.6299 10.996 22.5175 9.0546 24.8094 6.72698L28.9766 2.49493L33.1865 6.75654L37.3964 11.0183L33.1724 15.2477ZM0.517801 3.05817C0.428971 3.12814 0.276079 3.30161 0.178157 3.44365C0.0146052 3.68083 7.86396e-05 4.29451 7.86396e-05 10.9944C7.86396e-05 18.9967 -0.0209268 18.7251 0.623665 19.0582C0.889005 19.1954 1.90177 19.2167 8.15665 19.2167C16.0294 19.2167 15.9137 19.2251 16.1839 18.6323C16.2694 18.445 16.303 16.278 16.303 10.9531V3.53482L15.9975 3.22955L15.692 2.92428L8.1857 2.92762C2.4475 2.93012 0.641326 2.96093 0.517801 3.05817ZM14.1084 11.0713V17.0252L8.17766 16.9982L2.24695 16.9712L2.21999 11.0444L2.19292 5.11748H8.1507H14.1084V11.0713ZM0.393647 24.0123L0.0523315 24.3169L0.0241153 31.6896C-0.000548044 38.1542 0.0157547 39.1006 0.156524 39.3728C0.492197 40.0214 0.21672 39.9999 8.20546 39.9999C13.3579 39.9999 15.5473 39.9659 15.709 39.8833C15.8345 39.8191 16.0184 39.6663 16.1178 39.5438C16.285 39.3375 16.2985 38.7694 16.3007 31.8196L16.303 24.3181L15.9975 24.0128L15.692 23.7075H8.2135H0.734963L0.393647 24.0123ZM21.1903 24.0123L20.849 24.3169L20.8208 31.6896C20.7961 38.1542 20.8124 39.1006 20.9532 39.3728C21.2889 40.0213 21.0135 39.9999 29.0004 39.9999C36.7971 39.9999 36.7125 40.0053 36.992 39.4835C37.063 39.351 37.0996 36.7324 37.0996 31.8004V24.3181L36.7942 24.0128L36.4887 23.7075H29.0102H21.5316L21.1903 24.0123ZM14.1084 31.8537V37.8067H8.15153H2.1947V31.8537V25.9007H8.15153H14.1084V31.8537ZM34.905 31.8546V37.8085L28.9743 37.7814L23.0436 37.7545L23.0166 31.8276L22.9896 25.9007H28.9474H34.905V31.8546Z" fill="#EB0029"/>
</svg>
