<svg width="34" height="40" viewBox="0 0 34 40" fill="none" xmlns="http://www.w3.org/2000/svg">
<path fill-rule="evenodd" clip-rule="evenodd" d="M14.545 0.146636C14.2801 0.309997 14.1762 0.562933 14.2306 0.911853C14.2805 1.23209 16.215 4.2624 16.4339 4.3633C16.7623 4.51471 17.0687 4.46437 17.3111 4.21925C17.7187 3.80694 17.6616 3.6274 16.5641 1.8663C16.029 1.00776 15.5028 0.234882 15.3947 0.148825C15.1463 -0.0488499 14.8631 -0.0496315 14.545 0.146636ZM20.5117 0.288893C20.3376 0.325317 20.1051 0.515019 20.0067 0.701126C19.8674 0.964301 19.1499 4.39856 19.1957 4.58294C19.3298 5.1236 20.0172 5.33862 20.4388 4.9718C20.6222 4.8122 20.6908 4.58599 21.061 2.92002C21.2898 1.89022 21.4602 0.972899 21.4396 0.881604C21.3527 0.496104 20.9009 0.207525 20.5117 0.288893ZM24.2129 3.47506C23.3671 4.01485 22.5969 4.54441 22.5013 4.65188C22.1528 5.04348 22.4067 5.77704 22.9254 5.87733C23.2292 5.9361 23.4264 5.83512 25.0756 4.77601C26.5296 3.84227 26.7316 3.65921 26.7316 3.27527C26.7316 2.86554 26.353 2.49364 25.9359 2.49364C25.8318 2.49364 25.0763 2.92401 24.2129 3.47506ZM6.6382 4.24997C6.36151 4.40215 2.85287 12.3291 2.57271 13.4349C2.24827 14.7155 2.32306 16.293 2.77012 17.5956C3.49109 19.6965 5.31997 21.6945 7.30246 22.5468L7.77347 22.7493L7.00854 25.6552C6.58783 27.2534 6.20296 28.603 6.15328 28.6543C6.1036 28.7056 5.05464 29.1841 3.82225 29.7178C2.58986 30.2514 1.40453 30.7788 1.18826 30.8897C0.741121 31.1189 0.35232 31.5304 0.143625 31.9952C-0.0303008 32.3826 -0.0503898 33.2569 0.105996 33.6356C0.265782 34.0225 0.748693 34.5269 1.1623 34.7388C1.36203 34.8413 3.16781 35.3699 5.1751 35.9136C8.47844 36.8082 8.87327 36.899 9.33679 36.8704C10.1802 36.8184 10.8185 36.3853 11.1479 35.6418C11.3625 35.1574 11.3628 34.3934 11.1486 33.9099C11.0616 33.7135 10.2697 32.5736 9.38887 31.3768C8.50796 30.18 7.77107 29.1581 7.75129 29.1061C7.72495 29.0366 8.9211 24.3385 9.23503 23.2786C9.2664 23.1728 9.34127 23.1651 9.75348 23.2261C10.4609 23.3306 11.7429 23.2346 12.6692 23.0079C13.5419 22.7942 14.8304 22.2192 15.4569 21.7638L15.8287 21.4937L16.0224 21.9219C16.7616 23.5553 18.4324 25.0711 20.2612 25.7679C21.4275 26.2122 22.2564 26.3501 23.5822 26.32C24.3163 26.3035 24.7319 26.3229 24.7516 26.3749C24.7684 26.4192 25.1213 27.7445 25.5358 29.3199L26.2896 32.1842L24.6485 34.4191C23.7459 35.6483 22.9348 36.8027 22.8461 36.9846C22.6151 37.4583 22.6194 38.2828 22.8554 38.7746C23.2435 39.5832 24.1197 40.0807 24.9954 39.9892C25.4695 39.9397 32.27 38.1067 32.7236 37.9062C34.1321 37.2834 34.4403 35.4471 33.319 34.3593C33.0716 34.1193 32.5069 33.8403 30.4392 32.9365C29.0244 32.3182 27.8416 31.7842 27.8106 31.75C27.7447 31.6771 26.267 26.1006 26.2701 25.9363C26.2712 25.8752 26.5059 25.7204 26.7916 25.5919C27.6139 25.2226 28.569 24.5294 29.2876 23.7806C30.0544 22.9814 30.4951 22.3497 30.9082 21.4575C31.4041 20.3864 31.5348 19.8026 31.5751 18.478C31.627 16.774 31.5611 16.5589 29.6814 12.2894C27.5802 7.5168 27.547 7.44661 27.3486 7.33921C27.254 7.28794 27.0677 7.24753 26.9347 7.24932C26.8017 7.2512 25.0761 7.69423 23.1001 8.23379C21.124 8.77335 19.4785 9.21497 19.4435 9.21521C19.4084 9.21544 19.4038 8.90427 19.4332 8.52369C19.4862 7.8382 19.4846 7.82945 19.2651 7.58667C19.0729 7.37399 18.8758 7.29505 17.7734 6.98896C16.2525 6.56665 16.0602 6.55484 15.7539 6.86476C15.462 7.15998 15.4484 7.54478 15.7183 7.86924C15.8769 8.05988 16.07 8.14187 16.8773 8.36127C17.7367 8.5949 17.846 8.6436 17.846 8.79281C17.846 8.96477 17.6476 10.9462 17.5714 11.5354L17.5291 11.862L17.2433 11.7401C15.8945 11.1654 14.0642 11.0328 12.5487 11.4002C11.7304 11.5985 11.2828 11.7821 10.4739 12.2513C8.91994 13.1527 6.82086 13.2895 5.11939 12.6005C4.74913 12.4505 4.62983 12.3664 4.65494 12.2727C4.6867 12.1548 7.41681 5.92977 7.46611 5.86294C7.47862 5.84606 7.9912 5.9651 8.60524 6.1276L9.72165 6.42298L9.97647 6.27236C10.1288 6.1824 10.2739 6.00848 10.3373 5.84004C10.4303 5.59273 10.4275 5.5245 10.314 5.28266C10.156 4.94585 10.0068 4.88098 8.41192 4.45601C7.10072 4.10662 6.93398 4.08723 6.6382 4.24997ZM12.5422 5.77587C12.3025 5.87373 12.1283 6.16301 12.1283 6.46339C12.1283 6.80676 12.2372 6.9992 12.5131 7.14357C12.8491 7.31928 13.1013 7.28778 13.3809 7.03508C14.0308 6.44768 13.3609 5.44164 12.5422 5.77587ZM27.9577 12.2042C28.7282 13.9553 29.3586 15.4082 29.3586 15.4327C29.3586 15.5151 28.4938 15.8652 27.9772 15.992C27.6468 16.0731 27.1235 16.1175 26.4998 16.1173C25.2505 16.1171 24.6934 15.9652 23.3188 15.2503C22.0224 14.5762 21.2581 14.3713 19.827 14.3144L18.8334 14.2749L18.8787 13.9143C18.9036 13.716 18.9809 12.9734 19.0503 12.264C19.1197 11.5547 19.1988 10.9541 19.226 10.9294C19.2532 10.9047 20.8227 10.4682 22.7137 9.95924C24.6048 9.4504 26.2216 9.00823 26.3066 8.97665C26.3916 8.94515 26.4826 8.94202 26.509 8.96977C26.5352 8.9976 27.1872 10.453 27.9577 12.2042ZM15.9509 12.967C16.2662 13.0486 16.7198 13.2089 16.9588 13.3232C17.3884 13.5289 17.3928 13.5343 17.3496 13.816C17.3256 13.9727 17.2501 14.6633 17.1818 15.3505C17.0294 16.8838 16.8661 17.5519 16.4404 18.3832C16.0294 19.1858 15.0527 20.2154 14.2487 20.6938C13.075 21.3922 11.4767 21.7845 10.2111 21.6851C8.43517 21.5456 6.99123 20.8377 5.70638 19.4768C4.58023 18.2839 4.01511 16.9991 3.95437 15.4933C3.93498 15.0126 3.9434 14.455 3.97315 14.2543C4.03535 13.8349 4.01402 13.8368 4.88929 14.1731C5.9935 14.5974 7.63524 14.7265 8.88231 14.4872C9.7405 14.3225 10.4921 14.0414 11.2784 13.591C11.9957 13.1802 12.6843 12.9288 13.4032 12.8154C14.0379 12.7153 15.2588 12.7879 15.9509 12.967ZM21.2457 16.0513C21.5219 16.1237 21.9739 16.3041 22.2501 16.4523C24.1872 17.4918 24.8707 17.6907 26.4998 17.689C27.7139 17.6877 28.4812 17.5477 29.444 17.152C29.7088 17.0432 29.9438 16.9727 29.9663 16.9953C30.0793 17.1098 30.065 18.9099 29.9464 19.4975C29.509 21.6639 27.6581 23.7013 25.4369 24.4612C24.7735 24.6881 24.5618 24.7229 23.6554 24.7536C22.1572 24.8045 21.0776 24.5514 19.9021 23.8738C18.5859 23.115 17.5613 21.8962 17.1523 20.6029C17.0614 20.3155 17.0692 20.2884 17.3648 19.8603C17.9818 18.9667 18.3879 17.9458 18.5435 16.8978C18.6811 15.9708 18.6866 15.952 18.8312 15.9084C19.1054 15.8256 20.7574 15.9234 21.2457 16.0513ZM8.18375 32.3542C9.03854 33.5162 9.75688 34.5632 9.78014 34.6808C9.8435 35.0013 9.56619 35.3222 9.22583 35.3222C8.85372 35.3222 2.00782 33.4634 1.78266 33.3013C1.5093 33.1043 1.45483 32.8818 1.6065 32.5811C1.72533 32.3455 1.93078 32.2388 4.09268 31.29C5.38881 30.7211 6.48985 30.2525 6.53953 30.2486C6.58914 30.2448 7.32904 31.1923 8.18375 32.3542ZM30.3158 34.587C31.331 35.0318 32.2264 35.455 32.3054 35.5274C32.5293 35.7323 32.5002 36.2228 32.2544 36.3857C32.0362 36.5303 25.1081 38.4428 24.7892 38.4464C24.4733 38.4499 24.2282 38.2041 24.2282 37.8838C24.2282 37.6519 24.4622 37.2927 25.8063 35.4617L27.3844 33.3118L27.9273 33.545C28.2258 33.6732 29.3007 34.1421 30.3158 34.587Z" fill="#EB0029"/>
</svg>
