<svg width="44" height="40" viewBox="0 0 44 40" fill="none" xmlns="http://www.w3.org/2000/svg">
<path fill-rule="evenodd" clip-rule="evenodd" d="M23.3999 0.0586605C23.1214 0.178561 22.9394 0.499021 22.9394 0.869599C22.9394 1.1449 23.0077 1.27594 23.3366 1.6319C24.0104 2.36096 23.9453 3.10081 23.1545 3.70397C22.4606 4.23325 21.9938 5.18358 21.9938 6.06717C21.9938 6.91701 22.4571 7.89466 23.0926 8.38618C23.7734 8.91277 24.5727 8.59561 24.5727 7.79877C24.5727 7.50494 24.5102 7.38425 24.1643 7.01002C23.7719 6.58541 23.756 6.54799 23.756 6.05073V5.53328L24.3687 4.95187C25.1479 4.21237 25.444 3.64724 25.4992 2.79375C25.5458 2.07661 25.3974 1.52087 24.9957 0.907013C24.534 0.201358 23.8782 -0.147206 23.3999 0.0586605ZM17.3826 2.66898C17.1041 2.78888 16.9221 3.10934 16.9221 3.47992C16.9221 3.75522 16.9904 3.88625 17.3193 4.24222C17.9931 4.97128 17.928 5.71113 17.1372 6.31428C16.4433 6.84357 15.9765 7.7939 15.9765 8.67749C15.9765 9.52732 16.4397 10.505 17.0753 10.9965C17.7561 11.5231 18.5554 11.2059 18.5554 10.4091C18.5554 10.1153 18.4929 9.99457 18.147 9.62034C17.755 9.19616 17.7387 9.15788 17.7387 8.66331V8.14821L18.3527 7.56445C18.7203 7.21502 19.0651 6.78875 19.2119 6.50223C19.431 6.07457 19.4572 5.9357 19.4575 5.19707C19.4579 4.42006 19.4402 4.3374 19.1628 3.81934C18.6844 2.92627 17.925 2.43553 17.3826 2.66898ZM5.69403 4.57842C4.49332 4.89157 3.33447 6.1179 3.12309 7.2989C3.07254 7.58142 3.03094 7.62353 2.75182 7.67469C1.80856 7.84767 0.746505 8.71082 0.286696 9.67811C0.0784108 10.1162 0.0379229 10.3121 0.0349142 10.8963C0.0317336 11.5 0.0620781 11.6456 0.264002 11.9937C0.811578 12.9377 1.4532 13.2167 3.00128 13.1838C4.40237 13.1539 4.59269 13.2274 5.49589 14.1464C6.55682 15.2257 7.16363 16.272 7.49647 17.5961C7.65584 18.2299 8.15399 21.0355 8.15399 21.2992C8.15399 21.4077 7.95276 21.7083 7.68198 22.0044C5.22734 24.688 3.5143 28.534 3.21197 32.0398C3.11647 33.1467 3.26363 33.0404 1.82558 33.0404H0.572174L0.279905 33.3363C-0.208873 33.831 -0.17999 33.9088 1.37136 36.2698C2.85257 38.5241 3.27421 39.0193 4.08577 39.4571C5.15178 40.0322 4.04485 39.9986 21.9606 40C32.664 40.0009 38.3752 39.9709 38.6797 39.9125C38.9342 39.8636 39.3747 39.7129 39.6586 39.5775C40.6814 39.0899 40.9571 38.7844 42.5366 36.3884C43.4676 34.976 44 34.0883 44 33.9482C44 33.6262 43.7877 33.2635 43.5296 33.1444C43.3894 33.0797 42.8525 33.0404 42.1087 33.0404H40.9132L40.8704 32.7577C40.8468 32.6021 40.8051 32.2204 40.7776 31.9093C40.5178 28.9675 39.0003 25.3103 37.0049 22.8167C36.4543 22.1285 35.0773 20.7194 34.3677 20.1178C32.3904 18.4415 29.7906 17.0844 27.0656 16.3061C25.9061 15.9751 23.5503 15.6391 22.3806 15.6381C21.9785 15.6377 21.9121 15.6038 21.3491 15.1103C19.7036 13.6678 18.5231 13.1769 15.2007 12.5533C12.7773 12.0984 12.614 12.0576 11.8187 11.7068C10.9762 11.3353 10.428 10.9582 9.64018 10.208C8.67707 9.29091 8.5458 8.97072 8.56704 7.58986C8.58655 6.32072 8.45486 5.77708 8.00597 5.27416C7.83379 5.08126 7.5367 4.84276 7.34578 4.74418C6.9666 4.54832 6.1308 4.46444 5.69403 4.57842ZM27.698 6.15349C27.4211 6.26651 27.2375 6.58828 27.2375 6.96034C27.2375 7.23564 27.3058 7.36668 27.6347 7.72264C28.3085 8.4517 28.2434 9.19155 27.4526 9.79471C26.7587 10.324 26.2919 11.2743 26.2919 12.1579C26.2919 13.0077 26.7551 13.9854 27.3907 14.4769C28.0715 15.0035 28.8708 14.6864 28.8708 13.8895C28.8708 13.5957 28.8083 13.475 28.4624 13.1008C28.07 12.6761 28.0541 12.6387 28.0541 12.1415V11.624L28.6668 11.0426C29.0315 10.6965 29.3792 10.2675 29.5259 9.98265C29.747 9.55377 29.7725 9.4183 29.7725 8.67749C29.7725 7.9419 29.7462 7.80025 29.5336 7.39113C29.4022 7.13827 29.1397 6.77448 28.9503 6.5828C28.4711 6.09771 28.1249 5.97903 27.698 6.15349ZM6.70451 6.42722C6.87454 6.59933 6.88417 6.67259 6.83396 7.40609C6.76305 8.4423 6.88563 9.18763 7.25225 9.94924C7.49131 10.4459 7.72032 10.7337 8.40921 11.4029C10.1431 13.0875 11.2796 13.6029 14.5898 14.2058C16.7316 14.5959 17.2315 14.7204 18.0975 15.0796C19.1317 15.5084 19.7066 15.9122 20.6184 16.85C21.5355 17.7931 22.0265 18.5801 22.4562 19.7955C22.7133 20.5228 22.7244 20.6107 22.7227 21.9031C22.7211 23.0974 22.6978 23.3165 22.5189 23.8173C22.1947 24.725 21.8347 25.2953 21.1401 26.0016C20.0683 27.0914 18.886 27.555 17.1722 27.5575C15.2262 27.5603 13.4571 26.7652 12.017 25.241C11.3161 24.4991 10.9793 24.0028 10.5589 23.0928C10.1586 22.2262 9.97397 21.5057 9.57399 19.2493C8.98653 15.935 8.45529 14.7411 6.79975 13.0141C5.52339 11.6827 4.57859 11.3079 2.81491 11.4335C2.12542 11.4825 2.06146 11.4727 1.88111 11.2902C1.72612 11.1333 1.6975 11.0319 1.73764 10.7815C1.80392 10.368 2.20682 9.81315 2.62021 9.56596C2.92065 9.38636 3.02277 9.37218 3.66146 9.42143C4.36901 9.47599 4.36987 9.47581 4.6373 9.20512C4.90438 8.93478 4.90481 8.9326 4.84533 8.25244C4.79349 7.65929 4.80897 7.52451 4.96473 7.21554C5.22554 6.698 5.84076 6.2606 6.32731 6.24668C6.43364 6.24372 6.60342 6.3249 6.70451 6.42722ZM25.6042 17.7729C30.6802 18.8298 34.8487 21.9055 37.2749 26.3841C38.1941 28.081 38.9025 30.3319 39.0547 32.0398C39.0845 32.3748 39.1271 32.7369 39.1492 32.8447L39.1894 33.0404H21.9938H4.79822L4.83785 32.8447C4.8596 32.7369 4.90112 32.3944 4.93017 32.0833C5.13829 29.852 6.10725 27.1618 7.41687 25.179C7.97021 24.3414 8.6781 23.3947 8.75572 23.3886C8.77936 23.3868 8.89111 23.6014 9.00415 23.8654C9.34723 24.6676 10.1597 25.8265 10.9152 26.5911C12.1067 27.7972 13.5031 28.6187 15.1018 29.0541C15.9455 29.2839 17.7387 29.3651 18.594 29.2124C21.0842 28.7677 23.2073 26.9932 24.0417 24.6592C24.4038 23.6464 24.5156 22.9738 24.5073 21.8596C24.497 20.5068 24.1998 19.2391 23.6151 18.0554C23.4798 17.7816 23.3692 17.5329 23.3692 17.5027C23.3692 17.4112 24.5562 17.5547 25.6042 17.7729ZM28.5699 20.9412C28.0359 21.1625 27.8771 21.894 28.2756 22.2973C28.3953 22.4185 28.6351 22.5409 28.8086 22.5694C29.0876 22.6152 29.1591 22.5858 29.4272 22.3144C29.8352 21.9014 29.8384 21.56 29.4381 21.1548C29.1447 20.8578 28.9103 20.8001 28.5699 20.9412ZM31.483 22.7715C31.2262 22.8765 30.9338 23.2805 30.9338 23.5303C30.9338 23.8642 31.08 24.0691 31.9159 24.9077C33.3884 26.3847 34.5146 28.1985 35.1364 30.0938C35.4596 31.0791 35.6145 31.2567 36.151 31.2567C36.6411 31.2567 36.9511 30.942 36.9511 30.4446C36.9511 29.6673 36.0155 27.4585 35.1059 26.0887C34.1316 24.6215 32.7021 23.0723 32.0756 22.8044C31.7622 22.6705 31.7337 22.6689 31.483 22.7715ZM41.4297 34.9329C41.0613 35.6049 39.7554 37.4012 39.4433 37.6651C38.6859 38.3057 39.9073 38.2659 21.7726 38.2405L5.53216 38.2176L5.14095 38.0343C4.51988 37.7435 4.14414 37.3456 3.34504 36.1325C2.93406 35.5086 2.56915 34.9493 2.53408 34.8894C2.48319 34.8025 6.39797 34.7807 21.9918 34.7807C40.5581 34.7807 41.5091 34.7881 41.4297 34.9329Z" fill="#EB0029"/>
</svg>
