<svg width="49" height="40" viewBox="0 0 49 40" fill="none" xmlns="http://www.w3.org/2000/svg">
<path fill-rule="evenodd" clip-rule="evenodd" d="M11.4597 0.45459C10.2161 1.89416 7.91189 5.09179 6.58081 7.22559C2.85264 13.202 0.595288 19.3921 0.0720401 25.0742C-0.0707001 26.6243 0.00938578 29.6989 0.218067 30.6801C1.10459 34.8475 4.28552 38.0585 8.60787 39.1489C9.7209 39.4297 11.9691 39.5036 13.1876 39.2995C19.8004 38.192 23.971 31.8461 22.1393 25.6792C21.8435 24.6833 21.1784 23.3093 20.5871 22.4727C19.5193 20.9619 17.5944 19.4381 15.8217 18.7C14.879 18.3075 13.4741 17.9461 12.5069 17.8473C11.8383 17.779 11.8348 17.777 11.7385 17.4308C11.3522 16.0419 11.1401 13.9716 11.1393 11.5801C11.1382 8.27861 11.6538 4.7195 12.5757 1.66418C12.7156 1.20088 12.8299 0.708108 12.8299 0.569242C12.8299 0.241651 12.545 0 12.1589 0C11.9147 0 11.7725 0.0924492 11.4597 0.45459ZM36.9656 0.593072C33.7962 4.468 30.9396 8.97045 29.084 13.0156C27.5328 16.3972 26.4261 19.9535 25.9332 23.14C25.569 25.4949 25.5058 28.5555 25.7853 30.3042C26.0135 31.7321 26.7597 33.5579 27.5875 34.7139C29.0729 36.7883 31.5258 38.4461 34.0965 39.1132C35.01 39.3503 35.2454 39.3718 36.9354 39.3718C38.6165 39.3718 38.8636 39.3495 39.752 39.1185C43.3018 38.1952 46.2319 35.6593 47.4936 32.4184C48.3817 30.1369 48.4124 27.3784 47.5752 25.0808C46.1742 21.2354 42.7417 18.5085 38.5576 17.917L37.4406 17.7591L37.3331 17.2775C36.3076 12.6835 36.6442 6.87703 38.2453 1.53986C38.5431 0.547613 38.5435 0.542637 38.3525 0.295723C38.2216 0.126615 38.0492 0.0386639 37.8098 0.0188534C37.4848 -0.00794349 37.4225 0.034453 36.9656 0.593072ZM36.077 4.54695C35.1224 8.90049 35.1122 13.9716 36.0504 17.8237C36.3422 19.0211 36.3841 19.0561 37.6402 19.1505C41.8064 19.4633 45.255 22.1711 46.4646 26.0791C46.706 26.8589 46.732 27.0945 46.739 28.5674C46.746 30.0025 46.719 30.2902 46.5102 31.0078C46.0136 32.7142 45.1705 34.1161 43.9156 35.3217C42.6834 36.5056 41.1982 37.3413 39.4736 37.8208C38.7696 38.0166 38.4731 38.0414 36.8856 38.0367C35.2256 38.0318 35.0273 38.0121 34.2108 37.7711C32.5855 37.2913 31.3265 36.5959 30.1463 35.5262C28.3502 33.8983 27.316 31.8346 27.0755 29.3989C26.6597 25.1855 27.5576 20.2395 29.6758 15.0732C30.4041 13.2974 32.1772 9.85733 33.2523 8.13477C34.1509 6.6951 36.1371 3.79482 36.1898 3.84554C36.2084 3.86344 36.1577 4.17907 36.077 4.54695ZM10.296 5.36914C9.85746 7.82115 9.79182 8.63118 9.79272 11.5801C9.79372 14.5915 9.8743 15.4077 10.3925 17.6572C10.6967 18.9775 10.8468 19.1401 11.7647 19.1419C13.2578 19.1449 15.2734 19.7671 16.6901 20.6624C21.7846 23.8817 22.6907 30.5467 18.6393 35.0004C17.5205 36.2301 15.5847 37.365 13.826 37.822C12.6769 38.1206 9.98218 38.1414 8.89534 37.8602C5.32524 36.9362 2.67224 34.3906 1.70314 30.9591C1.44008 30.0276 1.4332 29.935 1.4337 27.3711C1.4343 25.1627 1.46836 24.5312 1.64537 23.446C2.45131 18.5081 4.26808 13.7481 7.25188 8.75684C8.21242 7.15008 10.423 3.87636 10.4986 3.9489C10.5228 3.97216 10.4316 4.61126 10.296 5.36914Z" fill="#A3A3A3"/>
</svg>
