<svg width="22" height="28" viewBox="0 0 22 28" fill="none" xmlns="http://www.w3.org/2000/svg">
<path fill-rule="evenodd" clip-rule="evenodd" d="M21.9169 11.646C22.3308 12.077 21.2481 12.6166 17.5417 15.9684C15.358 17.9438 15.6764 15.9263 12.3062 18.2027C10.0048 19.7572 7.77189 22.0314 5.98399 23.6918C4.95291 24.6509 0.97229 28.0537 0.113449 26.9635C-0.747191 25.8747 3.53261 22.961 4.73805 22.2078C6.82603 20.9053 9.63721 19.3202 11.7291 17.5151C14.79 14.873 12.6579 14.7286 15.1534 13.1249C19.3887 10.4025 20.1897 9.52705 20.5402 10.0073L16.2466 13.1839C16.1598 13.2495 16.1523 13.3789 16.2298 13.4703C16.3567 13.6206 16.4263 13.5911 16.5259 13.5172C17.9309 12.4825 19.3347 11.4481 20.7394 10.4134C21.0578 10.1777 21.3204 10.4962 20.9969 10.7419L16.8428 13.8952C16.7549 13.9608 16.7561 14.0977 16.826 14.1805C16.8959 14.2633 17.0355 14.2942 17.1222 14.2275C18.5014 13.1633 19.8818 12.1005 21.2619 11.036C21.5721 10.7963 21.8002 11.0855 21.4974 11.3298L17.4391 14.604C17.3422 14.6831 17.2957 14.7398 17.4223 14.8904C17.4988 14.9818 17.6318 15.0041 17.7185 14.9374" fill="#5C6571"/>
<path fill-rule="evenodd" clip-rule="evenodd" d="M19.288 23.5869C20.8576 24.7829 22.478 26.285 21.8686 26.9725C21.2273 27.6931 19.1962 26.3681 17.6065 25.1222C16.3608 24.1442 13.2962 20.4051 11.8534 20.7033C10.9838 20.882 11.2227 21.1751 10.6439 20.7329C7.04843 17.9833 3.78275 15.7744 1.01014 12.2587C0.10749 11.1148 -0.358064 9.82679 0.330215 9.88417C1.17038 9.95695 12.9645 19.0763 13.0979 19.1757C15.1395 20.706 18.1522 22.7207 19.288 23.5869Z" fill="#5C6571"/>
<path fill-rule="evenodd" clip-rule="evenodd" d="M8.47068 12.4816C7.88789 11.8423 7.34922 11.045 7.08632 9.738C6.57492 7.20149 7.41234 6.16917 8.18266 1.41193C8.2038 1.27595 8.44524 1.3561 8.85093 1.27595C7.97919 6.49487 7.08754 7.50317 7.66482 10.363C7.84346 11.2431 8.12873 11.9224 8.47068 12.4816ZM14.5643 0.55282C15.4651 5.89721 16.5087 7.0556 15.8907 9.901C14.9727 14.1239 11.2792 13.6256 11.487 17.7252V24.6071C11.487 25.9681 13.2543 26.2428 14.3216 26.4253C15.5644 26.636 15.8668 26.7383 15.8288 27.0205C15.789 27.8307 11.8461 28 11.0035 28C10.1593 28 6.21367 27.8304 6.17414 27.0205C6.13706 26.7383 6.43826 26.636 7.68259 26.4253C8.74829 26.2428 10.4856 25.9684 10.4856 24.6071V17.7252C10.6918 13.6256 7.02994 14.1239 6.11316 9.901C5.4936 7.0553 6.50813 5.89331 7.43961 0.55282C7.56585 -0.181118 14.4389 -0.187422 14.5643 0.55282Z" fill="#FF9D2D"/>
</svg>
