<svg width="113" height="124" viewBox="0 0 113 124" fill="none" xmlns="http://www.w3.org/2000/svg">
<circle cx="106" cy="7" r="7" fill="#EB0029"/>
<circle cx="90" cy="28" r="12" fill="#EB0029"/>
<path d="M44.261 109.77C39.9918 115.842 33.2119 110.63 28.2366 108.842C26.4403 108.198 24.2514 107.787 22.3381 107.994C20.5836 108.185 19.0087 108.855 17.6929 110.033C16.7822 110.85 15.7253 112.096 14.376 111.944C13.4695 111.842 12.4085 110.617 12.1244 109.817C11.7651 108.8 11.9824 107.681 12.5213 106.778C15.483 101.795 21.6071 103.325 26.0017 105.028C27.8188 105.732 29.6527 106.469 31.4156 107.304C33.333 108.215 35.3382 109.541 37.4937 108.791C39.1229 108.223 39.4028 106.401 40.326 105.193C41.5499 103.596 43.8684 104.473 44.5702 106.151C44.967 107.109 44.8709 108.905 44.261 109.77Z" fill="#EB0029"/>
<path d="M70.1816 36.7504C70.8625 37.1911 71.6521 37.3775 72.3539 37.7547C73.3063 38.2335 73.7115 39.3056 74.1961 40.2251C74.7016 41.1828 75.0942 42.1828 75.8503 42.9964C76.5814 43.7719 77.3834 44.4202 78.2732 44.9923C79.3176 45.6406 80.6251 45.9754 81.8533 46.2127C83.0898 46.4542 84.6897 46.6661 85.8218 45.9754C86.2938 45.6872 86.6447 45.2253 86.6781 44.6533C86.699 44.2677 86.5403 43.4964 86.2353 43.2295C85.308 42.3989 83.5033 42.1066 82.2877 41.9413C81.0763 41.776 79.8606 41.6108 78.6367 41.4794C77.6842 41.3862 76.6608 41.1701 75.9715 40.4794C75.253 39.7802 74.8144 38.6996 74.4384 37.7759C74.0457 36.78 73.2228 35.6953 72.3789 34.9622C71.7774 34.4749 70.3445 33.9621 69.7263 34.5681C68.9284 35.3308 69.3712 36.2715 70.1816 36.7504Z" fill="white"/>
<path d="M82.9103 106.182C82.739 106.622 82.2335 108.067 82.856 108.275C83.2653 108.41 84.151 107.576 84.4517 107.381C85.1869 106.902 85.9848 106.427 86.8119 106.131C89.0051 105.347 91.3611 105.19 93.525 104.304C95.4508 103.52 97.0633 102.236 98.2037 100.469C100.092 97.6558 100.134 92.2403 95.8017 92.164C93.6002 92.1259 93.6211 94.7065 93.2618 96.2786C93.0613 97.1557 92.8316 98.0371 92.4389 98.8465C91.6703 100.423 90.3126 101.258 88.7878 101.953C87.7519 102.427 86.695 102.855 85.7008 103.423C84.5645 104.076 83.4074 104.881 82.9186 106.169C82.9144 106.177 82.9103 106.177 82.9103 106.182Z" fill="#EB0029"/>
<path d="M93.032 60.0945C91.3569 55.268 86.3816 53.1704 82.3045 51.0814C76.2765 47.9922 71.5394 43.5641 65.9124 39.8266C60.933 36.5256 54.9927 34.1823 48.9773 35.3349C45.2009 36.0595 42.5859 39.0808 39.4069 41.0512C36.1652 43.0598 32.9111 42.403 29.377 42.1318C25.7761 41.8606 24.385 43.6573 22.5887 46.6362C20.0238 50.8949 16.2558 53.3442 12.3332 56.018C7.29947 59.2385 7.2577 66.4337 9.87692 71.5441C12.0366 75.9723 7.61278 79.9131 8.76156 84.7608C9.30462 87.4431 9.55109 89.6127 8.95372 92.4645C8.61535 93.5917 7.70885 95.1808 7.80076 96.524C8.00963 100.711 15.0402 102.016 18.2025 102.859C23.5203 104.279 28.7378 107.08 33.9638 108.897C43.3503 112.165 50.0258 119.75 59.7591 121.868C64.2122 122.839 67.834 120.601 70.4365 116.923C73.0516 113.22 74.9481 108.995 77.8222 105.491C80.6294 102.067 84.5478 99.9818 87.4636 96.6766C89.4437 94.435 90.3961 92.0111 90.8556 89.4686C91.4864 85.9685 91.1857 82.3878 91.3068 78.8495C91.5157 72.6374 95.1792 66.2727 93.032 60.0945Z" fill="#EB0029"/>
<path d="M3.67349 76.7268C3.67349 77.4769 3.07613 78.0828 2.33673 78.0828C1.59733 78.0828 0.999969 77.4769 0.999969 76.7268C0.999969 75.9768 1.59733 75.3708 2.33673 75.3708C3.07613 75.3751 3.67349 75.981 3.67349 76.7268Z" stroke="white" stroke-width="2" stroke-miterlimit="10"/>
<path d="M81.373 121.644C81.373 122.394 80.7756 123 80.0362 123C79.2968 123 78.6995 122.394 78.6995 121.644C78.6995 120.894 79.2968 120.288 80.0362 120.288C80.7756 120.293 81.373 120.899 81.373 121.644Z" stroke="white" stroke-width="2" stroke-miterlimit="10"/>
<path d="M14.5974 46.8434C14.5974 48.0341 13.645 49.0003 12.4711 49.0003C11.2973 49.0003 10.3448 48.0341 10.3448 46.8434C10.3448 45.6527 11.2973 44.6865 12.4711 44.6865C13.645 44.6865 14.5974 45.6527 14.5974 46.8434Z" fill="white"/>
<path d="M99.9999 60.5352C99.9999 61.5733 99.1728 62.4124 98.1493 62.4124C97.1301 62.4124 96.2988 61.5733 96.2988 60.5352C96.2988 59.5012 97.1259 58.658 98.1493 58.658C99.1728 58.658 99.9999 59.497 99.9999 60.5352Z" fill="#EB0029"/>
<path d="M98.1869 72.6673C98.1869 73.1631 97.7901 73.5614 97.3055 73.5614C96.8167 73.5614 96.4241 73.1588 96.4241 72.6673C96.4241 72.1715 96.8167 71.7732 97.3055 71.7732C97.7942 71.7732 98.1869 72.1715 98.1869 72.6673Z" fill="white"/>
<path d="M39.9626 117.69C39.9626 118.186 39.5657 118.585 39.0811 118.585C38.5924 118.585 38.1997 118.182 38.1997 117.69C38.1997 117.195 38.5924 116.796 39.0811 116.796C39.5657 116.796 39.9626 117.195 39.9626 117.69Z" fill="white"/>
<path d="M30.342 34.9706C30.342 35.7291 29.7363 36.3435 28.9885 36.3435C28.2408 36.3435 27.635 35.7291 27.635 34.9706C27.635 34.2121 28.2408 33.5977 28.9885 33.5977C29.7363 33.5977 30.342 34.2121 30.342 34.9706Z" fill="#EB0029"/>
<path d="M92.3637 111.86C92.3261 112.974 91.4029 113.847 90.3001 113.809C89.2014 113.771 88.3409 112.834 88.3785 111.716C88.4161 110.601 89.3393 109.728 90.4421 109.771C91.5408 109.809 92.4013 110.745 92.3637 111.86Z" fill="white"/>
<path d="M88.1612 34.424C88.1612 35.2122 87.5304 35.8478 86.7576 35.8478C85.9806 35.8478 85.354 35.2122 85.354 34.424C85.354 33.6359 85.9806 33.0002 86.7576 33.0002C87.5346 33.0002 88.1612 33.6359 88.1612 34.424Z" fill="#EB0029"/>
</svg>
