<svg width="234" height="243" viewBox="0 0 234 243" fill="none" xmlns="http://www.w3.org/2000/svg">
<circle cx="14.5476" cy="227.463" r="13.7818" transform="rotate(-176.721 14.5476 227.463)" fill="white"/>
<circle cx="48.3622" cy="187.987" r="23.626" transform="rotate(-176.721 48.3622 187.987)" fill="white"/>
<path d="M147.476 32.411C156.551 20.956 169.291 31.9645 178.869 36.0397C182.327 37.508 186.584 38.5625 190.368 38.3698C193.838 38.1926 197.009 37.0539 199.728 34.8866C201.61 33.3816 203.828 31.0518 206.463 31.5036C208.233 31.8056 210.181 34.3323 210.649 35.9385C211.241 37.9779 210.688 40.1524 209.527 41.8658C203.144 51.3275 191.279 47.631 182.833 43.7877C179.34 42.2004 175.818 40.5446 172.447 38.7052C168.781 36.6985 164.989 33.8656 160.668 35.0972C157.401 36.0298 156.646 39.5798 154.695 41.8497C152.109 44.852 147.651 42.8668 146.461 39.4893C145.788 37.5623 146.18 34.0415 147.476 32.411Z" fill="white"/>
<path d="M88.3028 173.02C87.014 172.077 85.4831 171.622 84.1461 170.801C82.3279 169.753 81.6522 167.6 80.8032 165.738C79.9175 163.798 79.2583 161.789 77.8637 160.104C76.5141 158.498 75.0106 157.133 73.326 155.908C71.3463 154.516 68.8139 153.711 66.4265 153.106C64.0233 152.492 60.9023 151.896 58.5993 153.126C57.639 153.639 56.8972 154.507 56.7671 155.628C56.6826 156.384 56.9078 157.917 57.4771 158.477C59.2065 160.214 62.7208 160.991 65.0916 161.453C67.4542 161.914 69.825 162.376 72.2161 162.772C74.0777 163.063 76.0651 163.603 77.3421 165.038C78.6757 166.493 79.4162 168.667 80.0511 170.525C80.7108 172.526 82.2063 174.751 83.7824 176.287C84.9099 177.313 87.6686 178.482 88.952 177.361C90.6063 175.951 89.8418 174.052 88.3028 173.02Z" fill="white"/>
<path d="M71.1023 35.1116C71.4886 34.2646 72.6449 31.4813 71.4448 31.0031C70.6554 30.6904 68.8206 32.2315 68.2075 32.5808C66.7084 33.4392 65.0866 34.2822 63.4274 34.7721C59.0283 36.0661 54.3796 36.1089 50.0265 37.606C46.1529 38.9301 42.8388 41.2722 40.3982 44.6171C36.3699 49.9351 35.6779 60.5751 44.1842 61.2128C48.5072 61.5357 48.7568 56.4609 49.64 53.4112C50.1329 51.7096 50.6837 50.003 51.5467 48.4564C53.2351 45.4445 55.9977 43.9565 59.0731 42.7622C61.1629 41.946 63.2885 41.2238 65.3067 40.2197C67.6136 39.0649 69.9787 37.6127 71.0845 35.1356C71.0937 35.1194 71.1019 35.1199 71.1023 35.1116Z" fill="white"/>
<path d="M46.0168 124.561C48.7659 134.237 58.3091 138.92 66.0879 143.485C77.5887 150.236 86.4014 159.474 97.0409 167.454C106.457 174.503 117.869 179.778 129.823 178.19C137.327 177.191 142.808 171.547 149.278 168.032C155.876 164.449 162.199 166.106 169.115 167.037C176.162 167.976 179.099 164.601 182.965 158.948C188.486 150.866 196.169 146.476 204.18 141.662C214.437 135.898 215.33 121.76 210.757 111.42C207.01 102.473 216.15 95.2248 214.437 85.5668C213.672 80.2332 213.432 75.9409 214.927 70.4026C215.719 68.2252 217.68 65.2038 217.651 62.5531C217.712 54.3003 204.039 50.9431 197.918 48.9295C187.626 45.5403 177.685 39.4471 167.618 35.2854C149.536 27.8065 137.268 12.1454 118.375 6.88467C109.731 4.4758 102.36 8.46573 96.8306 15.4024C91.2733 22.3876 87.0697 30.4783 81.0258 37.0429C75.1223 43.4568 67.1855 47.1135 61.0819 53.2819C56.9374 57.4651 54.7923 62.1221 53.6028 67.0679C51.9687 73.8768 52.1567 80.9489 51.5201 87.8901C50.41 100.077 42.4921 112.175 46.0168 124.561Z" fill="white"/>
<path d="M223.534 101.932C223.618 100.457 224.861 99.3334 226.314 99.4167C227.767 99.5 228.873 100.758 228.789 102.233C228.704 103.707 227.462 104.831 226.009 104.747C224.556 104.656 223.45 103.397 223.534 101.932Z" stroke="white" stroke-width="2" stroke-miterlimit="10"/>
<path d="M75.8654 4.89149C75.9498 3.41722 77.1923 2.2934 78.6456 2.37667C80.099 2.45994 81.2049 3.7183 81.1205 5.19257C81.036 6.66685 79.7936 7.79064 78.3402 7.70737C76.8873 7.61577 75.7814 6.35744 75.8654 4.89149Z" stroke="white" stroke-width="2" stroke-miterlimit="10"/>
<path d="M198.696 159.441C198.83 157.1 200.811 155.308 203.119 155.441C205.426 155.573 207.189 157.579 207.055 159.92C206.921 162.26 204.94 164.052 202.633 163.92C200.325 163.788 198.562 161.781 198.696 159.441Z" fill="white"/>
<path d="M32.3702 122.91C32.4872 120.869 34.2075 119.313 36.2192 119.429C38.2227 119.543 39.7622 121.286 39.6453 123.327C39.5289 125.359 37.8081 126.923 35.7964 126.808C33.7847 126.693 32.2533 124.951 32.3702 122.91Z" fill="white"/>
<path d="M37.3002 99.2676C37.356 98.2931 38.1809 97.5549 39.1334 97.6094C40.0941 97.6645 40.8206 98.5 40.7652 99.4662C40.7094 100.441 39.8927 101.179 38.932 101.124C37.9713 101.069 37.2443 100.242 37.3002 99.2676Z" fill="white"/>
<path d="M156.817 17.3267C156.873 16.3522 157.698 15.614 158.65 15.6685C159.611 15.7236 160.337 16.5591 160.282 17.5253C160.226 18.4998 159.409 19.2385 158.449 19.1835C157.496 19.1289 156.761 18.3013 156.817 17.3267Z" fill="white"/>
<path d="M166.412 181.004C166.497 179.513 167.757 178.374 169.227 178.458C170.696 178.542 171.818 179.818 171.732 181.309C171.647 182.8 170.387 183.94 168.917 183.855C167.448 183.771 166.326 182.495 166.412 181.004Z" fill="white"/>
<path d="M53.1601 22.8862C53.3595 20.6998 55.2724 19.088 57.4359 19.2871C59.5911 19.4858 61.1771 21.4235 60.9772 23.6182C60.7778 25.8045 58.8649 27.4164 56.7019 27.2089C54.5467 27.0102 52.9607 25.0725 53.1601 22.8862Z" fill="white"/>
<path d="M52.7 175.567C52.7888 174.018 54.1002 172.84 55.6193 172.927C57.1465 173.014 58.3066 174.334 58.2178 175.884C58.1291 177.433 56.8258 178.612 55.2986 178.524C53.7713 178.437 52.6112 177.117 52.7 175.567Z" fill="white"/>
</svg>
