<svg width="79" height="71" viewBox="0 0 79 71" fill="none" xmlns="http://www.w3.org/2000/svg">
<path d="M35.0845 59.71C31.7208 64.4329 26.3791 60.379 22.4592 58.9882C21.0439 58.4872 19.3193 58.1675 17.8119 58.329C16.4296 58.4773 15.1887 58.9981 14.152 59.9143C13.4345 60.5504 12.6018 61.5194 11.5387 61.4007C10.8245 61.3216 9.98852 60.3692 9.76471 59.7462C9.48166 58.9552 9.65281 58.0851 10.0774 57.3831C12.4109 53.5072 17.2359 54.697 20.6983 56.022C22.13 56.5691 23.5749 57.1425 24.9638 57.7918C26.4745 58.5004 28.0543 59.532 29.7526 58.9486C31.0362 58.507 31.2568 57.0898 31.9841 56.1505C32.9485 54.908 34.7751 55.5902 35.3281 56.8953C35.6407 57.6402 35.565 59.0376 35.0845 59.71Z" fill="#EB0029"/>
<path d="M55.5068 2.91683C56.0433 3.2596 56.6653 3.40461 57.2183 3.69794C57.9687 4.07037 58.2879 4.90422 58.6697 5.61941C59.068 6.36427 59.3774 7.14208 59.9731 7.77488C60.549 8.37801 61.181 8.88228 61.882 9.32721C62.7048 9.83147 63.735 10.0918 64.7026 10.2764C65.6769 10.4643 66.9374 10.6291 67.8294 10.0918C68.2013 9.86772 68.4777 9.50848 68.5041 9.06354C68.5205 8.76362 68.3954 8.16378 68.1552 7.95615C67.4245 7.31017 66.0027 7.08276 65.0449 6.95422C64.0905 6.82568 63.1327 6.69714 62.1684 6.59497C61.4179 6.52246 60.6116 6.35437 60.0685 5.81716C59.5024 5.27334 59.1568 4.43291 58.8606 3.71442C58.5512 2.9399 57.9029 2.09617 57.238 1.526C56.7641 1.14698 55.6352 0.748179 55.1481 1.21948C54.5194 1.81273 54.8683 2.54441 55.5068 2.91683Z" fill="white"/>
<path d="M65.5354 56.9188C65.4004 57.2615 65.0022 58.3854 65.4926 58.5469C65.8151 58.6524 66.5129 58.0031 66.7499 57.8515C67.3291 57.4791 67.9578 57.1099 68.6094 56.8792C70.3374 56.2695 72.1936 56.1476 73.8985 55.4587C75.4158 54.849 76.6862 53.8504 77.5848 52.476C79.0724 50.2876 79.1053 46.0755 75.6923 46.0162C73.9578 45.9865 73.9742 47.9937 73.6912 49.2164C73.5332 49.8987 73.3522 50.5842 73.0428 51.2137C72.4372 52.4398 71.3675 53.089 70.1662 53.6295C69.35 53.9987 68.5173 54.3316 67.734 54.7732C66.8387 55.2807 65.927 55.907 65.542 56.9089C65.5387 56.9155 65.5354 56.9155 65.5354 56.9188Z" fill="#EB0029"/>
<path d="M73.5101 21.0734C72.1903 17.3195 68.2704 15.688 65.0581 14.0632C60.3088 11.6605 56.5765 8.21638 52.1432 5.30947C48.22 2.74202 43.5398 0.919428 38.8003 1.81589C35.825 2.37948 33.7647 4.7294 31.26 6.26196C28.706 7.82418 26.1421 7.31333 23.3576 7.1024C20.5206 6.89146 19.4246 8.28889 18.0093 10.6059C15.9885 13.9182 13.0197 15.8231 9.92922 17.9028C5.96323 20.4076 5.93032 26.004 7.99395 29.9787C9.69554 33.4228 6.21008 36.488 7.11518 40.2584C7.54305 42.3446 7.73723 44.0321 7.26658 46.2502C6.99999 47.1269 6.28578 48.3628 6.35818 49.4076C6.52275 52.6639 12.062 53.679 14.5535 54.3349C18.7433 55.4389 22.8541 57.6175 26.9715 59.0314C34.367 61.5725 39.6264 67.472 47.2951 69.1199C50.8036 69.8747 53.6571 68.1345 55.7076 65.2737C57.768 62.3931 59.2622 59.1072 61.5266 56.3816C63.7383 53.7185 66.8256 52.097 69.1229 49.5262C70.6829 47.7828 71.4333 45.8975 71.7954 43.92C72.2924 41.1977 72.0554 38.4127 72.1508 35.6607C72.3154 30.829 75.2019 25.8787 73.5101 21.0734Z" fill="#EB0029"/>
<path d="M3.10638 34.0097C3.10638 34.5931 2.63573 35.0644 2.05318 35.0644C1.47062 35.0644 0.999969 34.5931 0.999969 34.0097C0.999969 33.4264 1.47062 32.9551 2.05318 32.9551C2.63573 32.9584 3.10638 33.4297 3.10638 34.0097Z" stroke="white" stroke-width="2" stroke-miterlimit="10"/>
<path d="M64.3242 68.9455C64.3242 69.5289 63.8535 70.0002 63.271 70.0002C62.6884 70.0002 62.2178 69.5289 62.2178 68.9455C62.2178 68.3622 62.6884 67.8909 63.271 67.8909C63.8535 67.8942 64.3242 68.3655 64.3242 68.9455Z" stroke="white" stroke-width="2" stroke-miterlimit="10"/>
<path d="M11.7131 10.7669C11.7131 11.6931 10.9627 12.4445 10.0379 12.4445C9.11303 12.4445 8.36261 11.6931 8.36261 10.7669C8.36261 9.8408 9.11303 9.08936 10.0379 9.08936C10.9627 9.08936 11.7131 9.8408 11.7131 10.7669Z" fill="white"/>
<path d="M79 21.4161C79 22.2236 78.3483 22.8762 77.542 22.8762C76.7389 22.8762 76.0839 22.2236 76.0839 21.4161C76.0839 20.6119 76.7356 19.9561 77.542 19.9561C78.3483 19.9561 79 20.6086 79 21.4161Z" fill="#EB0029"/>
<path d="M77.5716 30.8522C77.5716 31.2378 77.2589 31.5476 76.8771 31.5476C76.492 31.5476 76.1826 31.2345 76.1826 30.8522C76.1826 30.4665 76.492 30.1567 76.8771 30.1567C77.2622 30.1567 77.5716 30.4665 77.5716 30.8522Z" fill="white"/>
<path d="M31.6978 65.8702C31.6978 66.2558 31.3851 66.5656 31.0034 66.5656C30.6183 66.5656 30.3089 66.2525 30.3089 65.8702C30.3089 65.4846 30.6183 65.1748 31.0034 65.1748C31.3851 65.1748 31.6978 65.4846 31.6978 65.8702Z" fill="white"/>
<path d="M24.118 1.53244C24.118 2.1224 23.6407 2.60029 23.0516 2.60029C22.4624 2.60029 21.9852 2.1224 21.9852 1.53244C21.9852 0.942491 22.4624 0.4646 23.0516 0.4646C23.6407 0.4646 24.118 0.942491 24.118 1.53244Z" fill="#EB0029"/>
<path d="M72.9836 61.3355C72.954 62.2023 72.2266 62.8812 71.3577 62.8515C70.4921 62.8219 69.8141 62.0935 69.8437 61.2234C69.8733 60.3566 70.6007 59.6777 71.4696 59.7106C72.3352 59.7403 73.0132 60.4687 72.9836 61.3355Z" fill="white"/>
<path d="M69.6725 1.1074C69.6725 1.72042 69.1755 2.21479 68.5666 2.21479C67.9545 2.21479 67.4608 1.72042 67.4608 1.1074C67.4608 0.494374 67.9545 0 68.5666 0C69.1788 0 69.6725 0.494374 69.6725 1.1074Z" fill="#EB0029"/>
</svg>
